<svg xmlns="http://www.w3.org/2000/svg" xmlns:xlink="http://www.w3.org/1999/xlink" width="500" zoomAndPan="magnify" viewBox="0 0 375 374.999991" height="500" preserveAspectRatio="xMidYMid meet" version="1.0"><defs><g/><clipPath id="b2641ee706"><path d="M 82.714844 101 L 172 101 L 172 192 L 82.714844 192 Z M 82.714844 101 " clip-rule="nonzero"/></clipPath><clipPath id="c149396bce"><path d="M 185.351562 198.902344 L 232 198.902344 L 232 245.601562 L 185.351562 245.601562 Z M 185.351562 198.902344 " clip-rule="nonzero"/></clipPath><clipPath id="06e89118f7"><path d="M 202.65625 120.277344 L 291.945312 120.277344 L 291.945312 209.816406 L 202.65625 209.816406 Z M 202.65625 120.277344 " clip-rule="nonzero"/></clipPath><clipPath id="ed81c74d78"><path d="M 90 46.859375 L 145 46.859375 L 145 102 L 90 102 Z M 90 46.859375 " clip-rule="nonzero"/></clipPath></defs><g clip-path="url(#b2641ee706)"><path fill="#4f4c4c" d="M 127.292969 176.050781 C 111.066406 176.050781 97.914062 162.859375 97.914062 146.582031 C 97.914062 130.304688 111.066406 117.109375 127.292969 117.109375 C 143.519531 117.109375 156.671875 130.304688 156.671875 146.582031 C 156.671875 162.859375 143.519531 176.050781 127.292969 176.050781 Z M 161.667969 155.796875 C 162.199219 153.796875 163.761719 152.234375 165.765625 151.734375 L 171.695312 150.246094 C 171.796875 149.035156 171.84375 147.816406 171.84375 146.582031 C 171.84375 145.355469 171.796875 144.144531 171.699219 142.949219 L 165.769531 141.457031 C 163.765625 140.953125 162.207031 139.390625 161.675781 137.390625 C 161.667969 137.367188 161.664062 137.34375 161.65625 137.316406 C 161.121094 135.316406 161.695312 133.183594 163.179688 131.746094 L 167.582031 127.476562 C 166.539062 125.265625 165.320312 123.152344 163.941406 121.160156 L 158.050781 122.847656 C 156.066406 123.414062 153.9375 122.84375 152.480469 121.378906 C 152.464844 121.363281 152.449219 121.347656 152.433594 121.332031 C 150.972656 119.867188 150.40625 117.734375 150.976562 115.742188 L 152.660156 109.832031 C 150.675781 108.449219 148.570312 107.226562 146.367188 106.179688 L 142.109375 110.59375 C 140.671875 112.078125 138.546875 112.652344 136.550781 112.113281 C 136.527344 112.109375 136.503906 112.101562 136.480469 112.097656 C 134.484375 111.5625 132.929688 109.996094 132.429688 107.988281 L 130.949219 102.035156 C 129.742188 101.9375 128.523438 101.886719 127.292969 101.886719 C 126.074219 101.886719 124.867188 101.9375 123.671875 102.03125 L 122.1875 107.984375 C 121.683594 109.992188 120.128906 111.558594 118.132812 112.089844 C 118.109375 112.09375 118.085938 112.101562 118.0625 112.105469 C 116.066406 112.644531 113.941406 112.070312 112.507812 110.582031 L 108.25 106.164062 C 106.046875 107.210938 103.941406 108.433594 101.953125 109.8125 L 103.636719 115.726562 C 104.203125 117.714844 103.632812 119.851562 102.171875 121.3125 C 102.15625 121.328125 102.140625 121.34375 102.125 121.359375 C 100.667969 122.824219 98.539062 123.394531 96.554688 122.824219 L 90.664062 121.132812 C 89.285156 123.125 88.0625 125.234375 87.019531 127.445312 L 91.417969 131.71875 C 92.902344 133.160156 93.472656 135.292969 92.9375 137.292969 C 92.929688 137.316406 92.925781 137.339844 92.917969 137.363281 C 92.386719 139.363281 90.824219 140.925781 88.824219 141.425781 L 82.890625 142.914062 C 82.789062 144.125 82.742188 145.34375 82.742188 146.582031 C 82.742188 147.804688 82.789062 149.015625 82.886719 150.210938 L 88.820312 151.703125 C 90.820312 152.207031 92.378906 153.769531 92.910156 155.769531 C 92.917969 155.792969 92.921875 155.816406 92.929688 155.84375 C 93.464844 157.839844 92.890625 159.976562 91.40625 161.414062 L 87.003906 165.683594 C 88.046875 167.894531 89.265625 170.007812 90.644531 172 L 96.535156 170.3125 C 98.519531 169.746094 100.648438 170.3125 102.105469 171.78125 C 102.121094 171.796875 102.136719 171.8125 102.152344 171.828125 C 103.613281 173.289062 104.179688 175.425781 103.609375 177.417969 L 101.925781 183.328125 C 103.910156 184.707031 106.015625 185.933594 108.21875 186.980469 L 112.480469 182.566406 C 113.914062 181.082031 116.042969 180.507812 118.035156 181.042969 C 118.058594 181.050781 118.082031 181.058594 118.105469 181.0625 C 120.101562 181.597656 121.65625 183.164062 122.15625 185.171875 L 123.636719 191.125 C 124.84375 191.222656 126.0625 191.273438 127.292969 191.273438 C 128.511719 191.273438 129.71875 191.222656 130.914062 191.128906 L 132.402344 185.175781 C 132.902344 183.167969 134.457031 181.605469 136.453125 181.070312 C 136.476562 181.066406 136.5 181.058594 136.527344 181.050781 C 138.519531 180.515625 140.644531 181.089844 142.078125 182.578125 L 146.335938 186.996094 C 148.539062 185.949219 150.644531 184.726562 152.632812 183.34375 L 150.949219 177.433594 C 150.386719 175.445312 150.953125 173.308594 152.414062 171.847656 C 152.429688 171.832031 152.445312 171.816406 152.460938 171.800781 C 153.917969 170.335938 156.046875 169.765625 158.03125 170.335938 L 163.925781 172.027344 C 165.300781 170.035156 166.523438 167.925781 167.566406 165.714844 L 163.167969 161.441406 C 161.683594 160 161.113281 157.867188 161.648438 155.867188 C 161.65625 155.84375 161.660156 155.820312 161.667969 155.796875 " fill-opacity="1" fill-rule="nonzero"/></g><path fill="#4f4c4c" d="M 197.945312 124.828125 C 182.914062 124.828125 170.726562 112.605469 170.726562 97.527344 C 170.726562 82.449219 182.914062 70.226562 197.945312 70.226562 C 212.976562 70.226562 225.160156 82.449219 225.160156 97.527344 C 225.160156 112.605469 212.976562 124.828125 197.945312 124.828125 Z M 229.789062 106.066406 C 230.28125 104.210938 231.726562 102.765625 233.582031 102.300781 L 239.078125 100.921875 C 239.167969 99.804688 239.214844 98.671875 239.214844 97.527344 C 239.214844 96.394531 239.171875 95.273438 239.082031 94.164062 L 233.585938 92.78125 C 231.730469 92.3125 230.285156 90.867188 229.796875 89.015625 C 229.789062 88.992188 229.78125 88.96875 229.777344 88.945312 C 229.28125 87.09375 229.8125 85.117188 231.1875 83.785156 L 235.265625 79.832031 C 234.296875 77.78125 233.167969 75.828125 231.894531 73.980469 L 226.4375 75.542969 C 224.597656 76.070312 222.625 75.539062 221.277344 74.183594 C 221.261719 74.167969 221.246094 74.152344 221.234375 74.140625 C 219.882812 72.785156 219.355469 70.804688 219.882812 68.960938 L 221.445312 63.488281 C 219.605469 62.207031 217.65625 61.074219 215.613281 60.101562 L 211.667969 64.1875 C 210.335938 65.566406 208.367188 66.097656 206.523438 65.601562 C 206.5 65.59375 206.476562 65.589844 206.453125 65.582031 C 204.605469 65.089844 203.167969 63.636719 202.703125 61.777344 L 201.328125 56.261719 C 200.210938 56.171875 199.082031 56.125 197.945312 56.125 C 196.816406 56.125 195.695312 56.171875 194.589844 56.261719 L 193.210938 61.773438 C 192.746094 63.632812 191.308594 65.082031 189.457031 65.574219 C 189.4375 65.582031 189.414062 65.589844 189.390625 65.59375 C 187.546875 66.089844 185.574219 65.558594 184.246094 64.179688 L 180.304688 60.089844 C 178.261719 61.058594 176.3125 62.191406 174.472656 63.46875 L 176.027344 68.945312 C 176.554688 70.789062 176.027344 72.765625 174.671875 74.121094 C 174.660156 74.136719 174.644531 74.148438 174.628906 74.164062 C 173.277344 75.519531 171.308594 76.046875 169.46875 75.519531 L 164.011719 73.953125 C 162.734375 75.800781 161.605469 77.753906 160.636719 79.800781 L 164.710938 83.761719 C 166.085938 85.09375 166.613281 87.070312 166.117188 88.921875 C 166.113281 88.945312 166.105469 88.96875 166.101562 88.988281 C 165.605469 90.84375 164.160156 92.289062 162.304688 92.753906 L 156.808594 94.132812 C 156.71875 95.25 156.671875 96.382812 156.671875 97.527344 C 156.671875 98.660156 156.71875 99.78125 156.808594 100.890625 L 162.300781 102.273438 C 164.15625 102.738281 165.601562 104.1875 166.09375 106.039062 C 166.101562 106.0625 166.105469 106.085938 166.113281 106.105469 C 166.605469 107.960938 166.074219 109.933594 164.703125 111.269531 L 160.621094 115.222656 C 161.589844 117.273438 162.71875 119.230469 163.992188 121.074219 L 169.453125 119.511719 C 171.289062 118.988281 173.261719 119.515625 174.613281 120.871094 C 174.625 120.886719 174.640625 120.902344 174.65625 120.914062 C 176.007812 122.269531 176.53125 124.25 176.007812 126.09375 L 174.445312 131.566406 C 176.285156 132.847656 178.234375 133.980469 180.273438 134.953125 L 184.222656 130.863281 C 185.550781 129.488281 187.519531 128.957031 189.367188 129.453125 C 189.390625 129.460938 189.410156 129.464844 189.433594 129.472656 C 191.28125 129.964844 192.722656 131.417969 193.183594 133.277344 L 194.558594 138.792969 C 195.675781 138.882812 196.804688 138.929688 197.945312 138.929688 C 199.074219 138.929688 200.191406 138.882812 201.296875 138.792969 L 202.675781 133.28125 C 203.140625 131.421875 204.582031 129.972656 206.429688 129.480469 C 206.453125 129.472656 206.472656 129.46875 206.496094 129.460938 C 208.34375 128.964844 210.3125 129.496094 211.640625 130.875 L 215.585938 134.96875 C 217.625 133.996094 219.578125 132.863281 221.417969 131.585938 L 219.859375 126.109375 C 219.335938 124.265625 219.863281 122.289062 221.214844 120.933594 C 221.230469 120.917969 221.242188 120.90625 221.257812 120.890625 C 222.609375 119.53125 224.582031 119.007812 226.417969 119.535156 L 231.875 121.101562 C 233.152344 119.253906 234.285156 117.300781 235.253906 115.253906 L 231.175781 111.292969 C 229.804688 109.960938 229.273438 107.984375 229.769531 106.132812 C 229.777344 106.109375 229.78125 106.085938 229.789062 106.066406 " fill-opacity="1" fill-rule="nonzero"/><g clip-path="url(#c149396bce)"><path fill="#4f4c4c" d="M 208.648438 237.652344 C 200.171875 237.652344 193.300781 230.757812 193.300781 222.257812 C 193.300781 213.753906 200.171875 206.863281 208.648438 206.863281 C 217.125 206.863281 223.992188 213.753906 223.992188 222.257812 C 223.992188 230.757812 217.125 237.652344 208.648438 237.652344 Z M 226.601562 227.070312 C 226.882812 226.023438 227.695312 225.210938 228.742188 224.949219 L 231.839844 224.171875 C 231.890625 223.539062 231.917969 222.902344 231.917969 222.257812 C 231.917969 221.617188 231.894531 220.984375 231.84375 220.359375 L 228.746094 219.582031 C 227.699219 219.316406 226.882812 218.503906 226.605469 217.457031 C 226.605469 217.445312 226.601562 217.433594 226.597656 217.417969 C 226.316406 216.375 226.617188 215.261719 227.390625 214.507812 L 229.691406 212.277344 C 229.148438 211.125 228.511719 210.019531 227.789062 208.980469 L 224.714844 209.859375 C 223.675781 210.15625 222.566406 209.859375 221.804688 209.09375 C 221.796875 209.085938 221.789062 209.078125 221.78125 209.070312 C 221.015625 208.304688 220.722656 207.191406 221.019531 206.148438 L 221.898438 203.0625 C 220.859375 202.339844 219.761719 201.703125 218.609375 201.152344 L 216.386719 203.460938 C 215.636719 204.238281 214.527344 204.535156 213.484375 204.253906 C 213.472656 204.25 213.460938 204.25 213.445312 204.246094 C 212.40625 203.964844 211.59375 203.148438 211.332031 202.097656 L 210.558594 198.988281 C 209.925781 198.9375 209.289062 198.910156 208.648438 198.910156 C 208.011719 198.910156 207.382812 198.9375 206.757812 198.988281 L 205.980469 202.097656 C 205.71875 203.144531 204.90625 203.964844 203.863281 204.242188 C 203.851562 204.246094 203.839844 204.25 203.824219 204.25 C 202.785156 204.53125 201.675781 204.230469 200.925781 203.453125 L 198.703125 201.144531 C 197.550781 201.691406 196.449219 202.332031 195.414062 203.054688 L 196.289062 206.140625 C 196.585938 207.179688 196.289062 208.296875 195.527344 209.058594 C 195.519531 209.066406 195.511719 209.074219 195.503906 209.085938 C 194.742188 209.847656 193.628906 210.144531 192.59375 209.847656 L 189.515625 208.964844 C 188.796875 210.003906 188.160156 211.109375 187.613281 212.261719 L 189.910156 214.496094 C 190.683594 215.246094 190.984375 216.359375 190.703125 217.40625 C 190.699219 217.417969 190.695312 217.429688 190.691406 217.445312 C 190.414062 218.488281 189.597656 219.304688 188.554688 219.566406 L 185.453125 220.339844 C 185.402344 220.972656 185.375 221.613281 185.375 222.257812 C 185.375 222.894531 185.402344 223.527344 185.453125 224.152344 L 188.550781 224.933594 C 189.597656 225.195312 190.414062 226.011719 190.691406 227.058594 C 190.691406 227.070312 190.695312 227.082031 190.699219 227.09375 C 190.980469 228.140625 190.679688 229.253906 189.90625 230.003906 L 187.605469 232.234375 C 188.148438 233.390625 188.785156 234.492188 189.503906 235.535156 L 192.582031 234.652344 C 193.621094 234.355469 194.730469 234.652344 195.492188 235.417969 C 195.5 235.429688 195.507812 235.4375 195.515625 235.445312 C 196.277344 236.207031 196.574219 237.324219 196.277344 238.363281 L 195.398438 241.449219 C 196.433594 242.171875 197.535156 242.8125 198.683594 243.359375 L 200.910156 241.054688 C 201.660156 240.277344 202.769531 239.976562 203.8125 240.257812 C 203.824219 240.261719 203.835938 240.265625 203.847656 240.269531 C 204.890625 240.546875 205.703125 241.367188 205.964844 242.414062 L 206.738281 245.523438 C 207.367188 245.574219 208.003906 245.601562 208.648438 245.601562 C 209.285156 245.601562 209.914062 245.574219 210.539062 245.523438 L 211.316406 242.417969 C 211.578125 241.367188 212.390625 240.550781 213.433594 240.273438 C 213.445312 240.269531 213.457031 240.265625 213.472656 240.261719 C 214.511719 239.984375 215.621094 240.28125 216.371094 241.058594 L 218.59375 243.367188 C 219.746094 242.820312 220.847656 242.183594 221.882812 241.460938 L 221.003906 238.371094 C 220.710938 237.332031 221.007812 236.21875 221.769531 235.453125 C 221.777344 235.445312 221.785156 235.4375 221.792969 235.429688 C 222.554688 234.664062 223.667969 234.367188 224.703125 234.664062 L 227.78125 235.550781 C 228.5 234.507812 229.136719 233.40625 229.683594 232.25 L 227.386719 230.019531 C 226.613281 229.265625 226.3125 228.152344 226.59375 227.109375 C 226.597656 227.09375 226.601562 227.082031 226.601562 227.070312 " fill-opacity="1" fill-rule="nonzero"/></g><g clip-path="url(#06e89118f7)"><path fill="#4f4c4c" d="M 247.394531 194.484375 C 231.167969 194.484375 218.015625 181.289062 218.015625 165.011719 C 218.015625 148.734375 231.167969 135.539062 247.394531 135.539062 C 263.621094 135.539062 276.773438 148.734375 276.773438 165.011719 C 276.773438 181.289062 263.621094 194.484375 247.394531 194.484375 Z M 281.769531 174.226562 C 282.300781 172.226562 283.863281 170.667969 285.867188 170.164062 L 291.800781 168.675781 C 291.898438 167.46875 291.949219 166.246094 291.949219 165.011719 C 291.949219 163.789062 291.898438 162.578125 291.804688 161.378906 L 285.871094 159.886719 C 283.867188 159.382812 282.308594 157.824219 281.777344 155.824219 C 281.773438 155.796875 281.765625 155.773438 281.757812 155.75 C 281.222656 153.75 281.796875 151.617188 283.28125 150.179688 L 287.683594 145.910156 C 286.640625 143.695312 285.421875 141.585938 284.046875 139.589844 L 278.152344 141.277344 C 276.167969 141.847656 274.039062 141.277344 272.582031 139.8125 C 272.566406 139.796875 272.550781 139.78125 272.535156 139.765625 C 271.078125 138.300781 270.507812 136.164062 271.078125 134.175781 L 272.761719 128.265625 C 270.777344 126.882812 268.671875 125.660156 266.46875 124.609375 L 262.210938 129.023438 C 260.773438 130.511719 258.648438 131.082031 256.65625 130.546875 C 256.628906 130.539062 256.605469 130.535156 256.582031 130.527344 C 254.585938 129.992188 253.03125 128.425781 252.53125 126.417969 L 251.050781 120.46875 C 249.84375 120.367188 248.625 120.316406 247.394531 120.316406 C 246.175781 120.316406 244.96875 120.367188 243.777344 120.464844 L 242.289062 126.414062 C 241.785156 128.421875 240.230469 129.988281 238.234375 130.519531 C 238.210938 130.527344 238.1875 130.53125 238.164062 130.539062 C 236.167969 131.074219 234.042969 130.5 232.609375 129.011719 L 228.351562 124.59375 C 226.148438 125.644531 224.042969 126.863281 222.054688 128.246094 L 223.738281 134.15625 C 224.304688 136.148438 223.734375 138.28125 222.273438 139.746094 C 222.257812 139.761719 222.242188 139.777344 222.226562 139.792969 C 220.769531 141.257812 218.640625 141.824219 216.65625 141.253906 L 210.765625 139.5625 C 209.386719 141.554688 208.167969 143.667969 207.121094 145.878906 L 211.523438 150.152344 C 213.003906 151.589844 213.574219 153.722656 213.039062 155.722656 C 213.035156 155.746094 213.027344 155.773438 213.019531 155.796875 C 212.488281 157.796875 210.925781 159.355469 208.925781 159.859375 L 202.992188 161.34375 C 202.894531 162.554688 202.84375 163.777344 202.84375 165.011719 C 202.84375 166.234375 202.890625 167.445312 202.988281 168.644531 L 208.921875 170.136719 C 210.921875 170.640625 212.484375 172.199219 213.011719 174.203125 C 213.019531 174.226562 213.027344 174.25 213.03125 174.273438 C 213.566406 176.273438 212.992188 178.40625 211.511719 179.84375 L 207.105469 184.113281 C 208.152344 186.324219 209.367188 188.4375 210.746094 190.433594 L 216.636719 188.746094 C 218.621094 188.175781 220.75 188.746094 222.207031 190.210938 C 222.222656 190.226562 222.238281 190.242188 222.253906 190.257812 C 223.714844 191.722656 224.28125 193.855469 223.714844 195.847656 L 222.027344 201.757812 C 224.015625 203.140625 226.117188 204.363281 228.320312 205.414062 L 232.582031 201 C 234.015625 199.511719 236.144531 198.9375 238.136719 199.476562 C 238.160156 199.484375 238.183594 199.488281 238.207031 199.496094 C 240.203125 200.027344 241.757812 201.59375 242.257812 203.605469 L 243.742188 209.558594 C 244.945312 209.65625 246.164062 209.707031 247.394531 209.707031 C 248.613281 209.707031 249.820312 209.65625 251.015625 209.558594 L 252.503906 203.609375 C 253.003906 201.601562 254.5625 200.035156 256.554688 199.503906 C 256.582031 199.496094 256.605469 199.488281 256.628906 199.484375 C 258.621094 198.949219 260.746094 199.523438 262.183594 201.011719 L 266.4375 205.429688 C 268.640625 204.382812 270.746094 203.160156 272.734375 201.777344 L 271.054688 195.867188 C 270.488281 193.875 271.054688 191.742188 272.515625 190.277344 C 272.53125 190.261719 272.546875 190.246094 272.5625 190.230469 C 274.023438 188.765625 276.148438 188.199219 278.132812 188.769531 L 284.027344 190.460938 C 285.402344 188.46875 286.625 186.355469 287.667969 184.144531 L 283.269531 179.875 C 281.789062 178.433594 281.214844 176.300781 281.75 174.300781 C 281.757812 174.277344 281.765625 174.25 281.769531 174.226562 " fill-opacity="1" fill-rule="nonzero"/></g><g clip-path="url(#ed81c74d78)"><path fill="#4f4c4c" d="M 117.605469 92.007812 C 107.726562 92.007812 99.722656 83.972656 99.722656 74.066406 C 99.722656 64.15625 107.726562 56.125 117.605469 56.125 C 127.480469 56.125 135.488281 64.15625 135.488281 74.066406 C 135.488281 83.972656 127.480469 92.007812 117.605469 92.007812 Z M 138.53125 79.675781 C 138.855469 78.457031 139.804688 77.507812 141.023438 77.203125 L 144.632812 76.296875 C 144.695312 75.5625 144.726562 74.816406 144.726562 74.066406 C 144.726562 73.320312 144.695312 72.582031 144.636719 71.855469 L 141.023438 70.945312 C 139.808594 70.640625 138.855469 69.691406 138.535156 68.472656 C 138.53125 68.457031 138.527344 68.441406 138.523438 68.429688 C 138.195312 67.210938 138.546875 65.910156 139.449219 65.035156 L 142.128906 62.4375 C 141.496094 61.089844 140.753906 59.804688 139.914062 58.59375 L 136.328125 59.617188 C 135.121094 59.964844 133.824219 59.617188 132.9375 58.726562 C 132.925781 58.714844 132.917969 58.707031 132.910156 58.695312 C 132.019531 57.804688 131.675781 56.507812 132.019531 55.292969 L 133.046875 51.699219 C 131.839844 50.855469 130.554688 50.109375 129.214844 49.472656 L 126.621094 52.160156 C 125.75 53.066406 124.453125 53.414062 123.242188 53.085938 C 123.226562 53.082031 123.210938 53.078125 123.195312 53.074219 C 121.984375 52.75 121.035156 51.796875 120.730469 50.574219 L 119.828125 46.949219 C 119.097656 46.890625 118.355469 46.859375 117.605469 46.859375 C 116.863281 46.859375 116.128906 46.890625 115.402344 46.949219 L 114.496094 50.570312 C 114.191406 51.792969 113.242188 52.746094 112.027344 53.070312 C 112.015625 53.074219 112 53.078125 111.984375 53.082031 C 110.773438 53.40625 109.476562 53.058594 108.601562 52.152344 L 106.011719 49.464844 C 104.671875 50.101562 103.390625 50.84375 102.179688 51.683594 L 103.203125 55.285156 C 103.546875 56.496094 103.203125 57.792969 102.3125 58.683594 C 102.304688 58.695312 102.292969 58.703125 102.285156 58.714844 C 101.394531 59.605469 100.101562 59.949219 98.894531 59.605469 L 95.308594 58.574219 C 94.46875 59.789062 93.726562 61.074219 93.089844 62.417969 L 95.769531 65.019531 C 96.667969 65.894531 97.015625 67.195312 96.691406 68.410156 C 96.6875 68.425781 96.683594 68.441406 96.679688 68.457031 C 96.355469 69.671875 95.40625 70.621094 94.1875 70.929688 L 90.574219 71.832031 C 90.515625 72.570312 90.484375 73.3125 90.484375 74.066406 C 90.484375 74.808594 90.515625 75.546875 90.574219 76.277344 L 94.183594 77.183594 C 95.402344 77.492188 96.351562 78.441406 96.675781 79.660156 C 96.679688 79.675781 96.683594 79.6875 96.6875 79.703125 C 97.011719 80.921875 96.664062 82.21875 95.761719 83.09375 L 93.078125 85.695312 C 93.714844 87.039062 94.457031 88.324219 95.296875 89.539062 L 98.882812 88.511719 C 100.089844 88.167969 101.386719 88.511719 102.273438 89.40625 C 102.28125 89.414062 102.292969 89.425781 102.300781 89.433594 C 103.191406 90.324219 103.535156 91.625 103.1875 92.835938 L 102.164062 96.433594 C 103.371094 97.277344 104.652344 98.019531 105.992188 98.660156 L 108.585938 95.972656 C 109.460938 95.066406 110.753906 94.71875 111.96875 95.046875 C 111.984375 95.050781 112 95.054688 112.011719 95.058594 C 113.226562 95.382812 114.171875 96.335938 114.476562 97.558594 L 115.378906 101.179688 C 116.113281 101.242188 116.855469 101.273438 117.605469 101.273438 C 118.347656 101.273438 119.082031 101.242188 119.808594 101.183594 L 120.714844 97.5625 C 121.019531 96.335938 121.964844 95.386719 123.179688 95.0625 C 123.195312 95.058594 123.210938 95.054688 123.226562 95.050781 C 124.4375 94.722656 125.734375 95.074219 126.605469 95.980469 L 129.195312 98.667969 C 130.539062 98.03125 131.820312 97.285156 133.03125 96.445312 L 132.007812 92.847656 C 131.660156 91.636719 132.007812 90.335938 132.898438 89.445312 C 132.90625 89.4375 132.917969 89.425781 132.925781 89.417969 C 133.8125 88.527344 135.109375 88.179688 136.316406 88.527344 L 139.902344 89.554688 C 140.742188 88.34375 141.484375 87.058594 142.121094 85.714844 L 139.441406 83.113281 C 138.539062 82.234375 138.191406 80.9375 138.519531 79.71875 C 138.523438 79.703125 138.527344 79.691406 138.53125 79.675781 " fill-opacity="1" fill-rule="nonzero"/></g><g fill="#4f4c4c" fill-opacity="1"><g transform="translate(0.0000045, 307.76517)"><g><path d="M 9.21875 0 L 9.21875 -88.421875 L 46.703125 -88.421875 C 50.773438 -88.421875 54.507812 -87.59375 57.90625 -85.9375 C 61.3125 -84.28125 64.28125 -82.039062 66.8125 -79.21875 C 69.351562 -76.394531 71.328125 -73.238281 72.734375 -69.75 C 74.148438 -66.257812 74.859375 -62.6875 74.859375 -59.03125 C 74.859375 -54.050781 73.691406 -49.316406 71.359375 -44.828125 C 69.035156 -40.347656 65.835938 -36.695312 61.765625 -33.875 C 57.703125 -31.050781 52.890625 -29.640625 47.328125 -29.640625 L 26.40625 -29.640625 L 26.40625 0 Z M 26.40625 -44.71875 L 46.328125 -44.71875 C 48.398438 -44.71875 50.265625 -45.296875 51.921875 -46.453125 C 53.585938 -47.617188 54.921875 -49.300781 55.921875 -51.5 C 56.921875 -53.695312 57.421875 -56.207031 57.421875 -59.03125 C 57.421875 -62.101562 56.859375 -64.71875 55.734375 -66.875 C 54.609375 -69.039062 53.15625 -70.660156 51.375 -71.734375 C 49.59375 -72.816406 47.660156 -73.359375 45.578125 -73.359375 L 26.40625 -73.359375 Z M 26.40625 -44.71875 "/></g></g></g><g fill="#4f4c4c" fill-opacity="1"><g transform="translate(77.594156, 307.76517)"><g><path d="M 46.453125 -50.8125 C 41.390625 -50.8125 36.863281 -49.835938 32.875 -47.890625 C 28.894531 -45.941406 26.03125 -43.140625 24.28125 -39.484375 L 24.28125 0 L 7.59375 0 L 7.59375 -65.265625 L 22.921875 -65.265625 L 22.921875 -51.3125 C 25.242188 -55.789062 28.1875 -59.316406 31.75 -61.890625 C 35.320312 -64.472656 39.101562 -65.890625 43.09375 -66.140625 C 44.007812 -66.140625 44.710938 -66.140625 45.203125 -66.140625 C 45.703125 -66.140625 46.117188 -66.097656 46.453125 -66.015625 Z M 46.453125 -50.8125 "/></g></g></g><g fill="#4f4c4c" fill-opacity="1"><g transform="translate(125.794668, 307.76517)"><g><path d="M 37.734375 1.25 C 32.421875 1.25 27.644531 0.359375 23.40625 -1.421875 C 19.175781 -3.210938 15.585938 -5.6875 12.640625 -8.84375 C 9.691406 -12 7.425781 -15.609375 5.84375 -19.671875 C 4.269531 -23.742188 3.484375 -28.019531 3.484375 -32.5 C 3.484375 -37.070312 4.269531 -41.390625 5.84375 -45.453125 C 7.425781 -49.523438 9.691406 -53.140625 12.640625 -56.296875 C 15.585938 -59.453125 19.175781 -61.921875 23.40625 -63.703125 C 27.644531 -65.492188 32.421875 -66.390625 37.734375 -66.390625 C 43.046875 -66.390625 47.796875 -65.492188 51.984375 -63.703125 C 56.179688 -61.921875 59.773438 -59.453125 62.765625 -56.296875 C 65.753906 -53.140625 68.015625 -49.523438 69.546875 -45.453125 C 71.085938 -41.390625 71.859375 -37.070312 71.859375 -32.5 C 71.859375 -28.019531 71.085938 -23.742188 69.546875 -19.671875 C 68.015625 -15.609375 65.773438 -12 62.828125 -8.84375 C 59.878906 -5.6875 56.285156 -3.210938 52.046875 -1.421875 C 47.816406 0.359375 43.046875 1.25 37.734375 1.25 Z M 20.671875 -32.5 C 20.671875 -28.6875 21.414062 -25.304688 22.90625 -22.359375 C 24.40625 -19.410156 26.441406 -17.101562 29.015625 -15.4375 C 31.585938 -13.78125 34.492188 -12.953125 37.734375 -12.953125 C 40.890625 -12.953125 43.753906 -13.800781 46.328125 -15.5 C 48.898438 -17.207031 50.953125 -19.535156 52.484375 -22.484375 C 54.023438 -25.429688 54.796875 -28.8125 54.796875 -32.625 C 54.796875 -36.363281 54.023438 -39.726562 52.484375 -42.71875 C 50.953125 -45.707031 48.898438 -48.03125 46.328125 -49.6875 C 43.753906 -51.351562 40.890625 -52.1875 37.734375 -52.1875 C 34.492188 -52.1875 31.585938 -51.332031 29.015625 -49.625 C 26.441406 -47.925781 24.40625 -45.601562 22.90625 -42.65625 C 21.414062 -39.707031 20.671875 -36.320312 20.671875 -32.5 Z M 20.671875 -32.5 "/></g></g></g><g fill="#4f4c4c" fill-opacity="1"><g transform="translate(201.271493, 307.76517)"><g><path d="M 3.609375 -32.625 C 3.609375 -38.9375 4.851562 -44.644531 7.34375 -49.75 C 9.832031 -54.863281 13.273438 -58.914062 17.671875 -61.90625 C 22.078125 -64.894531 27.101562 -66.390625 32.75 -66.390625 C 37.570312 -66.390625 41.910156 -65.203125 45.765625 -62.828125 C 49.628906 -60.460938 52.640625 -57.453125 54.796875 -53.796875 L 54.796875 -90.921875 L 71.484375 -90.921875 L 71.484375 -18.6875 C 71.484375 -16.9375 71.773438 -15.6875 72.359375 -14.9375 C 72.941406 -14.195312 73.9375 -13.742188 75.34375 -13.578125 L 75.34375 0 C 72.4375 0.582031 70.070312 0.875 68.25 0.875 C 65.257812 0.875 62.789062 0.128906 60.84375 -1.359375 C 58.894531 -2.859375 57.796875 -4.8125 57.546875 -7.21875 L 57.296875 -11.328125 C 54.878906 -7.265625 51.613281 -4.148438 47.5 -1.984375 C 43.394531 0.171875 39.101562 1.25 34.625 1.25 C 30.144531 1.25 26.015625 0.378906 22.234375 -1.359375 C 18.453125 -3.109375 15.171875 -5.519531 12.390625 -8.59375 C 9.609375 -11.664062 7.445312 -15.253906 5.90625 -19.359375 C 4.375 -23.472656 3.609375 -27.894531 3.609375 -32.625 Z M 54.796875 -23.90625 L 54.796875 -39.484375 C 53.972656 -41.890625 52.644531 -44.046875 50.8125 -45.953125 C 48.988281 -47.867188 46.953125 -49.382812 44.703125 -50.5 C 42.460938 -51.625 40.222656 -52.1875 37.984375 -52.1875 C 35.410156 -52.1875 33.085938 -51.644531 31.015625 -50.5625 C 28.941406 -49.488281 27.132812 -48.035156 25.59375 -46.203125 C 24.0625 -44.378906 22.898438 -42.265625 22.109375 -39.859375 C 21.316406 -37.453125 20.921875 -34.914062 20.921875 -32.25 C 20.921875 -29.59375 21.359375 -27.082031 22.234375 -24.71875 C 23.109375 -22.351562 24.375 -20.296875 26.03125 -18.546875 C 27.6875 -16.804688 29.613281 -15.4375 31.8125 -14.4375 C 34.019531 -13.445312 36.410156 -12.953125 38.984375 -12.953125 C 40.554688 -12.953125 42.148438 -13.222656 43.765625 -13.765625 C 45.390625 -14.304688 46.925781 -15.050781 48.375 -16 C 49.832031 -16.957031 51.117188 -18.117188 52.234375 -19.484375 C 53.359375 -20.859375 54.210938 -22.332031 54.796875 -23.90625 Z M 54.796875 -23.90625 "/></g></g></g><g fill="#1976d2" fill-opacity="1"><g transform="translate(281.636093, 307.76517)"><g><path d="M 46.703125 0.625 C 40.472656 0.625 34.828125 -0.640625 29.765625 -3.171875 C 24.703125 -5.703125 20.34375 -9.082031 16.6875 -13.3125 C 13.03125 -17.550781 10.207031 -22.347656 8.21875 -27.703125 C 6.226562 -33.066406 5.234375 -38.570312 5.234375 -44.21875 C 5.234375 -50.113281 6.269531 -55.738281 8.34375 -61.09375 C 10.414062 -66.445312 13.34375 -71.21875 17.125 -75.40625 C 20.90625 -79.601562 25.328125 -82.925781 30.390625 -85.375 C 35.453125 -87.820312 40.929688 -89.046875 46.828125 -89.046875 C 53.054688 -89.046875 58.703125 -87.757812 63.765625 -85.1875 C 68.828125 -82.613281 73.164062 -79.164062 76.78125 -74.84375 C 80.394531 -70.53125 83.195312 -65.71875 85.1875 -60.40625 C 87.175781 -55.09375 88.171875 -49.65625 88.171875 -44.09375 C 88.171875 -38.195312 87.132812 -32.570312 85.0625 -27.21875 C 82.988281 -21.863281 80.082031 -17.085938 76.34375 -12.890625 C 72.613281 -8.691406 68.210938 -5.390625 63.140625 -2.984375 C 58.078125 -0.578125 52.597656 0.625 46.703125 0.625 Z M 46.703125 -7.21875 C 51.765625 -7.21875 56.3125 -8.273438 60.34375 -10.390625 C 64.375 -12.515625 67.820312 -15.335938 70.6875 -18.859375 C 73.550781 -22.390625 75.726562 -26.351562 77.21875 -30.75 C 78.707031 -35.15625 79.453125 -39.644531 79.453125 -44.21875 C 79.453125 -49.03125 78.664062 -53.65625 77.09375 -58.09375 C 75.519531 -62.539062 73.257812 -66.488281 70.3125 -69.9375 C 67.363281 -73.382812 63.894531 -76.125 59.90625 -78.15625 C 55.914062 -80.1875 51.515625 -81.203125 46.703125 -81.203125 C 41.722656 -81.203125 37.21875 -80.144531 33.1875 -78.03125 C 29.164062 -75.914062 25.722656 -73.09375 22.859375 -69.5625 C 19.992188 -66.03125 17.789062 -62.0625 16.25 -57.65625 C 14.71875 -53.257812 13.953125 -48.78125 13.953125 -44.21875 C 13.953125 -39.394531 14.738281 -34.757812 16.3125 -30.3125 C 17.894531 -25.875 20.140625 -21.929688 23.046875 -18.484375 C 25.953125 -15.046875 29.414062 -12.304688 33.4375 -10.265625 C 37.46875 -8.234375 41.890625 -7.21875 46.703125 -7.21875 Z M 54.671875 -27.15625 L 63.265625 -27.15625 L 86.1875 0 L 77.59375 0 Z M 54.671875 -27.15625 "/></g></g></g></svg>