<svg xmlns="http://www.w3.org/2000/svg" xmlns:xlink="http://www.w3.org/1999/xlink" width="500" zoomAndPan="magnify" viewBox="0 0 375 374.999991" height="500" preserveAspectRatio="xMidYMid meet" version="1.0"><defs><g/><clipPath id="7d13c4de2f"><path d="M 82.714844 92 L 172 92 L 172 182 L 82.714844 182 Z M 82.714844 92 " clip-rule="nonzero"/></clipPath><clipPath id="a7de44c1f4"><path d="M 185.503906 189.292969 L 232.304688 189.292969 L 232.304688 235.914062 L 185.503906 235.914062 Z M 185.503906 189.292969 " clip-rule="nonzero"/></clipPath><clipPath id="d63da68477"><path d="M 203 110.796875 L 291.964844 110.796875 L 291.964844 200.191406 L 203 200.191406 Z M 203 110.796875 " clip-rule="nonzero"/></clipPath><clipPath id="b522f9b02a"><path d="M 90 37.5 L 145 37.5 L 145 92 L 90 92 Z M 90 37.5 " clip-rule="nonzero"/></clipPath></defs><g clip-path="url(#7d13c4de2f)"><path fill="#ffffff" d="M 127.359375 166.480469 C 111.109375 166.480469 97.9375 153.308594 97.9375 137.058594 C 97.9375 120.804688 111.109375 107.632812 127.359375 107.632812 C 143.609375 107.632812 156.785156 120.804688 156.785156 137.058594 C 156.785156 153.308594 143.609375 166.480469 127.359375 166.480469 Z M 161.789062 146.257812 C 162.320312 144.261719 163.882812 142.703125 165.890625 142.203125 L 171.832031 140.714844 C 171.929688 139.507812 171.980469 138.289062 171.980469 137.058594 C 171.980469 135.835938 171.929688 134.625 171.835938 133.429688 L 165.894531 131.941406 C 163.890625 131.4375 162.324219 129.878906 161.792969 127.882812 C 161.789062 127.859375 161.78125 127.832031 161.777344 127.808594 C 161.242188 125.8125 161.8125 123.683594 163.300781 122.246094 L 167.710938 117.984375 C 166.664062 115.777344 165.445312 113.667969 164.066406 111.679688 L 158.164062 113.363281 C 156.175781 113.929688 154.046875 113.359375 152.585938 111.898438 C 152.570312 111.882812 152.554688 111.867188 152.539062 111.851562 C 151.078125 110.390625 150.507812 108.257812 151.078125 106.269531 L 152.765625 100.371094 C 150.777344 98.992188 148.667969 97.769531 146.464844 96.722656 L 142.199219 101.128906 C 140.757812 102.613281 138.628906 103.183594 136.632812 102.648438 C 136.609375 102.640625 136.585938 102.636719 136.5625 102.628906 C 134.5625 102.097656 133.007812 100.53125 132.503906 98.527344 L 131.019531 92.585938 C 129.8125 92.488281 128.59375 92.4375 127.359375 92.4375 C 126.140625 92.4375 124.929688 92.484375 123.734375 92.582031 L 122.246094 98.523438 C 121.742188 100.527344 120.183594 102.089844 118.1875 102.621094 C 118.164062 102.628906 118.136719 102.636719 118.113281 102.640625 C 116.117188 103.175781 113.988281 102.601562 112.550781 101.117188 L 108.289062 96.707031 C 106.082031 97.753906 103.972656 98.972656 101.984375 100.351562 L 103.667969 106.253906 C 104.234375 108.242188 103.664062 110.371094 102.203125 111.832031 C 102.1875 111.847656 102.171875 111.863281 102.15625 111.878906 C 100.695312 113.339844 98.5625 113.90625 96.574219 113.339844 L 90.675781 111.648438 C 89.296875 113.640625 88.074219 115.746094 87.027344 117.953125 L 91.433594 122.21875 C 92.917969 123.65625 93.488281 125.785156 92.953125 127.785156 C 92.945312 127.808594 92.941406 127.832031 92.933594 127.855469 C 92.402344 129.851562 90.835938 131.410156 88.832031 131.910156 L 82.890625 133.398438 C 82.789062 134.605469 82.742188 135.824219 82.742188 137.058594 C 82.742188 138.277344 82.789062 139.488281 82.886719 140.683594 L 88.828125 142.171875 C 90.832031 142.675781 92.394531 144.234375 92.925781 146.230469 C 92.933594 146.253906 92.9375 146.277344 92.945312 146.304688 C 93.480469 148.300781 92.90625 150.429688 91.421875 151.867188 L 87.011719 156.128906 C 88.058594 158.335938 89.277344 160.445312 90.65625 162.433594 L 96.558594 160.75 C 98.546875 160.183594 100.675781 160.75 102.136719 162.214844 C 102.152344 162.230469 102.167969 162.246094 102.183594 162.261719 C 103.644531 163.722656 104.210938 165.855469 103.644531 167.839844 L 101.953125 173.742188 C 103.945312 175.121094 106.050781 176.34375 108.257812 177.390625 L 112.523438 172.984375 C 113.960938 171.5 116.089844 170.929688 118.089844 171.464844 C 118.113281 171.472656 118.136719 171.476562 118.160156 171.484375 C 120.15625 172.015625 121.714844 173.582031 122.214844 175.585938 L 123.699219 181.527344 C 124.90625 181.625 126.128906 181.675781 127.359375 181.675781 C 128.582031 181.675781 129.789062 181.625 130.988281 181.53125 L 132.476562 175.589844 C 132.976562 173.585938 134.535156 172.023438 136.535156 171.492188 C 136.558594 171.484375 136.582031 171.480469 136.605469 171.472656 C 138.601562 170.9375 140.734375 171.511719 142.167969 172.996094 L 146.433594 177.40625 C 148.640625 176.359375 150.75 175.140625 152.738281 173.761719 L 151.054688 167.859375 C 150.488281 165.871094 151.054688 163.742188 152.519531 162.28125 C 152.535156 162.265625 152.550781 162.25 152.566406 162.234375 C 154.027344 160.773438 156.160156 160.203125 158.144531 160.773438 L 164.046875 162.460938 C 165.425781 160.472656 166.648438 158.367188 167.695312 156.160156 L 163.289062 151.894531 C 161.804688 150.457031 161.230469 148.324219 161.769531 146.328125 C 161.777344 146.304688 161.78125 146.28125 161.789062 146.257812 " fill-opacity="1" fill-rule="nonzero"/></g><path fill="#ffffff" d="M 198.117188 115.339844 C 183.066406 115.339844 170.859375 103.136719 170.859375 88.085938 C 170.859375 73.03125 183.066406 60.828125 198.117188 60.828125 C 213.171875 60.828125 225.375 73.03125 225.375 88.085938 C 225.375 103.136719 213.171875 115.339844 198.117188 115.339844 Z M 230.011719 96.609375 C 230.503906 94.757812 231.953125 93.316406 233.808594 92.851562 L 239.316406 91.476562 C 239.40625 90.355469 239.453125 89.226562 239.453125 88.085938 C 239.453125 86.953125 239.40625 85.835938 239.316406 84.726562 L 233.8125 83.347656 C 231.957031 82.878906 230.507812 81.4375 230.015625 79.585938 C 230.011719 79.5625 230.003906 79.542969 230 79.519531 C 229.503906 77.671875 230.035156 75.695312 231.410156 74.367188 L 235.496094 70.417969 C 234.527344 68.371094 233.398438 66.417969 232.121094 64.578125 L 226.652344 66.136719 C 224.8125 66.660156 222.839844 66.132812 221.484375 64.777344 C 221.472656 64.765625 221.457031 64.75 221.441406 64.734375 C 220.089844 63.382812 219.5625 61.40625 220.089844 59.566406 L 221.652344 54.101562 C 219.8125 52.824219 217.859375 51.691406 215.816406 50.722656 L 211.863281 54.800781 C 210.53125 56.179688 208.558594 56.707031 206.707031 56.210938 C 206.6875 56.203125 206.664062 56.199219 206.640625 56.191406 C 204.792969 55.699219 203.347656 54.25 202.882812 52.394531 L 201.507812 46.886719 C 200.390625 46.796875 199.261719 46.75 198.117188 46.75 C 196.988281 46.75 195.867188 46.796875 194.757812 46.886719 L 193.378906 52.390625 C 192.914062 54.246094 191.472656 55.695312 189.621094 56.1875 C 189.597656 56.191406 189.574219 56.199219 189.554688 56.203125 C 187.703125 56.699219 185.730469 56.167969 184.398438 54.792969 L 180.449219 50.707031 C 178.40625 51.675781 176.453125 52.804688 174.609375 54.082031 L 176.167969 59.550781 C 176.695312 61.390625 176.167969 63.363281 174.8125 64.71875 C 174.796875 64.730469 174.785156 64.746094 174.769531 64.761719 C 173.414062 66.113281 171.441406 66.640625 169.601562 66.113281 L 164.132812 64.550781 C 162.855469 66.394531 161.722656 68.34375 160.753906 70.386719 L 164.835938 74.339844 C 166.210938 75.671875 166.742188 77.644531 166.246094 79.496094 C 166.238281 79.515625 166.234375 79.539062 166.226562 79.5625 C 165.734375 81.410156 164.285156 82.855469 162.425781 83.316406 L 156.921875 84.695312 C 156.832031 85.8125 156.785156 86.945312 156.785156 88.085938 C 156.785156 89.214844 156.832031 90.335938 156.917969 91.445312 L 162.421875 92.824219 C 164.28125 93.289062 165.726562 94.730469 166.21875 96.582031 C 166.226562 96.605469 166.230469 96.628906 166.238281 96.652344 C 166.734375 98.5 166.203125 100.472656 164.824219 101.804688 L 160.742188 105.753906 C 161.707031 107.796875 162.839844 109.75 164.117188 111.59375 L 169.582031 110.035156 C 171.425781 109.507812 173.398438 110.035156 174.75 111.390625 C 174.765625 111.40625 174.78125 111.417969 174.792969 111.433594 C 176.148438 112.789062 176.675781 114.761719 176.148438 116.601562 L 174.582031 122.070312 C 176.425781 123.347656 178.378906 124.480469 180.421875 125.449219 L 184.375 121.367188 C 185.707031 119.992188 187.679688 119.460938 189.527344 119.960938 C 189.550781 119.964844 189.574219 119.972656 189.59375 119.976562 C 191.445312 120.46875 192.886719 121.917969 193.351562 123.777344 L 194.726562 129.28125 C 195.847656 129.371094 196.976562 129.417969 198.117188 129.417969 C 199.25 129.417969 200.371094 129.371094 201.476562 129.285156 L 202.855469 123.78125 C 203.324219 121.921875 204.765625 120.476562 206.617188 119.984375 C 206.640625 119.976562 206.660156 119.972656 206.683594 119.964844 C 208.53125 119.46875 210.507812 120 211.835938 121.378906 L 215.785156 125.464844 C 217.832031 124.496094 219.785156 123.363281 221.628906 122.085938 L 220.066406 116.621094 C 219.542969 114.777344 220.070312 112.804688 221.425781 111.453125 C 221.4375 111.4375 221.453125 111.421875 221.46875 111.410156 C 222.820312 110.054688 224.796875 109.527344 226.636719 110.054688 L 232.101562 111.621094 C 233.378906 109.777344 234.511719 107.824219 235.484375 105.78125 L 231.402344 101.828125 C 230.023438 100.496094 229.496094 98.523438 229.992188 96.675781 C 230 96.652344 230.003906 96.628906 230.011719 96.609375 " fill-opacity="1" fill-rule="nonzero"/><g clip-path="url(#a7de44c1f4)"><path fill="#ffffff" d="M 208.839844 227.976562 C 200.351562 227.976562 193.46875 221.097656 193.46875 212.609375 C 193.46875 204.121094 200.351562 197.238281 208.839844 197.238281 C 217.328125 197.238281 224.207031 204.121094 224.207031 212.609375 C 224.207031 221.097656 217.328125 227.976562 208.839844 227.976562 Z M 226.820312 217.414062 C 227.097656 216.371094 227.914062 215.558594 228.964844 215.296875 L 232.066406 214.519531 C 232.117188 213.890625 232.144531 213.25 232.144531 212.609375 C 232.144531 211.96875 232.117188 211.339844 232.066406 210.714844 L 228.964844 209.9375 C 227.917969 209.671875 227.101562 208.859375 226.824219 207.816406 C 226.820312 207.804688 226.816406 207.792969 226.8125 207.777344 C 226.535156 206.734375 226.835938 205.625 227.609375 204.875 L 229.914062 202.648438 C 229.367188 201.492188 228.730469 200.394531 228.011719 199.351562 L 224.925781 200.230469 C 223.890625 200.527344 222.777344 200.230469 222.015625 199.46875 C 222.007812 199.460938 221.996094 199.449219 221.988281 199.441406 C 221.226562 198.679688 220.929688 197.566406 221.226562 196.527344 L 222.109375 193.445312 C 221.070312 192.726562 219.96875 192.085938 218.816406 191.539062 L 216.585938 193.84375 C 215.835938 194.617188 214.726562 194.917969 213.683594 194.636719 C 213.667969 194.632812 213.65625 194.628906 213.644531 194.625 C 212.601562 194.347656 211.789062 193.53125 211.527344 192.484375 L 210.75 189.378906 C 210.121094 189.328125 209.480469 189.300781 208.839844 189.300781 C 208.199219 189.300781 207.570312 189.328125 206.945312 189.378906 L 206.167969 192.480469 C 205.902344 193.527344 205.089844 194.34375 204.046875 194.621094 C 204.035156 194.625 204.023438 194.628906 204.007812 194.632812 C 202.964844 194.910156 201.855469 194.613281 201.101562 193.835938 L 198.875 191.53125 C 197.722656 192.078125 196.621094 192.714844 195.582031 193.4375 L 196.460938 196.519531 C 196.757812 197.558594 196.460938 198.671875 195.695312 199.433594 C 195.691406 199.441406 195.679688 199.449219 195.671875 199.457031 C 194.910156 200.21875 193.796875 200.515625 192.757812 200.21875 L 189.675781 199.339844 C 188.957031 200.378906 188.316406 201.476562 187.769531 202.628906 L 190.074219 204.859375 C 190.847656 205.609375 191.144531 206.722656 190.867188 207.765625 C 190.863281 207.777344 190.859375 207.789062 190.855469 207.804688 C 190.578125 208.847656 189.761719 209.660156 188.714844 209.921875 L 185.609375 210.695312 C 185.558594 211.328125 185.53125 211.964844 185.53125 212.609375 C 185.53125 213.246094 185.558594 213.878906 185.609375 214.503906 L 188.710938 215.28125 C 189.757812 215.542969 190.574219 216.355469 190.851562 217.402344 C 190.855469 217.414062 190.859375 217.425781 190.863281 217.4375 C 191.140625 218.480469 190.84375 219.59375 190.066406 220.34375 L 187.761719 222.570312 C 188.308594 223.722656 188.945312 224.824219 189.667969 225.863281 L 192.75 224.984375 C 193.785156 224.6875 194.898438 224.984375 195.664062 225.75 C 195.671875 225.757812 195.679688 225.765625 195.6875 225.773438 C 196.449219 226.535156 196.746094 227.652344 196.449219 228.6875 L 195.570312 231.769531 C 196.609375 232.492188 197.707031 233.128906 198.859375 233.675781 L 201.089844 231.375 C 201.839844 230.597656 202.953125 230.300781 203.996094 230.582031 C 204.007812 230.582031 204.019531 230.585938 204.03125 230.589844 C 205.074219 230.867188 205.890625 231.683594 206.152344 232.734375 L 206.925781 235.835938 C 207.558594 235.886719 208.195312 235.914062 208.839844 235.914062 C 209.476562 235.914062 210.109375 235.886719 210.734375 235.839844 L 211.511719 232.734375 C 211.773438 231.6875 212.585938 230.871094 213.628906 230.59375 C 213.644531 230.589844 213.65625 230.585938 213.667969 230.585938 C 214.710938 230.304688 215.824219 230.605469 216.574219 231.378906 L 218.800781 233.683594 C 219.953125 233.136719 221.054688 232.5 222.09375 231.78125 L 221.214844 228.699219 C 220.917969 227.660156 221.214844 226.546875 221.980469 225.785156 C 221.988281 225.777344 221.996094 225.765625 222.003906 225.761719 C 222.765625 224.996094 223.878906 224.699219 224.917969 224.996094 L 228 225.878906 C 228.722656 224.839844 229.359375 223.738281 229.90625 222.585938 L 227.605469 220.359375 C 226.828125 219.605469 226.53125 218.496094 226.8125 217.453125 C 226.8125 217.4375 226.816406 217.425781 226.820312 217.414062 " fill-opacity="1" fill-rule="nonzero"/></g><g clip-path="url(#d63da68477)"><path fill="#ffffff" d="M 247.644531 184.882812 C 231.394531 184.882812 218.21875 171.707031 218.21875 155.457031 C 218.21875 139.207031 231.394531 126.035156 247.644531 126.035156 C 263.894531 126.035156 277.066406 139.207031 277.066406 155.457031 C 277.066406 171.707031 263.894531 184.882812 247.644531 184.882812 Z M 282.070312 164.660156 C 282.605469 162.660156 284.167969 161.105469 286.171875 160.601562 L 292.117188 159.117188 C 292.214844 157.910156 292.265625 156.691406 292.265625 155.457031 C 292.265625 154.238281 292.214844 153.027344 292.117188 151.832031 L 286.179688 150.34375 C 284.171875 149.839844 282.609375 148.28125 282.078125 146.285156 C 282.074219 146.257812 282.066406 146.234375 282.058594 146.210938 C 281.523438 144.214844 282.097656 142.085938 283.585938 140.648438 L 287.992188 136.386719 C 286.949219 134.179688 285.726562 132.070312 284.351562 130.078125 L 278.449219 131.765625 C 276.460938 132.332031 274.328125 131.761719 272.871094 130.300781 C 272.855469 130.28125 272.839844 130.265625 272.824219 130.253906 C 271.359375 128.792969 270.792969 126.660156 271.363281 124.671875 L 273.050781 118.773438 C 271.0625 117.390625 268.953125 116.171875 266.746094 115.121094 L 262.480469 119.53125 C 261.042969 121.015625 258.914062 121.585938 256.917969 121.050781 C 256.894531 121.042969 256.871094 121.035156 256.84375 121.03125 C 254.847656 120.496094 253.289062 118.933594 252.789062 116.929688 L 251.304688 110.988281 C 250.097656 110.890625 248.875 110.835938 247.644531 110.835938 C 246.421875 110.835938 245.214844 110.886719 244.019531 110.984375 L 242.53125 116.925781 C 242.027344 118.929688 240.46875 120.492188 238.46875 121.023438 C 238.445312 121.03125 238.421875 121.035156 238.398438 121.042969 C 236.402344 121.578125 234.273438 121.003906 232.835938 119.519531 L 228.574219 115.109375 C 226.363281 116.152344 224.257812 117.375 222.265625 118.753906 L 223.949219 124.65625 C 224.515625 126.640625 223.949219 128.773438 222.484375 130.234375 C 222.46875 130.25 222.453125 130.261719 222.4375 130.277344 C 220.976562 131.742188 218.847656 132.308594 216.859375 131.738281 L 210.960938 130.050781 C 209.578125 132.039062 208.355469 134.148438 207.308594 136.355469 L 211.714844 140.621094 C 213.203125 142.058594 213.773438 144.1875 213.234375 146.183594 C 213.230469 146.210938 213.222656 146.234375 213.214844 146.257812 C 212.683594 148.253906 211.121094 149.8125 209.117188 150.3125 L 203.171875 151.796875 C 203.074219 153.003906 203.023438 154.226562 203.023438 155.457031 C 203.023438 156.679688 203.074219 157.886719 203.171875 159.082031 L 209.113281 160.574219 C 211.117188 161.074219 212.679688 162.632812 213.210938 164.632812 C 213.214844 164.65625 213.222656 164.679688 213.230469 164.703125 C 213.765625 166.703125 213.191406 168.832031 211.703125 170.265625 L 207.296875 174.53125 C 208.339844 176.738281 209.558594 178.84375 210.941406 180.835938 L 216.839844 179.152344 C 218.828125 178.585938 220.960938 179.152344 222.417969 180.617188 C 222.433594 180.632812 222.449219 180.648438 222.464844 180.664062 C 223.929688 182.125 224.496094 184.253906 223.925781 186.242188 L 222.238281 192.144531 C 224.226562 193.523438 226.335938 194.746094 228.542969 195.792969 L 232.808594 191.386719 C 234.246094 189.902344 236.375 189.328125 238.371094 189.867188 C 238.394531 189.871094 238.421875 189.878906 238.445312 189.886719 C 240.441406 190.417969 242 191.980469 242.5 193.988281 L 243.984375 199.929688 C 245.191406 200.027344 246.410156 200.078125 247.644531 200.078125 C 248.863281 200.078125 250.074219 200.027344 251.269531 199.933594 L 252.761719 193.992188 C 253.261719 191.984375 254.820312 190.421875 256.816406 189.890625 C 256.84375 189.886719 256.867188 189.878906 256.890625 189.875 C 258.886719 189.335938 261.015625 189.910156 262.453125 191.398438 L 266.714844 195.808594 C 268.921875 194.761719 271.03125 193.542969 273.023438 192.164062 L 271.339844 186.261719 C 270.769531 184.273438 271.339844 182.144531 272.804688 180.683594 C 272.820312 180.667969 272.835938 180.652344 272.851562 180.636719 C 274.3125 179.175781 276.441406 178.605469 278.429688 179.175781 L 284.332031 180.863281 C 285.710938 178.875 286.933594 176.765625 287.980469 174.558594 L 283.574219 170.292969 C 282.089844 168.855469 281.515625 166.726562 282.050781 164.730469 C 282.058594 164.707031 282.066406 164.683594 282.070312 164.660156 " fill-opacity="1" fill-rule="nonzero"/></g><g clip-path="url(#b522f9b02a)"><path fill="#ffffff" d="M 117.65625 82.574219 C 107.765625 82.574219 99.746094 74.554688 99.746094 64.660156 C 99.746094 54.769531 107.765625 46.75 117.65625 46.75 C 127.550781 46.75 135.570312 54.769531 135.570312 64.660156 C 135.570312 74.554688 127.550781 82.574219 117.65625 82.574219 Z M 138.613281 70.261719 C 138.9375 69.046875 139.890625 68.097656 141.113281 67.792969 L 144.726562 66.890625 C 144.789062 66.15625 144.820312 65.410156 144.820312 64.660156 C 144.820312 63.917969 144.789062 63.183594 144.730469 62.453125 L 141.113281 61.546875 C 139.894531 61.242188 138.941406 60.292969 138.617188 59.078125 C 138.613281 59.0625 138.609375 59.046875 138.605469 59.035156 C 138.28125 57.816406 138.628906 56.523438 139.535156 55.648438 L 142.21875 53.050781 C 141.582031 51.707031 140.839844 50.425781 140 49.214844 L 136.410156 50.238281 C 135.199219 50.582031 133.902344 50.238281 133.011719 49.347656 C 133.003906 49.335938 132.992188 49.328125 132.984375 49.316406 C 132.09375 48.429688 131.75 47.132812 132.09375 45.921875 L 133.125 42.332031 C 131.914062 41.488281 130.628906 40.746094 129.285156 40.109375 L 126.6875 42.792969 C 125.8125 43.695312 124.519531 44.042969 123.304688 43.714844 C 123.289062 43.710938 123.273438 43.710938 123.257812 43.707031 C 122.042969 43.378906 121.09375 42.429688 120.789062 41.207031 L 119.886719 37.589844 C 119.152344 37.53125 118.410156 37.5 117.65625 37.5 C 116.914062 37.5 116.179688 37.53125 115.449219 37.589844 L 114.542969 41.207031 C 114.238281 42.425781 113.289062 43.378906 112.074219 43.699219 C 112.058594 43.703125 112.042969 43.707031 112.027344 43.710938 C 110.8125 44.039062 109.519531 43.6875 108.640625 42.785156 L 106.046875 40.101562 C 104.703125 40.738281 103.421875 41.480469 102.210938 42.316406 L 103.234375 45.910156 C 103.578125 47.121094 103.234375 48.417969 102.34375 49.308594 C 102.332031 49.316406 102.324219 49.324219 102.316406 49.335938 C 101.425781 50.226562 100.128906 50.570312 98.917969 50.226562 L 95.324219 49.195312 C 94.484375 50.40625 93.742188 51.691406 93.105469 53.035156 L 95.789062 55.628906 C 96.691406 56.503906 97.039062 57.800781 96.710938 59.015625 C 96.707031 59.03125 96.703125 59.046875 96.699219 59.0625 C 96.375 60.277344 95.425781 61.222656 94.203125 61.527344 L 90.585938 62.433594 C 90.527344 63.167969 90.496094 63.910156 90.496094 64.660156 C 90.496094 65.40625 90.527344 66.140625 90.585938 66.867188 L 94.199219 67.777344 C 95.421875 68.082031 96.375 69.03125 96.695312 70.246094 C 96.699219 70.261719 96.703125 70.277344 96.707031 70.289062 C 97.035156 71.507812 96.683594 72.800781 95.78125 73.675781 L 93.09375 76.273438 C 93.730469 77.617188 94.476562 78.898438 95.3125 80.109375 L 98.90625 79.085938 C 100.117188 78.738281 101.414062 79.085938 102.300781 79.976562 C 102.3125 79.984375 102.320312 79.996094 102.332031 80.003906 C 103.222656 80.894531 103.566406 82.191406 103.21875 83.402344 L 102.191406 86.992188 C 103.402344 87.832031 104.6875 88.578125 106.027344 89.214844 L 108.625 86.53125 C 109.5 85.628906 110.796875 85.28125 112.011719 85.605469 C 112.027344 85.609375 112.042969 85.613281 112.058594 85.617188 C 113.273438 85.941406 114.222656 86.894531 114.527344 88.113281 L 115.429688 91.734375 C 116.164062 91.792969 116.90625 91.824219 117.65625 91.824219 C 118.402344 91.824219 119.136719 91.792969 119.863281 91.734375 L 120.769531 88.117188 C 121.078125 86.898438 122.027344 85.945312 123.242188 85.625 C 123.257812 85.621094 123.273438 85.617188 123.285156 85.609375 C 124.5 85.285156 125.796875 85.636719 126.671875 86.539062 L 129.265625 89.222656 C 130.609375 88.585938 131.894531 87.84375 133.105469 87.003906 L 132.082031 83.414062 C 131.734375 82.203125 132.082031 80.90625 132.972656 80.015625 C 132.980469 80.007812 132.992188 79.996094 133 79.988281 C 133.890625 79.097656 135.1875 78.753906 136.398438 79.097656 L 139.988281 80.128906 C 140.828125 78.917969 141.574219 77.632812 142.210938 76.289062 L 139.527344 73.691406 C 138.625 72.820312 138.277344 71.519531 138.601562 70.304688 C 138.605469 70.292969 138.609375 70.277344 138.613281 70.261719 " fill-opacity="1" fill-rule="nonzero"/></g><g fill="#ffffff" fill-opacity="1"><g transform="translate(0.0000045, 298.406341)"><g><path d="M 9.21875 0 L 9.21875 -88.421875 L 46.703125 -88.421875 C 50.773438 -88.421875 54.507812 -87.59375 57.90625 -85.9375 C 61.3125 -84.28125 64.28125 -82.039062 66.8125 -79.21875 C 69.351562 -76.394531 71.328125 -73.238281 72.734375 -69.75 C 74.148438 -66.257812 74.859375 -62.6875 74.859375 -59.03125 C 74.859375 -54.050781 73.691406 -49.316406 71.359375 -44.828125 C 69.035156 -40.347656 65.835938 -36.695312 61.765625 -33.875 C 57.703125 -31.050781 52.890625 -29.640625 47.328125 -29.640625 L 26.40625 -29.640625 L 26.40625 0 Z M 26.40625 -44.71875 L 46.328125 -44.71875 C 48.398438 -44.71875 50.265625 -45.296875 51.921875 -46.453125 C 53.585938 -47.617188 54.921875 -49.300781 55.921875 -51.5 C 56.921875 -53.695312 57.421875 -56.207031 57.421875 -59.03125 C 57.421875 -62.101562 56.859375 -64.71875 55.734375 -66.875 C 54.609375 -69.039062 53.15625 -70.660156 51.375 -71.734375 C 49.59375 -72.816406 47.660156 -73.359375 45.578125 -73.359375 L 26.40625 -73.359375 Z M 26.40625 -44.71875 "/></g></g></g><g fill="#ffffff" fill-opacity="1"><g transform="translate(77.594156, 298.406341)"><g><path d="M 46.453125 -50.8125 C 41.390625 -50.8125 36.863281 -49.835938 32.875 -47.890625 C 28.894531 -45.941406 26.03125 -43.140625 24.28125 -39.484375 L 24.28125 0 L 7.59375 0 L 7.59375 -65.265625 L 22.921875 -65.265625 L 22.921875 -51.3125 C 25.242188 -55.789062 28.1875 -59.316406 31.75 -61.890625 C 35.320312 -64.472656 39.101562 -65.890625 43.09375 -66.140625 C 44.007812 -66.140625 44.710938 -66.140625 45.203125 -66.140625 C 45.703125 -66.140625 46.117188 -66.097656 46.453125 -66.015625 Z M 46.453125 -50.8125 "/></g></g></g><g fill="#ffffff" fill-opacity="1"><g transform="translate(125.794668, 298.406341)"><g><path d="M 37.734375 1.25 C 32.421875 1.25 27.644531 0.359375 23.40625 -1.421875 C 19.175781 -3.210938 15.585938 -5.6875 12.640625 -8.84375 C 9.691406 -12 7.425781 -15.609375 5.84375 -19.671875 C 4.269531 -23.742188 3.484375 -28.019531 3.484375 -32.5 C 3.484375 -37.070312 4.269531 -41.390625 5.84375 -45.453125 C 7.425781 -49.523438 9.691406 -53.140625 12.640625 -56.296875 C 15.585938 -59.453125 19.175781 -61.921875 23.40625 -63.703125 C 27.644531 -65.492188 32.421875 -66.390625 37.734375 -66.390625 C 43.046875 -66.390625 47.796875 -65.492188 51.984375 -63.703125 C 56.179688 -61.921875 59.773438 -59.453125 62.765625 -56.296875 C 65.753906 -53.140625 68.015625 -49.523438 69.546875 -45.453125 C 71.085938 -41.390625 71.859375 -37.070312 71.859375 -32.5 C 71.859375 -28.019531 71.085938 -23.742188 69.546875 -19.671875 C 68.015625 -15.609375 65.773438 -12 62.828125 -8.84375 C 59.878906 -5.6875 56.285156 -3.210938 52.046875 -1.421875 C 47.816406 0.359375 43.046875 1.25 37.734375 1.25 Z M 20.671875 -32.5 C 20.671875 -28.6875 21.414062 -25.304688 22.90625 -22.359375 C 24.40625 -19.410156 26.441406 -17.101562 29.015625 -15.4375 C 31.585938 -13.78125 34.492188 -12.953125 37.734375 -12.953125 C 40.890625 -12.953125 43.753906 -13.800781 46.328125 -15.5 C 48.898438 -17.207031 50.953125 -19.535156 52.484375 -22.484375 C 54.023438 -25.429688 54.796875 -28.8125 54.796875 -32.625 C 54.796875 -36.363281 54.023438 -39.726562 52.484375 -42.71875 C 50.953125 -45.707031 48.898438 -48.03125 46.328125 -49.6875 C 43.753906 -51.351562 40.890625 -52.1875 37.734375 -52.1875 C 34.492188 -52.1875 31.585938 -51.332031 29.015625 -49.625 C 26.441406 -47.925781 24.40625 -45.601562 22.90625 -42.65625 C 21.414062 -39.707031 20.671875 -36.320312 20.671875 -32.5 Z M 20.671875 -32.5 "/></g></g></g><g fill="#ffffff" fill-opacity="1"><g transform="translate(201.271493, 298.406341)"><g><path d="M 3.609375 -32.625 C 3.609375 -38.9375 4.851562 -44.644531 7.34375 -49.75 C 9.832031 -54.863281 13.273438 -58.914062 17.671875 -61.90625 C 22.078125 -64.894531 27.101562 -66.390625 32.75 -66.390625 C 37.570312 -66.390625 41.910156 -65.203125 45.765625 -62.828125 C 49.628906 -60.460938 52.640625 -57.453125 54.796875 -53.796875 L 54.796875 -90.921875 L 71.484375 -90.921875 L 71.484375 -18.6875 C 71.484375 -16.9375 71.773438 -15.6875 72.359375 -14.9375 C 72.941406 -14.195312 73.9375 -13.742188 75.34375 -13.578125 L 75.34375 0 C 72.4375 0.582031 70.070312 0.875 68.25 0.875 C 65.257812 0.875 62.789062 0.128906 60.84375 -1.359375 C 58.894531 -2.859375 57.796875 -4.8125 57.546875 -7.21875 L 57.296875 -11.328125 C 54.878906 -7.265625 51.613281 -4.148438 47.5 -1.984375 C 43.394531 0.171875 39.101562 1.25 34.625 1.25 C 30.144531 1.25 26.015625 0.378906 22.234375 -1.359375 C 18.453125 -3.109375 15.171875 -5.519531 12.390625 -8.59375 C 9.609375 -11.664062 7.445312 -15.253906 5.90625 -19.359375 C 4.375 -23.472656 3.609375 -27.894531 3.609375 -32.625 Z M 54.796875 -23.90625 L 54.796875 -39.484375 C 53.972656 -41.890625 52.644531 -44.046875 50.8125 -45.953125 C 48.988281 -47.867188 46.953125 -49.382812 44.703125 -50.5 C 42.460938 -51.625 40.222656 -52.1875 37.984375 -52.1875 C 35.410156 -52.1875 33.085938 -51.644531 31.015625 -50.5625 C 28.941406 -49.488281 27.132812 -48.035156 25.59375 -46.203125 C 24.0625 -44.378906 22.898438 -42.265625 22.109375 -39.859375 C 21.316406 -37.453125 20.921875 -34.914062 20.921875 -32.25 C 20.921875 -29.59375 21.359375 -27.082031 22.234375 -24.71875 C 23.109375 -22.351562 24.375 -20.296875 26.03125 -18.546875 C 27.6875 -16.804688 29.613281 -15.4375 31.8125 -14.4375 C 34.019531 -13.445312 36.410156 -12.953125 38.984375 -12.953125 C 40.554688 -12.953125 42.148438 -13.222656 43.765625 -13.765625 C 45.390625 -14.304688 46.925781 -15.050781 48.375 -16 C 49.832031 -16.957031 51.117188 -18.117188 52.234375 -19.484375 C 53.359375 -20.859375 54.210938 -22.332031 54.796875 -23.90625 Z M 54.796875 -23.90625 "/></g></g></g><g fill="#1976d2" fill-opacity="1"><g transform="translate(281.636093, 298.406341)"><g><path d="M 46.703125 0.625 C 40.472656 0.625 34.828125 -0.640625 29.765625 -3.171875 C 24.703125 -5.703125 20.34375 -9.082031 16.6875 -13.3125 C 13.03125 -17.550781 10.207031 -22.347656 8.21875 -27.703125 C 6.226562 -33.066406 5.234375 -38.570312 5.234375 -44.21875 C 5.234375 -50.113281 6.269531 -55.738281 8.34375 -61.09375 C 10.414062 -66.445312 13.34375 -71.21875 17.125 -75.40625 C 20.90625 -79.601562 25.328125 -82.925781 30.390625 -85.375 C 35.453125 -87.820312 40.929688 -89.046875 46.828125 -89.046875 C 53.054688 -89.046875 58.703125 -87.757812 63.765625 -85.1875 C 68.828125 -82.613281 73.164062 -79.164062 76.78125 -74.84375 C 80.394531 -70.53125 83.195312 -65.71875 85.1875 -60.40625 C 87.175781 -55.09375 88.171875 -49.65625 88.171875 -44.09375 C 88.171875 -38.195312 87.132812 -32.570312 85.0625 -27.21875 C 82.988281 -21.863281 80.082031 -17.085938 76.34375 -12.890625 C 72.613281 -8.691406 68.210938 -5.390625 63.140625 -2.984375 C 58.078125 -0.578125 52.597656 0.625 46.703125 0.625 Z M 46.703125 -7.21875 C 51.765625 -7.21875 56.3125 -8.273438 60.34375 -10.390625 C 64.375 -12.515625 67.820312 -15.335938 70.6875 -18.859375 C 73.550781 -22.390625 75.726562 -26.351562 77.21875 -30.75 C 78.707031 -35.15625 79.453125 -39.644531 79.453125 -44.21875 C 79.453125 -49.03125 78.664062 -53.65625 77.09375 -58.09375 C 75.519531 -62.539062 73.257812 -66.488281 70.3125 -69.9375 C 67.363281 -73.382812 63.894531 -76.125 59.90625 -78.15625 C 55.914062 -80.1875 51.515625 -81.203125 46.703125 -81.203125 C 41.722656 -81.203125 37.21875 -80.144531 33.1875 -78.03125 C 29.164062 -75.914062 25.722656 -73.09375 22.859375 -69.5625 C 19.992188 -66.03125 17.789062 -62.0625 16.25 -57.65625 C 14.71875 -53.257812 13.953125 -48.78125 13.953125 -44.21875 C 13.953125 -39.394531 14.738281 -34.757812 16.3125 -30.3125 C 17.894531 -25.875 20.140625 -21.929688 23.046875 -18.484375 C 25.953125 -15.046875 29.414062 -12.304688 33.4375 -10.265625 C 37.46875 -8.234375 41.890625 -7.21875 46.703125 -7.21875 Z M 54.671875 -27.15625 L 63.265625 -27.15625 L 86.1875 0 L 77.59375 0 Z M 54.671875 -27.15625 "/></g></g></g></svg>