<svg xmlns="http://www.w3.org/2000/svg" xmlns:xlink="http://www.w3.org/1999/xlink" width="500" zoomAndPan="magnify" viewBox="0 0 375 374.999991" height="500" preserveAspectRatio="xMidYMid meet" version="1.0"><path fill="#781b20" d="M 364.734375 118.015625 C 364.734375 121.679688 361.753906 124.65625 358.078125 124.65625 L 47.925781 124.65625 C 44.25 124.65625 41.273438 121.679688 41.273438 118.015625 L 41.273438 115.425781 C 41.273438 111.753906 44.25 108.777344 47.925781 108.777344 L 358.078125 108.777344 C 361.753906 108.777344 364.734375 111.753906 364.734375 115.425781 L 364.734375 118.015625 " fill-opacity="1" fill-rule="nonzero"/><path fill="#b62b34" d="M 96.789062 237.339844 L 76.304688 96.441406 L 62.964844 96.441406 C 56.902344 96.441406 51.988281 101.347656 51.988281 107.40625 L 51.988281 237.339844 L 96.789062 237.339844 " fill-opacity="1" fill-rule="nonzero"/><path fill="#b62b34" d="M 309.214844 237.339844 L 329.699219 96.441406 L 343.042969 96.441406 C 349.105469 96.441406 354.011719 101.347656 354.011719 107.40625 L 354.011719 237.339844 L 309.214844 237.339844 " fill-opacity="1" fill-rule="nonzero"/><path fill="#40595e" d="M 41.765625 128.628906 L 36.609375 133.390625 L 33.164062 129.664062 L 21.433594 140.496094 L 24.882812 144.21875 L 16.121094 147.570312 L 15.996094 152.445312 L 18.539062 155.191406 L 9.980469 163.097656 L 7.433594 160.355469 L 0.0859375 162.382812 L -0.0390625 167.257812 L 21.3125 190.332031 L 29.113281 183.128906 L 29.273438 179.304688 L 31.039062 177.710938 L 35.859375 173.265625 L 37.671875 175.222656 L 47.386719 166.25 L 48.953125 167.933594 C 51.757812 164.664062 54.699219 161.550781 58.125 158.925781 L 56.824219 157.523438 L 62.226562 152.53125 L 63.128906 151.703125 C 63.128906 151.703125 63.664062 148.03125 63.25 146.828125 C 62.308594 144.042969 60.214844 141.976562 62.703125 140 C 70.183594 134.066406 83.078125 123.226562 91.632812 122.476562 C 91.660156 121.375 91.777344 120.5625 91.816406 119.148438 C 71.765625 112.402344 41.765625 128.628906 41.765625 128.628906 " fill-opacity="1" fill-rule="nonzero"/><path fill="#647272" d="M 40.019531 146.066406 L 40.445312 129.84375 L 36.609375 133.390625 L 21.570312 135.625 L 21.433594 140.496094 L 24.882812 144.21875 L 21.351562 145.574219 L 40.019531 146.066406 " fill-opacity="1" fill-rule="nonzero"/><path fill="#2f1d15" d="M 192.304688 289.238281 C 184.839844 281.558594 106.101562 204.988281 104.640625 203.414062 C 104.449219 203.207031 104.023438 203.277344 103.433594 203.546875 C 102.867188 203.921875 102.285156 204.261719 101.691406 204.59375 C 101.4375 204.761719 101.179688 204.953125 100.90625 205.148438 L 100.824219 205.058594 C 99.363281 205.828125 97.878906 206.53125 96.402344 207.3125 C 94.015625 208.578125 91.121094 208.664062 89.640625 211.894531 C 88.164062 215.121094 89.089844 217.054688 89.449219 217.457031 C 90.757812 218.863281 166.164062 304.75 171.921875 310.976562 C 177.933594 317.476562 189.34375 309.195312 192.453125 301.179688 C 193.660156 298.070312 194.386719 291.386719 192.304688 289.238281 " fill-opacity="1" fill-rule="nonzero"/><path fill="#647272" d="M 57.117188 157.25 L 47.34375 156.996094 L 47.09375 166.511719 L 47.386719 166.25 L 89.640625 211.894531 L 98.835938 204.035156 L 56.824219 157.523438 L 57.117188 157.25 " fill-opacity="1" fill-rule="nonzero"/><path fill="#9bb5b3" d="M 33.292969 124.796875 L 21.570312 135.625 L 25.816406 140.21875 L 37.542969 129.382812 L 33.292969 124.796875 " fill-opacity="1" fill-rule="nonzero"/><path fill="#9bb5b3" d="M 56.953125 152.652344 L 47.519531 161.371094 L 92.453125 209.925781 L 101.890625 201.199219 L 56.953125 152.652344 " fill-opacity="1" fill-rule="nonzero"/><path fill="#c6d4d3" d="M 98.023438 202.734375 L 54.351562 156.226562 L 56.914062 154.214844 L 100.53125 200.664062 C 99.738281 201.277344 98.886719 201.976562 98.023438 202.734375 " fill-opacity="1" fill-rule="nonzero"/><path fill="#513428" d="M 104.773438 198.539062 C 103.3125 196.964844 88.269531 211.164062 89.578125 212.582031 C 90.886719 213.992188 166.292969 299.878906 172.046875 306.109375 C 180.386719 315.121094 199.125 295.675781 191.660156 287.988281 C 184.199219 280.308594 106.226562 200.113281 104.773438 198.539062 " fill-opacity="1" fill-rule="nonzero"/><path fill="#866346" d="M 127.644531 225.488281 L 123.671875 225.488281 L 101.042969 201.972656 C 102.527344 200.863281 103.746094 200.140625 104.363281 200.140625 C 104.503906 200.140625 104.613281 200.183594 104.6875 200.257812 C 105.179688 200.789062 114.558594 210.464844 126.925781 223.210938 L 127.644531 225.488281 " fill-opacity="1" fill-rule="nonzero"/><path fill="#5b8188" d="M 16.121094 147.570312 L 18.664062 150.320312 L 10.109375 158.226562 L 7.566406 155.472656 L 0.0859375 162.382812 L 21.445312 185.464844 L 29.238281 178.261719 L 27.429688 176.296875 L 35.984375 168.390625 L 37.796875 170.351562 L 63.25 146.828125 C 63.25 146.828125 59.269531 137.957031 62.839844 135.125 C 70.3125 129.199219 83.265625 119.894531 91.816406 119.148438 C 90.652344 117.886719 87.738281 114.738281 86.15625 113.027344 C 66.101562 106.28125 41.890625 123.75 41.890625 123.75 L 16.121094 147.570312 " fill-opacity="1" fill-rule="nonzero"/><path fill="#97b2b7" d="M 24.84375 150.976562 L 19.699219 145.96875 L 41.847656 125.515625 C 41.847656 125.515625 58.855469 113.234375 76.167969 113.234375 C 79.511719 113.234375 82.863281 113.695312 86.105469 114.785156 C 86.589844 115.296875 87.1875 115.949219 87.824219 116.632812 C 87.136719 116.554688 86.453125 116.53125 85.777344 116.511719 C 85.558594 116.511719 85.335938 116.507812 85.113281 116.507812 C 80.496094 116.507812 75.824219 117.363281 71.425781 118.65625 C 66.113281 120.234375 60.710938 122.28125 55.785156 124.8125 C 50.613281 127.476562 45.921875 131.03125 41.292969 134.507812 C 36.949219 137.769531 27.359375 147.617188 24.84375 150.976562 " fill-opacity="1" fill-rule="nonzero"/><path fill="#29323e" d="M 296.761719 125.367188 L 309.191406 124.890625 L 306.796875 135.394531 L 303.105469 139.085938 L 314.59375 150.5625 L 318.289062 146.875 L 318.882812 147.46875 L 326.765625 155.335938 C 327.1875 154.910156 353.398438 169.054688 353.398438 169.054688 L 351.003906 179.5625 L 347.308594 183.257812 L 358.792969 194.730469 L 362.492188 191.039062 L 374.925781 190.566406 L 371.839844 201.074219 L 340.835938 232.054688 L 331.058594 221.601562 L 331.511719 216.785156 L 322.207031 207.488281 L 319.574219 210.121094 L 288.132812 178.707031 L 288.125 173.46875 L 278.851562 164.167969 L 276.222656 166.800781 L 265.753906 156.34375 L 265.753906 144.277344 L 296.761719 125.367188 " fill-opacity="1" fill-rule="nonzero"/><path fill="#41220d" d="M 144.085938 322.953125 C 150.5625 316.480469 194.917969 283.976562 231.542969 248.816406 C 273.367188 208.660156 293.285156 186.375 295.328125 184.417969 L 295.273438 184.363281 C 295.273438 184.363281 307.234375 184.699219 311.585938 194.628906 C 313.503906 199.003906 310.929688 200.003906 310.929688 200.003906 C 308.84375 202.167969 286.78125 221.824219 246.730469 263.476562 C 211.5 300.125 176.308594 342.996094 169.746094 349.554688 C 158.160156 361.132812 139.804688 346.613281 141.613281 333.398438 C 141.984375 330.617188 141.675781 325.355469 144.085938 322.953125 " fill-opacity="1" fill-rule="nonzero"/><path fill="#41220d" d="M 325.128906 146.851562 L 328.492188 150.207031 C 329.636719 149.066406 332.019531 146.6875 333.988281 144.722656 C 336.257812 142.460938 348.46875 149.246094 350.617188 154.167969 C 351.019531 155.09375 350.085938 160.101562 349.730469 160.457031 C 348.046875 162.140625 345.460938 164.722656 344.242188 165.9375 L 345.414062 167.117188 L 325.128906 146.851562 " fill-opacity="1" fill-rule="nonzero"/><path fill="#5a3114" d="M 334.640625 139.351562 C 337.34375 136.65625 352.652344 152.816406 350.386719 155.085938 C 348.121094 157.34375 344.21875 161.246094 344.21875 161.246094 L 328.476562 145.519531 C 328.476562 145.519531 331.945312 142.046875 334.640625 139.351562 " fill-opacity="1" fill-rule="nonzero"/><path fill="#5a3114" d="M 295.992188 179.039062 C 301.335938 181.859375 309.011719 188.976562 311.585938 194.628906 C 309.503906 196.789062 287.4375 216.457031 247.394531 258.105469 C 212.152344 294.757812 176.96875 337.625 170.40625 344.175781 C 156.382812 358.191406 132.449219 333.988281 146.328125 320.121094 C 152.800781 313.648438 195.570312 278.601562 232.203125 243.441406 C 274.023438 203.28125 293.941406 181 295.992188 179.039062 " fill-opacity="1" fill-rule="nonzero"/><path fill="#926614" d="M 257.476562 225.488281 L 256.628906 225.488281 C 256.492188 224.921875 256.351562 224.355469 256.195312 223.792969 C 281.304688 198.53125 295.492188 182.332031 297.019531 180.863281 C 298.570312 181.511719 299.359375 182.0625 300.476562 183.230469 L 257.476562 225.488281 " fill-opacity="1" fill-rule="nonzero"/><path fill="#44556b" d="M 309.191406 124.890625 L 305.5 128.582031 L 316.988281 140.0625 L 320.683594 136.371094 L 337.027344 152.699219 L 306.023438 183.6875 L 290.101562 167.78125 L 292.734375 165.148438 L 281.246094 153.667969 L 278.613281 156.300781 L 265.753906 144.277344 L 299.152344 114.859375 L 309.191406 124.890625 " fill-opacity="1" fill-rule="nonzero"/><path fill="#44556b" d="M 290.277344 167.953125 L 321.28125 136.96875 L 353.398438 169.054688 L 349.703125 172.753906 L 361.191406 184.230469 L 364.886719 180.539062 L 374.925781 190.566406 L 343.925781 221.554688 L 333.457031 211.097656 L 336.085938 208.464844 L 324.597656 196.984375 L 321.972656 199.621094 L 290.277344 167.953125 " fill-opacity="1" fill-rule="nonzero"/><path fill="#748196" d="M 314.53125 143.714844 C 310.390625 139.777344 304.523438 133.472656 301.144531 130.445312 C 300.484375 129.851562 303.1875 127.472656 302.375 125.816406 C 301.761719 124.574219 300.597656 123.183594 299.460938 122.035156 L 300.84375 119.148438 L 307.09375 125.394531 L 303.867188 128.628906 L 316.625 141.628906 L 314.53125 143.714844 " fill-opacity="1" fill-rule="nonzero"/><path fill="#748196" d="M 334.339844 152.875 C 325.015625 145.808594 321.164062 148.097656 318.640625 147.0625 C 317.851562 146.738281 316.363281 145.457031 314.53125 143.714844 L 316.625 141.628906 L 317.273438 142.285156 L 320.503906 139.050781 L 334.339844 152.875 " fill-opacity="1" fill-rule="nonzero"/><path fill="#464c4e" d="M 180.679688 99.886719 C 180.679688 99.886719 192.808594 70.449219 199.277344 54.742188 C 213.324219 20.660156 216.539062 23.136719 244.320312 34.566406 C 261.101562 41.464844 266.386719 61.867188 264.613281 66.164062 C 262.847656 70.460938 261.164062 74.546875 261.164062 74.546875 C 261.164062 74.546875 234.699219 63.660156 223.257812 58.949219 C 219.125 57.257812 213.515625 73.316406 213.515625 73.316406 L 180.679688 99.886719 " fill-opacity="1" fill-rule="nonzero"/><path fill="#4b5255" d="M 206.589844 46.285156 C 201.480469 44.183594 195.636719 46.617188 193.53125 51.730469 L 140.636719 180.125 C 139.074219 183.925781 138.207031 180.347656 138.265625 185.84375 C 139.195312 186.796875 144.773438 192.632812 146.078125 193.171875 C 151.1875 195.269531 157.035156 192.835938 159.136719 187.734375 L 212.035156 59.332031 C 214.136719 54.230469 213.722656 49.21875 206.589844 46.285156 " fill-opacity="1" fill-rule="nonzero"/><path fill="#4b5255" d="M 199.867188 62.613281 C 196.65625 61.289062 192.992188 62.820312 191.671875 66.019531 L 144.746094 179.941406 C 143.421875 183.144531 144.949219 186.804688 148.160156 188.125 C 151.359375 189.441406 155.027344 187.917969 156.351562 184.714844 L 203.28125 70.800781 C 204.601562 67.589844 203.070312 63.929688 199.867188 62.613281 " fill-opacity="1" fill-rule="nonzero"/><path fill="#464c4e" d="M 256.832031 72.652344 L 257.949219 73.109375 L 259.070312 73.578125 C 259.34375 73.6875 258.285156 74.8125 257.953125 74.671875 C 257.621094 74.539062 257.398438 74.449219 257.398438 74.449219 C 257.398438 74.449219 257.1875 74.355469 256.851562 74.222656 C 256.515625 74.082031 256.558594 72.539062 256.832031 72.652344 " fill-opacity="1" fill-rule="nonzero"/><path fill="#464c4e" d="M 254.441406 71.671875 L 255.554688 72.128906 L 256.675781 72.59375 C 256.949219 72.707031 255.886719 73.828125 255.558594 73.6875 C 255.21875 73.546875 255.007812 73.460938 255.007812 73.460938 C 255.007812 73.460938 254.792969 73.375 254.453125 73.234375 C 254.121094 73.097656 254.160156 71.558594 254.441406 71.671875 " fill-opacity="1" fill-rule="nonzero"/><path fill="#464c4e" d="M 252.046875 70.679688 L 253.160156 71.144531 L 254.277344 71.601562 C 254.554688 71.71875 253.496094 72.839844 253.160156 72.707031 C 252.828125 72.566406 252.609375 72.480469 252.609375 72.480469 C 252.609375 72.480469 252.394531 72.386719 252.058594 72.25 C 251.726562 72.109375 251.761719 70.566406 252.046875 70.679688 " fill-opacity="1" fill-rule="nonzero"/><path fill="#464c4e" d="M 249.644531 69.699219 L 250.761719 70.164062 L 251.886719 70.617188 C 252.160156 70.730469 251.097656 71.855469 250.769531 71.71875 C 250.429688 71.582031 250.214844 71.492188 250.214844 71.492188 C 250.214844 71.492188 249.996094 71.398438 249.664062 71.269531 C 249.328125 71.128906 249.375 69.585938 249.644531 69.699219 " fill-opacity="1" fill-rule="nonzero"/><path fill="#464c4e" d="M 247.253906 68.714844 L 248.367188 69.171875 L 249.492188 69.632812 C 249.761719 69.75 248.703125 70.871094 248.371094 70.730469 C 248.039062 70.597656 247.820312 70.507812 247.820312 70.507812 C 247.820312 70.507812 247.605469 70.417969 247.265625 70.28125 C 246.933594 70.144531 246.96875 68.601562 247.253906 68.714844 " fill-opacity="1" fill-rule="nonzero"/><path fill="#464c4e" d="M 244.855469 67.730469 L 245.980469 68.1875 L 247.097656 68.648438 C 247.371094 68.757812 246.308594 69.882812 245.980469 69.75 C 245.640625 69.609375 245.425781 69.523438 245.425781 69.523438 C 245.425781 69.523438 245.210938 69.429688 244.875 69.300781 C 244.542969 69.160156 244.578125 67.621094 244.855469 67.730469 " fill-opacity="1" fill-rule="nonzero"/><path fill="#464c4e" d="M 242.457031 66.742188 L 243.578125 67.203125 L 244.695312 67.664062 C 244.976562 67.777344 243.917969 68.898438 243.578125 68.765625 C 243.246094 68.628906 243.03125 68.535156 243.03125 68.535156 C 243.03125 68.535156 242.8125 68.449219 242.480469 68.3125 C 242.148438 68.175781 242.183594 66.632812 242.457031 66.742188 " fill-opacity="1" fill-rule="nonzero"/><path fill="#464c4e" d="M 240.066406 65.761719 L 241.183594 66.226562 L 242.300781 66.679688 C 242.578125 66.792969 241.515625 67.917969 241.183594 67.777344 C 240.851562 67.640625 240.632812 67.550781 240.632812 67.550781 C 240.632812 67.550781 240.417969 67.464844 240.082031 67.324219 C 239.75 67.1875 239.792969 65.644531 240.066406 65.761719 " fill-opacity="1" fill-rule="nonzero"/><path fill="#464c4e" d="M 237.671875 64.769531 L 238.789062 65.234375 L 239.90625 65.691406 C 240.183594 65.8125 239.125 66.929688 238.792969 66.792969 C 238.460938 66.65625 238.238281 66.566406 238.238281 66.566406 C 238.238281 66.566406 238.027344 66.484375 237.6875 66.34375 C 237.355469 66.199219 237.398438 64.664062 237.671875 64.769531 " fill-opacity="1" fill-rule="nonzero"/><path fill="#464c4e" d="M 235.277344 63.789062 L 236.390625 64.25 L 237.507812 64.710938 C 237.789062 64.820312 236.726562 65.945312 236.390625 65.8125 C 236.058594 65.667969 235.84375 65.578125 235.84375 65.578125 C 235.84375 65.578125 235.625 65.492188 235.292969 65.359375 C 234.960938 65.21875 235 63.675781 235.277344 63.789062 " fill-opacity="1" fill-rule="nonzero"/><path fill="#464c4e" d="M 232.882812 62.800781 L 235.117188 63.71875 C 235.394531 63.835938 234.328125 64.960938 234 64.820312 C 233.664062 64.683594 233.453125 64.597656 233.453125 64.597656 C 233.453125 64.597656 233.230469 64.507812 232.902344 64.371094 C 232.570312 64.234375 232.601562 62.691406 232.882812 62.800781 " fill-opacity="1" fill-rule="nonzero"/><path fill="#464c4e" d="M 230.484375 61.820312 L 231.605469 62.277344 L 232.722656 62.738281 C 232.996094 62.847656 231.9375 63.972656 231.605469 63.839844 C 231.269531 63.703125 231.054688 63.613281 231.054688 63.613281 C 231.054688 63.613281 230.835938 63.523438 230.503906 63.382812 C 230.171875 63.246094 230.210938 61.703125 230.484375 61.820312 " fill-opacity="1" fill-rule="nonzero"/><path fill="#464c4e" d="M 228.089844 60.832031 L 229.207031 61.289062 L 230.328125 61.753906 C 230.601562 61.867188 229.542969 62.988281 229.210938 62.847656 C 228.871094 62.714844 228.65625 62.632812 228.65625 62.632812 C 228.65625 62.632812 228.441406 62.535156 228.109375 62.402344 C 227.777344 62.261719 227.8125 60.71875 228.089844 60.832031 " fill-opacity="1" fill-rule="nonzero"/><path fill="#464c4e" d="M 216.253906 54.171875 L 226.8125 60.304688 L 227.9375 60.773438 C 228.207031 60.878906 227.148438 62 226.8125 61.867188 C 226.480469 61.726562 226.261719 61.640625 226.261719 61.640625 C 226.261719 61.640625 226.046875 61.550781 225.714844 61.410156 C 225.382812 61.273438 215.976562 54.058594 216.253906 54.171875 " fill-opacity="1" fill-rule="nonzero"/><path fill="#4b5255" d="M 142.703125 175.824219 L 142.066406 177.355469 L 141.4375 178.890625 C 141.285156 179.273438 139.738281 177.816406 139.929688 177.363281 C 140.113281 176.902344 140.238281 176.601562 140.238281 176.601562 C 140.238281 176.601562 140.359375 176.308594 140.542969 175.851562 C 140.734375 175.390625 142.859375 175.445312 142.703125 175.824219 " fill-opacity="1" fill-rule="nonzero"/><path fill="#4b5255" d="M 145.40625 169.25 L 144.773438 170.785156 L 144.148438 172.324219 C 143.988281 172.695312 142.445312 171.242188 142.632812 170.785156 C 142.824219 170.324219 142.945312 170.03125 142.945312 170.03125 C 142.945312 170.03125 143.066406 169.730469 143.253906 169.277344 C 143.445312 168.816406 145.566406 168.871094 145.40625 169.25 " fill-opacity="1" fill-rule="nonzero"/><path fill="#4b5255" d="M 148.117188 162.671875 L 147.484375 164.207031 L 146.855469 165.738281 C 146.699219 166.121094 145.152344 164.667969 145.339844 164.207031 C 145.53125 163.75 145.65625 163.453125 145.65625 163.453125 C 145.65625 163.453125 145.773438 163.15625 145.960938 162.703125 C 146.152344 162.238281 148.277344 162.296875 148.117188 162.671875 " fill-opacity="1" fill-rule="nonzero"/><path fill="#4b5255" d="M 150.828125 156.097656 L 149.558594 159.164062 C 149.40625 159.546875 147.867188 158.089844 148.050781 157.632812 C 148.242188 157.183594 148.363281 156.878906 148.363281 156.878906 C 148.363281 156.878906 148.484375 156.582031 148.675781 156.125 C 148.863281 155.664062 150.984375 155.714844 150.828125 156.097656 " fill-opacity="1" fill-rule="nonzero"/><path fill="#4b5255" d="M 153.535156 149.523438 L 152.90625 151.058594 L 152.269531 152.59375 C 152.117188 152.96875 150.570312 151.519531 150.757812 151.058594 C 150.953125 150.597656 151.074219 150.296875 151.074219 150.296875 C 151.074219 150.296875 151.195312 150.003906 151.378906 149.550781 C 151.574219 149.085938 153.695312 149.140625 153.535156 149.523438 " fill-opacity="1" fill-rule="nonzero"/><path fill="#4b5255" d="M 156.246094 142.945312 L 155.613281 144.480469 L 154.980469 146.019531 C 154.824219 146.398438 153.28125 144.941406 153.46875 144.480469 C 153.652344 144.027344 153.78125 143.722656 153.78125 143.722656 C 153.78125 143.722656 153.902344 143.429688 154.089844 142.972656 C 154.273438 142.511719 156.40625 142.566406 156.246094 142.945312 " fill-opacity="1" fill-rule="nonzero"/><path fill="#4b5255" d="M 158.957031 136.367188 L 158.324219 137.90625 L 157.683594 139.445312 C 157.535156 139.820312 155.984375 138.363281 156.179688 137.90625 C 156.367188 137.453125 156.488281 137.148438 156.488281 137.148438 C 156.488281 137.148438 156.613281 136.851562 156.800781 136.398438 C 156.988281 135.941406 159.109375 135.988281 158.957031 136.367188 " fill-opacity="1" fill-rule="nonzero"/><path fill="#4b5255" d="M 161.664062 129.789062 L 161.035156 131.324219 L 160.402344 132.863281 C 160.246094 133.234375 158.699219 131.777344 158.894531 131.324219 C 159.078125 130.859375 159.199219 130.566406 159.199219 130.566406 C 159.199219 130.566406 159.328125 130.269531 159.511719 129.820312 C 159.699219 129.355469 161.820312 129.410156 161.664062 129.789062 " fill-opacity="1" fill-rule="nonzero"/><path fill="#4b5255" d="M 164.378906 123.210938 L 163.109375 126.28125 C 162.953125 126.664062 161.410156 125.203125 161.601562 124.75 C 161.789062 124.289062 161.90625 123.988281 161.90625 123.988281 C 161.90625 123.988281 162.035156 123.695312 162.222656 123.238281 C 162.40625 122.777344 164.53125 122.832031 164.378906 123.210938 " fill-opacity="1" fill-rule="nonzero"/><path fill="#4b5255" d="M 167.085938 116.636719 L 166.457031 118.171875 L 165.820312 119.707031 C 165.667969 120.089844 164.117188 118.625 164.308594 118.171875 C 164.496094 117.710938 164.617188 117.414062 164.617188 117.414062 C 164.617188 117.414062 164.746094 117.117188 164.929688 116.660156 C 165.117188 116.207031 167.242188 116.257812 167.085938 116.636719 " fill-opacity="1" fill-rule="nonzero"/><path fill="#4b5255" d="M 169.792969 110.0625 L 169.15625 111.597656 L 168.53125 113.136719 C 168.375 113.511719 166.828125 112.0625 167.015625 111.597656 C 167.207031 111.140625 167.324219 110.835938 167.324219 110.835938 C 167.324219 110.835938 167.449219 110.550781 167.640625 110.085938 C 167.828125 109.632812 169.949219 109.679688 169.792969 110.0625 " fill-opacity="1" fill-rule="nonzero"/><path fill="#4b5255" d="M 172.503906 103.484375 L 171.867188 105.019531 L 171.242188 106.554688 C 171.078125 106.9375 169.539062 105.480469 169.726562 105.023438 C 169.914062 104.5625 170.039062 104.269531 170.039062 104.269531 C 170.039062 104.269531 170.15625 103.972656 170.351562 103.511719 C 170.539062 103.054688 172.65625 103.109375 172.503906 103.484375 " fill-opacity="1" fill-rule="nonzero"/><path fill="#4b5255" d="M 175.214844 96.90625 L 174.578125 98.445312 L 173.949219 99.980469 C 173.789062 100.359375 172.246094 98.910156 172.433594 98.445312 C 172.625 97.988281 172.746094 97.691406 172.746094 97.691406 C 172.746094 97.691406 172.867188 97.398438 173.058594 96.933594 C 173.242188 96.480469 175.371094 96.535156 175.214844 96.90625 " fill-opacity="1" fill-rule="nonzero"/><path fill="#4b5255" d="M 177.921875 90.339844 L 177.285156 91.871094 L 176.65625 93.410156 C 176.5 93.785156 174.957031 92.328125 175.144531 91.871094 C 175.332031 91.410156 175.453125 91.113281 175.453125 91.113281 C 175.453125 91.113281 175.578125 90.820312 175.769531 90.359375 C 175.953125 89.902344 178.078125 89.960938 177.921875 90.339844 " fill-opacity="1" fill-rule="nonzero"/><path fill="#4b5255" d="M 160.660156 183.207031 L 160.023438 184.746094 L 159.394531 186.28125 C 159.238281 186.65625 161.363281 186.710938 161.546875 186.246094 C 161.742188 185.796875 161.863281 185.5 161.863281 185.5 C 161.863281 185.5 161.980469 185.207031 162.171875 184.746094 C 162.363281 184.28125 160.8125 182.828125 160.660156 183.207031 " fill-opacity="1" fill-rule="nonzero"/><path fill="#4b5255" d="M 163.371094 176.636719 L 162.742188 178.167969 L 162.105469 179.707031 C 161.949219 180.082031 164.070312 180.136719 164.257812 179.683594 C 164.441406 179.21875 164.570312 178.917969 164.570312 178.917969 C 164.570312 178.917969 164.691406 178.625 164.878906 178.167969 C 165.070312 177.707031 163.523438 176.253906 163.371094 176.636719 " fill-opacity="1" fill-rule="nonzero"/><path fill="#4b5255" d="M 166.078125 170.058594 L 165.441406 171.59375 L 164.8125 173.132812 C 164.652344 173.511719 166.78125 173.558594 166.964844 173.105469 C 167.15625 172.644531 167.28125 172.347656 167.28125 172.347656 C 167.28125 172.347656 167.402344 172.058594 167.589844 171.59375 C 167.78125 171.128906 166.230469 169.679688 166.078125 170.058594 " fill-opacity="1" fill-rule="nonzero"/><path fill="#4b5255" d="M 168.789062 163.480469 L 168.152344 165.015625 L 167.519531 166.554688 C 167.363281 166.933594 169.492188 166.984375 169.675781 166.527344 C 169.863281 166.074219 169.980469 165.777344 169.980469 165.777344 C 169.980469 165.777344 170.105469 165.46875 170.296875 165.015625 C 170.484375 164.566406 168.941406 163.101562 168.789062 163.480469 " fill-opacity="1" fill-rule="nonzero"/><path fill="#4b5255" d="M 171.5 156.90625 L 170.863281 158.441406 L 170.234375 159.980469 C 170.070312 160.359375 172.191406 160.414062 172.386719 159.957031 C 172.570312 159.496094 172.695312 159.199219 172.695312 159.199219 C 172.695312 159.199219 172.816406 158.894531 173.007812 158.441406 C 173.191406 157.988281 171.652344 156.53125 171.5 156.90625 " fill-opacity="1" fill-rule="nonzero"/><path fill="#4b5255" d="M 174.207031 150.328125 L 173.570312 151.867188 L 172.933594 153.402344 C 172.785156 153.78125 174.90625 153.835938 175.09375 153.375 C 175.28125 152.921875 175.402344 152.625 175.402344 152.625 C 175.402344 152.625 175.527344 152.328125 175.714844 151.867188 C 175.90625 151.40625 174.359375 149.957031 174.207031 150.328125 " fill-opacity="1" fill-rule="nonzero"/><path fill="#4b5255" d="M 176.914062 143.753906 L 176.28125 145.292969 L 175.644531 146.828125 C 175.488281 147.207031 177.613281 147.261719 177.796875 146.800781 C 177.992188 146.34375 178.109375 146.050781 178.109375 146.050781 C 178.109375 146.050781 178.234375 145.75 178.425781 145.289062 C 178.609375 144.839844 177.070312 143.378906 176.914062 143.753906 " fill-opacity="1" fill-rule="nonzero"/><path fill="#4b5255" d="M 179.625 137.175781 L 178.992188 138.710938 L 178.363281 140.246094 C 178.203125 140.621094 180.328125 140.679688 180.515625 140.21875 C 180.703125 139.753906 180.824219 139.457031 180.824219 139.457031 C 180.824219 139.457031 180.949219 139.167969 181.136719 138.710938 C 181.328125 138.253906 179.78125 136.792969 179.625 137.175781 " fill-opacity="1" fill-rule="nonzero"/><path fill="#4b5255" d="M 182.332031 130.605469 L 181.703125 132.128906 L 181.066406 133.671875 C 180.914062 134.046875 183.035156 134.101562 183.226562 133.640625 C 183.414062 133.1875 183.53125 132.890625 183.53125 132.890625 C 183.53125 132.890625 183.652344 132.589844 183.847656 132.136719 C 184.03125 131.671875 182.492188 130.222656 182.332031 130.605469 " fill-opacity="1" fill-rule="nonzero"/><path fill="#4b5255" d="M 185.042969 124.019531 L 184.414062 125.558594 L 183.777344 127.09375 C 183.617188 127.472656 185.742188 127.527344 185.929688 127.066406 C 186.121094 126.613281 186.242188 126.3125 186.242188 126.3125 C 186.242188 126.3125 186.363281 126.019531 186.558594 125.554688 C 186.746094 125.101562 185.203125 123.648438 185.042969 124.019531 " fill-opacity="1" fill-rule="nonzero"/><path fill="#4b5255" d="M 187.75 117.449219 L 186.484375 120.519531 C 186.332031 120.894531 188.453125 120.953125 188.640625 120.484375 C 188.835938 120.03125 188.953125 119.734375 188.953125 119.734375 C 188.953125 119.734375 189.078125 119.4375 189.261719 118.984375 C 189.453125 118.523438 187.90625 117.070312 187.75 117.449219 " fill-opacity="1" fill-rule="nonzero"/><path fill="#4b5255" d="M 190.460938 110.871094 L 189.832031 112.402344 L 189.195312 113.945312 C 189.039062 114.320312 191.164062 114.378906 191.347656 113.914062 C 191.539062 113.457031 191.664062 113.164062 191.664062 113.164062 C 191.664062 113.164062 191.78125 112.863281 191.96875 112.402344 C 192.160156 111.945312 190.617188 110.496094 190.460938 110.871094 " fill-opacity="1" fill-rule="nonzero"/><path fill="#4b5255" d="M 193.171875 104.300781 L 192.535156 105.835938 L 191.90625 107.367188 C 191.746094 107.746094 193.871094 107.796875 194.058594 107.339844 C 194.242188 106.886719 194.375 106.585938 194.375 106.585938 C 194.375 106.585938 194.492188 106.285156 194.683594 105.828125 C 194.871094 105.375 193.324219 103.917969 193.171875 104.300781 " fill-opacity="1" fill-rule="nonzero"/><path fill="#4b5255" d="M 195.878906 97.722656 L 195.246094 99.261719 L 194.613281 100.796875 C 194.457031 101.167969 196.582031 101.222656 196.769531 100.757812 C 196.953125 100.308594 197.082031 100.007812 197.082031 100.007812 C 197.082031 100.007812 197.203125 99.714844 197.386719 99.257812 C 197.582031 98.792969 196.039062 97.34375 195.878906 97.722656 " fill-opacity="1" fill-rule="nonzero"/><path fill="#4e5658" d="M 243.835938 85.769531 L 252.292969 89.9375 L 253.410156 90.429688 C 253.675781 90.550781 253.761719 89.011719 253.425781 88.863281 C 253.097656 88.71875 252.882812 88.621094 252.882812 88.621094 C 252.882812 88.621094 244.453125 81.996094 244.125 81.851562 C 243.789062 81.703125 243.566406 85.644531 243.835938 85.769531 " fill-opacity="1" fill-rule="nonzero"/><path fill="#4e5658" d="M 248.824219 88.398438 L 249.929688 88.890625 L 251.035156 89.378906 C 251.3125 89.5 251.390625 87.953125 251.058594 87.808594 C 250.734375 87.664062 250.519531 87.570312 250.519531 87.570312 C 250.519531 87.570312 250.308594 87.476562 249.972656 87.328125 C 249.644531 87.179688 248.554688 88.277344 248.824219 88.398438 " fill-opacity="1" fill-rule="nonzero"/><path fill="#4e5658" d="M 246.457031 87.351562 L 248.671875 88.332031 C 248.941406 88.449219 249.023438 86.90625 248.691406 86.761719 C 248.363281 86.617188 248.148438 86.519531 248.148438 86.519531 C 248.148438 86.519531 247.933594 86.429688 247.605469 86.277344 C 247.28125 86.125 246.191406 87.226562 246.457031 87.351562 " fill-opacity="1" fill-rule="nonzero"/><path fill="#4e5658" d="M 244.09375 86.296875 L 245.199219 86.789062 L 246.300781 87.273438 C 246.574219 87.398438 246.660156 85.855469 246.324219 85.714844 C 245.996094 85.558594 245.78125 85.46875 245.78125 85.46875 C 245.78125 85.46875 245.570312 85.371094 245.238281 85.226562 C 244.90625 85.078125 243.816406 86.171875 244.09375 86.296875 " fill-opacity="1" fill-rule="nonzero"/><path fill="#4e5658" d="M 241.71875 85.246094 L 242.832031 85.734375 L 243.933594 86.226562 C 244.207031 86.351562 244.289062 84.808594 243.960938 84.660156 C 243.632812 84.511719 243.417969 84.421875 243.417969 84.421875 C 243.417969 84.421875 243.207031 84.328125 242.875 84.179688 C 242.539062 84.027344 241.453125 85.125 241.71875 85.246094 " fill-opacity="1" fill-rule="nonzero"/><path fill="#4e5658" d="M 239.359375 84.191406 L 240.464844 84.6875 L 241.566406 85.171875 C 241.835938 85.292969 241.921875 83.753906 241.59375 83.613281 C 241.261719 83.464844 241.054688 83.367188 241.054688 83.367188 C 241.054688 83.367188 240.832031 83.273438 240.503906 83.125 C 240.179688 82.980469 239.085938 84.074219 239.359375 84.191406 " fill-opacity="1" fill-rule="nonzero"/><path fill="#4e5658" d="M 236.992188 83.140625 L 238.097656 83.628906 L 239.203125 84.125 C 239.472656 84.246094 239.558594 82.699219 239.226562 82.554688 C 238.894531 82.410156 238.683594 82.316406 238.683594 82.316406 C 238.683594 82.316406 238.46875 82.222656 238.140625 82.074219 C 237.8125 81.929688 236.722656 83.027344 236.992188 83.140625 " fill-opacity="1" fill-rule="nonzero"/><path fill="#4e5658" d="M 234.621094 82.089844 L 235.726562 82.582031 L 236.832031 83.078125 C 237.109375 83.191406 237.1875 81.648438 236.859375 81.507812 C 236.53125 81.359375 236.320312 81.261719 236.320312 81.261719 C 236.320312 81.261719 236.105469 81.171875 235.777344 81.019531 C 235.441406 80.875 234.351562 81.972656 234.621094 82.089844 " fill-opacity="1" fill-rule="nonzero"/><path fill="#4e5658" d="M 232.257812 81.039062 L 233.363281 81.527344 L 234.46875 82.027344 C 234.738281 82.140625 234.820312 80.597656 234.496094 80.453125 C 234.164062 80.308594 233.945312 80.214844 233.945312 80.214844 C 233.945312 80.214844 233.734375 80.121094 233.40625 79.972656 C 233.078125 79.828125 231.984375 80.921875 232.257812 81.039062 " fill-opacity="1" fill-rule="nonzero"/><path fill="#4e5658" d="M 229.890625 79.984375 L 232.101562 80.976562 C 232.371094 81.09375 232.457031 79.546875 232.128906 79.40625 C 231.792969 79.261719 231.578125 79.160156 231.578125 79.160156 C 231.578125 79.160156 231.371094 79.066406 231.039062 78.917969 C 230.710938 78.769531 229.621094 79.867188 229.890625 79.984375 " fill-opacity="1" fill-rule="nonzero"/><path fill="#4e5658" d="M 227.519531 78.941406 L 228.625 79.433594 L 229.730469 79.921875 C 230.003906 80.039062 230.082031 78.496094 229.757812 78.351562 C 229.425781 78.207031 229.214844 78.109375 229.214844 78.109375 C 229.214844 78.109375 229.003906 78.015625 228.675781 77.871094 C 228.339844 77.726562 227.246094 78.820312 227.519531 78.941406 " fill-opacity="1" fill-rule="nonzero"/><path fill="#4e5658" d="M 225.15625 77.882812 L 226.261719 78.378906 L 227.367188 78.871094 C 227.644531 78.988281 227.71875 77.449219 227.390625 77.300781 C 227.0625 77.152344 226.851562 77.054688 226.851562 77.054688 C 226.851562 77.054688 226.632812 76.960938 226.300781 76.816406 C 225.976562 76.671875 224.886719 77.765625 225.15625 77.882812 " fill-opacity="1" fill-rule="nonzero"/><path fill="#4e5658" d="M 222.792969 76.835938 L 225 77.816406 C 225.269531 77.9375 225.355469 76.394531 225.023438 76.246094 C 224.695312 76.101562 224.480469 76.003906 224.480469 76.003906 C 224.480469 76.003906 224.265625 75.914062 223.9375 75.769531 C 223.609375 75.617188 222.519531 76.710938 222.792969 76.835938 " fill-opacity="1" fill-rule="nonzero"/><path fill="#4e5658" d="M 220.425781 75.789062 L 221.53125 76.273438 L 222.636719 76.769531 C 222.90625 76.886719 222.992188 75.347656 222.65625 75.199219 C 222.328125 75.054688 222.113281 74.953125 222.113281 74.953125 C 222.113281 74.953125 221.902344 74.863281 221.574219 74.710938 C 221.238281 74.566406 220.148438 75.664062 220.425781 75.789062 " fill-opacity="1" fill-rule="nonzero"/><path fill="#464c4e" d="M 148.839844 300.628906 C 145.242188 299.148438 143.527344 295.035156 145.007812 291.441406 C 146.488281 287.839844 150.605469 286.125 154.203125 287.601562 C 157.800781 289.085938 149.929688 295.5 148.839844 300.628906 M 213.425781 143.144531 C 206.296875 140.207031 198.140625 143.605469 195.203125 150.726562 L 132.007812 283.382812 C 129.726562 288.910156 126.847656 295.726562 130.988281 299.574219 C 132.171875 300.683594 143.453125 309.171875 145.046875 309.824219 C 152.175781 312.753906 160.335938 309.355469 163.273438 302.230469 L 221.019531 161.34375 C 223.953125 154.222656 220.554688 146.074219 213.425781 143.144531 " fill-opacity="1" fill-rule="nonzero"/><path fill="#700e17" d="M 209.523438 71.671875 C 209.523438 71.671875 182.96875 82.195312 176.992188 84.683594 C 171.015625 87.171875 166.753906 103.09375 169.019531 104.027344 C 171.292969 104.964844 188.308594 111.863281 203.257812 118.015625 C 204.820312 118.652344 205.136719 120 200.832031 130.464844 C 196.519531 140.925781 195.265625 141.214844 193.398438 140.445312 C 189.808594 138.96875 180.929688 135.316406 180.929688 135.316406 C 180.929688 135.316406 173.898438 152.375 170.828125 159.824219 C 167.929688 166.867188 184.921875 170.15625 181.757812 182.539062 L 199.664062 174.640625 L 202.230469 178.835938 C 203.886719 178.371094 209.472656 185.886719 211.214844 186.464844 C 215.664062 187.945312 215.914062 184.394531 215.914062 184.394531 L 254.179688 91.5 L 209.523438 71.671875 " fill-opacity="1" fill-rule="nonzero"/><path fill="#4e5658" d="M 212.972656 72.292969 L 209.054688 81.792969 L 237.9375 100.347656 L 247.113281 108.640625 L 245.523438 112.511719 L 248.425781 111.867188 L 255.558594 91.199219 L 246.25 84.183594 L 212.972656 72.292969 " fill-opacity="1" fill-rule="nonzero"/><path fill="#4e5658" d="M 212.972656 72.292969 L 209.054688 81.792969 L 237.9375 100.347656 L 247.113281 108.640625 L 245.523438 112.511719 L 248.425781 111.867188 L 255.558594 91.199219 L 246.25 84.183594 L 212.972656 72.292969 " fill-opacity="1" fill-rule="nonzero"/><path fill="#222424" d="M 190.191406 131.804688 C 189.703125 132.996094 188.34375 133.5625 187.15625 133.070312 L 159.640625 121.757812 C 158.453125 121.261719 154.214844 116.859375 154.703125 115.671875 L 162.511719 108.691406 C 163 107.503906 164.355469 106.9375 165.546875 107.425781 L 189.484375 114.234375 C 190.667969 114.714844 194.816406 120.589844 194.324219 121.78125 L 190.191406 131.804688 " fill-opacity="1" fill-rule="nonzero"/><path fill="#7a898d" d="M 148.730469 289.789062 C 147.25 293.382812 143.132812 295.09375 139.53125 293.617188 C 135.9375 292.136719 134.222656 288.023438 135.699219 284.425781 C 137.175781 280.832031 141.300781 279.117188 144.898438 280.597656 C 148.5 282.070312 150.214844 286.195312 148.730469 289.789062 M 204.125 136.128906 C 196.992188 133.195312 188.839844 136.597656 185.902344 143.71875 L 128.148438 284.613281 C 125.210938 291.730469 128.613281 299.878906 135.746094 302.8125 C 142.871094 305.746094 151.03125 302.351562 153.964844 295.222656 L 211.710938 154.339844 C 214.652344 147.214844 211.25 139.0625 204.125 136.128906 " fill-opacity="1" fill-rule="nonzero"/><path fill="#7a898d" d="M 171.371094 92.875 C 171.371094 92.875 183.503906 63.445312 189.976562 47.734375 C 204.015625 13.648438 207.234375 16.125 235.015625 27.554688 C 251.796875 34.460938 257.082031 54.855469 255.3125 59.152344 C 253.539062 63.453125 251.859375 67.535156 251.859375 67.535156 C 251.859375 67.535156 225.394531 56.652344 213.949219 51.945312 C 209.820312 50.25 204.210938 66.300781 204.210938 66.300781 L 171.371094 92.875 " fill-opacity="1" fill-rule="nonzero"/><path fill="#ffffff" d="M 158.585938 210.359375 L 160.859375 204.816406 L 158.585938 210.359375 " fill-opacity="1" fill-rule="nonzero"/><path fill="#acb4b6" d="M 181.441406 225.488281 L 163.183594 225.488281 C 161.691406 223.503906 160.050781 221.625 158.234375 219.933594 C 157.347656 219.117188 156.511719 218.273438 155.691406 217.421875 L 158.585938 210.359375 L 160.859375 204.816406 C 165.148438 207.875 169.289062 211.234375 173.03125 214.945312 C 176.199219 218.082031 178.933594 221.699219 181.441406 225.488281 " fill-opacity="1" fill-rule="nonzero"/><path fill="#ffffff" d="M 152.941406 224.132812 L 153.648438 222.410156 L 152.941406 224.132812 " fill-opacity="1" fill-rule="nonzero"/><path fill="#acb4b6" d="M 156.144531 225.488281 L 153.363281 225.488281 L 152.941406 224.132812 L 153.648438 222.410156 C 154.5 223.425781 155.335938 224.449219 156.144531 225.488281 " fill-opacity="1" fill-rule="nonzero"/><path fill="#7a898d" d="M 203.027344 42.296875 C 197.921875 40.191406 192.074219 42.632812 189.976562 47.734375 L 137.074219 176.132812 C 134.972656 181.238281 137.40625 187.082031 142.523438 189.175781 C 147.628906 191.277344 153.472656 188.851562 155.574219 183.742188 L 208.472656 55.34375 C 210.578125 50.238281 210.160156 45.226562 203.027344 42.296875 " fill-opacity="1" fill-rule="nonzero"/><path fill="#4e5658" d="M 196.304688 58.621094 C 193.101562 57.304688 189.429688 58.828125 188.113281 62.027344 L 141.183594 175.949219 C 139.863281 179.148438 141.390625 182.820312 144.597656 184.132812 C 147.804688 185.460938 151.472656 183.929688 152.789062 180.722656 L 199.71875 66.8125 C 201.039062 63.605469 199.507812 59.941406 196.304688 58.621094 " fill-opacity="1" fill-rule="nonzero"/><path fill="#7a898d" d="M 247.527344 65.644531 L 249.761719 66.566406 C 250.042969 66.675781 248.984375 67.800781 248.644531 67.664062 C 248.3125 67.527344 248.101562 67.441406 248.101562 67.441406 C 248.101562 67.441406 247.878906 67.351562 247.542969 67.210938 C 247.214844 67.078125 247.253906 65.527344 247.527344 65.644531 " fill-opacity="1" fill-rule="nonzero"/><path fill="#7a898d" d="M 245.132812 64.660156 L 246.25 65.125 L 247.371094 65.578125 C 247.644531 65.691406 246.582031 66.816406 246.25 66.675781 C 245.917969 66.539062 245.699219 66.457031 245.699219 66.457031 C 245.699219 66.457031 245.484375 66.359375 245.152344 66.230469 C 244.816406 66.089844 244.859375 64.542969 245.132812 64.660156 " fill-opacity="1" fill-rule="nonzero"/><path fill="#7a898d" d="M 242.738281 63.675781 L 243.855469 64.136719 L 244.976562 64.597656 C 245.25 64.710938 244.1875 65.828125 243.855469 65.691406 C 243.523438 65.554688 243.304688 65.464844 243.304688 65.464844 C 243.304688 65.464844 243.082031 65.378906 242.753906 65.242188 C 242.421875 65.105469 242.457031 63.558594 242.738281 63.675781 " fill-opacity="1" fill-rule="nonzero"/><path fill="#7a898d" d="M 240.339844 62.691406 L 242.574219 63.605469 C 242.855469 63.71875 241.796875 64.84375 241.460938 64.710938 C 241.128906 64.570312 240.910156 64.480469 240.910156 64.480469 C 240.910156 64.480469 240.6875 64.394531 240.359375 64.253906 C 240.03125 64.125 240.066406 62.578125 240.339844 62.691406 " fill-opacity="1" fill-rule="nonzero"/><path fill="#7a898d" d="M 237.941406 61.703125 L 239.066406 62.167969 L 240.183594 62.625 C 240.464844 62.738281 239.398438 63.859375 239.066406 63.71875 C 238.734375 63.589844 238.511719 63.5 238.511719 63.5 C 238.511719 63.5 238.300781 63.414062 237.964844 63.269531 C 237.628906 63.128906 237.671875 61.589844 237.941406 61.703125 " fill-opacity="1" fill-rule="nonzero"/><path fill="#7a898d" d="M 235.554688 60.71875 L 236.671875 61.175781 L 237.789062 61.640625 C 238.0625 61.753906 237.003906 62.878906 236.671875 62.738281 C 236.339844 62.605469 236.121094 62.507812 236.121094 62.507812 C 236.121094 62.507812 235.90625 62.417969 235.574219 62.285156 C 235.238281 62.148438 235.277344 60.605469 235.554688 60.71875 " fill-opacity="1" fill-rule="nonzero"/><path fill="#7a898d" d="M 233.15625 59.734375 L 234.277344 60.191406 L 235.394531 60.65625 C 235.671875 60.765625 234.609375 61.894531 234.28125 61.753906 C 233.9375 61.617188 233.726562 61.527344 233.726562 61.527344 C 233.726562 61.527344 233.507812 61.433594 233.175781 61.300781 C 232.84375 61.160156 232.882812 59.621094 233.15625 59.734375 " fill-opacity="1" fill-rule="nonzero"/><path fill="#7a898d" d="M 230.761719 58.746094 L 231.875 59.207031 L 232.996094 59.671875 C 233.277344 59.777344 232.214844 60.902344 231.875 60.773438 C 231.546875 60.632812 231.332031 60.542969 231.332031 60.542969 C 231.332031 60.542969 231.113281 60.449219 230.78125 60.308594 C 230.449219 60.179688 230.484375 58.632812 230.761719 58.746094 " fill-opacity="1" fill-rule="nonzero"/><path fill="#7a898d" d="M 228.367188 57.761719 L 230.601562 58.683594 C 230.875 58.796875 229.816406 59.917969 229.484375 59.777344 C 229.152344 59.644531 228.933594 59.5625 228.933594 59.5625 C 228.933594 59.5625 228.71875 59.46875 228.386719 59.328125 C 228.046875 59.195312 228.089844 57.648438 228.367188 57.761719 " fill-opacity="1" fill-rule="nonzero"/><path fill="#7a898d" d="M 225.96875 56.78125 L 227.089844 57.234375 L 228.207031 57.695312 C 228.484375 57.808594 227.421875 58.9375 227.089844 58.796875 C 226.753906 58.65625 226.542969 58.566406 226.542969 58.566406 C 226.542969 58.566406 226.324219 58.484375 225.984375 58.34375 C 225.652344 58.203125 225.691406 56.664062 225.96875 56.78125 " fill-opacity="1" fill-rule="nonzero"/><path fill="#7a898d" d="M 223.578125 55.796875 L 224.695312 56.253906 L 225.816406 56.710938 C 226.09375 56.828125 225.027344 57.945312 224.695312 57.8125 C 224.359375 57.671875 224.144531 57.582031 224.144531 57.582031 C 224.144531 57.582031 223.929688 57.5 223.597656 57.363281 C 223.261719 57.222656 223.300781 55.679688 223.578125 55.796875 " fill-opacity="1" fill-rule="nonzero"/><path fill="#7a898d" d="M 221.179688 54.804688 L 222.296875 55.265625 L 223.417969 55.730469 C 223.695312 55.835938 222.636719 56.964844 222.300781 56.832031 C 221.964844 56.691406 221.75 56.601562 221.75 56.601562 C 221.75 56.601562 221.53125 56.515625 221.203125 56.375 C 220.871094 56.238281 220.90625 54.695312 221.179688 54.804688 " fill-opacity="1" fill-rule="nonzero"/><path fill="#7a898d" d="M 218.785156 53.820312 L 219.902344 54.285156 L 221.023438 54.742188 C 221.296875 54.855469 220.238281 55.976562 219.902344 55.839844 C 219.570312 55.703125 219.355469 55.617188 219.355469 55.617188 C 219.355469 55.617188 219.140625 55.53125 218.804688 55.390625 C 218.476562 55.257812 218.511719 53.714844 218.785156 53.820312 " fill-opacity="1" fill-rule="nonzero"/><path fill="#7a898d" d="M 216.390625 52.835938 L 217.507812 53.300781 L 218.628906 53.757812 C 218.902344 53.871094 217.839844 54.996094 217.511719 54.855469 C 217.179688 54.722656 216.957031 54.632812 216.957031 54.632812 C 216.957031 54.632812 216.746094 54.535156 216.40625 54.40625 C 216.074219 54.265625 216.113281 52.71875 216.390625 52.835938 " fill-opacity="1" fill-rule="nonzero"/><path fill="#7a898d" d="M 139.140625 171.832031 L 138.507812 173.371094 L 137.875 174.90625 C 137.71875 175.28125 136.171875 173.824219 136.367188 173.371094 C 136.550781 172.90625 136.671875 172.609375 136.671875 172.609375 C 136.671875 172.609375 136.796875 172.316406 136.988281 171.859375 C 137.171875 171.398438 139.296875 171.449219 139.140625 171.832031 " fill-opacity="1" fill-rule="nonzero"/><path fill="#7a898d" d="M 141.855469 165.257812 L 141.21875 166.792969 L 140.585938 168.332031 C 140.429688 168.710938 138.886719 167.25 139.074219 166.792969 C 139.261719 166.34375 139.382812 166.042969 139.382812 166.042969 C 139.382812 166.042969 139.503906 165.738281 139.695312 165.285156 C 139.882812 164.828125 142.003906 164.878906 141.855469 165.257812 " fill-opacity="1" fill-rule="nonzero"/><path fill="#7a898d" d="M 144.558594 158.683594 L 143.925781 160.21875 L 143.292969 161.757812 C 143.132812 162.136719 141.59375 160.679688 141.777344 160.21875 C 141.972656 159.761719 142.09375 159.464844 142.09375 159.464844 C 142.09375 159.464844 142.210938 159.164062 142.40625 158.710938 C 142.59375 158.253906 144.710938 158.300781 144.558594 158.683594 " fill-opacity="1" fill-rule="nonzero"/><path fill="#7a898d" d="M 147.269531 152.105469 L 146.632812 153.644531 L 146.007812 155.179688 C 145.84375 155.558594 144.304688 154.101562 144.488281 153.644531 C 144.679688 153.191406 144.800781 152.886719 144.800781 152.886719 C 144.800781 152.886719 144.925781 152.59375 145.117188 152.132812 C 145.304688 151.675781 147.425781 151.722656 147.269531 152.105469 " fill-opacity="1" fill-rule="nonzero"/><path fill="#7a898d" d="M 149.980469 145.53125 L 149.34375 147.066406 L 148.714844 148.601562 C 148.554688 148.984375 147.011719 147.527344 147.199219 147.070312 C 147.390625 146.609375 147.511719 146.316406 147.511719 146.316406 C 147.511719 146.316406 147.632812 146.015625 147.820312 145.558594 C 148.007812 145.101562 150.132812 145.15625 149.980469 145.53125 " fill-opacity="1" fill-rule="nonzero"/><path fill="#7a898d" d="M 152.683594 138.960938 L 152.050781 140.492188 L 151.417969 142.03125 C 151.265625 142.410156 149.722656 140.953125 149.910156 140.492188 C 150.097656 140.035156 150.222656 139.738281 150.222656 139.738281 C 150.222656 139.738281 150.34375 139.441406 150.527344 138.984375 C 150.71875 138.527344 152.84375 138.578125 152.683594 138.960938 " fill-opacity="1" fill-rule="nonzero"/><path fill="#7a898d" d="M 155.394531 132.382812 L 154.761719 133.917969 L 154.125 135.453125 C 153.972656 135.832031 152.433594 134.375 152.617188 133.917969 C 152.808594 133.457031 152.929688 133.160156 152.929688 133.160156 C 152.929688 133.160156 153.054688 132.867188 153.238281 132.40625 C 153.429688 131.949219 155.550781 132.003906 155.394531 132.382812 " fill-opacity="1" fill-rule="nonzero"/><path fill="#7a898d" d="M 158.109375 125.796875 L 157.476562 127.332031 L 156.839844 128.871094 C 156.683594 129.25 155.140625 127.785156 155.328125 127.332031 C 155.515625 126.878906 155.644531 126.578125 155.644531 126.578125 C 155.644531 126.578125 155.765625 126.28125 155.949219 125.820312 C 156.144531 125.367188 158.261719 125.421875 158.109375 125.796875 " fill-opacity="1" fill-rule="nonzero"/><path fill="#7a898d" d="M 160.816406 119.21875 L 160.183594 120.753906 L 159.550781 122.292969 C 159.394531 122.671875 157.855469 121.214844 158.039062 120.753906 C 158.226562 120.300781 158.355469 120.003906 158.355469 120.003906 C 158.355469 120.003906 158.472656 119.707031 158.660156 119.246094 C 158.851562 118.789062 160.96875 118.84375 160.816406 119.21875 " fill-opacity="1" fill-rule="nonzero"/><path fill="#7a898d" d="M 163.527344 112.648438 L 162.894531 114.179688 L 162.257812 115.71875 C 162.105469 116.097656 160.554688 114.636719 160.746094 114.179688 C 160.933594 113.722656 161.0625 113.429688 161.0625 113.429688 C 161.0625 113.429688 161.183594 113.132812 161.371094 112.667969 C 161.5625 112.214844 163.679688 112.265625 163.527344 112.648438 " fill-opacity="1" fill-rule="nonzero"/><path fill="#7a898d" d="M 166.230469 106.074219 L 165.601562 107.605469 L 164.96875 109.144531 C 164.8125 109.519531 163.273438 108.0625 163.457031 107.605469 C 163.644531 107.152344 163.765625 106.851562 163.765625 106.851562 C 163.765625 106.851562 163.886719 106.554688 164.078125 106.101562 C 164.265625 105.640625 166.390625 105.695312 166.230469 106.074219 " fill-opacity="1" fill-rule="nonzero"/><path fill="#7a898d" d="M 168.941406 99.496094 L 168.3125 101.027344 L 167.675781 102.574219 C 167.519531 102.945312 165.976562 101.492188 166.167969 101.027344 C 166.351562 100.570312 166.476562 100.273438 166.476562 100.273438 C 166.476562 100.273438 166.597656 99.980469 166.789062 99.523438 C 166.972656 99.0625 169.097656 99.117188 168.941406 99.496094 " fill-opacity="1" fill-rule="nonzero"/><path fill="#7a898d" d="M 171.652344 92.917969 L 171.015625 94.457031 L 170.386719 95.988281 C 170.234375 96.371094 168.683594 94.910156 168.875 94.457031 C 169.066406 94 169.183594 93.699219 169.183594 93.699219 C 169.183594 93.699219 169.304688 93.40625 169.496094 92.945312 C 169.683594 92.488281 171.804688 92.546875 171.652344 92.917969 " fill-opacity="1" fill-rule="nonzero"/><path fill="#7a898d" d="M 174.363281 86.347656 L 173.726562 87.882812 L 173.097656 89.421875 C 172.945312 89.792969 171.394531 88.335938 171.585938 87.882812 C 171.769531 87.417969 171.894531 87.125 171.894531 87.125 C 171.894531 87.125 172.015625 86.828125 172.207031 86.371094 C 172.394531 85.914062 174.519531 85.964844 174.363281 86.347656 " fill-opacity="1" fill-rule="nonzero"/><path fill="#7a898d" d="M 157.097656 179.21875 L 156.46875 180.757812 L 155.832031 182.292969 C 155.679688 182.667969 157.800781 182.726562 157.988281 182.265625 C 158.179688 181.808594 158.300781 181.511719 158.300781 181.511719 C 158.300781 181.511719 158.421875 181.207031 158.609375 180.757812 C 158.800781 180.289062 157.253906 178.84375 157.097656 179.21875 " fill-opacity="1" fill-rule="nonzero"/><path fill="#7a898d" d="M 159.808594 172.640625 L 159.175781 174.179688 L 158.539062 175.714844 C 158.386719 176.097656 160.507812 176.152344 160.695312 175.6875 C 160.890625 175.234375 161.011719 174.925781 161.011719 174.925781 C 161.011719 174.925781 161.128906 174.640625 161.320312 174.179688 C 161.507812 173.71875 159.960938 172.265625 159.808594 172.640625 " fill-opacity="1" fill-rule="nonzero"/><path fill="#7a898d" d="M 162.515625 166.066406 L 161.886719 167.605469 L 161.253906 169.140625 C 161.097656 169.519531 163.21875 169.570312 163.40625 169.113281 C 163.589844 168.660156 163.71875 168.359375 163.71875 168.359375 C 163.71875 168.359375 163.84375 168.0625 164.027344 167.601562 C 164.21875 167.148438 162.671875 165.691406 162.515625 166.066406 " fill-opacity="1" fill-rule="nonzero"/><path fill="#7a898d" d="M 165.226562 159.5 L 164.589844 161.035156 L 163.960938 162.566406 C 163.808594 162.941406 165.929688 162.996094 166.117188 162.539062 C 166.308594 162.082031 166.429688 161.785156 166.429688 161.785156 C 166.429688 161.785156 166.546875 161.484375 166.738281 161.027344 C 166.929688 160.566406 165.382812 159.117188 165.226562 159.5 " fill-opacity="1" fill-rule="nonzero"/><path fill="#7a898d" d="M 167.9375 152.917969 L 167.300781 154.449219 L 166.671875 155.988281 C 166.515625 156.367188 168.636719 156.425781 168.820312 155.957031 C 169.011719 155.507812 169.140625 155.207031 169.140625 155.207031 C 169.140625 155.207031 169.257812 154.910156 169.445312 154.449219 C 169.632812 153.992188 168.089844 152.539062 167.9375 152.917969 " fill-opacity="1" fill-rule="nonzero"/><path fill="#7a898d" d="M 170.644531 146.34375 L 170.007812 147.882812 L 169.378906 149.414062 C 169.21875 149.792969 171.347656 149.847656 171.53125 149.390625 C 171.71875 148.929688 171.839844 148.632812 171.839844 148.632812 C 171.839844 148.632812 171.96875 148.335938 172.152344 147.882812 C 172.34375 147.421875 170.796875 145.964844 170.644531 146.34375 " fill-opacity="1" fill-rule="nonzero"/><path fill="#7a898d" d="M 173.355469 139.769531 L 172.71875 141.308594 L 172.085938 142.84375 C 171.929688 143.214844 174.050781 143.273438 174.242188 142.804688 C 174.429688 142.355469 174.554688 142.058594 174.554688 142.058594 C 174.554688 142.058594 174.679688 141.761719 174.863281 141.304688 C 175.050781 140.84375 173.507812 139.390625 173.355469 139.769531 " fill-opacity="1" fill-rule="nonzero"/><path fill="#7a898d" d="M 176.066406 133.183594 L 174.800781 136.253906 C 174.644531 136.636719 176.765625 136.6875 176.957031 136.222656 C 177.140625 135.769531 177.261719 135.472656 177.261719 135.472656 C 177.261719 135.472656 177.390625 135.171875 177.578125 134.71875 C 177.765625 134.261719 176.222656 132.804688 176.066406 133.183594 " fill-opacity="1" fill-rule="nonzero"/><path fill="#7a898d" d="M 178.777344 126.613281 L 177.507812 129.679688 C 177.351562 130.054688 179.472656 130.109375 179.664062 129.648438 C 179.851562 129.195312 179.972656 128.894531 179.972656 128.894531 C 179.972656 128.894531 180.09375 128.597656 180.285156 128.148438 C 180.46875 127.683594 178.929688 126.230469 178.777344 126.613281 " fill-opacity="1" fill-rule="nonzero"/><path fill="#7a898d" d="M 181.480469 120.03125 L 180.851562 121.570312 L 180.214844 123.101562 C 180.058594 123.476562 182.183594 123.535156 182.371094 123.074219 C 182.5625 122.621094 182.6875 122.324219 182.6875 122.324219 C 182.6875 122.324219 182.804688 122.027344 182.996094 121.570312 C 183.183594 121.105469 181.636719 119.65625 181.480469 120.03125 " fill-opacity="1" fill-rule="nonzero"/><path fill="#7a898d" d="M 184.191406 113.457031 L 183.5625 114.992188 L 182.921875 116.535156 C 182.773438 116.90625 184.890625 116.960938 185.085938 116.496094 C 185.273438 116.042969 185.390625 115.746094 185.390625 115.746094 C 185.390625 115.746094 185.515625 115.445312 185.707031 114.992188 C 185.890625 114.535156 184.347656 113.078125 184.191406 113.457031 " fill-opacity="1" fill-rule="nonzero"/><path fill="#7a898d" d="M 186.902344 106.878906 L 186.269531 108.421875 L 185.632812 109.945312 C 185.480469 110.332031 187.601562 110.386719 187.785156 109.925781 C 187.980469 109.46875 188.101562 109.167969 188.101562 109.167969 C 188.101562 109.167969 188.222656 108.871094 188.414062 108.414062 C 188.597656 107.957031 187.058594 106.503906 186.902344 106.878906 " fill-opacity="1" fill-rule="nonzero"/><path fill="#7a898d" d="M 189.609375 100.304688 L 188.980469 101.84375 L 188.339844 103.378906 C 188.1875 103.75 190.3125 103.808594 190.496094 103.351562 C 190.683594 102.886719 190.808594 102.59375 190.808594 102.59375 C 190.808594 102.59375 190.929688 102.300781 191.125 101.839844 C 191.308594 101.378906 189.769531 99.929688 189.609375 100.304688 " fill-opacity="1" fill-rule="nonzero"/><path fill="#7a898d" d="M 192.316406 93.730469 L 191.679688 95.269531 L 191.050781 96.804688 C 190.894531 97.175781 193.019531 97.234375 193.207031 96.777344 C 193.398438 96.316406 193.519531 96.015625 193.519531 96.015625 C 193.519531 96.015625 193.640625 95.722656 193.828125 95.269531 C 194.019531 94.800781 192.480469 93.347656 192.316406 93.730469 " fill-opacity="1" fill-rule="nonzero"/><path fill="#51535c" d="M 241.886719 82.4375 L 242.992188 82.933594 L 244.101562 83.421875 C 244.371094 83.542969 244.453125 81.996094 244.125 81.851562 C 243.789062 81.703125 243.578125 81.613281 243.578125 81.613281 C 243.578125 81.613281 243.367188 81.515625 243.035156 81.375 C 242.707031 81.226562 241.617188 82.320312 241.886719 82.4375 " fill-opacity="1" fill-rule="nonzero"/><path fill="#51535c" d="M 239.515625 81.382812 L 240.621094 81.882812 L 241.734375 82.371094 C 242.003906 82.496094 242.089844 80.949219 241.75 80.800781 C 241.425781 80.65625 241.210938 80.558594 241.210938 80.558594 C 241.210938 80.558594 241 80.464844 240.671875 80.316406 C 240.335938 80.167969 239.246094 81.265625 239.515625 81.382812 " fill-opacity="1" fill-rule="nonzero"/><path fill="#51535c" d="M 237.152344 80.339844 L 239.363281 81.316406 C 239.640625 81.4375 239.714844 79.894531 239.386719 79.746094 C 239.0625 79.601562 238.847656 79.503906 238.847656 79.503906 C 238.847656 79.503906 238.636719 79.414062 238.300781 79.269531 C 237.972656 79.121094 236.882812 80.214844 237.152344 80.339844 " fill-opacity="1" fill-rule="nonzero"/><path fill="#51535c" d="M 234.785156 79.289062 L 235.890625 79.773438 L 237 80.269531 C 237.269531 80.390625 237.351562 78.847656 237.019531 78.699219 C 236.691406 78.554688 236.480469 78.457031 236.480469 78.457031 C 236.480469 78.457031 236.265625 78.359375 235.933594 78.210938 C 235.609375 78.070312 234.515625 79.167969 234.785156 79.289062 " fill-opacity="1" fill-rule="nonzero"/><path fill="#51535c" d="M 232.421875 78.234375 L 234.628906 79.214844 C 234.902344 79.34375 234.988281 77.796875 234.652344 77.648438 C 234.324219 77.507812 234.109375 77.40625 234.109375 77.40625 C 234.109375 77.40625 233.898438 77.3125 233.570312 77.164062 C 233.234375 77.019531 232.144531 78.109375 232.421875 78.234375 " fill-opacity="1" fill-rule="nonzero"/><path fill="#51535c" d="M 230.050781 77.1875 L 231.160156 77.675781 L 232.257812 78.167969 C 232.535156 78.289062 232.617188 76.742188 232.289062 76.597656 C 231.960938 76.449219 231.746094 76.359375 231.746094 76.359375 C 231.746094 76.359375 231.535156 76.265625 231.203125 76.117188 C 230.871094 75.972656 229.78125 77.0625 230.050781 77.1875 " fill-opacity="1" fill-rule="nonzero"/><path fill="#51535c" d="M 227.6875 76.132812 L 228.792969 76.625 L 229.898438 77.113281 C 230.164062 77.234375 230.25 75.691406 229.921875 75.546875 C 229.59375 75.398438 229.382812 75.304688 229.382812 75.304688 C 229.382812 75.304688 229.160156 75.214844 228.832031 75.0625 C 228.507812 74.914062 227.414062 76.007812 227.6875 76.132812 " fill-opacity="1" fill-rule="nonzero"/><path fill="#51535c" d="M 225.320312 75.078125 L 226.421875 75.566406 L 227.53125 76.0625 C 227.804688 76.183594 227.886719 74.644531 227.558594 74.492188 C 227.222656 74.347656 227.011719 74.257812 227.011719 74.257812 C 227.011719 74.257812 226.796875 74.160156 226.46875 74.015625 C 226.140625 73.871094 225.050781 74.960938 225.320312 75.078125 " fill-opacity="1" fill-rule="nonzero"/><path fill="#51535c" d="M 222.949219 74.03125 L 224.054688 74.523438 L 225.160156 75.011719 C 225.4375 75.136719 225.515625 73.589844 225.1875 73.441406 C 224.859375 73.300781 224.644531 73.199219 224.644531 73.199219 C 224.644531 73.199219 224.433594 73.109375 224.101562 72.960938 C 223.769531 72.8125 222.679688 73.910156 222.949219 74.03125 " fill-opacity="1" fill-rule="nonzero"/><path fill="#51535c" d="M 220.585938 72.976562 L 221.691406 73.464844 L 222.796875 73.960938 C 223.074219 74.078125 223.148438 72.539062 222.820312 72.390625 C 222.492188 72.246094 222.273438 72.152344 222.273438 72.152344 C 222.273438 72.152344 222.0625 72.058594 221.734375 71.910156 C 221.402344 71.765625 220.3125 72.863281 220.585938 72.976562 " fill-opacity="1" fill-rule="nonzero"/><path fill="#51535c" d="M 218.21875 71.925781 L 219.324219 72.417969 L 220.429688 72.914062 C 220.703125 73.027344 220.785156 71.492188 220.457031 71.34375 C 220.121094 71.195312 219.910156 71.097656 219.910156 71.097656 C 219.910156 71.097656 219.695312 71.003906 219.367188 70.855469 C 219.039062 70.714844 217.949219 71.808594 218.21875 71.925781 " fill-opacity="1" fill-rule="nonzero"/><path fill="#51535c" d="M 215.847656 70.878906 L 216.953125 71.367188 L 218.058594 71.863281 C 218.335938 71.976562 218.421875 70.4375 218.085938 70.289062 C 217.757812 70.144531 217.542969 70.046875 217.542969 70.046875 C 217.542969 70.046875 217.332031 69.957031 217.003906 69.8125 C 216.667969 69.660156 215.578125 70.757812 215.847656 70.878906 " fill-opacity="1" fill-rule="nonzero"/><path fill="#51535c" d="M 213.484375 69.828125 L 215.695312 70.804688 C 215.964844 70.929688 216.046875 69.382812 215.722656 69.242188 C 215.390625 69.085938 215.175781 68.996094 215.175781 68.996094 C 215.175781 68.996094 214.960938 68.902344 214.632812 68.753906 C 214.304688 68.605469 213.210938 69.703125 213.484375 69.828125 " fill-opacity="1" fill-rule="nonzero"/><path fill="#51535c" d="M 211.121094 68.777344 L 213.328125 69.757812 C 213.597656 69.878906 213.683594 68.332031 213.351562 68.1875 C 213.023438 68.039062 212.808594 67.945312 212.808594 67.945312 C 212.808594 67.945312 212.59375 67.855469 212.265625 67.707031 C 211.9375 67.554688 210.847656 68.652344 211.121094 68.777344 " fill-opacity="1" fill-rule="nonzero"/><path fill="#bf1b2c" d="M 244.875 84.484375 L 200.21875 64.664062 C 200.21875 64.664062 173.664062 75.179688 167.683594 77.671875 C 161.710938 80.164062 157.449219 96.085938 159.714844 97.015625 C 161.988281 97.953125 179 104.847656 193.949219 111.003906 C 195.519531 111.648438 195.835938 112.992188 191.523438 123.453125 C 187.214844 133.910156 185.953125 134.199219 184.089844 133.433594 C 180.5 131.957031 171.625 128.308594 171.625 128.308594 C 171.625 128.308594 164.589844 145.371094 161.523438 152.808594 C 158.460938 160.253906 170.589844 170.769531 171.015625 180.386719 C 184.132812 181.808594 206.605469 177.382812 206.605469 177.382812 L 244.875 84.484375 " fill-opacity="1" fill-rule="nonzero"/><path fill="#ed1639" d="M 193.054688 105.109375 C 187.632812 101.828125 181.027344 102.027344 174.859375 100.160156 C 171.441406 99.125 167.859375 98.234375 164.710938 96.492188 C 161.144531 94.519531 160.960938 92.308594 162.167969 88.5625 C 163.011719 85.9375 164.464844 81.996094 166.992188 80.53125 C 168.683594 79.539062 170.484375 78.742188 172.269531 77.925781 C 172.605469 81.550781 174.511719 85.136719 176.964844 87.652344 C 180.710938 91.5 192.550781 98.40625 193.054688 105.109375 " fill-opacity="1" fill-rule="nonzero"/><path fill="#dc1434" d="M 207.476562 175.261719 L 207.488281 175.238281 C 207.488281 175.238281 207.488281 175.242188 207.488281 175.242188 L 207.476562 175.261719 " fill-opacity="1" fill-rule="nonzero"/><path fill="#ed1639" d="M 199.363281 175.972656 C 193.796875 175.972656 180.214844 173.167969 177.070312 170.40625 C 171.539062 165.558594 166.519531 159.414062 163.296875 152.777344 C 163.078125 152.328125 162.859375 151.839844 162.628906 151.351562 L 162.65625 151.269531 C 164.496094 147.175781 166.457031 143.125 168.535156 139.242188 C 169.207031 137.976562 170.347656 136.425781 171.5 134.757812 C 171.296875 135.855469 171.144531 136.988281 171.03125 138.152344 C 170.671875 141.925781 169.90625 146.582031 171.289062 150.230469 C 172.757812 154.121094 195.039062 168.953125 201.632812 170.660156 C 204.640625 171.441406 206.308594 173.15625 207.488281 175.238281 L 207.476562 175.261719 C 206.964844 175.171875 206.433594 175.132812 205.894531 175.132812 C 204.183594 175.132812 202.398438 175.515625 201.066406 175.828125 C 200.65625 175.925781 200.074219 175.972656 199.363281 175.972656 " fill-opacity="1" fill-rule="nonzero"/><path fill="#4e5658" d="M 203.667969 65.277344 L 199.75 74.78125 L 217.375 91.78125 L 239.390625 100.839844 L 246.25 84.183594 L 203.667969 65.277344 " fill-opacity="1" fill-rule="nonzero"/><path fill="#34383a" d="M 186.617188 127.296875 C 186.128906 128.484375 184.769531 129.050781 183.574219 128.5625 L 156.070312 117.25 C 154.882812 116.757812 154.3125 115.398438 154.796875 114.21875 L 158.929688 104.179688 C 159.425781 102.992188 160.78125 102.429688 161.96875 102.917969 L 189.484375 114.234375 C 190.671875 114.722656 191.238281 116.078125 190.75 117.261719 L 186.617188 127.296875 " fill-opacity="1" fill-rule="nonzero"/><path fill="#828d8c" d="M 207.183594 73.910156 C 207.726562 72.59375 207.101562 71.085938 205.78125 70.535156 C 204.457031 69.996094 202.949219 70.621094 202.40625 71.945312 C 201.859375 73.257812 202.488281 74.769531 203.808594 75.316406 C 205.132812 75.859375 206.644531 75.230469 207.183594 73.910156 " fill-opacity="1" fill-rule="nonzero"/><path fill="#f47126" d="M 156.601562 235.804688 L 133.183594 243.144531 L 112.078125 175.910156 L 135.496094 168.574219 L 156.601562 235.804688 " fill-opacity="1" fill-rule="nonzero"/><path fill="#f89c22" d="M 138.355469 167.679688 L 109.222656 176.808594 L 106.382812 167.785156 L 135.523438 158.65625 L 138.355469 167.679688 " fill-opacity="1" fill-rule="nonzero"/><path fill="#ffffff" d="M 129.578125 160.519531 C 129.578125 160.519531 129.578125 160.515625 129.574219 160.515625 L 133.617188 159.257812 L 129.578125 160.519531 " fill-opacity="1" fill-rule="nonzero"/><path fill="#fbc34b" d="M 132.878906 169.390625 C 132.101562 167.011719 129.78125 161.203125 129.578125 160.519531 L 133.617188 159.257812 C 133.71875 159.535156 135.894531 167.160156 136.335938 168.3125 L 132.878906 169.390625 " fill-opacity="1" fill-rule="nonzero"/><path fill="#f89c22" d="M 161.222656 247.039062 L 136.011719 254.949219 L 130.351562 243.367188 L 159.242188 234.320312 L 161.222656 247.039062 " fill-opacity="1" fill-rule="nonzero"/><path fill="#7a898d" d="M 89.089844 70.210938 L 91.023438 81.628906 L 93.3125 86.53125 L 117.707031 164.242188 L 124.402344 162.140625 L 100.007812 84.433594 L 99.0625 79.171875 L 93.980469 68.6875 L 89.089844 70.210938 " fill-opacity="1" fill-rule="nonzero"/><path fill="#acb4b6" d="M 121.296875 162.140625 L 97.730469 87.230469 L 96.800781 83.199219 L 92.757812 71.730469 L 93.597656 71.472656 L 98.5 81.589844 L 99.410156 86.664062 L 122.9375 161.621094 L 121.296875 162.140625 " fill-opacity="1" fill-rule="nonzero"/><path fill="#9f4817" d="M 148.339844 225.488281 L 145.515625 225.488281 L 130.011719 176.09375 L 132.582031 175.28125 L 148.339844 225.488281 " fill-opacity="1" fill-rule="nonzero"/><path fill="#9f4817" d="M 141.914062 225.488281 L 139.089844 225.488281 L 124.164062 177.925781 L 126.730469 177.113281 L 141.914062 225.488281 " fill-opacity="1" fill-rule="nonzero"/><path fill="#9f4817" d="M 135.484375 225.488281 L 132.660156 225.488281 L 118.3125 179.753906 L 120.878906 178.949219 L 135.484375 225.488281 " fill-opacity="1" fill-rule="nonzero"/><path fill="#192e42" d="M 225.613281 211.179688 C 227.808594 210.859375 231.367188 205.851562 233.621094 201.257812 L 242.34375 191.5 C 240.164062 190.578125 238.0625 189.496094 236.28125 188.222656 L 235.875 188.257812 L 235.84375 187.898438 C 235.464844 187.617188 235.109375 187.324219 234.765625 187.027344 L 232.375 189.695312 C 231.183594 189.078125 225.214844 198.152344 223.773438 198.359375 C 199.351562 201.851562 181.746094 218.113281 172.886719 245.394531 C 166.460938 265.160156 164.445312 280.882812 164.472656 281.65625 C 164.578125 285.238281 170.023438 290.867188 173.597656 290.769531 C 177.171875 290.660156 179.988281 287.6875 179.886719 284.109375 C 179.878906 283.800781 179.523438 266.675781 185.308594 249.089844 C 192.667969 226.699219 206.230469 213.941406 225.613281 211.179688 " fill-opacity="1" fill-rule="nonzero"/><path fill="#192e42" d="M 255.039062 204.148438 L 254.824219 203.902344 L 257.070312 195.78125 C 255.910156 195.675781 254.722656 195.460938 253.507812 195.125 C 252.144531 194.757812 250.472656 194.300781 248.671875 193.753906 L 244.429688 209.089844 C 241.984375 212.871094 239.996094 217.558594 240.890625 219.503906 C 249.046875 237.285156 245.664062 255.585938 230.8125 273.882812 C 219.085938 288.335938 204.417969 297.320312 204.265625 297.40625 C 201.210938 299.261719 200.234375 303.238281 202.082031 306.296875 C 203.9375 309.351562 207.910156 310.332031 210.972656 308.480469 C 211.640625 308.082031 227.488281 298.421875 240.640625 282.320312 C 258.800781 260.101562 262.953125 236.515625 252.667969 214.105469 C 252.058594 212.78125 256.222656 204.800781 255.039062 204.148438 " fill-opacity="1" fill-rule="nonzero"/><path fill="#515c5c" d="M 306.242188 105.394531 L 257.886719 170.210938 L 284.089844 93.144531 L 283.070312 91.714844 L 240.445312 166.617188 L 242.628906 175.261719 C 242.011719 176.566406 241.703125 177.9375 241.664062 179.304688 L 232.375 189.695312 C 231.929688 189.460938 230.789062 190.613281 229.480469 192.148438 L 231.097656 197.703125 L 233.617188 201.257812 L 245.753906 187.6875 C 246.128906 187.972656 246.519531 188.230469 246.949219 188.464844 C 247.875 188.976562 248.855469 189.3125 249.84375 189.511719 L 252.519531 199.5625 L 254.824219 203.902344 L 259.628906 186.527344 L 270.339844 182.914062 L 306.949219 106.386719 L 306.242188 105.394531 " fill-opacity="1" fill-rule="nonzero"/><path fill="#9bb5b3" d="M 242.980469 171.457031 L 219.984375 197.1875 C 197.238281 201.023438 180.816406 216.660156 172.417969 242.503906 C 166.101562 261.921875 166.546875 280.105469 166.566406 280.871094 L 175.203125 280.628906 C 175.199219 280.453125 174.789062 262.984375 180.695312 244.96875 C 188.320312 221.667969 202.484375 208.386719 222.785156 205.488281 L 224.34375 205.265625 L 249.417969 177.203125 L 242.980469 171.457031 " fill-opacity="1" fill-rule="nonzero"/><path fill="#335f88" d="M 229.855469 186.144531 C 227.097656 183.78125 222.691406 194.601562 221.253906 194.808594 C 196.824219 198.296875 179.222656 214.558594 170.359375 241.839844 C 163.933594 261.609375 164.386719 280.15625 164.40625 280.929688 C 164.515625 284.507812 167.496094 287.3125 171.070312 287.214844 C 174.644531 287.117188 177.460938 284.132812 177.355469 280.566406 C 177.351562 280.246094 176.996094 263.125 182.777344 245.535156 C 190.136719 223.148438 203.703125 210.386719 223.085938 207.625 C 226.628906 207.117188 231.601562 201.246094 231.097656 197.703125 C 230.796875 195.601562 230.066406 189.527344 229.855469 186.144531 " fill-opacity="1" fill-rule="nonzero"/><path fill="#728483" d="M 258.019531 179.65625 L 249.699219 177.351562 L 239.667969 213.617188 L 240.324219 215.046875 C 260.953125 259.972656 203.449219 295.339844 202.867188 295.699219 L 207.328125 303.089844 C 207.988281 302.683594 223.523438 293.222656 236.445312 277.40625 C 253.644531 256.351562 257.90625 234.089844 248.820312 212.90625 L 258.019531 179.65625 " fill-opacity="1" fill-rule="nonzero"/><path fill="#335f88" d="M 252.519531 199.5625 C 250.785156 198.613281 248.636719 199.367188 246.703125 200.253906 C 243.457031 201.742188 236.875 212.699219 238.359375 215.945312 C 246.523438 233.734375 243.132812 252.03125 228.28125 270.335938 C 216.5625 284.777344 201.894531 293.765625 201.742188 293.851562 C 198.6875 295.707031 197.707031 299.6875 199.558594 302.742188 C 201.40625 305.796875 205.382812 306.777344 208.441406 304.929688 C 209.113281 304.527344 224.964844 294.867188 238.117188 278.765625 C 256.269531 256.546875 260.425781 232.964844 250.136719 210.554688 C 249.53125 209.230469 253.699219 200.207031 252.519531 199.5625 " fill-opacity="1" fill-rule="nonzero"/><path fill="#728483" d="M 248.753906 184.519531 L 242.769531 182.300781 L 237.929688 163.066406 L 279.359375 90.734375 L 283.070312 91.714844 L 248.753906 184.519531 " fill-opacity="1" fill-rule="nonzero"/><path fill="#9bb5b3" d="M 243.902344 181.875 L 249.015625 185.707031 L 267.816406 179.363281 L 306.242188 105.394531 L 303.410156 102.800781 L 243.902344 181.875 " fill-opacity="1" fill-rule="nonzero"/><path fill="#8d9696" d="M 267.570312 133.628906 L 269.335938 128.859375 C 269.335938 128.859375 269.335938 128.863281 269.335938 128.863281 L 267.570312 133.628906 " fill-opacity="1" fill-rule="nonzero"/><path fill="#ffffff" d="M 259.816406 124.847656 L 259.929688 124.65625 L 259.816406 124.847656 " fill-opacity="1" fill-rule="nonzero"/><path fill="#a83139" d="M 259.929688 124.65625 L 262.429688 120.285156 C 262.433594 120.285156 262.433594 120.285156 262.433594 120.285156 L 259.929688 124.65625 " fill-opacity="1" fill-rule="nonzero"/><path fill="#a9b5b4" d="M 266.160156 137.4375 C 265.246094 135.902344 264.398438 134.316406 263.546875 132.695312 C 262.195312 130.121094 260.871094 127.5625 259.816406 124.847656 L 259.929688 124.65625 L 262.433594 120.285156 C 262.53125 120.515625 265.234375 125.304688 269.335938 128.859375 L 267.570312 133.628906 L 266.160156 137.4375 " fill-opacity="1" fill-rule="nonzero"/><path fill="#ffffff" d="M 252.359375 137.867188 C 252.359375 137.867188 252.359375 137.859375 252.359375 137.859375 L 256.957031 129.847656 L 252.359375 137.867188 " fill-opacity="1" fill-rule="nonzero"/><path fill="#a9b5b4" d="M 258.445312 158.304688 C 255.746094 153.34375 253.582031 147.855469 252.773438 142.3125 C 252.5625 140.84375 252.441406 139.355469 252.359375 137.867188 L 256.957031 129.847656 L 257.1875 129.449219 C 257.78125 131.101562 258.507812 132.730469 259.273438 134.328125 C 260.75 137.390625 262.269531 140.273438 264.117188 142.96875 L 258.445312 158.304688 " fill-opacity="1" fill-rule="nonzero"/><path fill="#8d9696" d="M 282.097656 151.867188 L 290.203125 136.265625 L 282.097656 151.867188 " fill-opacity="1" fill-rule="nonzero"/><path fill="#c6d4d3" d="M 282.097656 151.867188 C 278.652344 150.042969 275.402344 147.902344 272.460938 145.308594 C 272.25 145.128906 272.042969 144.941406 271.84375 144.75 L 280.109375 133.769531 C 283.84375 135.710938 288.375 135.871094 290.203125 136.265625 L 282.097656 151.867188 " fill-opacity="1" fill-rule="nonzero"/><path fill="#8d9696" d="M 270.417969 174.355469 L 279.84375 156.210938 C 279.84375 156.214844 279.84375 156.214844 279.84375 156.214844 L 270.417969 174.355469 M 259.832031 160.714844 L 260.988281 159.175781 L 259.832031 160.714844 " fill-opacity="1" fill-rule="nonzero"/><path fill="#c6d4d3" d="M 270.417969 174.355469 C 270.269531 174.207031 270.121094 174.0625 269.972656 173.917969 C 266.046875 169.972656 262.675781 165.492188 259.832031 160.714844 L 260.988281 159.175781 L 268.917969 148.640625 C 272.125 151.703125 275.941406 154.113281 279.84375 156.210938 L 270.417969 174.355469 " fill-opacity="1" fill-rule="nonzero"/><path fill="#728483" d="M 242.265625 172.1875 C 244.371094 168.316406 249.226562 166.890625 253.101562 169 C 256.972656 171.113281 258.40625 175.960938 256.292969 179.832031 C 254.179688 183.703125 249.324219 185.128906 245.453125 183.015625 C 241.578125 180.902344 240.152344 176.058594 242.265625 172.1875 " fill-opacity="1" fill-rule="nonzero"/><path fill="#9bb5b3" d="M 254.398438 178.796875 C 255.9375 175.976562 254.890625 172.4375 252.070312 170.894531 C 249.242188 169.355469 245.699219 170.402344 244.160156 173.21875 C 242.621094 176.042969 243.664062 179.589844 246.488281 181.125 C 249.308594 182.660156 252.855469 181.621094 254.398438 178.796875 Z M 258.1875 180.863281 C 255.507812 185.769531 249.328125 187.589844 244.417969 184.910156 C 239.503906 182.234375 237.683594 176.066406 240.367188 171.15625 C 243.042969 166.25 249.222656 164.429688 254.132812 167.109375 C 259.050781 169.785156 260.871094 175.957031 258.1875 180.863281 " fill-opacity="1" fill-rule="nonzero"/><path fill="#96232a" d="M 51.988281 225.488281 L 51.988281 337.0625 C 51.988281 347.949219 60.824219 356.777344 71.714844 356.777344 L 334.292969 356.777344 C 345.1875 356.777344 354.011719 347.949219 354.011719 337.0625 L 354.011719 225.488281 L 51.988281 225.488281 " fill-opacity="1" fill-rule="nonzero"/><path fill="#a7a5a6" d="M 354.011719 298.332031 L 354.382812 298.332031 L 354.382812 291.128906 L 354.011719 291.128906 Z M 354.011719 298.332031 " fill-opacity="1" fill-rule="nonzero"/><path fill="#631519" d="M 51.988281 298.332031 L 354.011719 298.332031 L 354.011719 291.128906 L 51.988281 291.128906 Z M 51.988281 298.332031 " fill-opacity="1" fill-rule="nonzero"/></svg>