<svg xmlns="http://www.w3.org/2000/svg" xmlns:xlink="http://www.w3.org/1999/xlink" width="500" zoomAndPan="magnify" viewBox="0 0 375 374.999991" height="500" preserveAspectRatio="xMidYMid meet" version="1.0"><defs><clipPath id="9156d7c19e"><path d="M 112.5 159 L 150 159 L 150 189 L 112.5 189 Z M 112.5 159 " clip-rule="nonzero"/></clipPath><clipPath id="1b58b89fde"><path d="M 112.5 157 L 150 157 L 150 187 L 112.5 187 Z M 112.5 157 " clip-rule="nonzero"/></clipPath><clipPath id="72b85a8b32"><path d="M 218 162 L 262.5 162 L 262.5 206 L 218 206 Z M 218 162 " clip-rule="nonzero"/></clipPath><clipPath id="f8dec2757c"><path d="M 228 167 L 262.5 167 L 262.5 202 L 228 202 Z M 228 167 " clip-rule="nonzero"/></clipPath></defs><path fill="#781b20" d="M 258.394531 159.796875 C 258.394531 161.265625 257.199219 162.457031 255.730469 162.457031 L 131.671875 162.457031 C 130.199219 162.457031 129.011719 161.265625 129.011719 159.796875 L 129.011719 158.757812 C 129.011719 157.285156 130.199219 156.09375 131.671875 156.09375 L 255.730469 156.09375 C 257.199219 156.09375 258.394531 157.285156 258.394531 158.757812 L 258.394531 159.796875 " fill-opacity="1" fill-rule="nonzero"/><path fill="#b62b34" d="M 151.214844 207.628906 L 143.023438 151.148438 L 137.6875 151.148438 C 135.261719 151.148438 133.296875 153.117188 133.296875 155.542969 L 133.296875 207.628906 L 151.214844 207.628906 " fill-opacity="1" fill-rule="nonzero"/><path fill="#b62b34" d="M 236.1875 207.628906 L 244.378906 151.148438 L 249.71875 151.148438 C 252.140625 151.148438 254.105469 153.117188 254.105469 155.542969 L 254.105469 207.628906 L 236.1875 207.628906 " fill-opacity="1" fill-rule="nonzero"/><g clip-path="url(#9156d7c19e)"><path fill="#40595e" d="M 129.207031 164.050781 L 127.144531 165.960938 L 125.765625 164.464844 L 121.074219 168.808594 L 122.453125 170.300781 L 118.949219 171.644531 L 118.898438 173.597656 L 119.914062 174.699219 L 116.492188 177.867188 L 115.472656 176.769531 L 112.535156 177.582031 L 112.484375 179.535156 L 121.023438 188.785156 L 124.144531 185.898438 L 124.210938 184.363281 L 124.914062 183.726562 L 126.84375 181.945312 L 127.570312 182.730469 L 131.453125 179.132812 L 132.082031 179.808594 C 133.203125 178.496094 134.378906 177.246094 135.75 176.195312 L 135.230469 175.632812 L 137.390625 173.632812 L 137.75 173.300781 C 137.75 173.300781 137.964844 171.828125 137.800781 171.347656 C 137.421875 170.230469 136.585938 169.402344 137.582031 168.609375 C 140.574219 166.230469 145.730469 161.882812 149.152344 161.585938 C 149.164062 161.144531 149.210938 160.816406 149.226562 160.25 C 141.207031 157.546875 129.207031 164.050781 129.207031 164.050781 " fill-opacity="1" fill-rule="nonzero"/></g><path fill="#647272" d="M 128.507812 171.042969 L 128.679688 164.539062 L 127.144531 165.960938 L 121.128906 166.855469 L 121.074219 168.808594 L 122.453125 170.300781 L 121.042969 170.84375 L 128.507812 171.042969 " fill-opacity="1" fill-rule="nonzero"/><path fill="#2f1d15" d="M 189.421875 228.433594 C 186.4375 225.355469 154.941406 194.660156 154.355469 194.027344 C 154.28125 193.945312 154.109375 193.976562 153.875 194.082031 C 153.648438 194.234375 153.414062 194.371094 153.175781 194.5 C 153.074219 194.570312 152.972656 194.644531 152.863281 194.726562 L 152.828125 194.6875 C 152.246094 194.996094 151.652344 195.277344 151.0625 195.59375 C 150.105469 196.101562 148.949219 196.132812 148.355469 197.429688 C 147.765625 198.722656 148.136719 199.496094 148.28125 199.660156 C 148.804688 200.222656 178.964844 234.652344 181.269531 237.148438 C 183.671875 239.753906 188.238281 236.433594 189.480469 233.21875 C 189.964844 231.972656 190.253906 229.292969 189.421875 228.433594 " fill-opacity="1" fill-rule="nonzero"/><path fill="#647272" d="M 135.347656 175.523438 L 131.4375 175.421875 L 131.335938 179.238281 L 131.453125 179.132812 L 148.355469 197.429688 L 152.035156 194.277344 L 135.230469 175.632812 L 135.347656 175.523438 " fill-opacity="1" fill-rule="nonzero"/><path fill="#9bb5b3" d="M 125.816406 162.515625 L 121.128906 166.855469 L 122.828125 168.695312 L 127.515625 164.355469 L 125.816406 162.515625 " fill-opacity="1" fill-rule="nonzero"/><path fill="#9bb5b3" d="M 135.28125 173.679688 L 131.507812 177.175781 L 149.480469 196.640625 L 153.257812 193.140625 L 135.28125 173.679688 " fill-opacity="1" fill-rule="nonzero"/><path fill="#c6d4d3" d="M 151.710938 193.757812 L 134.242188 175.113281 L 135.265625 174.308594 L 152.710938 192.925781 C 152.394531 193.171875 152.054688 193.453125 151.710938 193.757812 " fill-opacity="1" fill-rule="nonzero"/><path fill="#513428" d="M 154.410156 192.074219 C 153.824219 191.445312 147.808594 197.136719 148.332031 197.703125 C 148.855469 198.269531 179.015625 232.699219 181.320312 235.195312 C 184.65625 238.808594 192.148438 231.011719 189.164062 227.933594 C 186.179688 224.851562 154.992188 192.707031 154.410156 192.074219 " fill-opacity="1" fill-rule="nonzero"/><path fill="#866346" d="M 163.558594 202.878906 L 161.96875 202.878906 L 152.917969 193.453125 C 153.511719 193.007812 154 192.71875 154.246094 192.71875 C 154.300781 192.71875 154.347656 192.734375 154.375 192.765625 C 154.570312 192.976562 158.324219 196.855469 163.269531 201.964844 L 163.558594 202.878906 " fill-opacity="1" fill-rule="nonzero"/><g clip-path="url(#1b58b89fde)"><path fill="#5b8188" d="M 118.949219 171.644531 L 119.964844 172.746094 L 116.542969 175.914062 L 115.527344 174.8125 L 112.535156 177.582031 L 121.078125 186.835938 L 124.195312 183.945312 L 123.472656 183.160156 L 126.894531 179.988281 L 127.621094 180.777344 L 137.800781 171.347656 C 137.800781 171.347656 136.207031 167.789062 137.636719 166.65625 C 140.625 164.28125 145.804688 160.550781 149.226562 160.25 C 148.761719 159.746094 147.59375 158.484375 146.960938 157.796875 C 138.941406 155.09375 129.257812 162.09375 129.257812 162.09375 L 118.949219 171.644531 " fill-opacity="1" fill-rule="nonzero"/></g><path fill="#97b2b7" d="M 122.4375 173.007812 L 120.378906 171.003906 L 129.238281 162.800781 C 129.238281 162.800781 136.042969 157.878906 142.96875 157.878906 C 144.304688 157.878906 145.644531 158.0625 146.941406 158.5 C 147.136719 158.707031 147.375 158.96875 147.628906 159.242188 C 147.355469 159.210938 147.082031 159.199219 146.8125 159.195312 C 146.722656 159.195312 146.636719 159.191406 146.542969 159.191406 C 144.699219 159.191406 142.828125 159.535156 141.070312 160.054688 C 138.945312 160.683594 136.785156 161.503906 134.8125 162.519531 C 132.746094 163.589844 130.867188 165.015625 129.015625 166.40625 C 127.277344 167.714844 123.445312 171.664062 122.4375 173.007812 " fill-opacity="1" fill-rule="nonzero"/><g clip-path="url(#72b85a8b32)"><path fill="#29323e" d="M 231.203125 162.742188 L 236.175781 162.550781 L 235.21875 166.761719 L 233.742188 168.242188 L 238.335938 172.84375 L 239.816406 171.363281 L 240.054688 171.601562 L 243.207031 174.757812 C 243.375 174.585938 253.859375 180.257812 253.859375 180.257812 L 252.902344 184.46875 L 251.421875 185.949219 L 256.019531 190.546875 L 257.496094 189.070312 L 262.46875 188.878906 L 261.234375 193.089844 L 248.835938 205.511719 L 244.925781 201.320312 L 245.105469 199.390625 L 241.382812 195.664062 L 240.328125 196.71875 L 227.753906 184.125 L 227.75 182.027344 L 224.039062 178.296875 L 222.988281 179.351562 L 218.800781 175.160156 L 218.800781 170.324219 L 231.203125 162.742188 " fill-opacity="1" fill-rule="nonzero"/></g><path fill="#41220d" d="M 170.132812 241.949219 C 172.726562 239.351562 190.46875 226.324219 205.117188 212.230469 C 221.847656 196.132812 229.8125 187.199219 230.632812 186.414062 L 230.609375 186.390625 C 230.609375 186.390625 235.394531 186.527344 237.132812 190.507812 C 237.902344 192.261719 236.871094 192.660156 236.871094 192.660156 C 236.035156 193.53125 227.210938 201.410156 211.191406 218.105469 C 197.101562 232.796875 183.023438 249.980469 180.398438 252.613281 C 175.765625 257.253906 168.421875 251.433594 169.144531 246.132812 C 169.292969 245.019531 169.171875 242.910156 170.132812 241.949219 " fill-opacity="1" fill-rule="nonzero"/><path fill="#41220d" d="M 242.550781 171.355469 L 243.898438 172.699219 C 244.355469 172.242188 245.308594 171.289062 246.09375 170.503906 C 247.003906 169.59375 251.886719 172.316406 252.746094 174.289062 C 252.90625 174.660156 252.535156 176.667969 252.390625 176.808594 C 251.71875 177.484375 250.683594 178.519531 250.195312 179.007812 L 250.667969 179.480469 L 242.550781 171.355469 " fill-opacity="1" fill-rule="nonzero"/><path fill="#5a3114" d="M 246.355469 168.347656 C 247.4375 167.269531 253.5625 173.746094 252.65625 174.65625 C 251.75 175.5625 250.1875 177.125 250.1875 177.125 L 243.890625 170.820312 C 243.890625 170.820312 245.277344 169.429688 246.355469 168.347656 " fill-opacity="1" fill-rule="nonzero"/><path fill="#5a3114" d="M 230.894531 184.257812 C 233.035156 185.390625 236.105469 188.242188 237.132812 190.507812 C 236.300781 191.375 227.476562 199.257812 211.457031 215.953125 C 197.359375 230.644531 183.289062 247.832031 180.660156 250.457031 C 175.054688 256.074219 165.480469 246.371094 171.03125 240.8125 C 173.621094 238.21875 190.730469 224.167969 205.382812 210.074219 C 222.109375 193.976562 230.078125 185.046875 230.894531 184.257812 " fill-opacity="1" fill-rule="nonzero"/><path fill="#926614" d="M 215.492188 202.878906 L 215.152344 202.878906 C 215.097656 202.652344 215.039062 202.421875 214.980469 202.199219 C 225.023438 192.070312 230.695312 185.578125 231.308594 184.988281 C 231.929688 185.25 232.242188 185.472656 232.691406 185.9375 L 215.492188 202.878906 " fill-opacity="1" fill-rule="nonzero"/><path fill="#44556b" d="M 236.175781 162.550781 L 234.699219 164.03125 L 239.296875 168.632812 L 240.773438 167.15625 L 247.3125 173.699219 L 234.910156 186.121094 L 228.539062 179.746094 L 229.59375 178.691406 L 225 174.089844 L 223.945312 175.144531 L 218.800781 170.324219 L 232.160156 158.53125 L 236.175781 162.550781 " fill-opacity="1" fill-rule="nonzero"/><g clip-path="url(#f8dec2757c)"><path fill="#44556b" d="M 228.609375 179.816406 L 241.011719 167.394531 L 253.859375 180.257812 L 252.382812 181.738281 L 256.976562 186.339844 L 258.453125 184.859375 L 262.46875 188.878906 L 250.070312 201.300781 L 245.882812 197.109375 L 246.933594 196.054688 L 242.339844 191.453125 L 241.289062 192.507812 L 228.609375 179.816406 " fill-opacity="1" fill-rule="nonzero"/></g><path fill="#748196" d="M 238.3125 170.097656 C 236.65625 168.519531 234.308594 165.992188 232.957031 164.78125 C 232.695312 164.542969 233.773438 163.585938 233.449219 162.921875 C 233.207031 162.425781 232.738281 161.867188 232.285156 161.410156 L 232.835938 160.25 L 235.339844 162.753906 L 234.046875 164.050781 L 239.148438 169.261719 L 238.3125 170.097656 " fill-opacity="1" fill-rule="nonzero"/><path fill="#748196" d="M 246.234375 173.769531 C 242.507812 170.9375 240.964844 171.855469 239.957031 171.441406 C 239.640625 171.308594 239.042969 170.796875 238.3125 170.097656 L 239.148438 169.261719 L 239.410156 169.523438 L 240.703125 168.226562 L 246.234375 173.769531 " fill-opacity="1" fill-rule="nonzero"/><path fill="#464c4e" d="M 184.773438 152.527344 C 184.773438 152.527344 189.621094 140.730469 192.210938 134.433594 C 197.828125 120.769531 199.117188 121.761719 210.230469 126.34375 C 216.941406 129.109375 219.054688 137.289062 218.34375 139.011719 C 217.640625 140.734375 216.964844 142.371094 216.964844 142.371094 C 216.964844 142.371094 206.378906 138.007812 201.804688 136.121094 C 200.148438 135.441406 197.90625 141.878906 197.90625 141.878906 L 184.773438 152.527344 " fill-opacity="1" fill-rule="nonzero"/><path fill="#4b5255" d="M 195.136719 131.042969 C 193.09375 130.199219 190.753906 131.175781 189.914062 133.226562 L 168.753906 184.695312 C 168.128906 186.21875 167.78125 184.785156 167.804688 186.984375 C 168.175781 187.367188 170.410156 189.707031 170.929688 189.925781 C 172.972656 190.765625 175.3125 189.789062 176.15625 187.742188 L 197.3125 136.273438 C 198.15625 134.226562 197.988281 132.21875 195.136719 131.042969 " fill-opacity="1" fill-rule="nonzero"/><path fill="#4b5255" d="M 192.445312 137.585938 C 191.164062 137.058594 189.695312 137.671875 189.167969 138.953125 L 170.398438 184.621094 C 169.867188 185.902344 170.480469 187.371094 171.765625 187.898438 C 173.042969 188.429688 174.511719 187.816406 175.039062 186.53125 L 193.8125 140.871094 C 194.339844 139.582031 193.726562 138.117188 192.445312 137.585938 " fill-opacity="1" fill-rule="nonzero"/><path fill="#464c4e" d="M 215.234375 141.613281 L 215.679688 141.796875 L 216.128906 141.984375 C 216.238281 142.027344 215.816406 142.476562 215.679688 142.421875 C 215.546875 142.367188 215.460938 142.332031 215.460938 142.332031 C 215.460938 142.332031 215.375 142.296875 215.238281 142.242188 C 215.105469 142.183594 215.121094 141.566406 215.234375 141.613281 " fill-opacity="1" fill-rule="nonzero"/><path fill="#464c4e" d="M 214.277344 141.21875 L 214.722656 141.402344 L 215.167969 141.589844 C 215.28125 141.632812 214.855469 142.085938 214.722656 142.027344 C 214.585938 141.96875 214.503906 141.9375 214.503906 141.9375 C 214.503906 141.9375 214.417969 141.902344 214.28125 141.847656 C 214.148438 141.789062 214.164062 141.171875 214.277344 141.21875 " fill-opacity="1" fill-rule="nonzero"/><path fill="#464c4e" d="M 213.316406 140.820312 L 213.765625 141.007812 L 214.210938 141.191406 C 214.320312 141.238281 213.898438 141.6875 213.765625 141.632812 C 213.632812 141.578125 213.542969 141.542969 213.542969 141.542969 C 213.542969 141.542969 213.457031 141.503906 213.324219 141.449219 C 213.191406 141.394531 213.203125 140.777344 213.316406 140.820312 " fill-opacity="1" fill-rule="nonzero"/><path fill="#464c4e" d="M 212.359375 140.429688 L 212.804688 140.613281 L 213.253906 140.796875 C 213.363281 140.839844 212.941406 141.292969 212.808594 141.238281 C 212.671875 141.183594 212.585938 141.144531 212.585938 141.144531 C 212.585938 141.144531 212.5 141.109375 212.363281 141.058594 C 212.230469 141 212.25 140.382812 212.359375 140.429688 " fill-opacity="1" fill-rule="nonzero"/><path fill="#464c4e" d="M 211.402344 140.035156 L 211.847656 140.21875 L 212.296875 140.402344 C 212.40625 140.449219 211.980469 140.898438 211.847656 140.839844 C 211.714844 140.789062 211.628906 140.753906 211.628906 140.753906 C 211.628906 140.753906 211.542969 140.71875 211.40625 140.660156 C 211.273438 140.605469 211.289062 139.988281 211.402344 140.035156 " fill-opacity="1" fill-rule="nonzero"/><path fill="#464c4e" d="M 210.441406 139.636719 L 210.890625 139.824219 L 211.339844 140.007812 C 211.449219 140.050781 211.023438 140.503906 210.890625 140.449219 C 210.757812 140.390625 210.671875 140.359375 210.671875 140.359375 C 210.671875 140.359375 210.582031 140.320312 210.449219 140.269531 C 210.316406 140.210938 210.332031 139.59375 210.441406 139.636719 " fill-opacity="1" fill-rule="nonzero"/><path fill="#464c4e" d="M 209.484375 139.242188 L 209.933594 139.425781 L 210.378906 139.613281 C 210.488281 139.660156 210.066406 140.105469 209.933594 140.054688 C 209.796875 140 209.710938 139.960938 209.710938 139.960938 C 209.710938 139.960938 209.625 139.925781 209.492188 139.871094 C 209.359375 139.816406 209.375 139.199219 209.484375 139.242188 " fill-opacity="1" fill-rule="nonzero"/><path fill="#464c4e" d="M 208.527344 138.851562 L 208.972656 139.035156 L 209.421875 139.21875 C 209.53125 139.261719 209.105469 139.714844 208.972656 139.660156 C 208.839844 139.601562 208.753906 139.566406 208.753906 139.566406 C 208.753906 139.566406 208.667969 139.53125 208.53125 139.476562 C 208.402344 139.421875 208.417969 138.804688 208.527344 138.851562 " fill-opacity="1" fill-rule="nonzero"/><path fill="#464c4e" d="M 207.570312 138.453125 L 208.015625 138.640625 L 208.460938 138.820312 C 208.574219 138.871094 208.148438 139.316406 208.015625 139.261719 C 207.882812 139.210938 207.796875 139.171875 207.796875 139.171875 C 207.796875 139.171875 207.710938 139.140625 207.574219 139.082031 C 207.441406 139.023438 207.457031 138.410156 207.570312 138.453125 " fill-opacity="1" fill-rule="nonzero"/><path fill="#464c4e" d="M 206.609375 138.058594 L 207.058594 138.246094 L 207.503906 138.429688 C 207.617188 138.472656 207.191406 138.925781 207.058594 138.871094 C 206.921875 138.8125 206.835938 138.777344 206.835938 138.777344 C 206.835938 138.777344 206.75 138.742188 206.617188 138.6875 C 206.484375 138.632812 206.5 138.011719 206.609375 138.058594 " fill-opacity="1" fill-rule="nonzero"/><path fill="#464c4e" d="M 205.652344 137.664062 L 206.546875 138.03125 C 206.65625 138.078125 206.230469 138.527344 206.101562 138.472656 C 205.964844 138.417969 205.878906 138.382812 205.878906 138.382812 C 205.878906 138.382812 205.792969 138.347656 205.660156 138.292969 C 205.527344 138.238281 205.539062 137.617188 205.652344 137.664062 " fill-opacity="1" fill-rule="nonzero"/><path fill="#464c4e" d="M 204.695312 137.269531 L 205.140625 137.453125 L 205.589844 137.636719 C 205.699219 137.679688 205.277344 138.132812 205.140625 138.078125 C 205.007812 138.023438 204.921875 137.988281 204.921875 137.988281 C 204.921875 137.988281 204.835938 137.953125 204.699219 137.894531 C 204.570312 137.84375 204.582031 137.222656 204.695312 137.269531 " fill-opacity="1" fill-rule="nonzero"/><path fill="#464c4e" d="M 203.734375 136.875 L 204.183594 137.058594 L 204.628906 137.242188 C 204.742188 137.289062 204.316406 137.738281 204.183594 137.679688 C 204.050781 137.628906 203.960938 137.59375 203.960938 137.59375 C 203.960938 137.59375 203.875 137.558594 203.746094 137.503906 C 203.609375 137.445312 203.625 136.828125 203.734375 136.875 " fill-opacity="1" fill-rule="nonzero"/><path fill="#464c4e" d="M 199 134.203125 L 203.226562 136.664062 L 203.675781 136.851562 C 203.78125 136.894531 203.359375 137.34375 203.226562 137.289062 C 203.09375 137.230469 203.003906 137.199219 203.003906 137.199219 C 203.003906 137.199219 202.917969 137.160156 202.785156 137.105469 C 202.652344 137.050781 198.890625 134.160156 199 134.203125 " fill-opacity="1" fill-rule="nonzero"/><path fill="#4b5255" d="M 169.582031 182.96875 L 169.328125 183.585938 L 169.074219 184.199219 C 169.011719 184.351562 168.394531 183.769531 168.472656 183.585938 C 168.546875 183.402344 168.59375 183.28125 168.59375 183.28125 C 168.59375 183.28125 168.644531 183.164062 168.71875 182.980469 C 168.792969 182.796875 169.644531 182.816406 169.582031 182.96875 " fill-opacity="1" fill-rule="nonzero"/><path fill="#4b5255" d="M 170.664062 180.335938 L 170.410156 180.949219 L 170.160156 181.566406 C 170.097656 181.714844 169.476562 181.132812 169.554688 180.949219 C 169.628906 180.765625 169.679688 180.648438 169.679688 180.648438 C 169.679688 180.648438 169.726562 180.527344 169.800781 180.34375 C 169.878906 180.160156 170.726562 180.183594 170.664062 180.335938 " fill-opacity="1" fill-rule="nonzero"/><path fill="#4b5255" d="M 171.746094 177.695312 L 171.492188 178.3125 L 171.242188 178.925781 C 171.179688 179.082031 170.5625 178.496094 170.636719 178.3125 C 170.710938 178.128906 170.761719 178.011719 170.761719 178.011719 C 170.761719 178.011719 170.808594 177.890625 170.886719 177.710938 C 170.960938 177.523438 171.8125 177.546875 171.746094 177.695312 " fill-opacity="1" fill-rule="nonzero"/><path fill="#4b5255" d="M 172.832031 175.0625 L 172.324219 176.292969 C 172.261719 176.445312 171.648438 175.859375 171.71875 175.675781 C 171.796875 175.496094 171.84375 175.375 171.84375 175.375 C 171.84375 175.375 171.894531 175.257812 171.972656 175.074219 C 172.042969 174.890625 172.894531 174.910156 172.832031 175.0625 " fill-opacity="1" fill-rule="nonzero"/><path fill="#4b5255" d="M 173.914062 172.425781 L 173.664062 173.042969 L 173.410156 173.65625 C 173.347656 173.808594 172.726562 173.226562 172.804688 173.042969 C 172.878906 172.859375 172.929688 172.738281 172.929688 172.738281 C 172.929688 172.738281 172.976562 172.621094 173.050781 172.4375 C 173.128906 172.25 173.976562 172.273438 173.914062 172.425781 " fill-opacity="1" fill-rule="nonzero"/><path fill="#4b5255" d="M 175 169.789062 L 174.492188 171.023438 C 174.429688 171.171875 173.8125 170.589844 173.886719 170.40625 C 173.960938 170.222656 174.011719 170.101562 174.011719 170.101562 C 174.011719 170.101562 174.058594 169.984375 174.136719 169.800781 C 174.210938 169.617188 175.0625 169.636719 175 169.789062 " fill-opacity="1" fill-rule="nonzero"/><path fill="#4b5255" d="M 176.082031 167.152344 L 175.574219 168.386719 C 175.515625 168.535156 174.894531 167.953125 174.972656 167.769531 C 175.046875 167.585938 175.097656 167.46875 175.097656 167.46875 C 175.097656 167.46875 175.144531 167.347656 175.21875 167.164062 C 175.296875 166.980469 176.144531 167 176.082031 167.152344 " fill-opacity="1" fill-rule="nonzero"/><path fill="#4b5255" d="M 177.164062 164.515625 L 176.914062 165.132812 L 176.660156 165.746094 C 176.597656 165.898438 175.980469 165.3125 176.058594 165.132812 C 176.132812 164.945312 176.179688 164.828125 176.179688 164.828125 C 176.179688 164.828125 176.230469 164.710938 176.304688 164.527344 C 176.378906 164.34375 177.230469 164.363281 177.164062 164.515625 " fill-opacity="1" fill-rule="nonzero"/><path fill="#4b5255" d="M 178.25 161.878906 L 177.742188 163.109375 C 177.679688 163.261719 177.066406 162.679688 177.140625 162.496094 C 177.214844 162.3125 177.261719 162.191406 177.261719 162.191406 C 177.261719 162.191406 177.3125 162.074219 177.390625 161.890625 C 177.460938 161.707031 178.3125 161.726562 178.25 161.878906 " fill-opacity="1" fill-rule="nonzero"/><path fill="#4b5255" d="M 179.335938 159.242188 L 179.082031 159.859375 L 178.828125 160.472656 C 178.765625 160.628906 178.148438 160.042969 178.222656 159.859375 C 178.296875 159.675781 178.347656 159.554688 178.347656 159.554688 C 178.347656 159.554688 178.398438 159.4375 178.472656 159.253906 C 178.546875 159.070312 179.398438 159.09375 179.335938 159.242188 " fill-opacity="1" fill-rule="nonzero"/><path fill="#4b5255" d="M 180.417969 156.609375 L 180.164062 157.222656 L 179.914062 157.839844 C 179.847656 157.992188 179.230469 157.410156 179.304688 157.222656 C 179.382812 157.039062 179.429688 156.917969 179.429688 156.917969 C 179.429688 156.917969 179.480469 156.804688 179.554688 156.617188 C 179.632812 156.4375 180.480469 156.457031 180.417969 156.609375 " fill-opacity="1" fill-rule="nonzero"/><path fill="#4b5255" d="M 181.5 153.972656 L 181.246094 154.585938 L 180.996094 155.203125 C 180.933594 155.355469 180.316406 154.769531 180.390625 154.589844 C 180.464844 154.402344 180.515625 154.285156 180.515625 154.285156 C 180.515625 154.285156 180.5625 154.167969 180.640625 153.984375 C 180.714844 153.796875 181.5625 153.820312 181.5 153.972656 " fill-opacity="1" fill-rule="nonzero"/><path fill="#4b5255" d="M 182.585938 151.335938 L 182.332031 151.953125 L 182.078125 152.566406 C 182.015625 152.71875 181.398438 152.136719 181.472656 151.953125 C 181.550781 151.769531 181.597656 151.648438 181.597656 151.648438 C 181.597656 151.648438 181.648438 151.53125 181.722656 151.347656 C 181.796875 151.164062 182.648438 151.183594 182.585938 151.335938 " fill-opacity="1" fill-rule="nonzero"/><path fill="#4b5255" d="M 183.667969 148.703125 L 183.414062 149.316406 L 183.160156 149.933594 C 183.101562 150.082031 182.484375 149.5 182.558594 149.316406 C 182.632812 149.132812 182.679688 149.011719 182.679688 149.011719 C 182.679688 149.011719 182.730469 148.894531 182.808594 148.710938 C 182.882812 148.527344 183.730469 148.550781 183.667969 148.703125 " fill-opacity="1" fill-rule="nonzero"/><path fill="#4b5255" d="M 176.765625 185.929688 L 176.511719 186.546875 L 176.257812 187.160156 C 176.195312 187.3125 177.046875 187.335938 177.117188 187.148438 C 177.195312 186.96875 177.246094 186.847656 177.246094 186.847656 C 177.246094 186.847656 177.292969 186.730469 177.371094 186.546875 C 177.445312 186.359375 176.824219 185.777344 176.765625 185.929688 " fill-opacity="1" fill-rule="nonzero"/><path fill="#4b5255" d="M 177.847656 183.296875 L 177.597656 183.910156 L 177.34375 184.527344 C 177.277344 184.675781 178.128906 184.699219 178.203125 184.515625 C 178.277344 184.332031 178.328125 184.210938 178.328125 184.210938 C 178.328125 184.210938 178.375 184.09375 178.453125 183.910156 C 178.527344 183.726562 177.910156 183.140625 177.847656 183.296875 " fill-opacity="1" fill-rule="nonzero"/><path fill="#4b5255" d="M 178.929688 180.660156 L 178.675781 181.273438 L 178.425781 181.890625 C 178.363281 182.042969 179.210938 182.0625 179.285156 181.878906 C 179.363281 181.695312 179.410156 181.578125 179.410156 181.578125 C 179.410156 181.578125 179.460938 181.460938 179.535156 181.273438 C 179.613281 181.089844 178.992188 180.507812 178.929688 180.660156 " fill-opacity="1" fill-rule="nonzero"/><path fill="#4b5255" d="M 180.015625 178.023438 L 179.761719 178.636719 L 179.507812 179.253906 C 179.445312 179.40625 180.296875 179.425781 180.371094 179.242188 C 180.445312 179.0625 180.492188 178.941406 180.492188 178.941406 C 180.492188 178.941406 180.542969 178.820312 180.617188 178.636719 C 180.695312 178.457031 180.078125 177.871094 180.015625 178.023438 " fill-opacity="1" fill-rule="nonzero"/><path fill="#4b5255" d="M 181.097656 175.386719 L 180.84375 176 L 180.59375 176.617188 C 180.527344 176.769531 181.375 176.792969 181.453125 176.609375 C 181.527344 176.421875 181.578125 176.304688 181.578125 176.304688 C 181.578125 176.304688 181.628906 176.183594 181.703125 176 C 181.777344 175.820312 181.160156 175.234375 181.097656 175.386719 " fill-opacity="1" fill-rule="nonzero"/><path fill="#4b5255" d="M 182.183594 172.75 L 181.929688 173.367188 L 181.675781 173.980469 C 181.613281 174.132812 182.464844 174.15625 182.535156 173.972656 C 182.613281 173.789062 182.660156 173.667969 182.660156 173.667969 C 182.660156 173.667969 182.710938 173.550781 182.785156 173.367188 C 182.863281 173.179688 182.242188 172.601562 182.183594 172.75 " fill-opacity="1" fill-rule="nonzero"/><path fill="#4b5255" d="M 183.265625 170.113281 L 182.757812 171.347656 C 182.695312 171.496094 183.546875 171.519531 183.621094 171.335938 C 183.695312 171.152344 183.742188 171.035156 183.742188 171.035156 C 183.742188 171.035156 183.792969 170.914062 183.871094 170.730469 C 183.945312 170.550781 183.328125 169.964844 183.265625 170.113281 " fill-opacity="1" fill-rule="nonzero"/><path fill="#4b5255" d="M 184.351562 167.476562 L 184.097656 168.09375 L 183.84375 168.707031 C 183.78125 168.859375 184.632812 168.882812 184.707031 168.695312 C 184.78125 168.511719 184.828125 168.390625 184.828125 168.390625 C 184.828125 168.390625 184.878906 168.273438 184.953125 168.09375 C 185.03125 167.910156 184.410156 167.324219 184.351562 167.476562 " fill-opacity="1" fill-rule="nonzero"/><path fill="#4b5255" d="M 185.433594 164.84375 L 185.179688 165.453125 L 184.925781 166.074219 C 184.867188 166.222656 185.714844 166.242188 185.789062 166.058594 C 185.867188 165.878906 185.914062 165.757812 185.914062 165.757812 C 185.914062 165.757812 185.960938 165.636719 186.039062 165.457031 C 186.113281 165.269531 185.496094 164.6875 185.433594 164.84375 " fill-opacity="1" fill-rule="nonzero"/><path fill="#4b5255" d="M 186.519531 162.203125 L 186.011719 163.4375 C 185.945312 163.585938 186.796875 163.609375 186.871094 163.425781 C 186.949219 163.242188 186.996094 163.121094 186.996094 163.121094 C 186.996094 163.121094 187.046875 163.003906 187.121094 162.820312 C 187.199219 162.636719 186.582031 162.054688 186.519531 162.203125 " fill-opacity="1" fill-rule="nonzero"/><path fill="#4b5255" d="M 187.601562 159.570312 L 187.347656 160.183594 L 187.09375 160.800781 C 187.03125 160.949219 187.882812 160.972656 187.957031 160.785156 C 188.035156 160.605469 188.082031 160.484375 188.082031 160.484375 C 188.082031 160.484375 188.132812 160.367188 188.207031 160.183594 C 188.28125 160 187.664062 159.417969 187.601562 159.570312 " fill-opacity="1" fill-rule="nonzero"/><path fill="#4b5255" d="M 188.683594 156.933594 L 188.433594 157.546875 L 188.179688 158.164062 C 188.117188 158.316406 188.964844 158.339844 189.039062 158.152344 C 189.113281 157.96875 189.164062 157.851562 189.164062 157.851562 C 189.164062 157.851562 189.210938 157.730469 189.289062 157.546875 C 189.363281 157.363281 188.746094 156.78125 188.683594 156.933594 " fill-opacity="1" fill-rule="nonzero"/><path fill="#4b5255" d="M 189.769531 154.296875 L 189.515625 154.914062 L 189.261719 155.527344 C 189.199219 155.679688 190.046875 155.699219 190.125 155.519531 C 190.199219 155.335938 190.25 155.214844 190.25 155.214844 C 190.25 155.214844 190.296875 155.09375 190.375 154.910156 C 190.449219 154.730469 189.828125 154.144531 189.769531 154.296875 " fill-opacity="1" fill-rule="nonzero"/><path fill="#4b5255" d="M 190.851562 151.660156 L 190.34375 152.894531 C 190.28125 153.042969 191.132812 153.066406 191.207031 152.878906 C 191.28125 152.699219 191.332031 152.578125 191.332031 152.578125 C 191.332031 152.578125 191.382812 152.460938 191.453125 152.277344 C 191.53125 152.089844 190.917969 151.511719 190.851562 151.660156 " fill-opacity="1" fill-rule="nonzero"/><path fill="#4e5658" d="M 210.035156 146.871094 L 213.417969 148.542969 L 213.863281 148.738281 C 213.96875 148.785156 214.003906 148.167969 213.871094 148.109375 C 213.738281 148.050781 213.652344 148.011719 213.652344 148.011719 C 213.652344 148.011719 210.28125 145.359375 210.148438 145.300781 C 210.015625 145.242188 209.925781 146.820312 210.035156 146.871094 " fill-opacity="1" fill-rule="nonzero"/><path fill="#4e5658" d="M 212.03125 147.925781 L 212.914062 148.316406 C 213.023438 148.367188 213.058594 147.746094 212.921875 147.6875 C 212.792969 147.628906 212.707031 147.59375 212.707031 147.59375 C 212.707031 147.59375 212.621094 147.554688 212.488281 147.496094 C 212.359375 147.4375 211.921875 147.875 212.03125 147.925781 " fill-opacity="1" fill-rule="nonzero"/><path fill="#4e5658" d="M 211.082031 147.503906 L 211.96875 147.898438 C 212.078125 147.945312 212.109375 147.324219 211.976562 147.269531 C 211.84375 147.210938 211.761719 147.171875 211.761719 147.171875 C 211.761719 147.171875 211.671875 147.132812 211.542969 147.074219 C 211.414062 147.011719 210.976562 147.453125 211.082031 147.503906 " fill-opacity="1" fill-rule="nonzero"/><path fill="#4e5658" d="M 210.136719 147.082031 L 210.582031 147.277344 L 211.019531 147.472656 C 211.128906 147.523438 211.164062 146.90625 211.03125 146.847656 C 210.898438 146.785156 210.8125 146.75 210.8125 146.75 C 210.8125 146.75 210.726562 146.710938 210.59375 146.652344 C 210.464844 146.59375 210.027344 147.03125 210.136719 147.082031 " fill-opacity="1" fill-rule="nonzero"/><path fill="#4e5658" d="M 209.1875 146.660156 L 209.632812 146.855469 L 210.074219 147.054688 C 210.183594 147.105469 210.214844 146.484375 210.085938 146.425781 C 209.953125 146.367188 209.867188 146.328125 209.867188 146.328125 C 209.867188 146.328125 209.78125 146.292969 209.652344 146.234375 C 209.515625 146.171875 209.082031 146.609375 209.1875 146.660156 " fill-opacity="1" fill-rule="nonzero"/><path fill="#4e5658" d="M 208.242188 146.238281 L 208.683594 146.4375 L 209.125 146.632812 C 209.234375 146.679688 209.269531 146.0625 209.136719 146.003906 C 209.003906 145.945312 208.921875 145.90625 208.921875 145.90625 C 208.921875 145.90625 208.832031 145.871094 208.703125 145.808594 C 208.570312 145.753906 208.132812 146.191406 208.242188 146.238281 " fill-opacity="1" fill-rule="nonzero"/><path fill="#4e5658" d="M 207.296875 145.816406 L 207.738281 146.011719 L 208.179688 146.210938 C 208.289062 146.257812 208.324219 145.640625 208.191406 145.582031 C 208.058594 145.523438 207.972656 145.484375 207.972656 145.484375 C 207.972656 145.484375 207.886719 145.449219 207.753906 145.386719 C 207.625 145.332031 207.1875 145.769531 207.296875 145.816406 " fill-opacity="1" fill-rule="nonzero"/><path fill="#4e5658" d="M 206.347656 145.394531 L 206.789062 145.59375 L 207.234375 145.789062 C 207.34375 145.835938 207.375 145.21875 207.246094 145.160156 C 207.113281 145.101562 207.027344 145.0625 207.027344 145.0625 C 207.027344 145.0625 206.941406 145.027344 206.808594 144.964844 C 206.675781 144.910156 206.242188 145.347656 206.347656 145.394531 " fill-opacity="1" fill-rule="nonzero"/><path fill="#4e5658" d="M 205.402344 144.972656 L 205.84375 145.171875 L 206.289062 145.371094 C 206.394531 145.414062 206.429688 144.796875 206.296875 144.738281 C 206.164062 144.679688 206.078125 144.644531 206.078125 144.644531 C 206.078125 144.644531 205.996094 144.605469 205.863281 144.546875 C 205.730469 144.488281 205.292969 144.925781 205.402344 144.972656 " fill-opacity="1" fill-rule="nonzero"/><path fill="#4e5658" d="M 204.457031 144.550781 L 205.339844 144.949219 C 205.449219 144.996094 205.484375 144.375 205.351562 144.320312 C 205.21875 144.261719 205.132812 144.222656 205.132812 144.222656 C 205.132812 144.222656 205.046875 144.183594 204.914062 144.125 C 204.785156 144.066406 204.347656 144.503906 204.457031 144.550781 " fill-opacity="1" fill-rule="nonzero"/><path fill="#4e5658" d="M 203.507812 144.132812 L 203.949219 144.328125 L 204.394531 144.527344 C 204.5 144.574219 204.535156 143.953125 204.402344 143.898438 C 204.269531 143.839844 204.1875 143.800781 204.1875 143.800781 C 204.1875 143.800781 204.101562 143.761719 203.96875 143.703125 C 203.835938 143.644531 203.398438 144.085938 203.507812 144.132812 " fill-opacity="1" fill-rule="nonzero"/><path fill="#4e5658" d="M 202.5625 143.710938 L 203.003906 143.90625 L 203.449219 144.105469 C 203.558594 144.152344 203.585938 143.535156 203.457031 143.476562 C 203.324219 143.414062 203.238281 143.378906 203.238281 143.378906 C 203.238281 143.378906 203.152344 143.339844 203.019531 143.28125 C 202.890625 143.222656 202.453125 143.664062 202.5625 143.710938 " fill-opacity="1" fill-rule="nonzero"/><path fill="#4e5658" d="M 201.617188 143.289062 L 202.5 143.683594 C 202.609375 143.730469 202.640625 143.113281 202.507812 143.050781 C 202.378906 142.996094 202.292969 142.957031 202.292969 142.957031 C 202.292969 142.957031 202.207031 142.917969 202.074219 142.863281 C 201.941406 142.800781 201.507812 143.238281 201.617188 143.289062 " fill-opacity="1" fill-rule="nonzero"/><path fill="#4e5658" d="M 200.667969 142.867188 L 201.113281 143.0625 L 201.554688 143.261719 C 201.664062 143.308594 201.695312 142.691406 201.5625 142.632812 C 201.433594 142.574219 201.34375 142.535156 201.34375 142.535156 C 201.34375 142.535156 201.261719 142.5 201.128906 142.4375 C 200.996094 142.378906 200.558594 142.820312 200.667969 142.867188 " fill-opacity="1" fill-rule="nonzero"/><path fill="#464c4e" d="M 172.035156 233 C 170.597656 232.40625 169.910156 230.757812 170.503906 229.316406 C 171.09375 227.871094 172.742188 227.1875 174.179688 227.777344 C 175.621094 228.371094 172.472656 230.941406 172.035156 233 M 197.871094 169.871094 C 195.019531 168.691406 191.753906 170.054688 190.582031 172.910156 L 165.304688 226.085938 C 164.390625 228.300781 163.238281 231.035156 164.894531 232.578125 C 165.371094 233.019531 169.882812 236.425781 170.519531 236.683594 C 173.371094 237.859375 176.632812 236.496094 177.808594 233.640625 L 200.90625 177.164062 C 202.082031 174.308594 200.722656 171.042969 197.871094 169.871094 " fill-opacity="1" fill-rule="nonzero"/><path fill="#700e17" d="M 196.308594 141.21875 C 196.308594 141.21875 185.6875 145.4375 183.296875 146.433594 C 180.90625 147.433594 179.199219 153.816406 180.105469 154.1875 C 181.015625 154.566406 187.824219 157.332031 193.804688 159.796875 C 194.429688 160.050781 194.554688 160.589844 192.832031 164.785156 C 191.105469 168.980469 190.605469 169.09375 189.859375 168.789062 C 188.421875 168.195312 184.871094 166.730469 184.871094 166.730469 C 184.871094 166.730469 182.058594 173.570312 180.832031 176.554688 C 179.671875 179.378906 186.46875 180.699219 185.203125 185.660156 L 192.367188 182.496094 L 193.394531 184.175781 C 194.054688 183.988281 196.289062 187.003906 196.984375 187.234375 C 198.765625 187.828125 198.863281 186.40625 198.863281 186.40625 L 214.171875 149.167969 L 196.308594 141.21875 " fill-opacity="1" fill-rule="nonzero"/><path fill="#4e5658" d="M 197.6875 141.46875 L 196.121094 145.277344 L 207.675781 152.714844 L 211.34375 156.039062 L 210.710938 157.589844 L 211.871094 157.332031 L 214.722656 149.046875 L 211 146.234375 L 197.6875 141.46875 " fill-opacity="1" fill-rule="nonzero"/><path fill="#4e5658" d="M 197.6875 141.46875 L 196.121094 145.277344 L 207.675781 152.714844 L 211.34375 156.039062 L 210.710938 157.589844 L 211.871094 157.332031 L 214.722656 149.046875 L 211 146.234375 L 197.6875 141.46875 " fill-opacity="1" fill-rule="nonzero"/><path fill="#222424" d="M 188.578125 165.324219 C 188.382812 165.800781 187.839844 166.03125 187.363281 165.832031 L 176.355469 161.296875 C 175.882812 161.097656 174.1875 159.332031 174.382812 158.855469 L 177.503906 156.058594 C 177.699219 155.582031 178.242188 155.355469 178.71875 155.550781 L 188.292969 158.28125 C 188.765625 158.472656 190.425781 160.828125 190.230469 161.304688 L 188.578125 165.324219 " fill-opacity="1" fill-rule="nonzero"/><path fill="#7a898d" d="M 171.992188 228.652344 C 171.398438 230.09375 169.753906 230.78125 168.3125 230.1875 C 166.875 229.59375 166.1875 227.945312 166.78125 226.503906 C 167.371094 225.0625 169.019531 224.375 170.460938 224.96875 C 171.902344 225.558594 172.585938 227.210938 171.992188 228.652344 M 194.148438 167.058594 C 191.296875 165.882812 188.035156 167.246094 186.863281 170.101562 L 163.757812 226.578125 C 162.585938 229.433594 163.945312 232.699219 166.796875 233.875 C 169.648438 235.050781 172.914062 233.691406 174.085938 230.832031 L 197.183594 174.355469 C 198.359375 171.5 197 168.234375 194.148438 167.058594 " fill-opacity="1" fill-rule="nonzero"/><path fill="#7a898d" d="M 181.050781 149.71875 C 181.050781 149.71875 185.902344 137.921875 188.488281 131.621094 C 194.105469 117.960938 195.394531 118.953125 206.503906 123.535156 C 213.21875 126.300781 215.332031 134.476562 214.625 136.199219 C 213.914062 137.925781 213.242188 139.5625 213.242188 139.5625 C 213.242188 139.5625 202.660156 135.199219 198.078125 133.3125 C 196.429688 132.632812 194.183594 139.066406 194.183594 139.066406 L 181.050781 149.71875 " fill-opacity="1" fill-rule="nonzero"/><path fill="#ffffff" d="M 175.933594 196.8125 L 176.84375 194.59375 L 175.933594 196.8125 " fill-opacity="1" fill-rule="nonzero"/><path fill="#acb4b6" d="M 185.078125 202.878906 L 177.773438 202.878906 C 177.175781 202.082031 176.519531 201.332031 175.792969 200.652344 C 175.4375 200.324219 175.105469 199.988281 174.777344 199.644531 L 175.933594 196.8125 L 176.84375 194.59375 C 178.558594 195.820312 180.214844 197.164062 181.710938 198.652344 C 182.980469 199.910156 184.074219 201.359375 185.078125 202.878906 " fill-opacity="1" fill-rule="nonzero"/><path fill="#ffffff" d="M 173.675781 202.335938 L 173.960938 201.644531 L 173.675781 202.335938 " fill-opacity="1" fill-rule="nonzero"/><path fill="#acb4b6" d="M 174.957031 202.878906 L 173.847656 202.878906 L 173.675781 202.335938 L 173.960938 201.644531 C 174.300781 202.050781 174.636719 202.460938 174.957031 202.878906 " fill-opacity="1" fill-rule="nonzero"/><path fill="#7a898d" d="M 193.710938 129.445312 C 191.667969 128.601562 189.328125 129.578125 188.488281 131.621094 L 167.328125 183.09375 C 166.488281 185.140625 167.460938 187.480469 169.507812 188.324219 C 171.550781 189.164062 173.890625 188.191406 174.730469 186.144531 L 195.890625 134.671875 C 196.730469 132.628906 196.566406 130.617188 193.710938 129.445312 " fill-opacity="1" fill-rule="nonzero"/><path fill="#4e5658" d="M 191.023438 135.988281 C 189.738281 135.460938 188.273438 136.070312 187.746094 137.351562 L 168.972656 183.019531 C 168.445312 184.300781 169.054688 185.773438 170.339844 186.300781 C 171.621094 186.832031 173.089844 186.21875 173.617188 184.933594 L 192.386719 139.269531 C 192.914062 137.984375 192.304688 136.515625 191.023438 135.988281 " fill-opacity="1" fill-rule="nonzero"/><path fill="#7a898d" d="M 211.511719 138.804688 L 211.957031 138.988281 L 212.40625 139.171875 C 212.515625 139.214844 212.09375 139.667969 211.957031 139.613281 C 211.824219 139.558594 211.738281 139.523438 211.738281 139.523438 C 211.738281 139.523438 211.652344 139.488281 211.515625 139.429688 C 211.386719 139.375 211.402344 138.757812 211.511719 138.804688 " fill-opacity="1" fill-rule="nonzero"/><path fill="#7a898d" d="M 210.554688 138.410156 L 211 138.59375 L 211.449219 138.777344 C 211.558594 138.820312 211.132812 139.273438 211 139.214844 C 210.867188 139.164062 210.78125 139.128906 210.78125 139.128906 C 210.78125 139.128906 210.695312 139.089844 210.558594 139.039062 C 210.425781 138.980469 210.441406 138.363281 210.554688 138.410156 " fill-opacity="1" fill-rule="nonzero"/><path fill="#7a898d" d="M 209.59375 138.011719 L 210.042969 138.199219 L 210.488281 138.382812 C 210.601562 138.429688 210.175781 138.878906 210.042969 138.820312 C 209.910156 138.765625 209.820312 138.730469 209.820312 138.730469 C 209.820312 138.730469 209.734375 138.695312 209.601562 138.640625 C 209.46875 138.585938 209.484375 137.964844 209.59375 138.011719 " fill-opacity="1" fill-rule="nonzero"/><path fill="#7a898d" d="M 208.636719 137.617188 L 209.53125 137.984375 C 209.640625 138.03125 209.21875 138.480469 209.085938 138.429688 C 208.953125 138.371094 208.863281 138.335938 208.863281 138.335938 C 208.863281 138.335938 208.773438 138.300781 208.644531 138.246094 C 208.511719 138.195312 208.527344 137.574219 208.636719 137.617188 " fill-opacity="1" fill-rule="nonzero"/><path fill="#7a898d" d="M 207.675781 137.222656 L 208.125 137.410156 L 208.574219 137.59375 C 208.683594 137.636719 208.261719 138.085938 208.125 138.03125 C 207.992188 137.980469 207.90625 137.941406 207.90625 137.941406 C 207.90625 137.941406 207.820312 137.910156 207.6875 137.851562 C 207.550781 137.796875 207.570312 137.179688 207.675781 137.222656 " fill-opacity="1" fill-rule="nonzero"/><path fill="#7a898d" d="M 206.722656 136.828125 L 207.167969 137.011719 L 207.617188 137.199219 C 207.726562 137.242188 207.300781 137.695312 207.167969 137.636719 C 207.035156 137.585938 206.949219 137.546875 206.949219 137.546875 C 206.949219 137.546875 206.863281 137.511719 206.730469 137.457031 C 206.597656 137.402344 206.609375 136.785156 206.722656 136.828125 " fill-opacity="1" fill-rule="nonzero"/><path fill="#7a898d" d="M 205.761719 136.433594 L 206.210938 136.617188 L 206.65625 136.804688 C 206.769531 136.847656 206.34375 137.300781 206.210938 137.242188 C 206.074219 137.1875 205.992188 137.152344 205.992188 137.152344 C 205.992188 137.152344 205.902344 137.113281 205.769531 137.0625 C 205.636719 137.003906 205.652344 136.386719 205.761719 136.433594 " fill-opacity="1" fill-rule="nonzero"/><path fill="#7a898d" d="M 204.804688 136.039062 L 205.25 136.222656 L 205.699219 136.40625 C 205.808594 136.453125 205.386719 136.902344 205.25 136.851562 C 205.117188 136.792969 205.03125 136.757812 205.03125 136.757812 C 205.03125 136.757812 204.945312 136.71875 204.8125 136.664062 C 204.679688 136.613281 204.695312 135.992188 204.804688 136.039062 " fill-opacity="1" fill-rule="nonzero"/><path fill="#7a898d" d="M 203.847656 135.644531 L 204.292969 135.828125 L 204.742188 136.011719 C 204.851562 136.058594 204.425781 136.507812 204.292969 136.453125 C 204.160156 136.398438 204.074219 136.363281 204.074219 136.363281 C 204.074219 136.363281 203.988281 136.328125 203.855469 136.269531 C 203.71875 136.21875 203.734375 135.597656 203.847656 135.644531 " fill-opacity="1" fill-rule="nonzero"/><path fill="#7a898d" d="M 202.886719 135.25 L 203.335938 135.433594 L 203.78125 135.617188 C 203.894531 135.660156 203.46875 136.113281 203.335938 136.058594 C 203.203125 136.003906 203.117188 135.964844 203.117188 135.964844 C 203.117188 135.964844 203.03125 135.933594 202.894531 135.875 C 202.761719 135.820312 202.777344 135.203125 202.886719 135.25 " fill-opacity="1" fill-rule="nonzero"/><path fill="#7a898d" d="M 201.929688 134.855469 L 202.378906 135.039062 L 202.824219 135.222656 C 202.9375 135.269531 202.511719 135.71875 202.378906 135.664062 C 202.242188 135.605469 202.15625 135.570312 202.15625 135.570312 C 202.15625 135.570312 202.070312 135.539062 201.941406 135.484375 C 201.804688 135.425781 201.820312 134.808594 201.929688 134.855469 " fill-opacity="1" fill-rule="nonzero"/><path fill="#7a898d" d="M 200.972656 134.457031 L 201.417969 134.640625 L 201.867188 134.828125 C 201.976562 134.871094 201.554688 135.324219 201.421875 135.269531 C 201.285156 135.214844 201.199219 135.179688 201.199219 135.179688 C 201.199219 135.179688 201.113281 135.144531 200.980469 135.085938 C 200.847656 135.03125 200.863281 134.414062 200.972656 134.457031 " fill-opacity="1" fill-rule="nonzero"/><path fill="#7a898d" d="M 200.015625 134.0625 L 200.460938 134.25 L 200.910156 134.433594 C 201.019531 134.476562 200.597656 134.925781 200.460938 134.875 C 200.328125 134.816406 200.242188 134.78125 200.242188 134.78125 C 200.242188 134.78125 200.15625 134.75 200.019531 134.691406 C 199.890625 134.640625 199.902344 134.019531 200.015625 134.0625 " fill-opacity="1" fill-rule="nonzero"/><path fill="#7a898d" d="M 199.054688 133.667969 L 199.503906 133.855469 L 199.949219 134.039062 C 200.0625 134.082031 199.636719 134.535156 199.503906 134.476562 C 199.371094 134.425781 199.28125 134.386719 199.28125 134.386719 C 199.28125 134.386719 199.199219 134.351562 199.0625 134.296875 C 198.929688 134.242188 198.945312 133.621094 199.054688 133.667969 " fill-opacity="1" fill-rule="nonzero"/><path fill="#7a898d" d="M 168.15625 181.371094 L 167.902344 181.984375 L 167.648438 182.601562 C 167.585938 182.753906 166.96875 182.167969 167.046875 181.984375 C 167.121094 181.800781 167.167969 181.679688 167.167969 181.679688 C 167.167969 181.679688 167.21875 181.5625 167.296875 181.378906 C 167.367188 181.195312 168.21875 181.214844 168.15625 181.371094 " fill-opacity="1" fill-rule="nonzero"/><path fill="#7a898d" d="M 169.242188 178.734375 L 168.988281 179.347656 L 168.734375 179.964844 C 168.671875 180.117188 168.054688 179.535156 168.128906 179.347656 C 168.203125 179.167969 168.253906 179.046875 168.253906 179.046875 C 168.253906 179.046875 168.300781 178.925781 168.378906 178.746094 C 168.453125 178.5625 169.300781 178.582031 169.242188 178.734375 " fill-opacity="1" fill-rule="nonzero"/><path fill="#7a898d" d="M 170.324219 176.097656 L 169.816406 177.332031 C 169.753906 177.484375 169.136719 176.898438 169.210938 176.714844 C 169.289062 176.53125 169.335938 176.410156 169.335938 176.410156 C 169.335938 176.410156 169.382812 176.292969 169.460938 176.109375 C 169.539062 175.925781 170.382812 175.945312 170.324219 176.097656 " fill-opacity="1" fill-rule="nonzero"/><path fill="#7a898d" d="M 171.40625 173.460938 L 171.152344 174.078125 L 170.902344 174.695312 C 170.839844 174.84375 170.222656 174.261719 170.296875 174.078125 C 170.371094 173.898438 170.421875 173.773438 170.421875 173.773438 C 170.421875 173.773438 170.46875 173.65625 170.546875 173.472656 C 170.621094 173.289062 171.46875 173.308594 171.40625 173.460938 " fill-opacity="1" fill-rule="nonzero"/><path fill="#7a898d" d="M 172.492188 170.828125 L 172.238281 171.441406 L 171.984375 172.058594 C 171.921875 172.210938 171.304688 171.625 171.378906 171.445312 C 171.457031 171.257812 171.503906 171.140625 171.503906 171.140625 C 171.503906 171.140625 171.554688 171.019531 171.628906 170.835938 C 171.703125 170.652344 172.554688 170.675781 172.492188 170.828125 " fill-opacity="1" fill-rule="nonzero"/><path fill="#7a898d" d="M 173.574219 168.191406 L 173.320312 168.808594 L 173.066406 169.421875 C 173.007812 169.574219 172.390625 168.992188 172.464844 168.808594 C 172.539062 168.621094 172.589844 168.503906 172.589844 168.503906 C 172.589844 168.503906 172.636719 168.386719 172.710938 168.203125 C 172.785156 168.019531 173.636719 168.039062 173.574219 168.191406 " fill-opacity="1" fill-rule="nonzero"/><path fill="#7a898d" d="M 174.660156 165.554688 L 174.40625 166.171875 L 174.152344 166.785156 C 174.089844 166.9375 173.472656 166.355469 173.546875 166.171875 C 173.621094 165.984375 173.671875 165.867188 173.671875 165.867188 C 173.671875 165.867188 173.722656 165.75 173.796875 165.566406 C 173.871094 165.382812 174.71875 165.402344 174.660156 165.554688 " fill-opacity="1" fill-rule="nonzero"/><path fill="#7a898d" d="M 175.746094 162.917969 L 175.492188 163.53125 L 175.238281 164.148438 C 175.171875 164.300781 174.554688 163.714844 174.632812 163.53125 C 174.707031 163.347656 174.757812 163.226562 174.757812 163.226562 C 174.757812 163.226562 174.804688 163.109375 174.878906 162.925781 C 174.957031 162.742188 175.804688 162.765625 175.746094 162.917969 " fill-opacity="1" fill-rule="nonzero"/><path fill="#7a898d" d="M 176.828125 160.28125 L 176.574219 160.894531 L 176.320312 161.511719 C 176.257812 161.664062 175.640625 161.078125 175.714844 160.894531 C 175.792969 160.710938 175.839844 160.59375 175.839844 160.59375 C 175.839844 160.59375 175.886719 160.472656 175.964844 160.289062 C 176.039062 160.105469 176.886719 160.128906 176.828125 160.28125 " fill-opacity="1" fill-rule="nonzero"/><path fill="#7a898d" d="M 177.910156 157.644531 L 177.65625 158.257812 L 177.402344 158.875 C 177.34375 159.027344 176.722656 158.441406 176.796875 158.257812 C 176.875 158.074219 176.925781 157.957031 176.925781 157.957031 C 176.925781 157.957031 176.972656 157.839844 177.046875 157.652344 C 177.125 157.472656 177.972656 157.492188 177.910156 157.644531 " fill-opacity="1" fill-rule="nonzero"/><path fill="#7a898d" d="M 178.992188 155.007812 L 178.738281 155.625 L 178.488281 156.242188 C 178.425781 156.390625 177.808594 155.804688 177.882812 155.625 C 177.957031 155.441406 178.007812 155.320312 178.007812 155.320312 C 178.007812 155.320312 178.054688 155.203125 178.132812 155.019531 C 178.207031 154.835938 179.058594 154.859375 178.992188 155.007812 " fill-opacity="1" fill-rule="nonzero"/><path fill="#7a898d" d="M 180.078125 152.371094 L 179.570312 153.605469 C 179.507812 153.753906 178.890625 153.171875 178.96875 152.988281 C 179.039062 152.804688 179.089844 152.683594 179.089844 152.683594 C 179.089844 152.683594 179.140625 152.566406 179.214844 152.382812 C 179.289062 152.199219 180.140625 152.21875 180.078125 152.371094 " fill-opacity="1" fill-rule="nonzero"/><path fill="#7a898d" d="M 181.160156 149.734375 L 180.90625 150.351562 L 180.65625 150.96875 C 180.59375 151.121094 179.972656 150.535156 180.050781 150.351562 C 180.125 150.167969 180.171875 150.050781 180.171875 150.050781 C 180.171875 150.050781 180.222656 149.933594 180.296875 149.746094 C 180.375 149.5625 181.222656 149.585938 181.160156 149.734375 " fill-opacity="1" fill-rule="nonzero"/><path fill="#7a898d" d="M 182.246094 147.101562 L 181.992188 147.71875 L 181.738281 148.332031 C 181.675781 148.484375 181.058594 147.898438 181.132812 147.71875 C 181.207031 147.53125 181.257812 147.414062 181.257812 147.414062 C 181.257812 147.414062 181.308594 147.292969 181.382812 147.109375 C 181.457031 146.929688 182.308594 146.949219 182.246094 147.101562 " fill-opacity="1" fill-rule="nonzero"/><path fill="#7a898d" d="M 175.339844 184.332031 L 175.085938 184.949219 L 174.832031 185.5625 C 174.773438 185.710938 175.621094 185.734375 175.695312 185.550781 C 175.773438 185.367188 175.820312 185.25 175.820312 185.25 C 175.820312 185.25 175.867188 185.128906 175.945312 184.949219 C 176.019531 184.761719 175.402344 184.179688 175.339844 184.332031 " fill-opacity="1" fill-rule="nonzero"/><path fill="#7a898d" d="M 176.421875 181.695312 L 176.167969 182.3125 L 175.914062 182.925781 C 175.855469 183.078125 176.703125 183.101562 176.777344 182.914062 C 176.855469 182.734375 176.90625 182.609375 176.90625 182.609375 C 176.90625 182.609375 176.953125 182.496094 177.027344 182.3125 C 177.101562 182.125 176.484375 181.542969 176.421875 181.695312 " fill-opacity="1" fill-rule="nonzero"/><path fill="#7a898d" d="M 177.507812 179.058594 L 177.253906 179.675781 L 177 180.289062 C 176.9375 180.441406 177.785156 180.460938 177.863281 180.28125 C 177.9375 180.097656 177.988281 179.976562 177.988281 179.976562 C 177.988281 179.976562 178.039062 179.859375 178.109375 179.675781 C 178.1875 179.492188 177.570312 178.90625 177.507812 179.058594 " fill-opacity="1" fill-rule="nonzero"/><path fill="#7a898d" d="M 178.589844 176.425781 L 178.335938 177.039062 L 178.085938 177.65625 C 178.023438 177.804688 178.871094 177.828125 178.945312 177.644531 C 179.023438 177.460938 179.070312 177.34375 179.070312 177.34375 C 179.070312 177.34375 179.117188 177.222656 179.195312 177.039062 C 179.269531 176.851562 178.652344 176.273438 178.589844 176.425781 " fill-opacity="1" fill-rule="nonzero"/><path fill="#7a898d" d="M 179.675781 173.785156 L 179.167969 175.019531 C 179.105469 175.171875 179.953125 175.195312 180.027344 175.007812 C 180.105469 174.824219 180.15625 174.703125 180.15625 174.703125 C 180.15625 174.703125 180.203125 174.585938 180.277344 174.402344 C 180.355469 174.21875 179.734375 173.636719 179.675781 173.785156 " fill-opacity="1" fill-rule="nonzero"/><path fill="#7a898d" d="M 180.757812 171.152344 L 180.503906 171.769531 L 180.25 172.382812 C 180.1875 172.535156 181.039062 172.558594 181.113281 172.371094 C 181.1875 172.1875 181.238281 172.070312 181.238281 172.070312 C 181.238281 172.070312 181.285156 171.949219 181.359375 171.769531 C 181.4375 171.585938 180.820312 171 180.757812 171.152344 " fill-opacity="1" fill-rule="nonzero"/><path fill="#7a898d" d="M 181.839844 168.515625 L 181.332031 169.75 C 181.273438 169.898438 182.121094 169.921875 182.195312 169.734375 C 182.273438 169.554688 182.324219 169.433594 182.324219 169.433594 C 182.324219 169.433594 182.371094 169.316406 182.445312 169.132812 C 182.519531 168.949219 181.902344 168.363281 181.839844 168.515625 " fill-opacity="1" fill-rule="nonzero"/><path fill="#7a898d" d="M 182.925781 165.875 L 182.417969 167.109375 C 182.359375 167.261719 183.207031 167.28125 183.28125 167.09375 C 183.355469 166.914062 183.40625 166.792969 183.40625 166.792969 C 183.40625 166.792969 183.457031 166.671875 183.53125 166.492188 C 183.605469 166.308594 182.988281 165.722656 182.925781 165.875 " fill-opacity="1" fill-rule="nonzero"/><path fill="#7a898d" d="M 184.011719 163.242188 L 183.503906 164.472656 C 183.441406 164.621094 184.289062 164.644531 184.363281 164.460938 C 184.441406 164.277344 184.488281 164.15625 184.488281 164.15625 C 184.488281 164.15625 184.539062 164.039062 184.613281 163.859375 C 184.6875 163.671875 184.070312 163.089844 184.011719 163.242188 " fill-opacity="1" fill-rule="nonzero"/><path fill="#7a898d" d="M 185.09375 160.605469 L 184.839844 161.222656 L 184.585938 161.835938 C 184.523438 161.984375 185.375 162.007812 185.449219 161.824219 C 185.523438 161.644531 185.574219 161.523438 185.574219 161.523438 C 185.574219 161.523438 185.621094 161.40625 185.699219 161.222656 C 185.773438 161.035156 185.152344 160.453125 185.09375 160.605469 " fill-opacity="1" fill-rule="nonzero"/><path fill="#7a898d" d="M 186.175781 157.96875 L 185.925781 158.582031 L 185.667969 159.203125 C 185.609375 159.351562 186.457031 159.375 186.535156 159.1875 C 186.609375 159.007812 186.65625 158.886719 186.65625 158.886719 C 186.65625 158.886719 186.707031 158.765625 186.78125 158.582031 C 186.855469 158.402344 186.238281 157.816406 186.175781 157.96875 " fill-opacity="1" fill-rule="nonzero"/><path fill="#7a898d" d="M 187.261719 155.332031 L 187.007812 155.949219 L 186.753906 156.5625 C 186.691406 156.71875 187.539062 156.738281 187.613281 156.554688 C 187.691406 156.371094 187.742188 156.25 187.742188 156.25 C 187.742188 156.25 187.789062 156.132812 187.863281 155.945312 C 187.9375 155.765625 187.324219 155.183594 187.261719 155.332031 " fill-opacity="1" fill-rule="nonzero"/><path fill="#7a898d" d="M 188.34375 152.695312 L 188.09375 153.3125 L 187.835938 153.929688 C 187.773438 154.078125 188.625 154.101562 188.699219 153.917969 C 188.773438 153.730469 188.824219 153.613281 188.824219 153.613281 C 188.824219 153.613281 188.871094 153.496094 188.949219 153.3125 C 189.023438 153.128906 188.40625 152.546875 188.34375 152.695312 " fill-opacity="1" fill-rule="nonzero"/><path fill="#7a898d" d="M 189.425781 150.0625 L 189.171875 150.679688 L 188.921875 151.292969 C 188.855469 151.441406 189.707031 151.464844 189.785156 151.28125 C 189.859375 151.097656 189.90625 150.976562 189.90625 150.976562 C 189.90625 150.976562 189.957031 150.859375 190.03125 150.679688 C 190.109375 150.492188 189.492188 149.910156 189.425781 150.0625 " fill-opacity="1" fill-rule="nonzero"/><path fill="#51535c" d="M 209.253906 145.535156 L 209.699219 145.734375 L 210.140625 145.929688 C 210.25 145.976562 210.28125 145.359375 210.148438 145.300781 C 210.015625 145.242188 209.933594 145.203125 209.933594 145.203125 C 209.933594 145.203125 209.847656 145.164062 209.714844 145.109375 C 209.582031 145.050781 209.144531 145.488281 209.253906 145.535156 " fill-opacity="1" fill-rule="nonzero"/><path fill="#51535c" d="M 208.308594 145.113281 L 208.75 145.3125 L 209.191406 145.507812 C 209.300781 145.558594 209.335938 144.9375 209.199219 144.878906 C 209.070312 144.820312 208.984375 144.78125 208.984375 144.78125 C 208.984375 144.78125 208.898438 144.746094 208.769531 144.683594 C 208.636719 144.625 208.199219 145.066406 208.308594 145.113281 " fill-opacity="1" fill-rule="nonzero"/><path fill="#51535c" d="M 207.363281 144.695312 L 207.800781 144.890625 L 208.246094 145.085938 C 208.355469 145.132812 208.386719 144.515625 208.253906 144.457031 C 208.125 144.398438 208.039062 144.359375 208.039062 144.359375 C 208.039062 144.359375 207.953125 144.324219 207.820312 144.265625 C 207.6875 144.207031 207.253906 144.644531 207.363281 144.695312 " fill-opacity="1" fill-rule="nonzero"/><path fill="#51535c" d="M 206.414062 144.273438 L 206.855469 144.464844 L 207.300781 144.664062 C 207.40625 144.714844 207.441406 144.09375 207.308594 144.035156 C 207.175781 143.976562 207.09375 143.9375 207.09375 143.9375 C 207.09375 143.9375 207.007812 143.902344 206.875 143.839844 C 206.742188 143.78125 206.304688 144.222656 206.414062 144.273438 " fill-opacity="1" fill-rule="nonzero"/><path fill="#51535c" d="M 205.46875 143.851562 L 206.351562 144.242188 C 206.460938 144.292969 206.496094 143.675781 206.363281 143.617188 C 206.230469 143.558594 206.144531 143.519531 206.144531 143.519531 C 206.144531 143.519531 206.058594 143.480469 205.925781 143.421875 C 205.792969 143.363281 205.359375 143.800781 205.46875 143.851562 " fill-opacity="1" fill-rule="nonzero"/><path fill="#51535c" d="M 204.519531 143.429688 L 204.964844 143.625 L 205.402344 143.824219 C 205.511719 143.871094 205.546875 143.25 205.417969 143.195312 C 205.285156 143.132812 205.199219 143.097656 205.199219 143.097656 C 205.199219 143.097656 205.113281 143.058594 204.980469 143 C 204.847656 142.941406 204.414062 143.378906 204.519531 143.429688 " fill-opacity="1" fill-rule="nonzero"/><path fill="#51535c" d="M 203.574219 143.007812 L 204.015625 143.203125 L 204.460938 143.402344 C 204.566406 143.449219 204.601562 142.832031 204.46875 142.773438 C 204.335938 142.714844 204.253906 142.675781 204.253906 142.675781 C 204.253906 142.675781 204.164062 142.640625 204.03125 142.578125 C 203.902344 142.519531 203.464844 142.957031 203.574219 143.007812 " fill-opacity="1" fill-rule="nonzero"/><path fill="#51535c" d="M 202.628906 142.582031 L 203.511719 142.980469 C 203.621094 143.027344 203.65625 142.410156 203.523438 142.347656 C 203.390625 142.292969 203.304688 142.253906 203.304688 142.253906 C 203.304688 142.253906 203.21875 142.214844 203.085938 142.15625 C 202.957031 142.101562 202.519531 142.535156 202.628906 142.582031 " fill-opacity="1" fill-rule="nonzero"/><path fill="#51535c" d="M 201.679688 142.164062 L 202.121094 142.363281 L 202.566406 142.558594 C 202.675781 142.605469 202.707031 141.988281 202.574219 141.929688 C 202.445312 141.871094 202.359375 141.832031 202.359375 141.832031 C 202.359375 141.832031 202.273438 141.796875 202.140625 141.734375 C 202.007812 141.675781 201.570312 142.117188 201.679688 142.164062 " fill-opacity="1" fill-rule="nonzero"/><path fill="#51535c" d="M 200.734375 141.742188 L 201.175781 141.9375 L 201.617188 142.136719 C 201.730469 142.183594 201.757812 141.566406 201.628906 141.507812 C 201.496094 141.449219 201.410156 141.410156 201.410156 141.410156 C 201.410156 141.410156 201.324219 141.375 201.195312 141.3125 C 201.0625 141.257812 200.625 141.695312 200.734375 141.742188 " fill-opacity="1" fill-rule="nonzero"/><path fill="#51535c" d="M 199.789062 141.320312 L 200.230469 141.519531 L 200.671875 141.714844 C 200.78125 141.761719 200.8125 141.144531 200.683594 141.085938 C 200.550781 141.027344 200.464844 140.988281 200.464844 140.988281 C 200.464844 140.988281 200.378906 140.953125 200.246094 140.890625 C 200.113281 140.835938 199.679688 141.273438 199.789062 141.320312 " fill-opacity="1" fill-rule="nonzero"/><path fill="#51535c" d="M 198.839844 140.902344 L 199.28125 141.097656 L 199.722656 141.296875 C 199.835938 141.339844 199.867188 140.722656 199.734375 140.664062 C 199.601562 140.605469 199.515625 140.566406 199.515625 140.566406 C 199.515625 140.566406 199.433594 140.53125 199.300781 140.472656 C 199.167969 140.414062 198.730469 140.851562 198.839844 140.902344 " fill-opacity="1" fill-rule="nonzero"/><path fill="#51535c" d="M 197.894531 140.480469 L 198.777344 140.871094 C 198.886719 140.921875 198.917969 140.300781 198.789062 140.246094 C 198.65625 140.183594 198.570312 140.148438 198.570312 140.148438 C 198.570312 140.148438 198.484375 140.109375 198.351562 140.050781 C 198.222656 139.988281 197.785156 140.429688 197.894531 140.480469 " fill-opacity="1" fill-rule="nonzero"/><path fill="#51535c" d="M 196.949219 140.058594 L 197.832031 140.453125 C 197.9375 140.5 197.972656 139.878906 197.839844 139.824219 C 197.707031 139.761719 197.625 139.726562 197.625 139.726562 C 197.625 139.726562 197.539062 139.6875 197.40625 139.628906 C 197.273438 139.566406 196.839844 140.007812 196.949219 140.058594 " fill-opacity="1" fill-rule="nonzero"/><path fill="#bf1b2c" d="M 210.449219 146.355469 L 192.585938 138.410156 C 192.585938 138.410156 181.964844 142.625 179.574219 143.625 C 177.183594 144.625 175.480469 151.003906 176.386719 151.378906 C 177.296875 151.753906 184.101562 154.519531 190.082031 156.984375 C 190.707031 157.242188 190.835938 157.78125 189.109375 161.976562 C 187.386719 166.167969 186.882812 166.285156 186.136719 165.976562 C 184.699219 165.386719 181.148438 163.921875 181.148438 163.921875 C 181.148438 163.921875 178.335938 170.761719 177.109375 173.742188 C 175.886719 176.730469 180.734375 180.945312 180.90625 184.796875 C 186.152344 185.367188 195.140625 183.59375 195.140625 183.59375 L 210.449219 146.355469 " fill-opacity="1" fill-rule="nonzero"/><path fill="#ed1639" d="M 189.722656 154.625 C 187.554688 153.308594 184.910156 153.386719 182.441406 152.640625 C 181.074219 152.222656 179.644531 151.867188 178.386719 151.167969 C 176.957031 150.378906 176.882812 149.492188 177.367188 147.988281 C 177.703125 146.9375 178.285156 145.359375 179.296875 144.769531 C 179.972656 144.371094 180.695312 144.054688 181.40625 143.726562 C 181.542969 145.179688 182.304688 146.617188 183.285156 147.625 C 184.785156 149.167969 189.519531 151.9375 189.722656 154.625 " fill-opacity="1" fill-rule="nonzero"/><path fill="#dc1434" d="M 195.492188 182.742188 L 195.496094 182.734375 C 195.496094 182.734375 195.496094 182.738281 195.496094 182.738281 L 195.492188 182.742188 " fill-opacity="1" fill-rule="nonzero"/><path fill="#ed1639" d="M 192.246094 183.027344 C 190.019531 183.027344 184.585938 181.90625 183.328125 180.796875 C 181.117188 178.855469 179.105469 176.390625 177.820312 173.730469 C 177.730469 173.550781 177.644531 173.355469 177.550781 173.160156 L 177.5625 173.125 C 178.296875 171.484375 179.082031 169.863281 179.914062 168.304688 C 180.183594 167.796875 180.636719 167.175781 181.097656 166.507812 C 181.019531 166.949219 180.957031 167.402344 180.914062 167.867188 C 180.769531 169.378906 180.460938 171.246094 181.015625 172.710938 C 181.605469 174.269531 190.515625 180.214844 193.152344 180.902344 C 194.355469 181.210938 195.023438 181.898438 195.496094 182.734375 L 195.492188 182.742188 C 195.285156 182.707031 195.074219 182.691406 194.855469 182.691406 C 194.171875 182.691406 193.460938 182.847656 192.925781 182.972656 C 192.761719 183.011719 192.53125 183.027344 192.246094 183.027344 " fill-opacity="1" fill-rule="nonzero"/><path fill="#4e5658" d="M 193.96875 138.65625 L 192.402344 142.464844 L 199.449219 149.28125 L 208.257812 152.910156 L 211 146.234375 L 193.96875 138.65625 " fill-opacity="1" fill-rule="nonzero"/><path fill="#34383a" d="M 187.144531 163.515625 C 186.953125 163.992188 186.40625 164.21875 185.929688 164.023438 L 174.929688 159.488281 C 174.453125 159.292969 174.222656 158.746094 174.417969 158.273438 L 176.074219 154.25 C 176.269531 153.773438 176.8125 153.546875 177.289062 153.746094 L 188.292969 158.28125 C 188.769531 158.476562 188.996094 159.019531 188.800781 159.496094 L 187.144531 163.515625 " fill-opacity="1" fill-rule="nonzero"/><path fill="#828d8c" d="M 195.375 142.117188 C 195.589844 141.589844 195.339844 140.984375 194.8125 140.765625 C 194.28125 140.546875 193.679688 140.796875 193.464844 141.328125 C 193.242188 141.855469 193.496094 142.460938 194.023438 142.679688 C 194.554688 142.898438 195.15625 142.644531 195.375 142.117188 " fill-opacity="1" fill-rule="nonzero"/><path fill="#f47126" d="M 175.140625 207.011719 L 165.773438 209.957031 L 157.332031 183.003906 L 166.699219 180.0625 L 175.140625 207.011719 " fill-opacity="1" fill-rule="nonzero"/><path fill="#f89c22" d="M 167.84375 179.703125 L 156.1875 183.363281 L 155.054688 179.746094 L 166.710938 176.089844 L 167.84375 179.703125 " fill-opacity="1" fill-rule="nonzero"/><path fill="#ffffff" d="M 164.332031 176.835938 C 164.332031 176.835938 164.332031 176.832031 164.332031 176.832031 L 165.949219 176.328125 L 164.332031 176.835938 " fill-opacity="1" fill-rule="nonzero"/><path fill="#fbc34b" d="M 165.652344 180.390625 C 165.339844 179.4375 164.414062 177.109375 164.332031 176.835938 L 165.949219 176.328125 C 165.988281 176.441406 166.855469 179.496094 167.035156 179.957031 L 165.652344 180.390625 " fill-opacity="1" fill-rule="nonzero"/><path fill="#f89c22" d="M 176.988281 211.515625 L 166.902344 214.6875 L 164.640625 210.046875 L 176.195312 206.417969 L 176.988281 211.515625 " fill-opacity="1" fill-rule="nonzero"/><path fill="#7a898d" d="M 148.136719 140.632812 L 148.910156 145.210938 L 149.824219 147.175781 L 159.582031 178.328125 L 162.261719 177.484375 L 152.503906 146.335938 L 152.125 144.226562 L 150.089844 140.023438 L 148.136719 140.632812 " fill-opacity="1" fill-rule="nonzero"/><path fill="#acb4b6" d="M 161.019531 177.484375 L 151.59375 147.457031 L 151.222656 145.839844 L 149.601562 141.242188 L 149.9375 141.140625 L 151.898438 145.195312 L 152.265625 147.226562 L 161.675781 177.277344 L 161.019531 177.484375 " fill-opacity="1" fill-rule="nonzero"/><path fill="#9f4817" d="M 171.835938 202.878906 L 170.707031 202.878906 L 164.503906 183.078125 L 165.535156 182.753906 L 171.835938 202.878906 " fill-opacity="1" fill-rule="nonzero"/><path fill="#9f4817" d="M 169.265625 202.878906 L 168.136719 202.878906 L 162.164062 183.8125 L 163.191406 183.488281 L 169.265625 202.878906 " fill-opacity="1" fill-rule="nonzero"/><path fill="#9f4817" d="M 166.691406 202.878906 L 165.5625 202.878906 L 159.824219 184.546875 L 160.851562 184.222656 L 166.691406 202.878906 " fill-opacity="1" fill-rule="nonzero"/><path fill="#192e42" d="M 202.746094 197.140625 C 203.625 197.015625 205.046875 195.007812 205.949219 193.164062 L 209.4375 189.253906 C 208.566406 188.882812 207.726562 188.449219 207.011719 187.941406 L 206.851562 187.953125 L 206.835938 187.808594 C 206.6875 187.695312 206.542969 187.578125 206.40625 187.460938 L 205.449219 188.53125 C 204.972656 188.28125 202.585938 191.921875 202.011719 192.003906 C 192.238281 193.402344 185.199219 199.921875 181.65625 210.855469 C 179.082031 218.78125 178.277344 225.085938 178.289062 225.394531 C 178.332031 226.832031 180.507812 229.085938 181.9375 229.046875 C 183.367188 229.003906 184.496094 227.8125 184.457031 226.378906 C 184.453125 226.253906 184.308594 219.386719 186.625 212.339844 C 189.566406 203.363281 194.992188 198.25 202.746094 197.140625 " fill-opacity="1" fill-rule="nonzero"/><path fill="#192e42" d="M 214.515625 194.324219 L 214.429688 194.226562 L 215.328125 190.96875 C 214.863281 190.925781 214.390625 190.84375 213.902344 190.707031 C 213.359375 190.558594 212.6875 190.375 211.96875 190.15625 L 210.273438 196.304688 C 209.292969 197.820312 208.496094 199.699219 208.855469 200.480469 C 212.117188 207.605469 210.765625 214.941406 204.824219 222.277344 C 200.136719 228.070312 194.265625 231.671875 194.207031 231.707031 C 192.984375 232.449219 192.59375 234.042969 193.332031 235.269531 C 194.074219 236.496094 195.664062 236.890625 196.890625 236.144531 C 197.15625 235.988281 203.496094 232.113281 208.753906 225.660156 C 216.019531 216.753906 217.679688 207.296875 213.566406 198.316406 C 213.324219 197.785156 214.988281 194.585938 214.515625 194.324219 " fill-opacity="1" fill-rule="nonzero"/><path fill="#515c5c" d="M 234.996094 154.738281 L 215.652344 180.71875 L 226.136719 149.828125 L 225.726562 149.253906 L 208.679688 179.277344 L 209.550781 182.742188 C 209.304688 183.265625 209.179688 183.816406 209.167969 184.363281 L 205.449219 188.53125 C 205.273438 188.4375 204.816406 188.898438 204.292969 189.511719 L 204.9375 191.742188 L 205.949219 193.164062 L 210.800781 187.726562 C 210.953125 187.839844 211.109375 187.945312 211.277344 188.039062 C 211.648438 188.242188 212.042969 188.375 212.4375 188.457031 L 213.507812 192.484375 L 214.429688 194.226562 L 216.351562 187.261719 L 220.636719 185.8125 L 235.28125 155.136719 L 234.996094 154.738281 " fill-opacity="1" fill-rule="nonzero"/><path fill="#9bb5b3" d="M 209.691406 181.21875 L 200.492188 191.53125 C 191.394531 193.070312 184.828125 199.339844 181.46875 209.699219 C 178.941406 217.484375 179.117188 224.773438 179.128906 225.078125 L 182.582031 224.980469 C 182.582031 224.910156 182.417969 217.910156 184.777344 210.6875 C 187.828125 201.347656 193.492188 196.023438 201.613281 194.859375 L 202.238281 194.773438 L 212.269531 183.523438 L 209.691406 181.21875 " fill-opacity="1" fill-rule="nonzero"/><path fill="#335f88" d="M 204.441406 187.105469 C 203.339844 186.160156 201.574219 190.496094 201 190.582031 C 191.230469 191.976562 184.1875 198.496094 180.644531 209.433594 C 178.074219 217.359375 178.253906 224.792969 178.261719 225.101562 C 178.304688 226.535156 179.5 227.660156 180.929688 227.621094 C 182.359375 227.582031 183.484375 226.386719 183.441406 224.957031 C 183.441406 224.828125 183.296875 217.964844 185.613281 210.914062 C 188.554688 201.941406 193.980469 196.824219 201.734375 195.71875 C 203.152344 195.511719 205.140625 193.160156 204.9375 191.742188 C 204.816406 190.898438 204.527344 188.464844 204.441406 187.105469 " fill-opacity="1" fill-rule="nonzero"/><path fill="#728483" d="M 215.707031 184.507812 L 212.378906 183.582031 L 208.367188 198.121094 L 208.628906 198.695312 C 216.878906 216.699219 193.878906 230.878906 193.648438 231.023438 L 195.433594 233.984375 C 195.695312 233.824219 201.910156 230.03125 207.078125 223.691406 C 213.957031 215.25 215.664062 206.328125 212.027344 197.835938 L 215.707031 184.507812 " fill-opacity="1" fill-rule="nonzero"/><path fill="#335f88" d="M 213.507812 192.484375 C 212.8125 192.105469 211.953125 192.40625 211.183594 192.761719 C 209.882812 193.359375 207.25 197.75 207.84375 199.050781 C 211.109375 206.183594 209.753906 213.515625 203.8125 220.855469 C 199.125 226.644531 193.257812 230.25 193.195312 230.28125 C 191.976562 231.027344 191.582031 232.621094 192.324219 233.847656 C 193.0625 235.070312 194.652344 235.464844 195.875 234.722656 C 196.144531 234.5625 202.484375 230.691406 207.746094 224.234375 C 215.007812 215.328125 216.671875 205.875 212.554688 196.890625 C 212.3125 196.359375 213.980469 192.742188 213.507812 192.484375 " fill-opacity="1" fill-rule="nonzero"/><path fill="#728483" d="M 212 186.457031 L 209.609375 185.566406 L 207.671875 177.855469 L 224.246094 148.859375 L 225.726562 149.253906 L 212 186.457031 " fill-opacity="1" fill-rule="nonzero"/><path fill="#9bb5b3" d="M 210.0625 185.394531 L 212.105469 186.933594 L 219.625 184.386719 L 234.996094 154.738281 L 233.863281 153.699219 L 210.0625 185.394531 " fill-opacity="1" fill-rule="nonzero"/><path fill="#8d9696" d="M 219.527344 166.054688 L 220.234375 164.144531 L 219.527344 166.054688 " fill-opacity="1" fill-rule="nonzero"/><path fill="#ffffff" d="M 216.425781 162.535156 L 216.472656 162.457031 L 216.425781 162.535156 " fill-opacity="1" fill-rule="nonzero"/><path fill="#a83139" d="M 216.472656 162.457031 L 217.472656 160.707031 L 216.472656 162.457031 " fill-opacity="1" fill-rule="nonzero"/><path fill="#a9b5b4" d="M 218.964844 167.582031 C 218.597656 166.96875 218.257812 166.332031 217.917969 165.679688 C 217.378906 164.648438 216.847656 163.625 216.425781 162.535156 L 216.472656 162.457031 L 217.472656 160.707031 C 217.511719 160.796875 218.59375 162.71875 220.234375 164.144531 L 219.527344 166.054688 L 218.964844 167.582031 " fill-opacity="1" fill-rule="nonzero"/><path fill="#ffffff" d="M 213.445312 167.753906 C 213.445312 167.753906 213.445312 167.75 213.445312 167.75 L 215.28125 164.539062 L 213.445312 167.753906 " fill-opacity="1" fill-rule="nonzero"/><path fill="#a9b5b4" d="M 215.878906 175.949219 C 214.796875 173.957031 213.933594 171.757812 213.609375 169.535156 C 213.523438 168.949219 213.476562 168.351562 213.445312 167.753906 L 215.28125 164.539062 L 215.375 164.378906 C 215.613281 165.042969 215.902344 165.695312 216.207031 166.335938 C 216.800781 167.5625 217.410156 168.71875 218.148438 169.800781 L 215.878906 175.949219 " fill-opacity="1" fill-rule="nonzero"/><path fill="#8d9696" d="M 225.339844 173.367188 L 228.582031 167.113281 L 225.339844 173.367188 " fill-opacity="1" fill-rule="nonzero"/><path fill="#c6d4d3" d="M 225.339844 173.367188 C 223.960938 172.632812 222.660156 171.777344 221.484375 170.738281 C 221.398438 170.664062 221.316406 170.589844 221.238281 170.511719 L 224.542969 166.113281 C 226.039062 166.890625 227.851562 166.953125 228.582031 167.113281 L 225.339844 173.367188 " fill-opacity="1" fill-rule="nonzero"/><path fill="#8d9696" d="M 220.667969 182.382812 L 224.4375 175.105469 C 224.4375 175.109375 224.4375 175.109375 224.4375 175.109375 L 220.667969 182.382812 M 216.433594 176.914062 L 216.894531 176.296875 L 216.433594 176.914062 " fill-opacity="1" fill-rule="nonzero"/><path fill="#c6d4d3" d="M 220.667969 182.382812 C 220.609375 182.320312 220.546875 182.265625 220.488281 182.207031 C 218.917969 180.625 217.570312 178.828125 216.433594 176.914062 L 216.894531 176.296875 L 220.066406 172.074219 C 221.351562 173.300781 222.878906 174.265625 224.4375 175.105469 L 220.667969 182.382812 " fill-opacity="1" fill-rule="nonzero"/><path fill="#728483" d="M 209.40625 181.511719 C 210.25 179.960938 212.191406 179.390625 213.742188 180.234375 C 215.289062 181.082031 215.863281 183.023438 215.015625 184.578125 C 214.171875 186.128906 212.230469 186.699219 210.679688 185.851562 C 209.132812 185.003906 208.5625 183.0625 209.40625 181.511719 " fill-opacity="1" fill-rule="nonzero"/><path fill="#9bb5b3" d="M 214.261719 184.160156 C 214.875 183.03125 214.457031 181.613281 213.328125 180.996094 C 212.199219 180.378906 210.78125 180.796875 210.164062 181.925781 C 209.546875 183.058594 209.964844 184.480469 211.09375 185.09375 C 212.222656 185.710938 213.640625 185.292969 214.261719 184.160156 Z M 215.773438 184.988281 C 214.703125 186.957031 212.230469 187.6875 210.265625 186.613281 C 208.300781 185.539062 207.574219 183.066406 208.648438 181.097656 C 209.71875 179.132812 212.1875 178.402344 214.152344 179.476562 C 216.121094 180.546875 216.847656 183.023438 215.773438 184.988281 " fill-opacity="1" fill-rule="nonzero"/><path fill="#96232a" d="M 133.296875 202.878906 L 133.296875 247.605469 C 133.296875 251.96875 136.828125 255.507812 141.1875 255.507812 L 246.21875 255.507812 C 250.574219 255.507812 254.105469 251.96875 254.105469 247.605469 L 254.105469 202.878906 L 133.296875 202.878906 " fill-opacity="1" fill-rule="nonzero"/><path fill="#a7a5a6" d="M 254.105469 232.078125 L 254.253906 232.078125 L 254.253906 229.191406 L 254.105469 229.191406 Z M 254.105469 232.078125 " fill-opacity="1" fill-rule="nonzero"/><path fill="#631519" d="M 133.296875 232.078125 L 254.105469 232.078125 L 254.105469 229.191406 L 133.296875 229.191406 Z M 133.296875 232.078125 " fill-opacity="1" fill-rule="nonzero"/></svg>