<svg xmlns="http://www.w3.org/2000/svg" xmlns:xlink="http://www.w3.org/1999/xlink" width="500" zoomAndPan="magnify" viewBox="0 0 375 374.999991" height="500" preserveAspectRatio="xMidYMid meet" version="1.0"><defs><clipPath id="ff9907e41f"><path d="M 112.558594 113.597656 L 262.5 113.597656 L 262.5 261.496094 L 112.558594 261.496094 Z M 112.558594 113.597656 " clip-rule="nonzero"/></clipPath><clipPath id="a04dcaa6f3"><path d="M 112.5 142 L 187 142 L 187 261 L 112.5 261 Z M 112.5 142 " clip-rule="nonzero"/></clipPath><clipPath id="4b79ce8ba1"><path d="M 185.855469 142.566406 L 262.5 142.566406 L 262.5 260.375 L 185.855469 260.375 Z M 185.855469 142.566406 " clip-rule="nonzero"/></clipPath></defs><g clip-path="url(#ff9907e41f)"><path fill="#3865b9" d="M 262.027344 152.671875 C 261.976562 144.898438 255.988281 136.285156 248.722656 133.53125 L 201.769531 115.71875 C 194.503906 112.964844 182.582031 112.882812 175.277344 115.542969 L 125.738281 133.574219 C 118.4375 136.230469 112.503906 144.765625 112.558594 152.535156 L 113.03125 222.421875 C 113.085938 230.195312 119.074219 238.808594 126.339844 241.566406 L 173.292969 259.375 C 180.558594 262.132812 192.476562 262.210938 199.78125 259.554688 L 249.320312 241.523438 C 256.625 238.863281 262.554688 230.332031 262.503906 222.558594 L 262.027344 152.671875 " fill-opacity="1" fill-rule="nonzero"/></g><path fill="#3266b9" d="M 201.769531 115.71875 C 194.503906 112.964844 182.582031 112.882812 175.277344 115.542969 L 125.738281 133.574219 C 118.4375 136.230469 118.40625 140.660156 125.671875 143.417969 L 172.625 161.226562 C 179.890625 163.984375 191.8125 164.0625 199.117188 161.40625 L 248.65625 143.375 C 255.957031 140.714844 255.988281 136.285156 248.722656 133.53125 L 201.769531 115.71875 " fill-opacity="1" fill-rule="nonzero"/><g clip-path="url(#a04dcaa6f3)"><path fill="#265a91" d="M 186.40625 250.257812 C 186.460938 258.027344 180.558594 262.132812 173.292969 259.375 L 126.339844 241.566406 C 119.074219 238.808594 113.085938 230.195312 113.03125 222.421875 L 112.558594 152.535156 C 112.503906 144.765625 118.40625 140.660156 125.671875 143.417969 L 172.625 161.226562 C 179.890625 163.984375 185.878906 172.597656 185.933594 180.367188 L 186.40625 250.257812 " fill-opacity="1" fill-rule="nonzero"/></g><g clip-path="url(#4b79ce8ba1)"><path fill="#3f74c3" d="M 248.65625 143.375 C 255.957031 140.714844 261.976562 144.898438 262.027344 152.671875 L 262.503906 222.558594 C 262.554688 230.332031 256.625 238.863281 249.320312 241.523438 L 199.78125 259.554688 C 192.476562 262.210938 186.460938 258.027344 186.40625 250.257812 L 185.933594 180.367188 C 185.878906 172.597656 191.8125 164.0625 199.117188 161.40625 L 248.65625 143.375 " fill-opacity="1" fill-rule="nonzero"/></g><path fill="#ffffff" d="M 169.359375 234.523438 L 169.347656 234.527344 L 169.324219 234.546875 L 165.929688 236.839844 L 163.988281 237.898438 L 163.921875 237.941406 C 163.78125 238.050781 163.359375 238.207031 162.742188 238.207031 C 162.140625 238.214844 161.34375 238.089844 160.371094 237.71875 C 160.347656 237.710938 160.324219 237.703125 160.300781 237.691406 C 158.082031 236.851562 154.972656 234.8125 151.15625 230.410156 C 147.34375 226.007812 142.820312 219.226562 137.824219 208.953125 C 130.398438 193.675781 128.421875 183.832031 128.367188 177.882812 C 128.34375 175.34375 128.667969 173.503906 129.078125 172.207031 C 129.472656 170.96875 129.972656 170.246094 130.253906 169.960938 L 130.257812 169.964844 L 131.90625 168.582031 L 135.308594 166.234375 C 135.433594 166.164062 135.5625 166.160156 135.691406 166.207031 C 135.863281 166.273438 136.019531 166.414062 136.144531 166.660156 L 144.015625 182.335938 C 144.046875 182.414062 144.082031 182.492188 144.121094 182.570312 C 144.21875 182.761719 144.265625 182.976562 144.269531 183.148438 C 144.265625 183.375 144.21875 183.535156 144.050781 183.660156 C 144.011719 183.6875 143.976562 183.71875 143.941406 183.753906 L 140.628906 186.007812 L 140.578125 186.054688 L 138.875 187.464844 L 138.875 187.460938 C 138.449219 187.75 138.109375 188.1875 137.898438 188.730469 C 137.683594 189.261719 137.601562 189.894531 137.605469 190.535156 C 137.617188 191.75 137.914062 192.988281 138.308594 194.238281 C 138.703125 195.492188 139.203125 196.765625 139.714844 198.011719 C 141.960938 203.453125 144.613281 208.566406 146.960938 212.621094 C 148.296875 214.910156 149.398438 216.753906 150.414062 218.183594 C 150.925781 218.902344 151.417969 219.519531 151.925781 220.027344 C 152.433594 220.535156 152.96875 220.945312 153.539062 221.164062 C 153.546875 221.167969 153.554688 221.167969 153.5625 221.171875 C 154.273438 221.441406 154.964844 221.335938 155.507812 220.964844 L 155.503906 220.960938 L 157.398438 219.871094 L 157.441406 219.84375 L 160.875 217.515625 C 161 217.445312 161.128906 217.441406 161.257812 217.492188 C 161.429688 217.554688 161.589844 217.707031 161.714844 217.953125 L 169.304688 233.203125 C 169.335938 233.285156 169.371094 233.371094 169.410156 233.453125 C 169.507812 233.640625 169.558594 233.851562 169.558594 234.03125 C 169.554688 234.242188 169.507812 234.398438 169.359375 234.523438 Z M 171.289062 232.476562 C 171.257812 232.390625 171.21875 232.3125 171.179688 232.230469 L 163.480469 216.75 L 163.476562 216.746094 C 162.90625 215.601562 162.058594 214.785156 161.230469 214.472656 C 160.59375 214.230469 159.960938 214.269531 159.4375 214.621094 L 156.015625 216.933594 L 154.117188 218.03125 L 154.074219 218.058594 C 153.8125 218.222656 153.683594 218.207031 153.511719 218.152344 C 153.375 218.101562 153.175781 217.96875 152.878906 217.679688 C 152.445312 217.253906 151.851562 216.46875 151.132812 215.355469 C 150.40625 214.253906 149.5625 212.832031 148.578125 211.132812 L 148.578125 211.144531 C 146.324219 207.261719 143.765625 202.308594 141.628906 197.136719 C 141.140625 195.953125 140.6875 194.789062 140.371094 193.777344 C 140.054688 192.765625 139.882812 191.914062 139.886719 191.402344 C 139.882812 191.125 139.914062 190.929688 139.972656 190.777344 C 140.035156 190.621094 140.128906 190.496094 140.3125 190.367188 L 140.375 190.328125 L 142.09375 188.898438 L 145.496094 186.578125 C 145.546875 186.542969 145.59375 186.5 145.632812 186.453125 C 146.25 185.945312 146.5625 185.023438 146.546875 184.015625 C 146.542969 183.257812 146.363281 182.433594 146.027344 181.664062 C 145.988281 181.558594 145.949219 181.453125 145.898438 181.355469 L 137.902344 165.445312 C 137.332031 164.308594 136.492188 163.503906 135.664062 163.1875 C 135.027344 162.945312 134.386719 162.984375 133.867188 163.351562 L 130.441406 165.703125 L 130.390625 165.742188 L 128.695312 167.144531 L 128.667969 167.179688 C 128.09375 167.71875 127.464844 168.714844 126.945312 170.320312 C 126.429688 171.914062 126.058594 174.117188 126.085938 177.019531 C 126.148438 183.835938 128.402344 194.402344 136.039062 210.113281 C 141.171875 220.671875 145.894531 227.800781 150.015625 232.554688 C 154.136719 237.316406 157.65625 239.699219 160.328125 240.710938 C 161.539062 241.171875 162.570312 241.347656 163.410156 241.339844 C 164.238281 241.339844 164.875 241.167969 165.363281 240.84375 L 167.28125 239.792969 L 167.34375 239.765625 L 170.75 237.457031 L 170.777344 237.441406 C 171.488281 236.960938 171.855469 235.984375 171.839844 234.894531 C 171.832031 234.101562 171.640625 233.257812 171.289062 232.476562 " fill-opacity="1" fill-rule="nonzero"/><path fill="#ffffff" d="M 181.628906 149.671875 L 183.800781 139.75 L 188.832031 139.585938 C 189.988281 139.546875 191.03125 139.351562 191.8125 139.054688 C 192.578125 138.761719 193.09375 138.363281 193.195312 137.925781 L 193.613281 136.011719 L 219.742188 135.160156 Z M 178.308594 149.90625 L 154.042969 140.71875 L 180.515625 139.855469 Z M 192.773438 124.945312 L 189.941406 137.847656 C 189.917969 137.984375 189.765625 138.097656 189.527344 138.191406 C 189.28125 138.28125 188.976562 138.339844 188.625 138.351562 L 182.273438 138.558594 C 182.222656 138.558594 182.167969 138.5625 182.113281 138.5625 L 154.644531 139.460938 Z M 196.089844 124.710938 L 220.363281 133.898438 L 193.886719 134.761719 Z M 225.621094 134.304688 C 225.617188 134.292969 225.609375 134.277344 225.601562 134.261719 C 225.542969 134.136719 225.375 134.027344 225.140625 133.945312 L 195.953125 122.894531 C 195.734375 122.808594 195.445312 122.746094 195.113281 122.71875 C 195.042969 122.714844 194.96875 122.710938 194.890625 122.710938 C 194.875 122.710938 194.855469 122.710938 194.839844 122.710938 C 194.816406 122.710938 194.796875 122.707031 194.773438 122.707031 C 194.753906 122.707031 194.734375 122.710938 194.714844 122.710938 C 194.628906 122.710938 194.539062 122.714844 194.453125 122.722656 C 194.132812 122.746094 193.84375 122.808594 193.617188 122.894531 C 193.609375 122.898438 193.601562 122.898438 193.59375 122.902344 L 149.265625 139.78125 C 149.257812 139.78125 149.25 139.785156 149.242188 139.789062 C 149.015625 139.875 148.855469 139.984375 148.789062 140.105469 C 148.777344 140.132812 148.769531 140.15625 148.761719 140.183594 C 148.761719 140.1875 148.761719 140.1875 148.761719 140.191406 C 148.757812 140.203125 148.753906 140.214844 148.753906 140.226562 C 148.75 140.390625 148.917969 140.550781 149.21875 140.664062 L 178.46875 151.734375 C 178.664062 151.808594 178.910156 151.863281 179.175781 151.890625 C 179.179688 151.890625 179.179688 151.890625 179.183594 151.890625 C 179.234375 151.894531 179.285156 151.898438 179.335938 151.902344 C 179.429688 151.90625 179.523438 151.910156 179.617188 151.910156 C 179.632812 151.910156 179.648438 151.910156 179.664062 151.910156 C 179.757812 151.90625 179.847656 151.90625 179.933594 151.898438 C 180.261719 151.871094 180.554688 151.8125 180.78125 151.722656 C 180.800781 151.71875 180.820312 151.707031 180.839844 151.699219 L 225.085938 134.855469 C 225.109375 134.847656 225.128906 134.839844 225.148438 134.832031 C 225.382812 134.746094 225.542969 134.628906 225.609375 134.503906 C 225.625 134.464844 225.636719 134.429688 225.636719 134.390625 C 225.636719 134.363281 225.632812 134.335938 225.621094 134.304688 " fill-opacity="1" fill-rule="nonzero"/><path fill="#ffffff" d="M 231.871094 207.5 C 230.335938 210.117188 228.207031 212.171875 225.828125 213.078125 C 223.449219 213.984375 221.292969 213.5625 219.710938 212.128906 C 218.132812 210.707031 217.144531 208.296875 217.113281 205.210938 C 217.082031 202.128906 218.019531 198.988281 219.554688 196.378906 C 221.097656 193.757812 223.226562 191.703125 225.605469 190.796875 C 227.984375 189.890625 230.140625 190.316406 231.71875 191.746094 C 233.292969 193.171875 234.285156 195.582031 234.3125 198.664062 C 234.34375 201.75 233.410156 204.890625 231.871094 207.5 Z M 246.234375 194.128906 C 246.085938 179.441406 236.785156 171.039062 225.453125 175.351562 C 214.121094 179.667969 205.050781 195.066406 205.195312 209.75 C 205.339844 224.433594 214.648438 232.835938 225.980469 228.53125 C 229.726562 227.105469 233.246094 224.449219 236.25 221.007812 C 236.796875 220.382812 236.976562 219.390625 236.648438 218.796875 C 236.429688 218.394531 236.035156 218.273438 235.632812 218.425781 C 235.4375 218.5 235.234375 218.644531 235.050781 218.851562 C 232.386719 221.898438 229.285156 224.242188 225.949219 225.511719 C 220.917969 227.425781 216.355469 226.523438 213.015625 223.511719 C 209.679688 220.488281 207.589844 215.375 207.523438 208.863281 C 207.460938 202.34375 209.433594 195.691406 212.683594 190.164062 C 215.941406 184.636719 220.453125 180.28125 225.484375 178.363281 C 230.507812 176.453125 235.074219 177.355469 238.414062 180.367188 C 241.75 183.390625 243.835938 188.496094 243.902344 195.015625 C 243.917969 196.488281 243.828125 197.976562 243.640625 199.457031 C 243.292969 201.8125 242.71875 203.636719 242.011719 204.957031 C 241.296875 206.28125 240.476562 207.15625 239.378906 207.765625 L 239.382812 207.761719 C 239.300781 207.804688 239.1875 207.863281 239.0625 207.910156 C 238.847656 207.992188 238.59375 208.042969 238.363281 208.035156 C 238.007812 208.015625 237.683594 207.890625 237.378906 207.382812 C 237.070312 206.875 236.78125 205.886719 236.761719 204.039062 L 236.574219 185.070312 C 236.566406 184.238281 236.035156 183.769531 235.394531 184.011719 C 234.753906 184.257812 234.234375 185.125 234.246094 185.957031 L 234.285156 190 C 232.253906 187.40625 229.101562 186.4375 225.578125 187.777344 C 219.539062 190.074219 214.710938 198.277344 214.789062 206.097656 C 214.867188 213.917969 219.820312 218.394531 225.859375 216.097656 C 229.453125 214.730469 232.621094 211.261719 234.574219 207.027344 C 234.652344 207.585938 234.761719 208.082031 234.894531 208.519531 C 235.316406 209.917969 236.058594 210.726562 236.867188 211.015625 C 237.675781 211.316406 238.480469 211.15625 239.09375 210.921875 C 239.316406 210.839844 239.519531 210.742188 239.691406 210.648438 L 239.699219 210.648438 C 241.300781 209.78125 242.730469 208.257812 243.773438 206.28125 C 244.828125 204.3125 245.515625 201.933594 245.925781 199.199219 L 245.929688 199.160156 C 246.144531 197.480469 246.246094 195.800781 246.234375 194.128906 " fill-opacity="1" fill-rule="nonzero"/></svg>