<svg xmlns="http://www.w3.org/2000/svg" xmlns:xlink="http://www.w3.org/1999/xlink" width="500" zoomAndPan="magnify" viewBox="0 0 375 374.999991" height="500" preserveAspectRatio="xMidYMid meet" version="1.0"><defs><clipPath id="197da72664"><path d="M 0.144531 2.75 L 375 2.75 L 375 372.863281 L 0.144531 372.863281 Z M 0.144531 2.75 " clip-rule="nonzero"/></clipPath><clipPath id="5469792863"><path d="M 183.394531 75.238281 L 375 75.238281 L 375 370.0625 L 183.394531 370.0625 Z M 183.394531 75.238281 " clip-rule="nonzero"/></clipPath></defs><g clip-path="url(#197da72664)"><path fill="#3865b9" d="M 373.820312 100.53125 C 373.691406 81.082031 358.71875 59.527344 340.550781 52.628906 L 223.171875 8.058594 C 205.007812 1.160156 175.207031 0.960938 156.949219 7.609375 L 33.101562 52.734375 C 14.84375 59.386719 0.0117188 80.742188 0.144531 100.1875 L 1.328125 275.085938 C 1.460938 294.53125 16.433594 316.089844 34.597656 322.988281 L 151.976562 367.554688 C 170.144531 374.453125 199.945312 374.65625 218.203125 368.003906 L 342.050781 322.878906 C 360.308594 316.230469 375.140625 294.875 375.007812 275.425781 L 373.820312 100.53125 " fill-opacity="1" fill-rule="nonzero"/></g><path fill="#3266b9" d="M 223.171875 8.058594 C 205.007812 1.160156 175.207031 0.960938 156.949219 7.609375 L 33.101562 52.734375 C 14.84375 59.386719 14.765625 70.472656 32.933594 77.367188 L 150.3125 121.9375 C 168.480469 128.835938 198.28125 129.039062 216.539062 122.386719 L 340.386719 77.261719 C 358.644531 70.609375 358.71875 59.527344 340.550781 52.628906 L 223.171875 8.058594 " fill-opacity="1" fill-rule="nonzero"/><path fill="#265a91" d="M 184.769531 344.738281 C 184.898438 364.1875 170.144531 374.453125 151.976562 367.554688 L 34.597656 322.988281 C 16.433594 316.089844 1.460938 294.53125 1.328125 275.085938 L 0.144531 100.1875 C 0.0117188 80.742188 14.765625 70.472656 32.933594 77.367188 L 150.3125 121.9375 C 168.480469 128.835938 183.449219 150.390625 183.582031 169.839844 L 184.769531 344.738281 " fill-opacity="1" fill-rule="nonzero"/><g clip-path="url(#5469792863)"><path fill="#3f74c3" d="M 340.386719 77.261719 C 358.644531 70.609375 373.691406 81.082031 373.820312 100.53125 L 375.007812 275.425781 C 375.140625 294.875 360.308594 316.230469 342.050781 322.878906 L 218.203125 368.003906 C 199.945312 374.65625 184.898438 364.1875 184.769531 344.738281 L 183.582031 169.839844 C 183.449219 150.390625 198.28125 129.039062 216.539062 122.386719 L 340.386719 77.261719 " fill-opacity="1" fill-rule="nonzero"/></g><path fill="#ffffff" d="M 142.148438 305.363281 L 142.117188 305.371094 L 142.066406 305.417969 L 133.574219 311.164062 L 128.722656 313.808594 L 128.554688 313.921875 C 128.199219 314.191406 127.144531 314.582031 125.609375 314.582031 C 124.101562 314.601562 122.109375 314.289062 119.675781 313.363281 C 119.617188 313.34375 119.558594 313.320312 119.496094 313.296875 C 113.953125 311.1875 106.179688 306.09375 96.636719 295.070312 C 87.109375 284.050781 75.800781 267.085938 63.308594 241.371094 C 44.75 203.136719 39.800781 178.511719 39.664062 163.625 C 39.605469 157.265625 40.417969 152.660156 41.441406 149.421875 C 42.433594 146.316406 43.679688 144.507812 44.382812 143.792969 L 44.394531 143.804688 L 48.519531 140.347656 L 57.027344 134.46875 C 57.332031 134.292969 57.652344 134.28125 57.980469 134.402344 C 58.40625 134.566406 58.800781 134.917969 59.113281 135.535156 L 78.792969 174.761719 C 78.867188 174.960938 78.957031 175.15625 79.050781 175.351562 C 79.292969 175.828125 79.417969 176.367188 79.425781 176.796875 C 79.410156 177.359375 79.296875 177.765625 78.871094 178.078125 C 78.777344 178.144531 78.6875 178.226562 78.601562 178.308594 L 70.316406 183.957031 L 70.195312 184.070312 L 65.941406 187.601562 L 65.933594 187.589844 C 64.867188 188.308594 64.023438 189.410156 63.492188 190.761719 C 62.960938 192.09375 62.753906 193.679688 62.765625 195.289062 C 62.796875 198.320312 63.535156 201.421875 64.523438 204.546875 C 65.503906 207.691406 66.761719 210.875 68.035156 213.996094 C 73.648438 227.605469 80.28125 240.40625 86.152344 250.550781 C 89.496094 256.285156 92.25 260.894531 94.785156 264.472656 C 96.066406 266.269531 97.292969 267.8125 98.5625 269.085938 C 99.835938 270.363281 101.175781 271.386719 102.597656 271.929688 C 102.617188 271.9375 102.640625 271.945312 102.660156 271.953125 C 104.433594 272.628906 106.164062 272.367188 107.519531 271.433594 L 107.515625 271.425781 L 112.25 268.699219 L 112.351562 268.625 L 120.941406 262.804688 C 121.246094 262.628906 121.570312 262.617188 121.894531 262.742188 C 122.324219 262.902344 122.722656 263.28125 123.035156 263.894531 L 142.011719 302.058594 C 142.089844 302.269531 142.179688 302.476562 142.277344 302.683594 C 142.519531 303.15625 142.648438 303.679688 142.648438 304.132812 C 142.636719 304.664062 142.515625 305.054688 142.148438 305.363281 Z M 146.96875 300.238281 C 146.890625 300.03125 146.800781 299.828125 146.699219 299.628906 L 127.453125 260.886719 L 127.4375 260.878906 C 126.015625 258.015625 123.898438 255.972656 121.828125 255.183594 C 120.234375 254.582031 118.652344 254.679688 117.347656 255.554688 L 108.789062 261.34375 L 104.042969 264.09375 L 103.9375 264.164062 C 103.277344 264.566406 102.957031 264.535156 102.527344 264.398438 C 102.1875 264.265625 101.6875 263.941406 100.949219 263.207031 C 99.863281 262.144531 98.382812 260.179688 96.582031 257.398438 C 94.765625 254.636719 92.65625 251.082031 90.195312 246.832031 L 90.195312 246.855469 C 84.5625 237.140625 78.160156 224.742188 72.820312 211.804688 C 71.601562 208.835938 70.46875 205.925781 69.675781 203.394531 C 68.886719 200.859375 68.457031 198.738281 68.464844 197.453125 C 68.457031 196.753906 68.539062 196.265625 68.6875 195.890625 C 68.835938 195.5 69.074219 195.183594 69.527344 194.863281 L 69.683594 194.761719 L 73.980469 191.1875 L 82.488281 185.378906 C 82.613281 185.292969 82.730469 185.1875 82.835938 185.070312 C 84.378906 183.796875 85.160156 181.488281 85.117188 178.964844 C 85.101562 177.070312 84.65625 175.011719 83.816406 173.082031 C 83.726562 172.820312 83.621094 172.558594 83.492188 172.304688 L 63.503906 132.492188 C 62.078125 129.652344 59.980469 127.636719 57.910156 126.851562 C 56.320312 126.242188 54.714844 126.332031 53.414062 127.257812 L 44.855469 133.136719 L 44.722656 133.242188 L 40.492188 136.75 L 40.421875 136.839844 C 38.988281 138.1875 37.410156 140.671875 36.113281 144.691406 C 34.824219 148.6875 33.898438 154.199219 33.964844 161.457031 C 34.121094 178.515625 39.753906 204.957031 58.851562 244.273438 C 71.675781 270.699219 83.484375 288.535156 93.789062 300.433594 C 104.09375 312.351562 112.894531 318.3125 119.566406 320.851562 C 122.59375 322 125.171875 322.441406 127.269531 322.425781 C 129.34375 322.417969 130.933594 321.988281 132.164062 321.183594 L 136.949219 318.554688 L 137.105469 318.480469 L 145.625 312.703125 L 145.695312 312.664062 C 147.472656 311.464844 148.390625 309.015625 148.34375 306.296875 C 148.328125 304.308594 147.851562 302.199219 146.96875 300.238281 " fill-opacity="1" fill-rule="nonzero"/><path fill="#ffffff" d="M 172.816406 93.019531 L 178.25 68.191406 L 190.835938 67.78125 C 193.722656 67.683594 196.328125 67.195312 198.277344 66.453125 C 200.199219 65.71875 201.484375 64.722656 201.738281 63.625 L 202.785156 58.835938 L 268.105469 56.707031 Z M 164.519531 93.605469 L 103.859375 70.621094 L 170.035156 68.460938 Z M 200.683594 31.144531 L 193.609375 63.433594 C 193.542969 63.769531 193.160156 64.0625 192.566406 64.289062 C 191.957031 64.519531 191.191406 64.664062 190.308594 64.691406 L 174.4375 65.210938 C 174.304688 65.214844 174.164062 65.214844 174.03125 65.222656 L 105.359375 67.472656 Z M 208.96875 30.554688 L 269.65625 53.550781 L 203.46875 55.714844 Z M 282.804688 54.570312 C 282.792969 54.53125 282.777344 54.496094 282.757812 54.460938 C 282.601562 54.144531 282.1875 53.871094 281.605469 53.664062 L 208.636719 26.015625 C 208.085938 25.792969 207.363281 25.636719 206.539062 25.574219 C 206.359375 25.5625 206.171875 25.554688 205.980469 25.550781 C 205.9375 25.550781 205.894531 25.550781 205.847656 25.550781 C 205.792969 25.550781 205.742188 25.542969 205.6875 25.542969 C 205.640625 25.542969 205.589844 25.550781 205.539062 25.550781 C 205.320312 25.554688 205.097656 25.5625 204.886719 25.578125 C 204.082031 25.644531 203.355469 25.796875 202.789062 26.011719 C 202.769531 26.019531 202.753906 26.023438 202.734375 26.03125 L 91.910156 68.265625 C 91.890625 68.273438 91.875 68.277344 91.855469 68.285156 C 91.289062 68.503906 90.890625 68.777344 90.722656 69.082031 C 90.691406 69.148438 90.667969 69.214844 90.652344 69.28125 C 90.652344 69.285156 90.652344 69.292969 90.652344 69.296875 C 90.644531 69.328125 90.636719 69.359375 90.636719 69.386719 C 90.625 69.796875 91.046875 70.195312 91.800781 70.480469 L 164.921875 98.1875 C 165.410156 98.371094 166.027344 98.503906 166.691406 98.570312 C 166.695312 98.570312 166.699219 98.570312 166.707031 98.574219 C 166.832031 98.585938 166.957031 98.59375 167.089844 98.605469 C 167.324219 98.617188 167.558594 98.625 167.792969 98.625 C 167.835938 98.625 167.871094 98.621094 167.914062 98.621094 C 168.144531 98.617188 168.371094 98.609375 168.589844 98.59375 C 169.402344 98.53125 170.132812 98.375 170.707031 98.15625 C 170.753906 98.140625 170.800781 98.117188 170.847656 98.101562 L 281.46875 55.941406 C 281.519531 55.925781 281.570312 55.910156 281.621094 55.890625 C 282.203125 55.667969 282.613281 55.378906 282.769531 55.0625 C 282.816406 54.972656 282.84375 54.878906 282.84375 54.78125 C 282.847656 54.710938 282.832031 54.640625 282.804688 54.570312 " fill-opacity="1" fill-rule="nonzero"/><path fill="#ffffff" d="M 298.433594 237.734375 C 294.589844 244.289062 289.265625 249.429688 283.316406 251.695312 C 277.371094 253.960938 271.980469 252.90625 268.027344 249.324219 C 264.082031 245.761719 261.609375 239.730469 261.535156 232.015625 C 261.457031 224.300781 263.796875 216.433594 267.632812 209.90625 C 271.496094 203.347656 276.816406 198.207031 282.765625 195.941406 C 288.714844 193.671875 294.097656 194.734375 298.042969 198.316406 C 301.980469 201.882812 304.457031 207.914062 304.535156 215.625 C 304.609375 223.34375 302.273438 231.210938 298.433594 237.734375 Z M 334.332031 204.273438 C 333.964844 167.523438 310.714844 146.496094 282.382812 157.289062 C 254.054688 168.085938 231.375 206.621094 231.734375 243.371094 C 232.101562 280.117188 255.367188 301.140625 283.703125 290.371094 C 293.066406 286.800781 301.859375 280.152344 309.375 271.542969 C 310.746094 269.980469 311.191406 267.492188 310.375 266.007812 C 309.820312 265 308.84375 264.695312 307.835938 265.082031 C 307.339844 265.269531 306.839844 265.625 306.378906 266.140625 C 299.714844 273.773438 291.960938 279.628906 283.628906 282.8125 C 271.046875 287.605469 259.644531 285.34375 251.285156 277.808594 C 242.945312 270.238281 237.722656 257.441406 237.5625 241.148438 C 237.402344 224.835938 242.332031 208.191406 250.460938 194.351562 C 258.605469 180.523438 269.878906 169.621094 282.457031 164.828125 C 295.019531 160.039062 306.4375 162.296875 314.78125 169.839844 C 323.121094 177.40625 328.339844 190.179688 328.503906 206.492188 C 328.542969 210.183594 328.316406 213.90625 327.851562 217.609375 C 326.980469 223.5 325.542969 228.074219 323.777344 231.375 C 321.988281 234.6875 319.945312 236.875 317.195312 238.402344 L 317.210938 238.394531 C 317.003906 238.496094 316.722656 238.648438 316.410156 238.769531 C 315.867188 238.972656 315.234375 239.101562 314.65625 239.074219 C 313.769531 239.027344 312.957031 238.71875 312.191406 237.445312 C 311.425781 236.171875 310.703125 233.695312 310.65625 229.082031 L 310.183594 181.605469 C 310.164062 179.523438 308.84375 178.347656 307.234375 178.957031 C 305.628906 179.570312 304.339844 181.746094 304.359375 183.828125 L 304.460938 193.949219 C 299.386719 187.449219 291.5 185.023438 282.691406 188.382812 C 267.601562 194.132812 255.527344 214.65625 255.722656 234.230469 C 255.917969 253.800781 268.300781 265.007812 283.394531 259.257812 C 292.386719 255.828125 300.304688 247.152344 305.1875 236.558594 C 305.382812 237.949219 305.652344 239.191406 305.988281 240.285156 C 307.039062 243.792969 308.894531 245.8125 310.917969 246.539062 C 312.9375 247.292969 314.949219 246.890625 316.484375 246.300781 C 317.039062 246.089844 317.546875 245.855469 317.980469 245.617188 L 318 245.613281 C 322.003906 243.449219 325.574219 239.636719 328.1875 234.6875 C 330.820312 229.757812 332.542969 223.808594 333.5625 216.964844 L 333.578125 216.871094 C 334.113281 212.667969 334.371094 208.460938 334.332031 204.273438 " fill-opacity="1" fill-rule="nonzero"/></svg>