<svg xmlns="http://www.w3.org/2000/svg" xmlns:xlink="http://www.w3.org/1999/xlink" width="500" zoomAndPan="magnify" viewBox="0 0 375 374.999991" height="500" preserveAspectRatio="xMidYMid meet" version="1.0"><path fill="#aae1f9" d="M 173.078125 28.847656 C 173.078125 12.929688 160.148438 0 144.230469 0 L 28.847656 0 C 12.929688 0 0 12.929688 0 28.847656 L 0 144.230469 C 0 160.148438 12.929688 173.078125 28.847656 173.078125 L 144.230469 173.078125 C 160.148438 173.078125 173.078125 160.148438 173.078125 144.230469 L 173.078125 28.847656 " fill-opacity="1" fill-rule="evenodd"/><path fill="#57b7eb" d="M 375 28.847656 C 375 12.929688 362.070312 0 346.152344 0 L 230.769531 0 C 214.851562 0 201.921875 12.929688 201.921875 28.847656 L 201.921875 144.230469 C 201.921875 160.148438 214.851562 173.078125 230.769531 173.078125 L 346.152344 173.078125 C 362.070312 173.078125 375 160.148438 375 144.230469 L 375 28.847656 " fill-opacity="1" fill-rule="evenodd"/><path fill="#4891d3" d="M 375 230.769531 C 375 214.851562 362.070312 201.921875 346.152344 201.921875 L 230.769531 201.921875 C 214.851562 201.921875 201.921875 214.851562 201.921875 230.769531 L 201.921875 346.152344 C 201.921875 362.070312 214.851562 375 230.769531 375 L 346.152344 375 C 362.070312 375 375 362.070312 375 346.152344 L 375 230.769531 " fill-opacity="1" fill-rule="evenodd"/><path fill="#57b7eb" d="M 173.078125 230.769531 C 173.078125 214.851562 160.148438 201.921875 144.230469 201.921875 L 28.847656 201.921875 C 12.929688 201.921875 0 214.851562 0 230.769531 L 0 346.152344 C 0 362.070312 12.929688 375 28.847656 375 L 144.230469 375 C 160.148438 375 173.078125 362.070312 173.078125 346.152344 L 173.078125 230.769531 " fill-opacity="1" fill-rule="evenodd"/></svg>