<svg xmlns="http://www.w3.org/2000/svg" xmlns:xlink="http://www.w3.org/1999/xlink" width="500" zoomAndPan="magnify" viewBox="0 0 375 374.999991" height="500" preserveAspectRatio="xMidYMid meet" version="1.0"><defs><clipPath id="499df54e63"><path d="M 112.5 112.5 L 182 112.5 L 182 182 L 112.5 182 Z M 112.5 112.5 " clip-rule="nonzero"/></clipPath><clipPath id="7b12b5a508"><path d="M 193 112.5 L 262.5 112.5 L 262.5 182 L 193 182 Z M 193 112.5 " clip-rule="nonzero"/></clipPath><clipPath id="b06fca3189"><path d="M 193 193 L 262.5 193 L 262.5 262.5 L 193 262.5 Z M 193 193 " clip-rule="nonzero"/></clipPath><clipPath id="e02d71c44f"><path d="M 112.5 193 L 182 193 L 182 262.5 L 112.5 262.5 Z M 112.5 193 " clip-rule="nonzero"/></clipPath></defs><g clip-path="url(#499df54e63)"><path fill="#aae1f9" d="M 181.730469 124.039062 C 181.730469 117.671875 176.558594 112.5 170.191406 112.5 L 124.039062 112.5 C 117.671875 112.5 112.5 117.671875 112.5 124.039062 L 112.5 170.191406 C 112.5 176.558594 117.671875 181.730469 124.039062 181.730469 L 170.191406 181.730469 C 176.558594 181.730469 181.730469 176.558594 181.730469 170.191406 L 181.730469 124.039062 " fill-opacity="1" fill-rule="evenodd"/></g><g clip-path="url(#7b12b5a508)"><path fill="#57b7eb" d="M 262.5 124.039062 C 262.5 117.671875 257.328125 112.5 250.960938 112.5 L 204.808594 112.5 C 198.441406 112.5 193.269531 117.671875 193.269531 124.039062 L 193.269531 170.191406 C 193.269531 176.558594 198.441406 181.730469 204.808594 181.730469 L 250.960938 181.730469 C 257.328125 181.730469 262.5 176.558594 262.5 170.191406 L 262.5 124.039062 " fill-opacity="1" fill-rule="evenodd"/></g><g clip-path="url(#b06fca3189)"><path fill="#4891d3" d="M 262.5 204.808594 C 262.5 198.441406 257.328125 193.269531 250.960938 193.269531 L 204.808594 193.269531 C 198.441406 193.269531 193.269531 198.441406 193.269531 204.808594 L 193.269531 250.960938 C 193.269531 257.328125 198.441406 262.5 204.808594 262.5 L 250.960938 262.5 C 257.328125 262.5 262.5 257.328125 262.5 250.960938 L 262.5 204.808594 " fill-opacity="1" fill-rule="evenodd"/></g><g clip-path="url(#e02d71c44f)"><path fill="#57b7eb" d="M 181.730469 204.808594 C 181.730469 198.441406 176.558594 193.269531 170.191406 193.269531 L 124.039062 193.269531 C 117.671875 193.269531 112.5 198.441406 112.5 204.808594 L 112.5 250.960938 C 112.5 257.328125 117.671875 262.5 124.039062 262.5 L 170.191406 262.5 C 176.558594 262.5 181.730469 257.328125 181.730469 250.960938 L 181.730469 204.808594 " fill-opacity="1" fill-rule="evenodd"/></g></svg>