<svg xmlns="http://www.w3.org/2000/svg" xmlns:xlink="http://www.w3.org/1999/xlink" width="500" zoomAndPan="magnify" viewBox="0 0 375 374.999991" height="500" preserveAspectRatio="xMidYMid meet" version="1.0"><defs><clipPath id="5a98a2d25f"><path d="M 20 245 L 355 245 L 355 301.136719 L 20 301.136719 Z M 20 245 " clip-rule="nonzero"/></clipPath><clipPath id="0960b1b5d3"><path d="M 32 280 L 341 280 L 341 301.136719 L 32 301.136719 Z M 32 280 " clip-rule="nonzero"/></clipPath><clipPath id="7f90b50979"><path d="M 0 73.359375 L 375 73.359375 L 375 254 L 0 254 Z M 0 73.359375 " clip-rule="nonzero"/></clipPath><clipPath id="14dd044286"><path d="M 10 73.359375 L 375 73.359375 L 375 85 L 10 85 Z M 10 73.359375 " clip-rule="nonzero"/></clipPath><clipPath id="8a8b65b737"><path d="M 31 73.359375 L 375 73.359375 L 375 222 L 31 222 Z M 31 73.359375 " clip-rule="nonzero"/></clipPath><clipPath id="caf3fbcb47"><path d="M 0 73.359375 L 11 73.359375 L 11 85 L 0 85 Z M 0 73.359375 " clip-rule="nonzero"/></clipPath><clipPath id="0496ce3ce8"><path d="M 0 73.359375 L 355 73.359375 L 355 249 L 0 249 Z M 0 73.359375 " clip-rule="nonzero"/></clipPath><clipPath id="15bf38a57f"><path d="M 9 73.359375 L 32 73.359375 L 32 74 L 9 74 Z M 9 73.359375 " clip-rule="nonzero"/></clipPath><clipPath id="c40e596f04"><path d="M 2 73.359375 L 32 73.359375 L 32 83 L 2 83 Z M 2 73.359375 " clip-rule="nonzero"/></clipPath><clipPath id="04a1a9b453"><path d="M 95 73.359375 L 280 73.359375 L 280 218 L 95 218 Z M 95 73.359375 " clip-rule="nonzero"/></clipPath><clipPath id="d605af9d77"><path d="M 95 73.359375 L 278 73.359375 L 278 218 L 95 218 Z M 95 73.359375 " clip-rule="nonzero"/></clipPath><clipPath id="7fcf6904e1"><path d="M 315 73.359375 L 318 73.359375 L 318 83 L 315 83 Z M 315 73.359375 " clip-rule="nonzero"/></clipPath><clipPath id="cb9f343f6e"><path d="M 317 73.359375 L 320 73.359375 L 320 83 L 317 83 Z M 317 73.359375 " clip-rule="nonzero"/></clipPath></defs><g clip-path="url(#5a98a2d25f)"><path fill="#446165" d="M 327.5 301.136719 L 47.5 301.136719 C 42.683594 301.136719 37.625 297.636719 36.171875 293.246094 L 20.445312 245.648438 L 354.554688 245.648438 L 338.828125 293.246094 C 337.375 297.636719 332.3125 301.136719 327.5 301.136719 " fill-opacity="1" fill-rule="nonzero"/></g><g clip-path="url(#0960b1b5d3)"><path fill="#3d5559" d="M 327.5 301.136719 L 47.5 301.136719 C 42.683594 301.136719 37.625 297.636719 36.171875 293.246094 L 32.003906 280.636719 L 32.730469 282.824219 L 66.476562 282.824219 C 68.765625 285.257812 72.171875 286.894531 75.460938 286.894531 L 340.925781 286.894531 L 338.828125 293.246094 C 337.375 297.636719 332.3125 301.136719 327.5 301.136719 " fill-opacity="1" fill-rule="nonzero"/></g><path fill="#3d5559" d="M 64.558594 280.050781 L 31.8125 280.050781 L 29.613281 273.390625 L 62.28125 273.390625 L 64.132812 279.003906 C 64.25 279.359375 64.394531 279.710938 64.558594 280.050781 M 28.707031 270.648438 L 23.195312 253.96875 L 28.707031 270.648438 " fill-opacity="1" fill-rule="nonzero"/><path fill="#b9b9b5" d="M 342.652344 281.667969 L 343.1875 280.050781 L 342.652344 281.667969 " fill-opacity="1" fill-rule="nonzero"/><path fill="#384b4e" d="M 342.273438 282.824219 L 66.476562 282.824219 C 65.6875 281.980469 65.03125 281.050781 64.558594 280.050781 L 343.1875 280.050781 L 342.652344 281.667969 L 342.273438 282.824219 " fill-opacity="1" fill-rule="nonzero"/><path fill="#354447" d="M 66.476562 282.824219 L 32.730469 282.824219 L 32.003906 280.636719 L 31.8125 280.050781 L 64.558594 280.050781 C 65.03125 281.050781 65.6875 281.980469 66.476562 282.824219 " fill-opacity="1" fill-rule="nonzero"/><path fill="#384b4e" d="M 349.015625 262.402344 L 349.421875 261.183594 L 349.015625 262.402344 " fill-opacity="1" fill-rule="nonzero"/><path fill="#b4b3af" d="M 345.386719 273.390625 L 347.6875 266.425781 L 345.386719 273.390625 M 29.613281 273.390625 L 28.707031 270.648438 L 29.613281 273.390625 " fill-opacity="1" fill-rule="nonzero"/><path fill="#35474a" d="M 345.386719 273.390625 L 62.28125 273.390625 L 59.164062 263.960938 L 348.503906 263.960938 L 349.015625 262.402344 L 347.6875 266.425781 L 345.386719 273.390625 M 349.421875 261.183594 L 58.25 261.183594 L 55.863281 253.96875 L 351.804688 253.96875 L 349.421875 261.183594 " fill-opacity="1" fill-rule="nonzero"/><path fill="#324042" d="M 62.28125 273.390625 L 29.613281 273.390625 L 28.707031 270.648438 L 23.195312 253.96875 L 55.863281 253.96875 L 58.25 261.183594 L 25.578125 261.183594 L 26.496094 263.960938 L 59.164062 263.960938 L 62.28125 273.390625 " fill-opacity="1" fill-rule="nonzero"/><path fill="#2f393b" d="M 348.503906 263.960938 L 59.164062 263.960938 L 58.25 261.183594 L 349.421875 261.183594 L 349.015625 262.402344 L 348.503906 263.960938 " fill-opacity="1" fill-rule="nonzero"/><path fill="#2c3335" d="M 59.164062 263.960938 L 26.496094 263.960938 L 25.578125 261.183594 L 58.25 261.183594 L 59.164062 263.960938 " fill-opacity="1" fill-rule="nonzero"/><g clip-path="url(#7f90b50979)"><path fill="#6c9683" d="M 364.3125 253.96875 L 10.6875 253.96875 C 4.785156 253.96875 0 249.195312 0 243.296875 L 0 84.214844 C 0 78.316406 4.785156 73.542969 10.6875 73.542969 L 364.3125 73.542969 C 370.214844 73.542969 375 78.316406 375 84.214844 L 375 243.296875 C 375 249.195312 370.214844 253.96875 364.3125 253.96875 " fill-opacity="1" fill-rule="nonzero"/></g><g clip-path="url(#14dd044286)"><path fill="#f1faf4" d="M 375 84.128906 C 374.953125 78.273438 370.183594 73.542969 364.3125 73.542969 L 319.480469 73.542969 L 319.480469 73.539062 L 315.40625 73.539062 L 102.316406 73.542969 L 102.316406 73.539062 L 95.832031 73.539062 L 71.335938 73.542969 L 31.8125 73.542969 L 31.8125 73.539062 L 10.6875 73.539062 C 10.683594 73.539062 10.675781 73.539062 10.671875 73.539062 C 10.675781 73.539062 10.683594 73.539062 10.6875 73.539062 L 364.3125 73.539062 C 370.183594 73.539062 374.953125 78.273438 375 84.128906 " fill-opacity="1" fill-rule="nonzero"/></g><g clip-path="url(#8a8b65b737)"><path fill="#8ab99e" d="M 375 221.027344 L 354.050781 221.027344 L 354.050781 93.605469 C 354.050781 87.710938 349.265625 82.925781 343.363281 82.925781 L 319.480469 82.925781 L 319.480469 73.539062 L 364.3125 73.542969 C 370.183594 73.542969 374.953125 78.273438 375 84.128906 C 375 84.15625 375 84.1875 375 84.214844 L 375 221.027344 M 315.40625 82.925781 L 279.167969 82.925781 L 279.167969 73.542969 L 102.316406 73.542969 L 102.316406 73.539062 L 315.40625 73.542969 L 315.40625 82.925781 M 95.832031 82.925781 L 31.8125 82.925781 L 31.8125 73.539062 L 71.335938 73.542969 L 95.832031 73.542969 L 95.832031 73.539062 L 95.832031 82.925781 " fill-opacity="1" fill-rule="nonzero"/></g><g clip-path="url(#caf3fbcb47)"><path fill="#e8efe9" d="M 0 84.148438 C 0.0351562 78.304688 4.773438 73.574219 10.625 73.539062 C 10.1875 73.542969 9.761719 73.570312 9.34375 73.621094 C 4.097656 74.28125 0.0351562 78.738281 0 84.148438 " fill-opacity="1" fill-rule="nonzero"/></g><g clip-path="url(#0496ce3ce8)"><path fill="#5d8d7a" d="M 354.050781 248.789062 L 319.480469 248.789062 L 319.480469 221.027344 L 354.050781 221.027344 L 354.050781 248.789062 M 315.40625 248.789062 L 15.355469 248.789062 C 9.453125 248.789062 4.667969 244.015625 4.667969 238.117188 L 4.667969 82.925781 L 31.8125 82.925781 L 31.8125 85.84375 L 25.929688 85.84375 C 25.734375 85.84375 25.578125 86 25.578125 86.191406 L 25.578125 90.042969 L 24.261719 90.042969 C 24.070312 90.042969 23.914062 90.199219 23.914062 90.390625 L 23.914062 189.429688 C 23.914062 189.621094 24.070312 189.777344 24.261719 189.777344 L 31.8125 189.777344 L 31.8125 210.351562 C 31.8125 216.25 36.597656 221.027344 42.5 221.027344 L 95.832031 221.027344 L 95.832031 222.964844 C 95.832031 223.390625 96.179688 223.738281 96.605469 223.738281 L 278.394531 223.738281 C 278.820312 223.738281 279.167969 223.390625 279.167969 222.964844 L 279.167969 221.027344 L 315.40625 221.027344 L 315.40625 248.789062 M 0 243.296875 L 0 84.214844 C 0 84.207031 0 84.203125 0 84.191406 C 0 84.203125 0 84.207031 0 84.214844 L 0 243.296875 M 0 84.1875 C 0 84.175781 0 84.160156 0 84.148438 C 0.0351562 78.738281 4.097656 74.28125 9.34375 73.621094 C 6.554688 73.980469 4.144531 75.441406 2.492188 77.542969 C 0.953125 79.339844 0.0078125 81.628906 0 84.1875 " fill-opacity="1" fill-rule="nonzero"/></g><path fill="#7aab92" d="M 364.3125 253.96875 C 364.320312 253.96875 364.328125 253.96875 364.335938 253.96875 C 364.328125 253.96875 364.320312 253.96875 364.3125 253.96875 M 364.34375 253.96875 C 364.347656 253.96875 364.355469 253.96875 364.363281 253.96875 C 364.355469 253.96875 364.347656 253.96875 364.34375 253.96875 M 364.363281 253.96875 C 364.375 253.96875 364.382812 253.96875 364.390625 253.96875 C 364.386719 253.96875 364.382812 253.96875 364.382812 253.96875 C 364.378906 253.96875 364.371094 253.96875 364.363281 253.96875 M 364.390625 253.96875 C 368.859375 253.9375 372.640625 251.152344 374.207031 247.238281 C 372.636719 248.136719 370.917969 248.789062 368.976562 248.789062 L 354.050781 248.789062 L 354.050781 221.027344 L 375 221.027344 L 375 243.296875 C 375 249.164062 370.261719 253.925781 364.390625 253.96875 " fill-opacity="1" fill-rule="nonzero"/><g clip-path="url(#15bf38a57f)"><path fill="#d8efdf" d="M 9.34375 73.621094 C 9.761719 73.570312 10.1875 73.542969 10.625 73.539062 C 10.628906 73.539062 10.636719 73.539062 10.636719 73.539062 C 10.640625 73.539062 10.640625 73.539062 10.644531 73.539062 C 10.648438 73.539062 10.652344 73.539062 10.65625 73.539062 C 10.65625 73.539062 10.660156 73.539062 10.664062 73.539062 C 10.667969 73.539062 10.671875 73.539062 10.671875 73.539062 C 10.675781 73.539062 10.683594 73.539062 10.6875 73.539062 L 31.8125 73.539062 L 10.6875 73.542969 C 10.234375 73.542969 9.785156 73.566406 9.34375 73.621094 " fill-opacity="1" fill-rule="nonzero"/></g><g clip-path="url(#c40e596f04)"><path fill="#7aab92" d="M 31.8125 82.925781 L 4.667969 82.925781 L 4.667969 79.035156 C 4.667969 77.636719 4.972656 76.316406 5.460938 75.09375 C 4.339844 75.742188 3.332031 76.566406 2.492188 77.542969 C 4.144531 75.441406 6.554688 73.980469 9.34375 73.621094 C 9.785156 73.566406 10.234375 73.542969 10.6875 73.542969 L 31.8125 73.542969 L 31.8125 82.925781 " fill-opacity="1" fill-rule="nonzero"/></g><path fill="#527868" d="M 279.167969 221.027344 L 95.832031 221.027344 L 95.832031 82.925781 L 95.832031 216.582031 C 95.832031 217.007812 96.179688 217.351562 96.605469 217.351562 L 278.394531 217.351562 C 278.820312 217.351562 279.167969 217.007812 279.167969 216.582031 L 279.167969 221.027344 " fill-opacity="1" fill-rule="nonzero"/><path fill="#487160" d="M 278.394531 223.738281 L 96.605469 223.738281 C 96.179688 223.738281 95.832031 223.390625 95.832031 222.964844 L 95.832031 221.027344 L 279.167969 221.027344 L 279.167969 222.964844 C 279.167969 223.390625 278.820312 223.738281 278.394531 223.738281 " fill-opacity="1" fill-rule="nonzero"/><g clip-path="url(#04a1a9b453)"><path fill="#f4ad2b" d="M 278.394531 217.351562 L 96.605469 217.351562 C 96.179688 217.351562 95.832031 217.007812 95.832031 216.582031 L 95.832031 73.542969 L 279.167969 73.542969 L 279.167969 216.582031 C 279.167969 217.007812 278.820312 217.351562 278.394531 217.351562 " fill-opacity="1" fill-rule="nonzero"/></g><g clip-path="url(#d605af9d77)"><path fill="#eb841a" d="M 265.789062 217.351562 L 109.210938 217.351562 C 101.824219 217.351562 95.832031 211.367188 95.832031 203.984375 L 95.832031 73.539062 L 102.316406 73.542969 L 102.316406 197.914062 C 102.316406 205.292969 108.304688 211.273438 115.691406 211.273438 L 272.269531 211.273438 C 274.15625 211.273438 275.953125 210.875 277.585938 210.167969 C 275.34375 214.417969 270.929688 217.351562 265.789062 217.351562 " fill-opacity="1" fill-rule="nonzero"/></g><path fill="#446165" d="M 258.0625 202.597656 L 116.941406 202.597656 C 116.738281 202.597656 116.574219 202.433594 116.574219 202.234375 L 116.574219 80.289062 C 116.574219 80.089844 116.738281 79.925781 116.941406 79.925781 L 258.0625 79.925781 C 258.261719 79.925781 258.425781 80.089844 258.425781 80.289062 L 258.425781 202.234375 C 258.425781 202.433594 258.261719 202.597656 258.0625 202.597656 " fill-opacity="1" fill-rule="nonzero"/><path fill="#698f92" d="M 117.125 198.8125 C 116.78125 198.03125 116.574219 197.179688 116.574219 196.273438 L 116.574219 130.417969 C 118.527344 128.566406 120.484375 126.71875 122.445312 124.863281 L 122.445312 194.070312 C 122.445312 194.230469 122.457031 194.386719 122.484375 194.542969 L 117.125 198.8125 M 188.171875 142.183594 L 188.171875 85.195312 L 247.429688 85.195312 C 250.414062 85.195312 252.917969 87.261719 253.582031 90.042969 L 210.917969 124.050781 L 210.917969 100.300781 C 210.917969 100.167969 210.808594 100.058594 210.671875 100.058594 L 200.886719 100.058594 C 200.75 100.058594 200.640625 100.167969 200.640625 100.300781 L 200.640625 132.246094 L 188.171875 142.183594 M 178.835938 139.25 L 174.390625 135.453125 L 174.390625 100.300781 C 174.390625 100.167969 174.28125 100.058594 174.148438 100.058594 L 164.355469 100.058594 C 164.222656 100.058594 164.109375 100.167969 164.109375 100.300781 L 164.109375 126.683594 L 141.1875 107.117188 C 149.085938 99.632812 156.859375 92.265625 164.300781 85.195312 L 178.835938 85.195312 L 178.835938 139.25 M 252.234375 79.925781 L 252.234375 79.925781 M 252.214844 79.925781 C 252.214844 79.925781 252.214844 79.925781 252.210938 79.925781 C 252.214844 79.925781 252.214844 79.925781 252.214844 79.925781 M 252.195312 79.925781 C 252.195312 79.925781 252.191406 79.925781 252.1875 79.925781 C 252.191406 79.925781 252.195312 79.925781 252.195312 79.925781 M 252.175781 79.925781 C 252.175781 79.925781 252.171875 79.925781 252.167969 79.925781 C 252.171875 79.925781 252.175781 79.925781 252.175781 79.925781 M 252.15625 79.925781 C 252.15625 79.925781 252.152344 79.925781 252.148438 79.925781 C 252.152344 79.925781 252.15625 79.925781 252.15625 79.925781 " fill-opacity="1" fill-rule="nonzero"/><path fill="#698f92" d="M 178.835938 202.597656 L 137.382812 202.597656 C 140.089844 200.847656 142.933594 199.011719 145.894531 197.097656 L 178.835938 197.097656 L 178.835938 202.597656 M 188.171875 197.453125 L 188.171875 197.097656 L 188.769531 197.097656 L 188.171875 197.453125 M 222.894531 176.855469 L 210.917969 166.628906 L 210.917969 155.015625 C 224.941406 145.925781 239.429688 136.527344 253.757812 127.214844 L 253.757812 158.542969 L 222.894531 176.855469 " fill-opacity="1" fill-rule="nonzero"/><path fill="#394f53" d="M 253.605469 202.292969 C 253.640625 202.035156 253.757812 201.8125 253.757812 201.542969 L 253.757812 158.542969 L 258.425781 155.773438 L 258.425781 196.273438 C 258.425781 199.230469 256.351562 201.597656 253.605469 202.292969 M 253.757812 127.214844 L 253.757812 91.519531 C 253.757812 91.011719 253.699219 90.515625 253.582031 90.042969 L 258.414062 86.191406 C 258.382812 82.773438 255.648438 80.003906 252.234375 79.925781 C 255.671875 80.003906 258.425781 82.804688 258.425781 86.25 L 258.425781 124.183594 C 256.871094 125.191406 255.316406 126.203125 253.757812 127.214844 M 116.726562 85.503906 C 117.109375 82.382812 119.675781 79.925781 122.902344 79.925781 L 169.851562 79.925781 C 168.027344 81.664062 166.175781 83.421875 164.300781 85.195312 L 118.234375 85.195312 C 117.699219 85.195312 117.222656 85.375 116.726562 85.503906 M 252.234375 79.925781 C 252.230469 79.925781 252.222656 79.925781 252.214844 79.925781 C 252.222656 79.925781 252.230469 79.925781 252.234375 79.925781 M 252.210938 79.925781 C 252.207031 79.925781 252.199219 79.925781 252.195312 79.925781 C 252.199219 79.925781 252.207031 79.925781 252.210938 79.925781 M 252.1875 79.925781 C 252.183594 79.925781 252.179688 79.925781 252.175781 79.925781 C 252.179688 79.925781 252.183594 79.925781 252.1875 79.925781 M 252.167969 79.925781 C 252.164062 79.925781 252.160156 79.925781 252.15625 79.925781 C 252.160156 79.925781 252.164062 79.925781 252.167969 79.925781 M 252.148438 79.925781 C 252.132812 79.925781 252.113281 79.925781 252.097656 79.925781 C 252.113281 79.925781 252.132812 79.925781 252.148438 79.925781 " fill-opacity="1" fill-rule="nonzero"/><path fill="#4e7074" d="M 253.582031 90.042969 C 252.917969 87.261719 250.414062 85.195312 247.429688 85.195312 L 188.171875 85.195312 L 188.171875 79.925781 L 178.835938 79.925781 L 178.835938 85.195312 L 164.300781 85.195312 C 166.175781 83.421875 168.027344 81.664062 169.851562 79.925781 L 252.097656 79.925781 C 252.113281 79.925781 252.132812 79.925781 252.148438 79.925781 C 252.152344 79.925781 252.15625 79.925781 252.15625 79.925781 C 252.160156 79.925781 252.164062 79.925781 252.167969 79.925781 C 252.171875 79.925781 252.175781 79.925781 252.175781 79.925781 C 252.179688 79.925781 252.183594 79.925781 252.1875 79.925781 C 252.191406 79.925781 252.195312 79.925781 252.195312 79.925781 C 252.199219 79.925781 252.207031 79.925781 252.210938 79.925781 C 252.214844 79.925781 252.214844 79.925781 252.214844 79.925781 C 252.222656 79.925781 252.230469 79.925781 252.234375 79.925781 C 255.648438 80.003906 258.382812 82.773438 258.414062 86.191406 L 253.582031 90.042969 " fill-opacity="1" fill-rule="nonzero"/><path fill="#4e7074" d="M 253.757812 158.542969 L 253.757812 127.214844 C 255.316406 126.203125 256.871094 125.191406 258.425781 124.183594 L 258.425781 155.773438 L 253.757812 158.542969 " fill-opacity="1" fill-rule="nonzero"/><path fill="#394f53" d="M 188.171875 202.597656 L 179.5 202.597656 L 188.171875 197.453125 L 188.171875 202.597656 " fill-opacity="1" fill-rule="nonzero"/><path fill="#4e7074" d="M 179.5 202.597656 L 178.835938 202.597656 L 178.835938 197.097656 L 188.171875 197.097656 L 188.171875 197.453125 L 179.5 202.597656 " fill-opacity="1" fill-rule="nonzero"/><path fill="#394f53" d="M 188.171875 147.214844 L 185.125 144.613281 L 188.171875 142.183594 L 188.171875 147.214844 " fill-opacity="1" fill-rule="nonzero"/><path fill="#4e7074" d="M 185.125 144.613281 L 178.835938 139.25 L 178.835938 85.195312 L 188.171875 85.195312 L 188.171875 142.183594 L 185.125 144.613281 " fill-opacity="1" fill-rule="nonzero"/><path fill="#3f5b5d" d="M 178.835938 85.195312 L 188.171875 85.195312 L 188.171875 79.925781 L 178.835938 79.925781 Z M 178.835938 85.195312 " fill-opacity="1" fill-rule="nonzero"/><path fill="#698f92" d="M 238.40625 197.097656 L 188.769531 197.097656 L 208.175781 185.585938 L 210.671875 185.585938 C 210.808594 185.585938 210.917969 185.472656 210.917969 185.339844 L 210.917969 183.957031 L 222.894531 176.855469 L 240.371094 191.769531 C 242.511719 193.597656 241.21875 197.097656 238.40625 197.097656 M 188.171875 169.75 L 188.171875 147.214844 L 200.640625 157.859375 L 200.640625 161.675781 C 196.414062 164.414062 192.257812 167.105469 188.171875 169.75 " fill-opacity="1" fill-rule="nonzero"/><path fill="#8cb1b0" d="M 188.769531 197.097656 L 188.171875 197.097656 L 188.171875 169.75 C 192.257812 167.105469 196.414062 164.414062 200.640625 161.675781 L 200.640625 185.339844 C 200.640625 185.472656 200.75 185.585938 200.886719 185.585938 L 208.175781 185.585938 L 188.769531 197.097656 M 210.917969 183.957031 L 210.917969 166.628906 L 222.894531 176.855469 L 210.917969 183.957031 " fill-opacity="1" fill-rule="nonzero"/><path fill="#698f92" d="M 145.894531 197.097656 L 125.476562 197.097656 C 123.960938 197.097656 122.707031 195.992188 122.484375 194.542969 L 164.109375 161.363281 L 164.109375 185.320312 C 157.660156 189.492188 151.554688 193.4375 145.894531 197.097656 M 174.390625 178.667969 L 174.390625 153.167969 L 178.835938 149.625 L 178.835938 175.792969 C 177.339844 176.761719 175.859375 177.71875 174.390625 178.667969 M 122.445312 124.863281 L 122.445312 97.679688 C 122.445312 95.878906 123.929688 94.652344 125.492188 94.652344 C 126.160156 94.652344 126.847656 94.875 127.441406 95.378906 L 141.1875 107.117188 C 134.988281 112.992188 128.703125 118.941406 122.445312 124.863281 " fill-opacity="1" fill-rule="nonzero"/><path fill="#8cb1b0" d="M 122.484375 194.542969 C 122.457031 194.386719 122.445312 194.230469 122.445312 194.070312 L 122.445312 124.863281 C 128.703125 118.941406 134.988281 112.992188 141.1875 107.117188 L 164.109375 126.683594 L 164.109375 161.363281 L 122.484375 194.542969 M 174.390625 153.167969 L 174.390625 135.453125 L 178.835938 139.25 L 178.835938 149.625 L 174.390625 153.167969 " fill-opacity="1" fill-rule="nonzero"/><path fill="#8cb1b0" d="M 178.835938 197.097656 L 145.894531 197.097656 C 151.554688 193.4375 157.660156 189.492188 164.109375 185.320312 L 164.109375 185.339844 C 164.109375 185.472656 164.222656 185.585938 164.355469 185.585938 L 174.148438 185.585938 C 174.28125 185.585938 174.390625 185.472656 174.390625 185.339844 L 174.390625 178.667969 C 175.859375 177.71875 177.339844 176.761719 178.835938 175.792969 L 178.835938 197.097656 " fill-opacity="1" fill-rule="nonzero"/><path fill="#5c8084" d="M 178.835938 175.792969 L 178.835938 149.625 L 185.125 144.613281 L 188.171875 147.214844 L 188.171875 169.75 C 185.007812 171.800781 181.894531 173.816406 178.835938 175.792969 " fill-opacity="1" fill-rule="nonzero"/><path fill="#759b9c" d="M 178.835938 149.625 L 178.835938 139.25 L 185.125 144.613281 L 178.835938 149.625 " fill-opacity="1" fill-rule="nonzero"/><path fill="#759b9c" d="M 188.171875 197.097656 L 178.835938 197.097656 L 178.835938 175.792969 C 181.894531 173.816406 185.007812 171.800781 188.171875 169.75 L 188.171875 197.097656 " fill-opacity="1" fill-rule="nonzero"/><path fill="#f4ad2b" d="M 192.167969 202.597656 L 182.832031 202.597656 L 182.832031 79.925781 L 192.167969 79.925781 L 192.167969 202.597656 " fill-opacity="1" fill-rule="nonzero"/><path fill="#446365" d="M 174.390625 135.453125 L 164.109375 126.683594 L 164.109375 100.300781 C 164.109375 100.167969 164.222656 100.058594 164.355469 100.058594 L 174.148438 100.058594 C 174.28125 100.058594 174.390625 100.167969 174.390625 100.300781 L 174.390625 135.453125 " fill-opacity="1" fill-rule="nonzero"/><path fill="#446365" d="M 164.109375 185.320312 L 164.109375 161.363281 L 174.390625 153.167969 L 174.390625 178.667969 C 170.882812 180.941406 167.449219 183.160156 164.109375 185.320312 " fill-opacity="1" fill-rule="nonzero"/><path fill="#54777c" d="M 164.109375 161.363281 L 164.109375 126.683594 L 174.390625 135.453125 L 174.390625 153.167969 L 164.109375 161.363281 " fill-opacity="1" fill-rule="nonzero"/><path fill="#54777c" d="M 174.148438 185.585938 L 164.355469 185.585938 C 164.222656 185.585938 164.109375 185.472656 164.109375 185.339844 L 164.109375 185.320312 C 167.449219 183.160156 170.882812 180.941406 174.390625 178.667969 L 174.390625 185.339844 C 174.390625 185.472656 174.28125 185.585938 174.148438 185.585938 " fill-opacity="1" fill-rule="nonzero"/><path fill="#587c80" d="M 175.257812 182.671875 L 165.46875 182.671875 C 165.332031 182.671875 165.222656 182.5625 165.222656 182.425781 L 165.222656 97.390625 C 165.222656 97.253906 165.332031 97.148438 165.46875 97.148438 L 175.257812 97.148438 C 175.390625 97.148438 175.5 97.253906 175.5 97.390625 L 175.5 182.425781 C 175.5 182.5625 175.390625 182.671875 175.257812 182.671875 " fill-opacity="1" fill-rule="nonzero"/><path fill="#35474a" d="M 203.183594 160.03125 L 200.640625 157.859375 L 200.640625 132.246094 L 210.917969 124.050781 L 210.917969 155.015625 C 208.320312 156.699219 205.742188 158.371094 203.183594 160.03125 " fill-opacity="1" fill-rule="nonzero"/><path fill="#446365" d="M 200.640625 132.246094 L 200.640625 100.300781 C 200.640625 100.167969 200.75 100.058594 200.886719 100.058594 L 210.671875 100.058594 C 210.808594 100.058594 210.917969 100.167969 210.917969 100.300781 L 210.917969 124.050781 L 200.640625 132.246094 " fill-opacity="1" fill-rule="nonzero"/><path fill="#446365" d="M 210.917969 166.628906 L 203.183594 160.03125 C 205.742188 158.371094 208.320312 156.699219 210.917969 155.015625 L 210.917969 166.628906 " fill-opacity="1" fill-rule="nonzero"/><path fill="#446365" d="M 210.671875 185.585938 L 208.175781 185.585938 L 210.917969 183.957031 L 210.917969 185.339844 C 210.917969 185.472656 210.808594 185.585938 210.671875 185.585938 M 200.640625 161.675781 L 200.640625 157.859375 L 203.183594 160.03125 C 202.332031 160.578125 201.484375 161.128906 200.640625 161.675781 " fill-opacity="1" fill-rule="nonzero"/><path fill="#54777c" d="M 208.175781 185.585938 L 200.886719 185.585938 C 200.75 185.585938 200.640625 185.472656 200.640625 185.339844 L 200.640625 161.675781 C 201.484375 161.128906 202.332031 160.578125 203.183594 160.03125 L 210.917969 166.628906 L 210.917969 183.957031 L 208.175781 185.585938 " fill-opacity="1" fill-rule="nonzero"/><path fill="#587c80" d="M 211.785156 182.671875 L 201.996094 182.671875 C 201.859375 182.671875 201.75 182.5625 201.75 182.425781 L 201.75 97.390625 C 201.75 97.253906 201.859375 97.148438 201.996094 97.148438 L 211.785156 97.148438 C 211.921875 97.148438 212.027344 97.253906 212.027344 97.390625 L 212.027344 182.425781 C 212.027344 182.5625 211.921875 182.671875 211.785156 182.671875 " fill-opacity="1" fill-rule="nonzero"/><path fill="#f1faf4" d="M 364.335938 253.96875 C 364.339844 253.96875 364.339844 253.96875 364.34375 253.96875 C 364.339844 253.96875 364.335938 253.96875 364.335938 253.96875 M 0 84.191406 C 0 84.191406 0 84.191406 0 84.1875 C 0 84.191406 0 84.191406 0 84.191406 " fill-opacity="1" fill-rule="nonzero"/><path fill="#def3e5" d="M 10.492188 253.96875 C 10.480469 253.96875 10.460938 253.96875 10.449219 253.96875 C 10.460938 253.96875 10.480469 253.96875 10.492188 253.96875 M 10.445312 253.96875 C 10.425781 253.964844 10.402344 253.964844 10.382812 253.964844 C 10.402344 253.964844 10.425781 253.964844 10.445312 253.96875 M 10.34375 253.964844 C 10.332031 253.964844 10.324219 253.964844 10.308594 253.964844 C 10.324219 253.964844 10.332031 253.964844 10.34375 253.964844 M 10.308594 253.964844 C 10.265625 253.964844 10.21875 253.960938 10.171875 253.960938 C 10.21875 253.960938 10.265625 253.964844 10.308594 253.964844 M 10.171875 253.960938 C 10.089844 253.957031 10.003906 253.949219 9.921875 253.945312 C 10.003906 253.949219 10.089844 253.957031 10.171875 253.960938 M 9.914062 253.945312 C 9.289062 253.898438 8.675781 253.800781 8.082031 253.652344 C 8.675781 253.800781 9.289062 253.898438 9.914062 253.945312 M 8.082031 253.652344 C 8.078125 253.652344 8.074219 253.648438 8.066406 253.648438 C 8.074219 253.648438 8.078125 253.652344 8.082031 253.652344 M 8.066406 253.648438 C 8.058594 253.648438 8.058594 253.644531 8.054688 253.644531 C 8.058594 253.644531 8.058594 253.648438 8.066406 253.648438 M 8.050781 253.644531 C 8.046875 253.640625 8.039062 253.640625 8.039062 253.640625 C 8.039062 253.640625 8.042969 253.640625 8.050781 253.644531 M 8.035156 253.636719 C 8.027344 253.636719 8.023438 253.636719 8.019531 253.636719 C 8.023438 253.636719 8.027344 253.636719 8.035156 253.636719 M 8.019531 253.636719 C 8.015625 253.636719 8.011719 253.636719 8.007812 253.636719 C 8.011719 253.636719 8.015625 253.636719 8.019531 253.636719 M 8 253.632812 C 8 253.632812 8 253.628906 8 253.628906 C 8 253.632812 8 253.632812 8 253.632812 M 7.984375 253.625 C 7.984375 253.625 7.980469 253.625 7.980469 253.625 C 7.980469 253.625 7.980469 253.625 7.984375 253.625 M 7.96875 253.621094 C 7.96875 253.621094 7.964844 253.621094 7.964844 253.621094 C 7.964844 253.621094 7.96875 253.621094 7.96875 253.621094 M 7.953125 253.617188 C 7.953125 253.617188 7.949219 253.617188 7.949219 253.617188 C 7.949219 253.617188 7.953125 253.617188 7.953125 253.617188 M 7.9375 253.617188 C 7.9375 253.617188 7.933594 253.613281 7.933594 253.613281 C 7.933594 253.613281 7.9375 253.617188 7.9375 253.617188 M 7.921875 253.609375 C 7.921875 253.609375 7.921875 253.609375 7.917969 253.609375 C 7.921875 253.609375 7.921875 253.609375 7.921875 253.609375 M 0 243.417969 C 0 243.402344 0 243.386719 0 243.371094 C 0 243.386719 0 243.402344 0 243.417969 " fill-opacity="1" fill-rule="nonzero"/><path fill="#80b198" d="M 353.789062 253.96875 L 319.480469 253.96875 L 319.480469 248.789062 L 354.050781 248.789062 L 354.050781 252.6875 C 354.050781 253.140625 353.84375 253.53125 353.789062 253.96875 M 315.40625 253.96875 L 10.6875 253.96875 C 10.664062 253.96875 10.636719 253.96875 10.613281 253.96875 C 10.59375 253.96875 10.570312 253.96875 10.550781 253.96875 C 10.53125 253.96875 10.511719 253.96875 10.492188 253.96875 C 10.480469 253.96875 10.460938 253.96875 10.449219 253.96875 C 10.449219 253.96875 10.445312 253.96875 10.445312 253.96875 C 10.425781 253.964844 10.402344 253.964844 10.382812 253.964844 C 10.367188 253.964844 10.355469 253.964844 10.34375 253.964844 C 10.332031 253.964844 10.324219 253.964844 10.308594 253.964844 C 10.265625 253.964844 10.21875 253.960938 10.171875 253.960938 C 10.089844 253.957031 10.003906 253.949219 9.921875 253.945312 C 9.917969 253.945312 9.917969 253.945312 9.914062 253.945312 C 9.289062 253.898438 8.675781 253.800781 8.082031 253.652344 C 8.078125 253.652344 8.074219 253.648438 8.066406 253.648438 C 8.058594 253.648438 8.058594 253.644531 8.054688 253.644531 C 8.050781 253.644531 8.050781 253.644531 8.050781 253.644531 C 8.042969 253.640625 8.039062 253.640625 8.039062 253.640625 C 8.035156 253.640625 8.035156 253.640625 8.035156 253.636719 C 8.027344 253.636719 8.023438 253.636719 8.019531 253.636719 C 8.015625 253.636719 8.011719 253.636719 8.007812 253.636719 C 8.003906 253.632812 8.003906 253.632812 8 253.632812 C 8 253.632812 8 253.632812 8 253.628906 C 7.992188 253.628906 7.988281 253.628906 7.984375 253.625 C 7.980469 253.625 7.980469 253.625 7.980469 253.625 C 7.976562 253.625 7.972656 253.621094 7.96875 253.621094 C 7.96875 253.621094 7.964844 253.621094 7.964844 253.621094 C 7.960938 253.621094 7.957031 253.617188 7.953125 253.617188 C 7.953125 253.617188 7.949219 253.617188 7.949219 253.617188 C 7.945312 253.617188 7.941406 253.617188 7.9375 253.617188 C 7.9375 253.617188 7.933594 253.613281 7.933594 253.613281 C 7.929688 253.613281 7.925781 253.613281 7.921875 253.609375 C 7.921875 253.609375 7.921875 253.609375 7.917969 253.609375 C 3.394531 252.398438 0.0546875 248.304688 0 243.417969 C 0 243.402344 0 243.386719 0 243.371094 C 0 243.347656 0 243.320312 0 243.296875 L 0 84.214844 C 0 84.207031 0 84.203125 0 84.191406 C 0 84.191406 0 84.191406 0 84.1875 C 0.0078125 81.628906 0.953125 79.339844 2.492188 77.542969 C 1.304688 79.058594 0.515625 80.910156 0.261719 82.925781 L 4.667969 82.925781 L 4.667969 238.117188 C 4.667969 244.015625 9.453125 248.789062 15.355469 248.789062 L 315.40625 248.789062 L 315.40625 253.96875 " fill-opacity="1" fill-rule="nonzero"/><path fill="#94c8aa" d="M 364.3125 253.96875 L 353.789062 253.96875 C 353.84375 253.53125 354.050781 253.140625 354.050781 252.6875 L 354.050781 248.789062 L 368.976562 248.789062 C 370.917969 248.789062 372.636719 248.136719 374.207031 247.238281 C 372.640625 251.152344 368.859375 253.9375 364.390625 253.96875 C 364.382812 253.96875 364.375 253.96875 364.363281 253.96875 C 364.355469 253.96875 364.347656 253.96875 364.34375 253.96875 C 364.339844 253.96875 364.339844 253.96875 364.335938 253.96875 C 364.328125 253.96875 364.320312 253.96875 364.3125 253.96875 " fill-opacity="1" fill-rule="nonzero"/><path fill="#94c8aa" d="M 4.667969 82.925781 L 0.261719 82.925781 C 0.515625 80.910156 1.304688 79.058594 2.492188 77.542969 C 3.332031 76.566406 4.339844 75.742188 5.460938 75.09375 C 4.972656 76.316406 4.667969 77.636719 4.667969 79.035156 L 4.667969 82.925781 " fill-opacity="1" fill-rule="nonzero"/><path fill="#476a5b" d="M 82.453125 189.777344 L 31.8125 189.777344 L 31.8125 185.585938 L 82.800781 185.585938 L 82.800781 189.429688 C 82.800781 189.621094 82.648438 189.777344 82.453125 189.777344 " fill-opacity="1" fill-rule="nonzero"/><path fill="#406355" d="M 31.8125 189.777344 L 24.261719 189.777344 C 24.070312 189.777344 23.914062 189.621094 23.914062 189.429688 L 23.914062 90.390625 C 23.914062 90.199219 24.070312 90.042969 24.261719 90.042969 L 25.578125 90.042969 L 25.578125 185.234375 C 25.578125 185.429688 25.734375 185.585938 25.929688 185.585938 L 31.8125 185.585938 L 31.8125 189.777344 " fill-opacity="1" fill-rule="nonzero"/><path fill="#f4ad2b" d="M 84.121094 185.585938 L 25.929688 185.585938 C 25.734375 185.585938 25.578125 185.429688 25.578125 185.234375 L 25.578125 86.191406 C 25.578125 86 25.734375 85.84375 25.929688 85.84375 L 84.121094 85.84375 C 84.3125 85.84375 84.46875 86 84.46875 86.191406 L 84.46875 185.234375 C 84.46875 185.429688 84.3125 185.585938 84.121094 185.585938 " fill-opacity="1" fill-rule="nonzero"/><path fill="#eb841a" d="M 78.425781 185.585938 L 31.621094 185.585938 C 28.285156 185.585938 25.578125 182.882812 25.578125 179.550781 L 25.578125 91.882812 C 25.578125 89.707031 26.789062 87.890625 28.515625 86.828125 C 28.433594 87.21875 28.277344 87.582031 28.277344 87.996094 L 28.277344 175.664062 C 28.277344 178.996094 30.984375 181.699219 34.320312 181.699219 L 81.125 181.699219 C 82.289062 181.699219 83.3125 181.285156 84.230469 180.71875 C 83.671875 183.472656 81.347656 185.585938 78.425781 185.585938 " fill-opacity="1" fill-rule="nonzero"/><path fill="#446165" d="M 80.777344 142.820312 L 29.269531 142.820312 C 29.136719 142.820312 29.035156 142.71875 29.035156 142.582031 L 29.035156 91.140625 C 29.035156 91.011719 29.136719 90.902344 29.269531 90.902344 L 80.777344 90.902344 C 80.910156 90.902344 81.015625 91.011719 81.015625 91.140625 L 81.015625 142.582031 C 81.015625 142.71875 80.910156 142.820312 80.777344 142.820312 " fill-opacity="1" fill-rule="nonzero"/><path fill="#35474a" d="M 77.023438 142.820312 L 76.386719 142.820312 L 76.386719 132.941406 L 81.015625 130.78125 L 81.015625 138.730469 C 81.015625 140.953125 79.234375 142.769531 77.023438 142.820312 M 76.386719 119.4375 L 76.386719 106.753906 L 81.015625 103.980469 L 81.015625 116.992188 C 79.480469 117.804688 77.9375 118.621094 76.386719 119.4375 M 43.476562 95.601562 L 29.035156 95.601562 L 29.035156 94.996094 C 29.035156 92.738281 30.867188 90.902344 33.128906 90.902344 L 76.921875 90.902344 C 77.039062 90.902344 77.160156 90.910156 77.273438 90.917969 C 77.160156 90.910156 77.039062 90.902344 76.921875 90.902344 L 48.019531 90.902344 L 43.476562 95.601562 " fill-opacity="1" fill-rule="nonzero"/><path fill="#698f92" d="M 55.203125 142.820312 L 33.128906 142.820312 C 32.769531 142.820312 32.445312 142.703125 32.113281 142.617188 C 43.414062 136.734375 60.21875 127.96875 76.386719 119.4375 L 76.386719 132.941406 L 55.203125 142.820312 " fill-opacity="1" fill-rule="nonzero"/><path fill="#56787d" d="M 76.386719 132.941406 L 76.386719 119.4375 C 77.9375 118.621094 79.480469 117.804688 81.015625 116.992188 L 81.015625 130.78125 L 76.386719 132.941406 " fill-opacity="1" fill-rule="nonzero"/><path fill="#698f92" d="M 29.035156 135.082031 L 29.035156 110.53125 L 43.476562 95.601562 L 72.289062 95.601562 C 74.550781 95.601562 76.386719 97.429688 76.386719 99.691406 L 76.386719 106.753906 L 29.035156 135.082031 M 81.015625 103.980469 L 81.015625 94.996094 C 81.015625 92.855469 79.367188 91.097656 77.273438 90.917969 C 79.367188 91.097656 81.015625 92.855469 81.015625 94.992188 L 81.015625 103.980469 " fill-opacity="1" fill-rule="nonzero"/><path fill="#56787d" d="M 76.386719 106.753906 L 76.386719 99.691406 C 76.386719 97.429688 74.550781 95.601562 72.289062 95.601562 L 43.476562 95.601562 L 48.019531 90.902344 L 76.921875 90.902344 C 77.039062 90.902344 77.160156 90.910156 77.273438 90.917969 C 79.367188 91.097656 81.015625 92.855469 81.015625 94.996094 L 81.015625 103.980469 L 76.386719 106.753906 " fill-opacity="1" fill-rule="nonzero"/><path fill="#6c9683" d="M 40.246094 153.167969 L 30.011719 153.167969 L 29.945312 153.101562 L 29.945312 148.058594 L 30.011719 147.992188 L 40.246094 147.992188 L 40.316406 148.058594 L 40.316406 153.101562 L 40.246094 153.167969 " fill-opacity="1" fill-rule="nonzero"/><path fill="#6c9683" d="M 54.136719 153.167969 L 43.902344 153.167969 L 43.835938 153.101562 L 43.835938 148.058594 L 43.902344 147.992188 L 54.136719 147.992188 L 54.207031 148.058594 L 54.207031 153.101562 L 54.136719 153.167969 " fill-opacity="1" fill-rule="nonzero"/><path fill="#6c9683" d="M 68.023438 153.167969 L 57.789062 153.167969 L 57.726562 153.101562 L 57.726562 148.058594 L 57.789062 147.992188 L 68.023438 147.992188 L 68.09375 148.058594 L 68.09375 153.101562 L 68.023438 153.167969 " fill-opacity="1" fill-rule="nonzero"/><path fill="#6c9683" d="M 81.914062 153.167969 L 71.679688 153.167969 L 71.613281 153.101562 L 71.613281 148.058594 L 71.679688 147.992188 L 81.914062 147.992188 L 81.984375 148.058594 L 81.984375 153.101562 L 81.914062 153.167969 " fill-opacity="1" fill-rule="nonzero"/><path fill="#6c9683" d="M 40.246094 159.828125 L 30.011719 159.828125 L 29.945312 159.761719 L 29.945312 154.71875 L 30.011719 154.648438 L 40.246094 154.648438 L 40.316406 154.71875 L 40.316406 159.761719 L 40.246094 159.828125 " fill-opacity="1" fill-rule="nonzero"/><path fill="#6c9683" d="M 54.136719 159.828125 L 43.902344 159.828125 L 43.835938 159.761719 L 43.835938 154.71875 L 43.902344 154.648438 L 54.136719 154.648438 L 54.207031 154.71875 L 54.207031 159.761719 L 54.136719 159.828125 " fill-opacity="1" fill-rule="nonzero"/><path fill="#6c9683" d="M 68.023438 159.828125 L 57.789062 159.828125 L 57.726562 159.761719 L 57.726562 154.71875 L 57.789062 154.648438 L 68.023438 154.648438 L 68.09375 154.71875 L 68.09375 159.761719 L 68.023438 159.828125 " fill-opacity="1" fill-rule="nonzero"/><path fill="#6c9683" d="M 81.914062 159.828125 L 71.679688 159.828125 L 71.613281 159.761719 L 71.613281 154.71875 L 71.679688 154.648438 L 81.914062 154.648438 L 81.984375 154.71875 L 81.984375 159.761719 L 81.914062 159.828125 " fill-opacity="1" fill-rule="nonzero"/><path fill="#6c9683" d="M 40.246094 166.488281 L 30.011719 166.488281 L 29.945312 166.417969 L 29.945312 161.375 L 30.011719 161.308594 L 40.246094 161.308594 L 40.316406 161.375 L 40.316406 166.417969 L 40.246094 166.488281 " fill-opacity="1" fill-rule="nonzero"/><path fill="#6c9683" d="M 54.136719 166.488281 L 43.902344 166.488281 L 43.835938 166.417969 L 43.835938 161.375 L 43.902344 161.308594 L 54.136719 161.308594 L 54.207031 161.375 L 54.207031 166.417969 L 54.136719 166.488281 " fill-opacity="1" fill-rule="nonzero"/><path fill="#6c9683" d="M 68.023438 166.488281 L 57.789062 166.488281 L 57.726562 166.417969 L 57.726562 161.375 L 57.789062 161.308594 L 68.023438 161.308594 L 68.09375 161.375 L 68.09375 166.417969 L 68.023438 166.488281 " fill-opacity="1" fill-rule="nonzero"/><path fill="#6c9683" d="M 81.914062 166.488281 L 71.679688 166.488281 L 71.613281 166.417969 L 71.613281 161.375 L 71.679688 161.308594 L 81.914062 161.308594 L 81.984375 161.375 L 81.984375 166.417969 L 81.914062 166.488281 " fill-opacity="1" fill-rule="nonzero"/><path fill="#6c9683" d="M 40.246094 173.144531 L 30.011719 173.144531 L 29.945312 173.082031 L 29.945312 168.035156 L 30.011719 167.964844 L 40.246094 167.964844 L 40.316406 168.035156 L 40.316406 173.082031 L 40.246094 173.144531 " fill-opacity="1" fill-rule="nonzero"/><path fill="#6c9683" d="M 54.136719 173.144531 L 43.902344 173.144531 L 43.835938 173.082031 L 43.835938 168.035156 L 43.902344 167.964844 L 54.136719 167.964844 L 54.207031 168.035156 L 54.207031 173.082031 L 54.136719 173.144531 " fill-opacity="1" fill-rule="nonzero"/><path fill="#6c9683" d="M 68.023438 173.144531 L 57.789062 173.144531 L 57.726562 173.082031 L 57.726562 168.035156 L 57.789062 167.964844 L 68.023438 167.964844 L 68.09375 168.035156 L 68.09375 173.082031 L 68.023438 173.144531 " fill-opacity="1" fill-rule="nonzero"/><path fill="#6c9683" d="M 81.914062 173.144531 L 71.679688 173.144531 L 71.613281 173.082031 L 71.613281 168.035156 L 71.679688 167.964844 L 81.914062 167.964844 L 81.984375 168.035156 L 81.984375 173.082031 L 81.914062 173.144531 " fill-opacity="1" fill-rule="nonzero"/><path fill="#437d66" d="M 315.40625 221.027344 L 317.449219 221.027344 L 317.449219 82.925781 L 315.40625 82.925781 Z M 315.40625 221.027344 " fill-opacity="1" fill-rule="nonzero"/><g clip-path="url(#7fcf6904e1)"><path fill="#569379" d="M 317.449219 82.925781 L 315.40625 82.925781 L 315.40625 73.539062 L 317.449219 73.542969 L 317.449219 82.925781 " fill-opacity="1" fill-rule="nonzero"/></g><path fill="#3b7660" d="M 315.40625 248.789062 L 317.449219 248.789062 L 317.449219 221.027344 L 315.40625 221.027344 Z M 315.40625 248.789062 " fill-opacity="1" fill-rule="nonzero"/><path fill="#4e8d76" d="M 315.40625 253.96875 L 317.449219 253.96875 L 317.449219 248.789062 L 315.40625 248.789062 Z M 315.40625 253.96875 " fill-opacity="1" fill-rule="nonzero"/><path fill="#2b6c52" d="M 317.449219 221.027344 L 319.480469 221.027344 L 319.480469 82.925781 L 317.449219 82.925781 Z M 317.449219 221.027344 " fill-opacity="1" fill-rule="nonzero"/><g clip-path="url(#cb9f343f6e)"><path fill="#357a5f" d="M 319.480469 82.925781 L 317.449219 82.925781 L 317.449219 73.539062 L 319.480469 73.542969 L 319.480469 82.925781 " fill-opacity="1" fill-rule="nonzero"/></g><path fill="#27674f" d="M 317.449219 248.789062 L 319.480469 248.789062 L 319.480469 221.027344 L 317.449219 221.027344 Z M 317.449219 248.789062 " fill-opacity="1" fill-rule="nonzero"/><path fill="#31765e" d="M 317.449219 253.96875 L 319.480469 253.96875 L 319.480469 248.789062 L 317.449219 248.789062 Z M 317.449219 253.96875 " fill-opacity="1" fill-rule="nonzero"/></svg>