<svg xmlns="http://www.w3.org/2000/svg" xmlns:xlink="http://www.w3.org/1999/xlink" width="500" zoomAndPan="magnify" viewBox="0 0 375 374.999991" height="500" preserveAspectRatio="xMidYMid meet" version="1.0"><defs><clipPath id="6e269ac021"><path d="M 120.5 210.722656 L 254.5 210.722656 L 254.5 233.253906 L 120.5 233.253906 Z M 120.5 210.722656 " clip-rule="nonzero"/></clipPath><clipPath id="163d8dd5d9"><path d="M 125.167969 225 L 249 225 L 249 233.253906 L 125.167969 233.253906 Z M 125.167969 225 " clip-rule="nonzero"/></clipPath><clipPath id="d9db801897"><path d="M 112.5 141.84375 L 262.5 141.84375 L 262.5 215 L 112.5 215 Z M 112.5 141.84375 " clip-rule="nonzero"/></clipPath><clipPath id="1dfeec468c"><path d="M 116 141.84375 L 262.5 141.84375 L 262.5 147 L 116 147 Z M 116 141.84375 " clip-rule="nonzero"/></clipPath><clipPath id="1f3fec9e99"><path d="M 125 141.84375 L 262.5 141.84375 L 262.5 202 L 125 202 Z M 125 141.84375 " clip-rule="nonzero"/></clipPath><clipPath id="9736dc001d"><path d="M 112.5 141.84375 L 117 141.84375 L 117 147 L 112.5 147 Z M 112.5 141.84375 " clip-rule="nonzero"/></clipPath><clipPath id="bc5683a5ee"><path d="M 112.5 141.84375 L 255 141.84375 L 255 213 L 112.5 213 Z M 112.5 141.84375 " clip-rule="nonzero"/></clipPath><clipPath id="165a5f35a6"><path d="M 254 201 L 262.5 201 L 262.5 215 L 254 215 Z M 254 201 " clip-rule="nonzero"/></clipPath><clipPath id="fa6508a3bd"><path d="M 116 141.84375 L 126 141.84375 L 126 142 L 116 142 Z M 116 141.84375 " clip-rule="nonzero"/></clipPath><clipPath id="05b8f73f9f"><path d="M 113 141.84375 L 126 141.84375 L 126 146 L 113 146 Z M 113 141.84375 " clip-rule="nonzero"/></clipPath><clipPath id="8d0fe71fae"><path d="M 150 141.84375 L 225 141.84375 L 225 200 L 150 200 Z M 150 141.84375 " clip-rule="nonzero"/></clipPath><clipPath id="9f108d4259"><path d="M 150 141.84375 L 224 141.84375 L 224 200 L 150 200 Z M 150 141.84375 " clip-rule="nonzero"/></clipPath><clipPath id="e2be8107fc"><path d="M 112.5 146 L 259 146 L 259 215 L 112.5 215 Z M 112.5 146 " clip-rule="nonzero"/></clipPath><clipPath id="8d78b3646f"><path d="M 112.5 210 L 117 210 L 117 215 L 112.5 215 Z M 112.5 210 " clip-rule="nonzero"/></clipPath><clipPath id="3832c24c8a"><path d="M 112.5 143 L 255 143 L 255 215 L 112.5 215 Z M 112.5 143 " clip-rule="nonzero"/></clipPath><clipPath id="82c835066a"><path d="M 254 211 L 262.5 211 L 262.5 215 L 254 215 Z M 254 211 " clip-rule="nonzero"/></clipPath><clipPath id="1fcdbb2c04"><path d="M 112.5 142 L 115 142 L 115 146 L 112.5 146 Z M 112.5 142 " clip-rule="nonzero"/></clipPath><clipPath id="d9509f78fe"><path d="M 238 141.84375 L 240 141.84375 L 240 146 L 238 146 Z M 238 141.84375 " clip-rule="nonzero"/></clipPath><clipPath id="12191d4ee6"><path d="M 239 141.84375 L 241 141.84375 L 241 146 L 239 146 Z M 239 141.84375 " clip-rule="nonzero"/></clipPath></defs><g clip-path="url(#6e269ac021)"><path fill="#446165" d="M 243.5 233.253906 L 131.5 233.253906 C 129.574219 233.253906 127.550781 231.851562 126.96875 230.089844 L 120.679688 210.984375 L 254.320312 210.984375 L 248.03125 230.089844 C 247.449219 231.851562 245.425781 233.253906 243.5 233.253906 " fill-opacity="1" fill-rule="nonzero"/></g><g clip-path="url(#163d8dd5d9)"><path fill="#3d5559" d="M 243.5 233.253906 L 131.5 233.253906 C 129.574219 233.253906 127.550781 231.851562 126.96875 230.089844 L 125.300781 225.027344 L 125.59375 225.90625 L 139.089844 225.90625 C 140.007812 226.882812 141.367188 227.539062 142.683594 227.539062 L 248.871094 227.539062 L 248.03125 230.089844 C 247.449219 231.851562 245.425781 233.253906 243.5 233.253906 " fill-opacity="1" fill-rule="nonzero"/></g><path fill="#3d5559" d="M 138.324219 224.792969 L 125.226562 224.792969 L 124.34375 222.121094 L 137.414062 222.121094 L 138.152344 224.371094 C 138.199219 224.515625 138.257812 224.65625 138.324219 224.792969 M 123.984375 221.019531 L 121.777344 214.324219 L 123.984375 221.019531 " fill-opacity="1" fill-rule="nonzero"/><path fill="#b9b9b5" d="M 249.5625 225.441406 L 249.773438 224.792969 L 249.5625 225.441406 " fill-opacity="1" fill-rule="nonzero"/><path fill="#384b4e" d="M 249.410156 225.90625 L 139.089844 225.90625 C 138.773438 225.566406 138.511719 225.191406 138.324219 224.792969 L 249.773438 224.792969 L 249.5625 225.441406 L 249.410156 225.90625 " fill-opacity="1" fill-rule="nonzero"/><path fill="#354447" d="M 139.089844 225.90625 L 125.59375 225.90625 L 125.300781 225.027344 L 125.226562 224.792969 L 138.324219 224.792969 C 138.511719 225.191406 138.773438 225.566406 139.089844 225.90625 " fill-opacity="1" fill-rule="nonzero"/><path fill="#384b4e" d="M 252.105469 217.710938 L 252.269531 217.222656 L 252.105469 217.710938 " fill-opacity="1" fill-rule="nonzero"/><path fill="#b4b3af" d="M 250.65625 222.121094 L 251.574219 219.324219 L 250.65625 222.121094 M 124.34375 222.121094 L 123.984375 221.019531 L 124.34375 222.121094 " fill-opacity="1" fill-rule="nonzero"/><path fill="#35474a" d="M 250.65625 222.121094 L 137.414062 222.121094 L 136.164062 218.335938 L 251.902344 218.335938 L 252.105469 217.710938 L 251.574219 219.324219 L 250.65625 222.121094 M 252.269531 217.222656 L 135.800781 217.222656 L 134.84375 214.324219 L 253.222656 214.324219 L 252.269531 217.222656 " fill-opacity="1" fill-rule="nonzero"/><path fill="#324042" d="M 137.414062 222.121094 L 124.34375 222.121094 L 123.984375 221.019531 L 121.777344 214.324219 L 134.84375 214.324219 L 135.800781 217.222656 L 122.730469 217.222656 L 123.097656 218.335938 L 136.164062 218.335938 L 137.414062 222.121094 " fill-opacity="1" fill-rule="nonzero"/><path fill="#2f393b" d="M 251.902344 218.335938 L 136.164062 218.335938 L 135.800781 217.222656 L 252.269531 217.222656 L 252.105469 217.710938 L 251.902344 218.335938 " fill-opacity="1" fill-rule="nonzero"/><path fill="#2c3335" d="M 136.164062 218.335938 L 123.097656 218.335938 L 122.730469 217.222656 L 135.800781 217.222656 L 136.164062 218.335938 " fill-opacity="1" fill-rule="nonzero"/><g clip-path="url(#d9db801897)"><path fill="#6c9683" d="M 258.226562 214.324219 L 116.773438 214.324219 C 114.414062 214.324219 112.5 212.410156 112.5 210.042969 L 112.5 146.199219 C 112.5 143.832031 114.414062 141.917969 116.773438 141.917969 L 258.226562 141.917969 C 260.585938 141.917969 262.5 143.832031 262.5 146.199219 L 262.5 210.042969 C 262.5 212.410156 260.585938 214.324219 258.226562 214.324219 " fill-opacity="1" fill-rule="nonzero"/></g><g clip-path="url(#1dfeec468c)"><path fill="#f1faf4" d="M 262.5 146.164062 C 262.480469 143.816406 260.574219 141.917969 258.226562 141.917969 L 240.292969 141.917969 L 240.292969 141.914062 L 238.664062 141.914062 L 153.425781 141.917969 L 153.425781 141.914062 L 150.832031 141.914062 L 141.035156 141.917969 L 125.226562 141.917969 L 125.226562 141.914062 L 116.773438 141.914062 C 116.773438 141.914062 116.769531 141.914062 116.769531 141.914062 C 116.769531 141.914062 116.773438 141.914062 116.773438 141.914062 L 258.226562 141.914062 C 260.574219 141.914062 262.480469 143.816406 262.5 146.164062 " fill-opacity="1" fill-rule="nonzero"/></g><g clip-path="url(#1f3fec9e99)"><path fill="#8ab99e" d="M 262.5 201.105469 L 254.121094 201.105469 L 254.121094 149.96875 C 254.121094 147.601562 252.207031 145.683594 249.84375 145.683594 L 240.292969 145.683594 L 240.292969 141.914062 L 258.226562 141.917969 C 260.574219 141.917969 262.480469 143.816406 262.5 146.164062 C 262.5 146.175781 262.5 146.1875 262.5 146.199219 L 262.5 201.105469 M 238.664062 145.683594 L 224.167969 145.683594 L 224.167969 141.917969 L 153.425781 141.917969 L 153.425781 141.914062 L 238.664062 141.917969 L 238.664062 145.683594 M 150.832031 145.683594 L 125.226562 145.683594 L 125.226562 141.914062 L 141.035156 141.917969 L 150.832031 141.917969 L 150.832031 141.914062 L 150.832031 145.683594 " fill-opacity="1" fill-rule="nonzero"/></g><g clip-path="url(#9736dc001d)"><path fill="#e8efe9" d="M 112.5 146.171875 C 112.515625 143.828125 114.410156 141.929688 116.75 141.914062 C 116.574219 141.917969 116.40625 141.929688 116.238281 141.949219 C 114.140625 142.214844 112.515625 144 112.5 146.171875 " fill-opacity="1" fill-rule="nonzero"/></g><g clip-path="url(#bc5683a5ee)"><path fill="#5d8d7a" d="M 254.121094 212.246094 L 240.292969 212.246094 L 240.292969 201.105469 L 254.121094 201.105469 L 254.121094 212.246094 M 238.664062 212.246094 L 118.640625 212.246094 C 116.28125 212.246094 114.367188 210.332031 114.367188 207.964844 L 114.367188 145.683594 L 125.226562 145.683594 L 125.226562 146.855469 L 122.871094 146.855469 C 122.792969 146.855469 122.730469 146.917969 122.730469 146.992188 L 122.730469 148.539062 L 122.203125 148.539062 C 122.128906 148.539062 122.066406 148.601562 122.066406 148.679688 L 122.066406 188.425781 C 122.066406 188.5 122.128906 188.566406 122.203125 188.566406 L 125.226562 188.566406 L 125.226562 196.820312 C 125.226562 199.1875 127.140625 201.105469 129.5 201.105469 L 150.832031 201.105469 L 150.832031 201.882812 C 150.832031 202.054688 150.972656 202.191406 151.140625 202.191406 L 223.859375 202.191406 C 224.027344 202.191406 224.167969 202.054688 224.167969 201.882812 L 224.167969 201.105469 L 238.664062 201.105469 L 238.664062 212.246094 M 112.5 210.042969 L 112.5 146.199219 C 112.5 146.199219 112.5 146.195312 112.5 146.191406 C 112.5 146.195312 112.5 146.199219 112.5 146.199219 L 112.5 210.042969 M 112.5 146.191406 C 112.5 146.183594 112.5 146.179688 112.5 146.171875 C 112.515625 144 114.140625 142.214844 116.238281 141.949219 C 115.121094 142.09375 114.15625 142.679688 113.496094 143.523438 C 112.882812 144.242188 112.503906 145.164062 112.5 146.191406 " fill-opacity="1" fill-rule="nonzero"/></g><g clip-path="url(#165a5f35a6)"><path fill="#7aab92" d="M 258.226562 214.324219 C 258.226562 214.324219 258.230469 214.324219 258.234375 214.324219 C 258.230469 214.324219 258.226562 214.324219 258.226562 214.324219 M 258.238281 214.324219 C 258.238281 214.324219 258.242188 214.324219 258.246094 214.324219 C 258.242188 214.324219 258.238281 214.324219 258.238281 214.324219 M 258.246094 214.324219 C 258.25 214.324219 258.253906 214.324219 258.257812 214.324219 C 258.253906 214.324219 258.253906 214.324219 258.253906 214.324219 C 258.25 214.324219 258.25 214.324219 258.246094 214.324219 M 258.257812 214.324219 C 260.042969 214.3125 261.554688 213.195312 262.183594 211.625 C 261.554688 211.984375 260.867188 212.246094 260.089844 212.246094 L 254.121094 212.246094 L 254.121094 201.105469 L 262.5 201.105469 L 262.5 210.042969 C 262.5 212.398438 260.605469 214.308594 258.257812 214.324219 " fill-opacity="1" fill-rule="nonzero"/></g><g clip-path="url(#fa6508a3bd)"><path fill="#d8efdf" d="M 116.238281 141.949219 C 116.40625 141.929688 116.574219 141.917969 116.75 141.914062 C 116.75 141.914062 116.753906 141.914062 116.753906 141.914062 C 116.757812 141.914062 116.757812 141.914062 116.757812 141.914062 C 116.757812 141.914062 116.761719 141.914062 116.761719 141.914062 C 116.761719 141.914062 116.765625 141.914062 116.765625 141.914062 C 116.765625 141.914062 116.769531 141.914062 116.769531 141.914062 C 116.769531 141.914062 116.773438 141.914062 116.773438 141.914062 L 125.226562 141.914062 L 116.773438 141.917969 C 116.59375 141.917969 116.414062 141.925781 116.238281 141.949219 " fill-opacity="1" fill-rule="nonzero"/></g><g clip-path="url(#05b8f73f9f)"><path fill="#7aab92" d="M 125.226562 145.683594 L 114.367188 145.683594 L 114.367188 144.121094 C 114.367188 143.5625 114.488281 143.03125 114.683594 142.539062 C 114.234375 142.800781 113.832031 143.132812 113.496094 143.523438 C 114.15625 142.679688 115.121094 142.09375 116.238281 141.949219 C 116.414062 141.925781 116.59375 141.917969 116.773438 141.917969 L 125.226562 141.917969 L 125.226562 145.683594 " fill-opacity="1" fill-rule="nonzero"/></g><path fill="#527868" d="M 224.167969 201.105469 L 150.832031 201.105469 L 150.832031 145.683594 L 150.832031 199.320312 C 150.832031 199.492188 150.972656 199.628906 151.140625 199.628906 L 223.859375 199.628906 C 224.027344 199.628906 224.167969 199.492188 224.167969 199.320312 L 224.167969 201.105469 " fill-opacity="1" fill-rule="nonzero"/><path fill="#487160" d="M 223.859375 202.191406 L 151.140625 202.191406 C 150.972656 202.191406 150.832031 202.054688 150.832031 201.882812 L 150.832031 201.105469 L 224.167969 201.105469 L 224.167969 201.882812 C 224.167969 202.054688 224.027344 202.191406 223.859375 202.191406 " fill-opacity="1" fill-rule="nonzero"/><g clip-path="url(#8d0fe71fae)"><path fill="#f4ad2b" d="M 223.859375 199.628906 L 151.140625 199.628906 C 150.972656 199.628906 150.832031 199.492188 150.832031 199.320312 L 150.832031 141.917969 L 224.167969 141.917969 L 224.167969 199.320312 C 224.167969 199.492188 224.027344 199.628906 223.859375 199.628906 " fill-opacity="1" fill-rule="nonzero"/></g><g clip-path="url(#9f108d4259)"><path fill="#eb841a" d="M 218.816406 199.628906 L 156.183594 199.628906 C 153.230469 199.628906 150.832031 197.226562 150.832031 194.265625 L 150.832031 141.914062 L 153.425781 141.917969 L 153.425781 191.828125 C 153.425781 194.789062 155.820312 197.191406 158.777344 197.191406 L 221.40625 197.191406 C 222.164062 197.191406 222.882812 197.03125 223.535156 196.746094 C 222.636719 198.453125 220.871094 199.628906 218.816406 199.628906 " fill-opacity="1" fill-rule="nonzero"/></g><path fill="#446165" d="M 215.726562 193.710938 L 159.277344 193.710938 C 159.195312 193.710938 159.128906 193.644531 159.128906 193.5625 L 159.128906 144.625 C 159.128906 144.542969 159.195312 144.480469 159.277344 144.480469 L 215.726562 144.480469 C 215.804688 144.480469 215.871094 144.542969 215.871094 144.625 L 215.871094 193.5625 C 215.871094 193.644531 215.804688 193.710938 215.726562 193.710938 " fill-opacity="1" fill-rule="nonzero"/><path fill="#698f92" d="M 159.351562 192.191406 C 159.210938 191.878906 159.128906 191.535156 159.128906 191.171875 L 159.128906 164.742188 C 159.910156 164 160.695312 163.257812 161.476562 162.511719 L 161.476562 190.285156 C 161.476562 190.351562 161.484375 190.414062 161.492188 190.476562 L 159.351562 192.191406 M 187.769531 169.464844 L 187.769531 146.59375 L 211.472656 146.59375 C 212.664062 146.59375 213.667969 147.421875 213.933594 148.539062 L 196.867188 162.1875 L 196.867188 152.65625 C 196.867188 152.601562 196.824219 152.558594 196.769531 152.558594 L 192.855469 152.558594 C 192.800781 152.558594 192.757812 152.601562 192.757812 152.65625 L 192.757812 165.476562 L 187.769531 169.464844 M 184.035156 168.285156 L 182.257812 166.761719 L 182.257812 152.65625 C 182.257812 152.601562 182.210938 152.558594 182.160156 152.558594 L 178.242188 152.558594 C 178.1875 152.558594 178.144531 152.601562 178.144531 152.65625 L 178.144531 163.242188 L 168.976562 155.390625 C 172.132812 152.386719 175.242188 149.429688 178.21875 146.59375 L 184.035156 146.59375 L 184.035156 168.285156 M 213.394531 144.480469 L 213.394531 144.480469 M 213.386719 144.480469 C 213.386719 144.480469 213.386719 144.480469 213.382812 144.480469 C 213.386719 144.480469 213.386719 144.480469 213.386719 144.480469 M 213.378906 144.480469 C 213.378906 144.480469 213.375 144.480469 213.375 144.480469 C 213.375 144.480469 213.378906 144.480469 213.378906 144.480469 M 213.371094 144.480469 C 213.371094 144.480469 213.367188 144.480469 213.367188 144.480469 C 213.367188 144.480469 213.371094 144.480469 213.371094 144.480469 M 213.363281 144.480469 C 213.363281 144.480469 213.359375 144.480469 213.359375 144.480469 C 213.359375 144.480469 213.363281 144.480469 213.363281 144.480469 " fill-opacity="1" fill-rule="nonzero"/><path fill="#698f92" d="M 184.035156 193.710938 L 167.453125 193.710938 C 168.535156 193.007812 169.671875 192.269531 170.859375 191.5 L 184.035156 191.5 L 184.035156 193.710938 M 187.769531 191.644531 L 187.769531 191.5 L 188.007812 191.5 L 187.769531 191.644531 M 201.65625 183.378906 L 196.867188 179.273438 L 196.867188 174.613281 C 202.476562 170.964844 208.273438 167.195312 214.003906 163.457031 L 214.003906 176.03125 L 201.65625 183.378906 " fill-opacity="1" fill-rule="nonzero"/><path fill="#394f53" d="M 213.941406 193.585938 C 213.957031 193.484375 214.003906 193.394531 214.003906 193.285156 L 214.003906 176.03125 L 215.871094 174.917969 L 215.871094 191.171875 C 215.871094 192.355469 215.039062 193.308594 213.941406 193.585938 M 214.003906 163.457031 L 214.003906 149.132812 C 214.003906 148.925781 213.980469 148.730469 213.933594 148.539062 L 215.867188 146.992188 C 215.851562 145.621094 214.757812 144.511719 213.394531 144.480469 C 214.769531 144.511719 215.871094 145.632812 215.871094 147.015625 L 215.871094 162.238281 C 215.25 162.644531 214.625 163.050781 214.003906 163.457031 M 159.191406 146.71875 C 159.34375 145.464844 160.371094 144.480469 161.660156 144.480469 L 180.441406 144.480469 C 179.710938 145.175781 178.96875 145.882812 178.21875 146.59375 L 159.792969 146.59375 C 159.578125 146.59375 159.390625 146.667969 159.191406 146.71875 M 213.394531 144.480469 C 213.390625 144.480469 213.390625 144.480469 213.386719 144.480469 C 213.390625 144.480469 213.390625 144.480469 213.394531 144.480469 M 213.382812 144.480469 C 213.382812 144.480469 213.378906 144.480469 213.378906 144.480469 C 213.378906 144.480469 213.382812 144.480469 213.382812 144.480469 M 213.375 144.480469 C 213.375 144.480469 213.371094 144.480469 213.371094 144.480469 C 213.371094 144.480469 213.375 144.480469 213.375 144.480469 M 213.367188 144.480469 C 213.367188 144.480469 213.363281 144.480469 213.363281 144.480469 C 213.363281 144.480469 213.367188 144.480469 213.367188 144.480469 M 213.359375 144.480469 C 213.351562 144.480469 213.34375 144.480469 213.339844 144.480469 C 213.34375 144.480469 213.351562 144.480469 213.359375 144.480469 " fill-opacity="1" fill-rule="nonzero"/><path fill="#4e7074" d="M 213.933594 148.539062 C 213.667969 147.421875 212.664062 146.59375 211.472656 146.59375 L 187.769531 146.59375 L 187.769531 144.480469 L 184.035156 144.480469 L 184.035156 146.59375 L 178.21875 146.59375 C 178.96875 145.882812 179.710938 145.175781 180.441406 144.480469 L 213.339844 144.480469 C 213.34375 144.480469 213.351562 144.480469 213.359375 144.480469 C 213.359375 144.480469 213.363281 144.480469 213.363281 144.480469 C 213.363281 144.480469 213.367188 144.480469 213.367188 144.480469 C 213.367188 144.480469 213.371094 144.480469 213.371094 144.480469 C 213.371094 144.480469 213.375 144.480469 213.375 144.480469 C 213.375 144.480469 213.378906 144.480469 213.378906 144.480469 C 213.378906 144.480469 213.382812 144.480469 213.382812 144.480469 C 213.386719 144.480469 213.386719 144.480469 213.386719 144.480469 C 213.390625 144.480469 213.390625 144.480469 213.394531 144.480469 C 214.757812 144.511719 215.851562 145.621094 215.867188 146.992188 L 213.933594 148.539062 " fill-opacity="1" fill-rule="nonzero"/><path fill="#4e7074" d="M 214.003906 176.03125 L 214.003906 163.457031 C 214.625 163.050781 215.25 162.644531 215.871094 162.238281 L 215.871094 174.917969 L 214.003906 176.03125 " fill-opacity="1" fill-rule="nonzero"/><path fill="#394f53" d="M 187.769531 193.710938 L 184.300781 193.710938 L 187.769531 191.644531 L 187.769531 193.710938 " fill-opacity="1" fill-rule="nonzero"/><path fill="#4e7074" d="M 184.300781 193.710938 L 184.035156 193.710938 L 184.035156 191.5 L 187.769531 191.5 L 187.769531 191.644531 L 184.300781 193.710938 " fill-opacity="1" fill-rule="nonzero"/><path fill="#394f53" d="M 187.769531 171.484375 L 186.550781 170.4375 L 187.769531 169.464844 L 187.769531 171.484375 " fill-opacity="1" fill-rule="nonzero"/><path fill="#4e7074" d="M 186.550781 170.4375 L 184.035156 168.285156 L 184.035156 146.59375 L 187.769531 146.59375 L 187.769531 169.464844 L 186.550781 170.4375 " fill-opacity="1" fill-rule="nonzero"/><path fill="#3f5b5d" d="M 184.035156 146.59375 L 187.769531 146.59375 L 187.769531 144.480469 L 184.035156 144.480469 Z M 184.035156 146.59375 " fill-opacity="1" fill-rule="nonzero"/><path fill="#698f92" d="M 207.863281 191.5 L 188.007812 191.5 L 195.769531 186.882812 L 196.769531 186.882812 C 196.824219 186.882812 196.867188 186.835938 196.867188 186.785156 L 196.867188 186.230469 L 201.65625 183.378906 L 208.648438 189.363281 C 209.503906 190.097656 208.988281 191.5 207.863281 191.5 M 187.769531 180.527344 L 187.769531 171.484375 L 192.757812 175.753906 L 192.757812 177.285156 C 191.066406 178.382812 189.402344 179.464844 187.769531 180.527344 " fill-opacity="1" fill-rule="nonzero"/><path fill="#8cb1b0" d="M 188.007812 191.5 L 187.769531 191.5 L 187.769531 180.527344 C 189.402344 179.464844 191.066406 178.382812 192.757812 177.285156 L 192.757812 186.785156 C 192.757812 186.835938 192.800781 186.882812 192.855469 186.882812 L 195.769531 186.882812 L 188.007812 191.5 M 196.867188 186.230469 L 196.867188 179.273438 L 201.65625 183.378906 L 196.867188 186.230469 " fill-opacity="1" fill-rule="nonzero"/><path fill="#698f92" d="M 170.859375 191.5 L 162.691406 191.5 C 162.085938 191.5 161.582031 191.058594 161.492188 190.476562 L 178.144531 177.160156 L 178.144531 186.777344 C 175.5625 188.449219 173.121094 190.035156 170.859375 191.5 M 182.257812 184.105469 L 182.257812 173.871094 L 184.035156 172.449219 L 184.035156 182.953125 C 183.4375 183.339844 182.84375 183.726562 182.257812 184.105469 M 161.476562 162.511719 L 161.476562 151.605469 C 161.476562 150.878906 162.070312 150.386719 162.695312 150.386719 C 162.964844 150.386719 163.238281 150.480469 163.476562 150.679688 L 168.976562 155.390625 C 166.496094 157.75 163.980469 160.136719 161.476562 162.511719 " fill-opacity="1" fill-rule="nonzero"/><path fill="#8cb1b0" d="M 161.492188 190.476562 C 161.484375 190.414062 161.476562 190.351562 161.476562 190.285156 L 161.476562 162.511719 C 163.980469 160.136719 166.496094 157.75 168.976562 155.390625 L 178.144531 163.242188 L 178.144531 177.160156 L 161.492188 190.476562 M 182.257812 173.871094 L 182.257812 166.761719 L 184.035156 168.285156 L 184.035156 172.449219 L 182.257812 173.871094 " fill-opacity="1" fill-rule="nonzero"/><path fill="#8cb1b0" d="M 184.035156 191.5 L 170.859375 191.5 C 173.121094 190.035156 175.5625 188.449219 178.144531 186.777344 L 178.144531 186.785156 C 178.144531 186.835938 178.1875 186.882812 178.242188 186.882812 L 182.160156 186.882812 C 182.210938 186.882812 182.257812 186.835938 182.257812 186.785156 L 182.257812 184.105469 C 182.84375 183.726562 183.4375 183.339844 184.035156 182.953125 L 184.035156 191.5 " fill-opacity="1" fill-rule="nonzero"/><path fill="#5c8084" d="M 184.035156 182.953125 L 184.035156 172.449219 L 186.550781 170.4375 L 187.769531 171.484375 L 187.769531 180.527344 C 186.503906 181.347656 185.257812 182.15625 184.035156 182.953125 " fill-opacity="1" fill-rule="nonzero"/><path fill="#759b9c" d="M 184.035156 172.449219 L 184.035156 168.285156 L 186.550781 170.4375 L 184.035156 172.449219 " fill-opacity="1" fill-rule="nonzero"/><path fill="#759b9c" d="M 187.769531 191.5 L 184.035156 191.5 L 184.035156 182.953125 C 185.257812 182.15625 186.503906 181.347656 187.769531 180.527344 L 187.769531 191.5 " fill-opacity="1" fill-rule="nonzero"/><path fill="#f4ad2b" d="M 189.367188 193.710938 L 185.632812 193.710938 L 185.632812 144.480469 L 189.367188 144.480469 L 189.367188 193.710938 " fill-opacity="1" fill-rule="nonzero"/><path fill="#446365" d="M 182.257812 166.761719 L 178.144531 163.242188 L 178.144531 152.65625 C 178.144531 152.601562 178.1875 152.558594 178.242188 152.558594 L 182.160156 152.558594 C 182.210938 152.558594 182.257812 152.601562 182.257812 152.65625 L 182.257812 166.761719 " fill-opacity="1" fill-rule="nonzero"/><path fill="#446365" d="M 178.144531 186.777344 L 178.144531 177.160156 L 182.257812 173.871094 L 182.257812 184.105469 C 180.851562 185.019531 179.480469 185.910156 178.144531 186.777344 " fill-opacity="1" fill-rule="nonzero"/><path fill="#54777c" d="M 178.144531 177.160156 L 178.144531 163.242188 L 182.257812 166.761719 L 182.257812 173.871094 L 178.144531 177.160156 " fill-opacity="1" fill-rule="nonzero"/><path fill="#54777c" d="M 182.160156 186.882812 L 178.242188 186.882812 C 178.1875 186.882812 178.144531 186.835938 178.144531 186.785156 L 178.144531 186.777344 C 179.480469 185.910156 180.851562 185.019531 182.257812 184.105469 L 182.257812 186.785156 C 182.257812 186.835938 182.210938 186.882812 182.160156 186.882812 " fill-opacity="1" fill-rule="nonzero"/><path fill="#587c80" d="M 182.601562 185.710938 L 178.6875 185.710938 C 178.632812 185.710938 178.589844 185.667969 178.589844 185.613281 L 178.589844 151.488281 C 178.589844 151.433594 178.632812 151.390625 178.6875 151.390625 L 182.601562 151.390625 C 182.65625 151.390625 182.699219 151.433594 182.699219 151.488281 L 182.699219 185.613281 C 182.699219 185.667969 182.65625 185.710938 182.601562 185.710938 " fill-opacity="1" fill-rule="nonzero"/><path fill="#35474a" d="M 193.773438 176.625 L 192.757812 175.753906 L 192.757812 165.476562 L 196.867188 162.1875 L 196.867188 174.613281 C 195.828125 175.289062 194.796875 175.960938 193.773438 176.625 " fill-opacity="1" fill-rule="nonzero"/><path fill="#446365" d="M 192.757812 165.476562 L 192.757812 152.65625 C 192.757812 152.601562 192.800781 152.558594 192.855469 152.558594 L 196.769531 152.558594 C 196.824219 152.558594 196.867188 152.601562 196.867188 152.65625 L 196.867188 162.1875 L 192.757812 165.476562 " fill-opacity="1" fill-rule="nonzero"/><path fill="#446365" d="M 196.867188 179.273438 L 193.773438 176.625 C 194.796875 175.960938 195.828125 175.289062 196.867188 174.613281 L 196.867188 179.273438 " fill-opacity="1" fill-rule="nonzero"/><path fill="#446365" d="M 196.769531 186.882812 L 195.769531 186.882812 L 196.867188 186.230469 L 196.867188 186.785156 C 196.867188 186.835938 196.824219 186.882812 196.769531 186.882812 M 192.757812 177.285156 L 192.757812 175.753906 L 193.773438 176.625 C 193.433594 176.847656 193.09375 177.066406 192.757812 177.285156 " fill-opacity="1" fill-rule="nonzero"/><path fill="#54777c" d="M 195.769531 186.882812 L 192.855469 186.882812 C 192.800781 186.882812 192.757812 186.835938 192.757812 186.785156 L 192.757812 177.285156 C 193.09375 177.066406 193.433594 176.847656 193.773438 176.625 L 196.867188 179.273438 L 196.867188 186.230469 L 195.769531 186.882812 " fill-opacity="1" fill-rule="nonzero"/><path fill="#587c80" d="M 197.214844 185.710938 L 193.296875 185.710938 C 193.242188 185.710938 193.199219 185.667969 193.199219 185.613281 L 193.199219 151.488281 C 193.199219 151.433594 193.242188 151.390625 193.296875 151.390625 L 197.214844 151.390625 C 197.269531 151.390625 197.3125 151.433594 197.3125 151.488281 L 197.3125 185.613281 C 197.3125 185.667969 197.269531 185.710938 197.214844 185.710938 " fill-opacity="1" fill-rule="nonzero"/><g clip-path="url(#e2be8107fc)"><path fill="#f1faf4" d="M 258.234375 214.324219 C 258.234375 214.324219 258.234375 214.324219 258.238281 214.324219 C 258.234375 214.324219 258.234375 214.324219 258.234375 214.324219 M 112.5 146.191406 L 112.5 146.191406 " fill-opacity="1" fill-rule="nonzero"/></g><g clip-path="url(#8d78b3646f)"><path fill="#def3e5" d="M 116.695312 214.324219 C 116.691406 214.324219 116.683594 214.324219 116.679688 214.324219 C 116.683594 214.324219 116.691406 214.324219 116.695312 214.324219 M 116.679688 214.324219 C 116.671875 214.324219 116.660156 214.324219 116.652344 214.324219 C 116.660156 214.324219 116.671875 214.324219 116.679688 214.324219 M 116.636719 214.324219 C 116.632812 214.324219 116.628906 214.324219 116.625 214.324219 C 116.628906 214.324219 116.632812 214.324219 116.636719 214.324219 M 116.625 214.324219 C 116.605469 214.324219 116.585938 214.320312 116.570312 214.320312 C 116.585938 214.320312 116.605469 214.324219 116.625 214.324219 M 116.570312 214.320312 C 116.535156 214.320312 116.5 214.316406 116.46875 214.316406 C 116.5 214.316406 116.535156 214.320312 116.570312 214.320312 M 116.464844 214.316406 C 116.214844 214.296875 115.96875 214.257812 115.734375 214.199219 C 115.96875 214.257812 116.214844 214.296875 116.464844 214.316406 M 115.734375 214.199219 C 115.730469 214.199219 115.730469 214.195312 115.726562 214.195312 C 115.730469 214.195312 115.730469 214.199219 115.734375 214.199219 M 115.726562 214.195312 C 115.722656 214.195312 115.722656 214.195312 115.722656 214.195312 C 115.722656 214.195312 115.722656 214.195312 115.726562 214.195312 M 115.71875 214.195312 C 115.71875 214.195312 115.714844 214.195312 115.714844 214.195312 C 115.714844 214.195312 115.71875 214.195312 115.71875 214.195312 M 115.714844 214.191406 C 115.710938 214.191406 115.710938 214.191406 115.707031 214.191406 C 115.710938 214.191406 115.710938 214.191406 115.714844 214.191406 M 115.707031 214.191406 C 115.707031 214.191406 115.703125 214.191406 115.703125 214.191406 C 115.703125 214.191406 115.707031 214.191406 115.707031 214.191406 M 115.699219 214.191406 C 115.699219 214.191406 115.699219 214.1875 115.699219 214.1875 C 115.699219 214.191406 115.699219 214.191406 115.699219 214.191406 M 115.695312 214.1875 C 115.695312 214.1875 115.691406 214.1875 115.691406 214.1875 C 115.691406 214.1875 115.691406 214.1875 115.695312 214.1875 M 115.6875 214.1875 L 115.6875 214.1875 M 115.679688 214.183594 L 115.679688 214.183594 M 115.675781 214.183594 C 115.675781 214.183594 115.671875 214.183594 115.671875 214.183594 C 115.671875 214.183594 115.675781 214.183594 115.675781 214.183594 M 115.667969 214.179688 L 115.667969 214.179688 M 112.5 210.089844 C 112.5 210.085938 112.5 210.078125 112.5 210.070312 C 112.5 210.078125 112.5 210.085938 112.5 210.089844 " fill-opacity="1" fill-rule="nonzero"/></g><g clip-path="url(#3832c24c8a)"><path fill="#80b198" d="M 254.015625 214.324219 L 240.292969 214.324219 L 240.292969 212.246094 L 254.121094 212.246094 L 254.121094 213.808594 C 254.121094 213.992188 254.039062 214.148438 254.015625 214.324219 M 238.664062 214.324219 L 116.773438 214.324219 C 116.765625 214.324219 116.753906 214.324219 116.746094 214.324219 C 116.738281 214.324219 116.726562 214.324219 116.71875 214.324219 C 116.710938 214.324219 116.703125 214.324219 116.695312 214.324219 C 116.691406 214.324219 116.683594 214.324219 116.679688 214.324219 C 116.671875 214.324219 116.660156 214.324219 116.652344 214.324219 C 116.648438 214.324219 116.640625 214.324219 116.636719 214.324219 C 116.632812 214.324219 116.628906 214.324219 116.625 214.324219 C 116.605469 214.324219 116.585938 214.320312 116.570312 214.320312 C 116.535156 214.320312 116.5 214.316406 116.46875 214.316406 C 116.46875 214.316406 116.46875 214.316406 116.464844 214.316406 C 116.214844 214.296875 115.96875 214.257812 115.734375 214.199219 C 115.730469 214.199219 115.730469 214.195312 115.726562 214.195312 C 115.722656 214.195312 115.722656 214.195312 115.722656 214.195312 C 115.71875 214.195312 115.71875 214.195312 115.71875 214.195312 C 115.71875 214.195312 115.714844 214.195312 115.714844 214.195312 C 115.714844 214.195312 115.714844 214.195312 115.714844 214.191406 C 115.710938 214.191406 115.710938 214.191406 115.707031 214.191406 C 115.707031 214.191406 115.703125 214.191406 115.703125 214.191406 C 115.703125 214.191406 115.703125 214.191406 115.699219 214.191406 C 115.699219 214.191406 115.699219 214.191406 115.699219 214.1875 C 115.695312 214.1875 115.695312 214.1875 115.695312 214.1875 C 115.691406 214.1875 115.691406 214.1875 115.691406 214.1875 C 115.691406 214.1875 115.6875 214.1875 115.6875 214.1875 C 115.683594 214.1875 115.683594 214.183594 115.679688 214.183594 C 115.679688 214.183594 115.675781 214.183594 115.675781 214.183594 C 115.675781 214.183594 115.671875 214.183594 115.671875 214.183594 C 115.671875 214.183594 115.671875 214.183594 115.667969 214.179688 C 113.859375 213.695312 112.523438 212.050781 112.5 210.089844 C 112.5 210.085938 112.5 210.078125 112.5 210.070312 C 112.5 210.0625 112.5 210.050781 112.5 210.042969 L 112.5 146.199219 C 112.5 146.199219 112.5 146.195312 112.5 146.191406 C 112.503906 145.164062 112.882812 144.242188 113.496094 143.523438 C 113.023438 144.132812 112.707031 144.875 112.605469 145.683594 L 114.367188 145.683594 L 114.367188 207.964844 C 114.367188 210.332031 116.28125 212.246094 118.640625 212.246094 L 238.664062 212.246094 L 238.664062 214.324219 " fill-opacity="1" fill-rule="nonzero"/></g><g clip-path="url(#82c835066a)"><path fill="#94c8aa" d="M 258.226562 214.324219 L 254.015625 214.324219 C 254.039062 214.148438 254.121094 213.992188 254.121094 213.808594 L 254.121094 212.246094 L 260.089844 212.246094 C 260.867188 212.246094 261.554688 211.984375 262.183594 211.625 C 261.554688 213.195312 260.042969 214.3125 258.257812 214.324219 C 258.253906 214.324219 258.25 214.324219 258.246094 214.324219 C 258.242188 214.324219 258.238281 214.324219 258.238281 214.324219 C 258.234375 214.324219 258.234375 214.324219 258.234375 214.324219 C 258.230469 214.324219 258.226562 214.324219 258.226562 214.324219 " fill-opacity="1" fill-rule="nonzero"/></g><g clip-path="url(#1fcdbb2c04)"><path fill="#94c8aa" d="M 114.367188 145.683594 L 112.605469 145.683594 C 112.707031 144.875 113.023438 144.132812 113.496094 143.523438 C 113.832031 143.132812 114.234375 142.800781 114.683594 142.539062 C 114.488281 143.03125 114.367188 143.5625 114.367188 144.121094 L 114.367188 145.683594 " fill-opacity="1" fill-rule="nonzero"/></g><path fill="#476a5b" d="M 145.480469 188.566406 L 125.226562 188.566406 L 125.226562 186.882812 L 145.621094 186.882812 L 145.621094 188.425781 C 145.621094 188.5 145.558594 188.566406 145.480469 188.566406 " fill-opacity="1" fill-rule="nonzero"/><path fill="#406355" d="M 125.226562 188.566406 L 122.203125 188.566406 C 122.128906 188.566406 122.066406 188.5 122.066406 188.425781 L 122.066406 148.679688 C 122.066406 148.601562 122.128906 148.539062 122.203125 148.539062 L 122.730469 148.539062 L 122.730469 186.742188 C 122.730469 186.820312 122.792969 186.882812 122.871094 186.882812 L 125.226562 186.882812 L 125.226562 188.566406 " fill-opacity="1" fill-rule="nonzero"/><path fill="#f4ad2b" d="M 146.148438 186.882812 L 122.871094 186.882812 C 122.792969 186.882812 122.730469 186.820312 122.730469 186.742188 L 122.730469 146.992188 C 122.730469 146.917969 122.792969 146.855469 122.871094 146.855469 L 146.148438 146.855469 C 146.226562 146.855469 146.289062 146.917969 146.289062 146.992188 L 146.289062 186.742188 C 146.289062 186.820312 146.226562 186.882812 146.148438 186.882812 " fill-opacity="1" fill-rule="nonzero"/><path fill="#eb841a" d="M 143.871094 186.882812 L 125.148438 186.882812 C 123.8125 186.882812 122.730469 185.796875 122.730469 184.460938 L 122.730469 149.277344 C 122.730469 148.402344 123.214844 147.675781 123.90625 147.25 C 123.875 147.40625 123.8125 147.550781 123.8125 147.71875 L 123.8125 182.902344 C 123.8125 184.238281 124.894531 185.320312 126.226562 185.320312 L 144.949219 185.320312 C 145.414062 185.320312 145.824219 185.15625 146.191406 184.929688 C 145.96875 186.035156 145.039062 186.882812 143.871094 186.882812 " fill-opacity="1" fill-rule="nonzero"/><path fill="#446165" d="M 144.8125 169.71875 L 124.207031 169.71875 C 124.15625 169.71875 124.113281 169.679688 124.113281 169.625 L 124.113281 148.980469 C 124.113281 148.925781 124.15625 148.882812 124.207031 148.882812 L 144.8125 148.882812 C 144.863281 148.882812 144.90625 148.925781 144.90625 148.980469 L 144.90625 169.625 C 144.90625 169.679688 144.863281 169.71875 144.8125 169.71875 " fill-opacity="1" fill-rule="nonzero"/><path fill="#35474a" d="M 143.308594 169.71875 L 143.054688 169.71875 L 143.054688 165.753906 L 144.90625 164.886719 L 144.90625 168.078125 C 144.90625 168.972656 144.195312 169.699219 143.308594 169.71875 M 143.054688 160.335938 L 143.054688 155.246094 L 144.90625 154.132812 L 144.90625 159.355469 C 144.292969 159.679688 143.675781 160.007812 143.054688 160.335938 M 129.890625 150.769531 L 124.113281 150.769531 L 124.113281 150.527344 C 124.113281 149.621094 124.847656 148.882812 125.75 148.882812 L 143.269531 148.882812 C 143.316406 148.882812 143.363281 148.886719 143.410156 148.890625 C 143.363281 148.886719 143.316406 148.882812 143.269531 148.882812 L 131.707031 148.882812 L 129.890625 150.769531 " fill-opacity="1" fill-rule="nonzero"/><path fill="#698f92" d="M 134.582031 169.71875 L 125.75 169.71875 C 125.609375 169.71875 125.476562 169.671875 125.34375 169.636719 C 129.867188 167.277344 136.585938 163.757812 143.054688 160.335938 L 143.054688 165.753906 L 134.582031 169.71875 " fill-opacity="1" fill-rule="nonzero"/><path fill="#56787d" d="M 143.054688 165.753906 L 143.054688 160.335938 C 143.675781 160.007812 144.292969 159.679688 144.90625 159.355469 L 144.90625 164.886719 L 143.054688 165.753906 " fill-opacity="1" fill-rule="nonzero"/><path fill="#698f92" d="M 124.113281 166.613281 L 124.113281 156.761719 L 129.890625 150.769531 L 141.414062 150.769531 C 142.320312 150.769531 143.054688 151.503906 143.054688 152.410156 L 143.054688 155.246094 L 124.113281 166.613281 M 144.90625 154.132812 L 144.90625 150.527344 C 144.90625 149.667969 144.246094 148.960938 143.410156 148.890625 C 144.246094 148.960938 144.90625 149.667969 144.90625 150.527344 L 144.90625 154.132812 " fill-opacity="1" fill-rule="nonzero"/><path fill="#56787d" d="M 143.054688 155.246094 L 143.054688 152.410156 C 143.054688 151.503906 142.320312 150.769531 141.414062 150.769531 L 129.890625 150.769531 L 131.707031 148.882812 L 143.269531 148.882812 C 143.316406 148.882812 143.363281 148.886719 143.410156 148.890625 C 144.246094 148.960938 144.90625 149.667969 144.90625 150.527344 L 144.90625 154.132812 L 143.054688 155.246094 " fill-opacity="1" fill-rule="nonzero"/><path fill="#6c9683" d="M 128.597656 173.871094 L 124.503906 173.871094 L 124.476562 173.84375 L 124.476562 171.820312 L 124.503906 171.792969 L 128.597656 171.792969 L 128.625 171.820312 L 128.625 173.84375 L 128.597656 173.871094 " fill-opacity="1" fill-rule="nonzero"/><path fill="#6c9683" d="M 134.15625 173.871094 L 130.0625 173.871094 L 130.035156 173.84375 L 130.035156 171.820312 L 130.0625 171.792969 L 134.15625 171.792969 L 134.183594 171.820312 L 134.183594 173.84375 L 134.15625 173.871094 " fill-opacity="1" fill-rule="nonzero"/><path fill="#6c9683" d="M 139.710938 173.871094 L 135.617188 173.871094 L 135.589844 173.84375 L 135.589844 171.820312 L 135.617188 171.792969 L 139.710938 171.792969 L 139.738281 171.820312 L 139.738281 173.84375 L 139.710938 173.871094 " fill-opacity="1" fill-rule="nonzero"/><path fill="#6c9683" d="M 145.265625 173.871094 L 141.171875 173.871094 L 141.144531 173.84375 L 141.144531 171.820312 L 141.171875 171.792969 L 145.265625 171.792969 L 145.292969 171.820312 L 145.292969 173.84375 L 145.265625 173.871094 " fill-opacity="1" fill-rule="nonzero"/><path fill="#6c9683" d="M 128.597656 176.546875 L 124.503906 176.546875 L 124.476562 176.519531 L 124.476562 174.492188 L 124.503906 174.464844 L 128.597656 174.464844 L 128.625 174.492188 L 128.625 176.519531 L 128.597656 176.546875 " fill-opacity="1" fill-rule="nonzero"/><path fill="#6c9683" d="M 134.15625 176.546875 L 130.0625 176.546875 L 130.035156 176.519531 L 130.035156 174.492188 L 130.0625 174.464844 L 134.15625 174.464844 L 134.183594 174.492188 L 134.183594 176.519531 L 134.15625 176.546875 " fill-opacity="1" fill-rule="nonzero"/><path fill="#6c9683" d="M 139.710938 176.546875 L 135.617188 176.546875 L 135.589844 176.519531 L 135.589844 174.492188 L 135.617188 174.464844 L 139.710938 174.464844 L 139.738281 174.492188 L 139.738281 176.519531 L 139.710938 176.546875 " fill-opacity="1" fill-rule="nonzero"/><path fill="#6c9683" d="M 145.265625 176.546875 L 141.171875 176.546875 L 141.144531 176.519531 L 141.144531 174.492188 L 141.171875 174.464844 L 145.265625 174.464844 L 145.292969 174.492188 L 145.292969 176.519531 L 145.265625 176.546875 " fill-opacity="1" fill-rule="nonzero"/><path fill="#6c9683" d="M 128.597656 179.21875 L 124.503906 179.21875 L 124.476562 179.191406 L 124.476562 177.167969 L 124.503906 177.140625 L 128.597656 177.140625 L 128.625 177.167969 L 128.625 179.191406 L 128.597656 179.21875 " fill-opacity="1" fill-rule="nonzero"/><path fill="#6c9683" d="M 134.15625 179.21875 L 130.0625 179.21875 L 130.035156 179.191406 L 130.035156 177.167969 L 130.0625 177.140625 L 134.15625 177.140625 L 134.183594 177.167969 L 134.183594 179.191406 L 134.15625 179.21875 " fill-opacity="1" fill-rule="nonzero"/><path fill="#6c9683" d="M 139.710938 179.21875 L 135.617188 179.21875 L 135.589844 179.191406 L 135.589844 177.167969 L 135.617188 177.140625 L 139.710938 177.140625 L 139.738281 177.167969 L 139.738281 179.191406 L 139.710938 179.21875 " fill-opacity="1" fill-rule="nonzero"/><path fill="#6c9683" d="M 145.265625 179.21875 L 141.171875 179.21875 L 141.144531 179.191406 L 141.144531 177.167969 L 141.171875 177.140625 L 145.265625 177.140625 L 145.292969 177.167969 L 145.292969 179.191406 L 145.265625 179.21875 " fill-opacity="1" fill-rule="nonzero"/><path fill="#6c9683" d="M 128.597656 181.890625 L 124.503906 181.890625 L 124.476562 181.863281 L 124.476562 179.839844 L 124.503906 179.8125 L 128.597656 179.8125 L 128.625 179.839844 L 128.625 181.863281 L 128.597656 181.890625 " fill-opacity="1" fill-rule="nonzero"/><path fill="#6c9683" d="M 134.15625 181.890625 L 130.0625 181.890625 L 130.035156 181.863281 L 130.035156 179.839844 L 130.0625 179.8125 L 134.15625 179.8125 L 134.183594 179.839844 L 134.183594 181.863281 L 134.15625 181.890625 " fill-opacity="1" fill-rule="nonzero"/><path fill="#6c9683" d="M 139.710938 181.890625 L 135.617188 181.890625 L 135.589844 181.863281 L 135.589844 179.839844 L 135.617188 179.8125 L 139.710938 179.8125 L 139.738281 179.839844 L 139.738281 181.863281 L 139.710938 181.890625 " fill-opacity="1" fill-rule="nonzero"/><path fill="#6c9683" d="M 145.265625 181.890625 L 141.171875 181.890625 L 141.144531 181.863281 L 141.144531 179.839844 L 141.171875 179.8125 L 145.265625 179.8125 L 145.292969 179.839844 L 145.292969 181.863281 L 145.265625 181.890625 " fill-opacity="1" fill-rule="nonzero"/><path fill="#437d66" d="M 238.664062 201.105469 L 239.480469 201.105469 L 239.480469 145.683594 L 238.664062 145.683594 Z M 238.664062 201.105469 " fill-opacity="1" fill-rule="nonzero"/><g clip-path="url(#d9509f78fe)"><path fill="#569379" d="M 239.480469 145.683594 L 238.664062 145.683594 L 238.664062 141.914062 L 239.480469 141.917969 L 239.480469 145.683594 " fill-opacity="1" fill-rule="nonzero"/></g><path fill="#3b7660" d="M 238.664062 212.246094 L 239.480469 212.246094 L 239.480469 201.105469 L 238.664062 201.105469 Z M 238.664062 212.246094 " fill-opacity="1" fill-rule="nonzero"/><path fill="#4e8d76" d="M 238.664062 214.324219 L 239.480469 214.324219 L 239.480469 212.246094 L 238.664062 212.246094 Z M 238.664062 214.324219 " fill-opacity="1" fill-rule="nonzero"/><path fill="#2b6c52" d="M 239.480469 201.105469 L 240.292969 201.105469 L 240.292969 145.683594 L 239.480469 145.683594 Z M 239.480469 201.105469 " fill-opacity="1" fill-rule="nonzero"/><g clip-path="url(#12191d4ee6)"><path fill="#357a5f" d="M 240.292969 145.683594 L 239.480469 145.683594 L 239.480469 141.914062 L 240.292969 141.917969 L 240.292969 145.683594 " fill-opacity="1" fill-rule="nonzero"/></g><path fill="#27674f" d="M 239.480469 212.246094 L 240.292969 212.246094 L 240.292969 201.105469 L 239.480469 201.105469 Z M 239.480469 212.246094 " fill-opacity="1" fill-rule="nonzero"/><path fill="#31765e" d="M 239.480469 214.324219 L 240.292969 214.324219 L 240.292969 212.246094 L 239.480469 212.246094 Z M 239.480469 214.324219 " fill-opacity="1" fill-rule="nonzero"/></svg>