<svg xmlns="http://www.w3.org/2000/svg" xmlns:xlink="http://www.w3.org/1999/xlink" width="500" zoomAndPan="magnify" viewBox="0 0 375 374.999991" height="500" preserveAspectRatio="xMidYMid meet" version="1.0"><defs><clipPath id="f986d2a294"><path d="M 153 11.484375 L 189 11.484375 L 189 13 L 153 13 Z M 153 11.484375 " clip-rule="nonzero"/></clipPath><clipPath id="7b430c28f1"><path d="M 153 11.484375 L 320 11.484375 L 320 149 L 153 149 Z M 153 11.484375 " clip-rule="nonzero"/></clipPath><clipPath id="24a0c407b7"><path d="M 168 184 L 353 184 L 353 363.234375 L 168 363.234375 Z M 168 184 " clip-rule="nonzero"/></clipPath></defs><path fill="#78cb43" d="M 141.753906 12.613281 C 105.941406 14.613281 62.332031 109.167969 62.332031 109.167969 L 115.945312 110.652344 L 147.507812 148.523438 L 188.398438 69.8125 L 188.800781 69.402344 C 173.023438 43.71875 154.753906 14.03125 153.460938 12.09375 C 149.425781 12.230469 145.5 12.402344 141.753906 12.613281 " fill-opacity="1" fill-rule="nonzero"/><path fill="#78cb43" d="M 244.589844 12.613281 C 244.589844 12.613281 244.148438 12.597656 243.328125 12.566406 C 243.742188 12.597656 244.148438 12.625 244.550781 12.65625 L 244.589844 12.613281 " fill-opacity="1" fill-rule="nonzero"/><g clip-path="url(#f986d2a294)"><path fill="#78cb43" d="M 153.492188 12.09375 C 154.132812 12.078125 169.742188 11.714844 188.667969 11.601562 C 176.992188 11.582031 164.800781 11.710938 153.492188 12.09375 " fill-opacity="1" fill-rule="nonzero"/></g><g clip-path="url(#7b430c28f1)"><path fill="#2c8748" d="M 281.027344 71.46875 C 281.027344 71.46875 272.96875 15.113281 246.496094 12.8125 C 245.871094 12.757812 245.214844 12.707031 244.546875 12.65625 C 244.148438 12.625 243.746094 12.597656 243.328125 12.566406 C 229.421875 11.613281 207.425781 11.484375 188.671875 11.597656 C 169.742188 11.714844 154.132812 12.078125 153.492188 12.09375 L 153.460938 12.09375 C 154.753906 14.035156 173.023438 43.71875 188.800781 69.402344 C 201.144531 89.488281 211.96875 107.121094 211.96875 107.121094 L 162.46875 137.023438 L 283.328125 148.523438 L 319.011719 50.765625 L 281.027344 71.46875 " fill-opacity="1" fill-rule="nonzero"/></g><path fill="#78cb43" d="M 157.738281 282.042969 L 178.152344 237.949219 L 89.460938 241.273438 L 88.90625 241.125 C 74.34375 267.519531 57.523438 298.046875 56.472656 300.128906 C 58.585938 303.566406 60.671875 306.894531 62.707031 310.046875 C 82.125 340.175781 185.949219 331.390625 185.949219 331.390625 L 157.738281 282.042969 " fill-opacity="1" fill-rule="nonzero"/><path fill="#78cb43" d="M 11.9375 220.683594 C 11.9375 220.683594 12.140625 221.078125 12.519531 221.800781 C 12.339844 221.425781 12.167969 221.0625 11.996094 220.703125 L 11.9375 220.683594 " fill-opacity="1" fill-rule="nonzero"/><path fill="#78cb43" d="M 56.457031 300.105469 C 56.152344 299.589844 48.117188 286.1875 38.660156 269.773438 C 44.40625 279.929688 50.539062 290.460938 56.457031 300.105469 " fill-opacity="1" fill-rule="nonzero"/><path fill="#2c8748" d="M 110.296875 202.378906 L 160.757812 230.625 L 111.101562 119.929688 L 8.40625 137.183594 L 45.175781 159.96875 C 45.175781 159.96875 0.105469 194.792969 11.171875 218.929688 C 11.429688 219.5 11.710938 220.09375 11.996094 220.703125 C 12.167969 221.0625 12.339844 221.425781 12.519531 221.800781 C 18.554688 234.355469 29.300781 253.535156 38.660156 269.773438 C 48.117188 286.1875 56.152344 299.589844 56.457031 300.105469 L 56.472656 300.128906 C 57.523438 298.046875 74.34375 267.519531 88.90625 241.125 C 100.292969 220.488281 110.296875 202.378906 110.296875 202.378906 " fill-opacity="1" fill-rule="nonzero"/><path fill="#78cb43" d="M 316.664062 113.71875 L 289.171875 156.242188 L 238.78125 166.023438 L 284.871094 241.8125 L 285.011719 242.367188 C 315.175781 242.226562 350.054688 242.039062 352.378906 241.941406 C 354.359375 238.425781 356.253906 234.984375 358.015625 231.675781 C 374.898438 200.054688 316.664062 113.71875 316.664062 113.71875 " fill-opacity="1" fill-rule="nonzero"/><path fill="#78cb43" d="M 352.367188 241.96875 C 352.078125 242.472656 344.273438 256.011719 334.527344 272.265625 C 340.601562 262.304688 346.828125 251.824219 352.367188 241.96875 " fill-opacity="1" fill-rule="nonzero"/><path fill="#78cb43" d="M 304.625 319.496094 C 304.625 319.496094 304.871094 319.125 305.320312 318.441406 C 305.078125 318.777344 304.84375 319.109375 304.613281 319.4375 L 304.625 319.496094 " fill-opacity="1" fill-rule="nonzero"/><g clip-path="url(#24a0c407b7)"><path fill="#2c8748" d="M 240.730469 242.566406 L 240.851562 184.773438 L 168.265625 282.011719 L 233.355469 363.238281 L 235.367188 320.050781 C 235.367188 320.050781 287.753906 342.429688 303.46875 321.019531 C 303.835938 320.511719 304.222656 319.980469 304.609375 319.4375 C 304.84375 319.113281 305.078125 318.777344 305.316406 318.441406 C 313.355469 307.058594 324.890625 288.339844 334.527344 272.265625 C 344.273438 256.011719 352.074219 242.472656 352.371094 241.96875 L 352.382812 241.941406 C 350.054688 242.039062 315.175781 242.222656 285.015625 242.367188 C 261.429688 242.480469 240.730469 242.566406 240.730469 242.566406 " fill-opacity="1" fill-rule="nonzero"/></g></svg>