<svg xmlns="http://www.w3.org/2000/svg" xmlns:xlink="http://www.w3.org/1999/xlink" width="500" zoomAndPan="magnify" viewBox="0 0 375 374.999991" height="500" preserveAspectRatio="xMidYMid meet" version="1.0"><defs><clipPath id="a5f8431025"><path d="M 137 117.09375 L 189 117.09375 L 189 173 L 137 173 Z M 137 117.09375 " clip-rule="nonzero"/></clipPath><clipPath id="d6790911ed"><path d="M 209 117.09375 L 211 117.09375 L 211 118 L 209 118 Z M 209 117.09375 " clip-rule="nonzero"/></clipPath><clipPath id="dba1c802ec"><path d="M 173 117.09375 L 188 117.09375 L 188 118 L 173 118 Z M 173 117.09375 " clip-rule="nonzero"/></clipPath><clipPath id="8dd04d453e"><path d="M 173 117.09375 L 241 117.09375 L 241 173 L 173 173 Z M 173 117.09375 " clip-rule="nonzero"/></clipPath><clipPath id="5f171482aa"><path d="M 179 186 L 254 186 L 254 258.09375 L 179 258.09375 Z M 179 186 " clip-rule="nonzero"/></clipPath></defs><g clip-path="url(#a5f8431025)"><path fill="#78cb43" d="M 169.199219 117.546875 C 154.875 118.347656 137.433594 156.25 137.433594 156.25 L 158.878906 156.84375 L 171.503906 172.027344 L 187.859375 140.476562 L 188.019531 140.308594 C 181.707031 130.015625 174.402344 118.113281 173.882812 117.339844 C 172.269531 117.394531 170.699219 117.460938 169.199219 117.546875 " fill-opacity="1" fill-rule="nonzero"/></g><g clip-path="url(#d6790911ed)"><path fill="#78cb43" d="M 210.335938 117.546875 C 210.335938 117.546875 210.160156 117.539062 209.832031 117.527344 C 209.996094 117.539062 210.160156 117.550781 210.320312 117.5625 L 210.335938 117.546875 " fill-opacity="1" fill-rule="nonzero"/></g><g clip-path="url(#dba1c802ec)"><path fill="#78cb43" d="M 173.898438 117.339844 C 174.152344 117.332031 180.398438 117.1875 187.96875 117.140625 C 183.296875 117.132812 178.421875 117.183594 173.898438 117.339844 " fill-opacity="1" fill-rule="nonzero"/></g><g clip-path="url(#8dd04d453e)"><path fill="#2c8748" d="M 224.910156 141.136719 C 224.910156 141.136719 221.6875 118.546875 211.097656 117.625 C 210.847656 117.605469 210.585938 117.582031 210.320312 117.5625 C 210.160156 117.550781 209.996094 117.539062 209.832031 117.527344 C 204.269531 117.144531 195.46875 117.09375 187.96875 117.140625 C 180.398438 117.183594 174.152344 117.332031 173.898438 117.335938 L 173.882812 117.339844 C 174.402344 118.117188 181.707031 130.015625 188.019531 140.3125 C 192.957031 148.363281 197.285156 155.429688 197.285156 155.429688 L 177.488281 167.417969 L 225.832031 172.027344 L 240.105469 132.839844 L 224.910156 141.136719 " fill-opacity="1" fill-rule="nonzero"/></g><path fill="#78cb43" d="M 175.597656 225.546875 L 183.761719 207.875 L 148.285156 209.207031 L 148.0625 209.144531 C 142.238281 219.726562 135.507812 231.964844 135.089844 232.796875 C 135.933594 234.175781 136.769531 235.507812 137.582031 236.773438 C 145.351562 248.851562 186.878906 245.328125 186.878906 245.328125 L 175.597656 225.546875 " fill-opacity="1" fill-rule="nonzero"/><path fill="#78cb43" d="M 117.273438 200.953125 C 117.273438 200.953125 117.355469 201.109375 117.507812 201.398438 C 117.4375 201.25 117.367188 201.105469 117.296875 200.957031 L 117.273438 200.953125 " fill-opacity="1" fill-rule="nonzero"/><path fill="#78cb43" d="M 135.082031 232.789062 C 134.960938 232.582031 131.746094 227.210938 127.964844 220.628906 C 130.261719 224.699219 132.714844 228.921875 135.082031 232.789062 " fill-opacity="1" fill-rule="nonzero"/><path fill="#2c8748" d="M 156.617188 193.613281 L 176.804688 204.9375 L 156.941406 160.5625 L 115.863281 167.480469 L 130.570312 176.613281 C 130.570312 176.613281 112.542969 190.574219 116.96875 200.25 C 117.074219 200.476562 117.183594 200.714844 117.296875 200.957031 C 117.367188 201.105469 117.4375 201.25 117.507812 201.398438 C 119.921875 206.433594 124.21875 214.121094 127.964844 220.628906 C 131.746094 227.210938 134.960938 232.582031 135.082031 232.789062 L 135.089844 232.796875 C 135.507812 231.964844 142.238281 219.726562 148.0625 209.144531 C 152.617188 200.875 156.617188 193.613281 156.617188 193.613281 " fill-opacity="1" fill-rule="nonzero"/><path fill="#78cb43" d="M 239.167969 158.074219 L 228.167969 175.121094 L 208.011719 179.042969 L 226.449219 209.421875 L 226.503906 209.644531 C 238.570312 209.585938 252.519531 209.511719 253.453125 209.472656 C 254.242188 208.0625 255 206.683594 255.707031 205.355469 C 262.460938 192.683594 239.167969 158.074219 239.167969 158.074219 " fill-opacity="1" fill-rule="nonzero"/><path fill="#78cb43" d="M 253.449219 209.484375 C 253.332031 209.6875 250.210938 215.113281 246.3125 221.628906 C 248.742188 217.636719 251.230469 213.433594 253.449219 209.484375 " fill-opacity="1" fill-rule="nonzero"/><path fill="#78cb43" d="M 234.351562 240.5625 C 234.351562 240.5625 234.449219 240.410156 234.628906 240.136719 C 234.53125 240.273438 234.4375 240.40625 234.34375 240.539062 L 234.351562 240.5625 " fill-opacity="1" fill-rule="nonzero"/><g clip-path="url(#5f171482aa)"><path fill="#2c8748" d="M 208.792969 209.722656 L 208.839844 186.558594 L 179.804688 225.535156 L 205.84375 258.09375 L 206.648438 240.785156 C 206.648438 240.785156 227.601562 249.753906 233.886719 241.171875 C 234.035156 240.96875 234.1875 240.757812 234.34375 240.539062 C 234.4375 240.40625 234.53125 240.273438 234.628906 240.136719 C 237.84375 235.578125 242.457031 228.074219 246.3125 221.628906 C 250.210938 215.113281 253.332031 209.6875 253.449219 209.484375 L 253.453125 209.472656 C 252.523438 209.511719 238.570312 209.585938 226.507812 209.644531 C 217.070312 209.6875 208.792969 209.722656 208.792969 209.722656 " fill-opacity="1" fill-rule="nonzero"/></g></svg>